<svg xmlns="http://www.w3.org/2000/svg" viewBox="0 0 342.3 41.8" enable-background="new 0 0 342.3 41.8"><path fill="#3199BB" d="M-1.4 43c0-22.1 30.6-40 68.3-40 21.8 0 41.1 6 53.6 15.2 4.9-3.7 10.9-6 17.5-6 10.5 0 19.7 5.6 24.7 14 9.7-8.8 22.5-14.1 36.6-14.1 15.2 0 29 6.3 38.9 16.3 9.2-15.5 28.9-26.4 51.9-26.4 31.1 0 56.3 20 57 44.8v-1c0-25.3-25.5-45.8-57-45.8-22.8 0-42.5 10.7-51.6 26.3-9.8-10.5-23.7-17-39.1-17-14.4 0-27.4 5.7-37.1 14.9-4.9-8.9-14.4-14.9-25.2-14.9-6.9 0-13.2 2.4-18.2 6.5-12.5-9.6-32.2-15.8-54.4-15.8-37.7 0-68.3 18.7-68.3 40.8"/><path fill="#E4F3F4" d="M347.1 47.8c0-25.3-25.5-45.8-57-45.8-22.9 0-42.7 10.9-51.8 26.5-9.9-10.1-23.7-16.3-38.9-16.3-14.1 0-26.9 5.3-36.6 14.1-5-8.4-14.2-14-24.7-14-6.6 0-12.7 2.2-17.5 6-12.6-9.3-31.9-15.3-53.7-15.3-37.7 0-68.3 17.9-68.3 40"/><path fill="#D5E380" d="M138.1 69.9"/></svg>