<svg xmlns="http://www.w3.org/2000/svg" viewBox="0 0 255.6 147.4" enable-background="new 0 0 255.6 147.4"><path fill="#65C5B4" d="M19.1 43.3s13.9.7 18.9-2.6c5-3.4 10.2-17.8 30.2-12.6s30.7 21.7 43.1 14.7 14.8-10.7 33.9-.4 33.7 16.8 41 14.2c7.3-2.6 37.4-6.6 42-16.2 4.6-9.6 3.5-21.9 3.5-21.9s8.4 21.2 1.5 29.3c-6.9 8.1-32.6 16.5-47.2 16-14.7-.5-39.9-15.2-50-14.4-10.1.8-21.3 4.4-34.8 4.7-13.4.3-29.3-12-42.1-12.7s-27.5 14.4-34.9 14.1h-14.2l9.1-12.2z"/><path fill="#6BC6B5" d="M19.1 119.4s13.9-.7 18.9 2.6c5 3.4 10.2 17.8 30.2 12.6 20-5.2 30.7-21.7 43.1-14.7s14.8 10.7 33.9.4c19.1-10.3 33.7-16.8 41-14.2 7.3 2.6 37.4 6.6 42 16.2 4.6 9.6 3.5 21.9 3.5 21.9s8.4-21.2 1.5-29.3c-6.9-8.1-32.6-16.5-47.2-16-14.7.5-39.9 15.2-50 14.4s-21.3-4.4-34.8-4.7-29.3 12-42.1 12.7c-12.8.7-27.5-14.6-34.9-14.3-7.4.3-14.2 0-14.2 0l9.1 12.4z"/><g fill="#C1D862"><path d="M125.8 48s-2.3-3.9-7.6-5.1c-5.3-1.2-6.9-2.2-6.9-2.2s6.2-6.3 2.5-10.2l-8-4.3s7.9-3.8 6.3-8.3l-4.6-7.5s3.7 2.2 6-2.1l1-8.4s1.2 4.2 5.2 5.5c4 1.2 5.9 1.9 5.9 1.9s-4.4 2.7-2.7 7.9l8.1 6.1s-5.2 3.8-4 8.1c1.2 4.2 7.2 7.7 7.2 7.7s-9.3 5.9-8.4 10.9zM125.8 47.2l-11-46.2c.6 1.3 2 3.6 4.8 4.5 4 1.2 5.9 1.9 5.9 1.9s-4.4 2.7-2.7 7.9l8.1 6.1s-5.2 3.8-4 8.1c1.2 4.2 7.2 7.7 7.2 7.7s-8.3 5.2-8.3 10z"/></g><path fill="#17B24B" d="M125.8 48s-2.3-3.9-7.6-5.1c-5.3-1.2-6.9-2.2-6.9-2.2s6.2-6.3 2.5-10.2l-8-4.3s7.9-3.8 6.3-8.3l-4.6-7.5s3.7 2.2 6-2.1l1-8.4s1.2 4.2 5.2 5.5c4 1.2 5.9 1.9 5.9 1.9s-4.4 2.7-2.7 7.9l8.1 6.1s-5.2 3.8-4 8.1c1.2 4.2 7.2 7.7 7.2 7.7s-9.3 5.9-8.4 10.9z"/><path fill="#0B7A3D" d="M125.8 47.2l-11-46.2c.6 1.3 2 3.6 4.8 4.5 4 1.2 5.9 1.9 5.9 1.9s-4.4 2.7-2.7 7.9l8.1 6.1s-5.2 3.8-4 8.1c1.2 4.2 7.2 7.7 7.2 7.7s-8.3 5.2-8.3 10z"/><g fill="#C1D862"><path d="M122.2 43.4s-3.4.2-6 3.4l-3.7 3.9s-2.1-6.2-5.9-5.1l-5.5 3.9s.1-6.5-3.4-6.9c-3.5-.4-6.5.6-6.5.6s2.7-1.7.6-4.7-5.3-3.5-5.3-3.5 3.2.6 5.4-1.6l3.2-3.3s.3 3.8 4.3 4.5c4 .6 6.8-3.4 6.8-3.4s.8 4.7 4 5.3c3.2.6 7.5-2.2 7.5-2.2s.8 8.1 4.5 9.1zM121.6 43.2l-34.4-8.2c1.1 0 3.1-.1 4.6-1.7 2.1-2.2 3.2-3.3 3.2-3.3s.3 3.8 4.3 4.5c4 .6 6.8-3.4 6.8-3.4s.8 4.7 4 5.3c3.2.6 7.5-2.2 7.5-2.2s.8 7.3 4 9z"/></g><path fill="#17B24B" d="M122.2 43.4s-3.4.2-6 3.4l-3.7 3.9s-2.1-6.2-5.9-5.1l-5.5 3.9s.1-6.5-3.4-6.9c-3.5-.4-6.5.6-6.5.6s2.7-1.7.6-4.7-5.3-3.5-5.3-3.5 3.2.6 5.4-1.6l3.2-3.3s.3 3.8 4.3 4.5c4 .6 6.8-3.4 6.8-3.4s.8 4.7 4 5.3c3.2.6 7.5-2.2 7.5-2.2s.8 8.1 4.5 9.1z"/><path fill="#0B7A3D" d="M121.6 43.2l-34.4-8.2c1.1 0 3.1-.1 4.6-1.7 2.1-2.2 3.2-3.3 3.2-3.3s.3 3.8 4.3 4.5c4 .6 6.8-3.4 6.8-3.4s.8 4.7 4 5.3c3.2.6 7.5-2.2 7.5-2.2s.8 7.3 4 9z"/><g fill="#C1D862"><path d="M207.1 112s3.4 3 3.5 8.4c.1 5.4.7 7.2.7 7.2s7.4-4.8 10.4-.5c3.1 4.3 2.6 8.7 2.6 8.7s5.3-6.9 9.3-4.5l6.4 6s-1.5-4 3.2-5.5l8.4.7s-3.9-2-4.3-6.1c-.4-4.1-.7-6.1-.7-6.1s-3.5 3.8-8.2 1.1c-4.7-2.7-4.3-9.1-4.3-9.1s-4.7 4.3-8.6 2.3c-3.9-2-6-8.5-6-8.5s-7.7 7.8-12.4 5.9zM207.9 112.2l42.9 19.8c-1.2-.9-3.1-2.7-3.4-5.5-.4-4.1-.7-6.1-.7-6.1s-3.5 3.8-8.2 1.1l-4.3-9.1s-4.7 4.3-8.6 2.3c-3.9-2-6-8.5-6-8.5s-7 6.9-11.7 6z"/></g><g fill="#C1D862"><path d="M128.6 105.4s4.2 1 8.5-1.8 6-3.2 6-3.2.2 8.3 5.2 8.5c5.1.1 8.2-2.6 8.2-2.6s-2.6 7.9 1.5 9.7l8.1 1.8s-4 1-2.6 5.4 5.1 6.2 5.1 6.2-3.7-2-7.1-.1l-5.2 2.7s1.1-4.8-3.5-7.1-9.5 1.5-9.5 1.5.8-6-2.8-8c-3.7-2-9.9-.2-9.9-.2s2-10.2-2-12.8zM129.2 105.9l38.5 23.1c-1.3-.5-3.8-1-6.2.3-3.4 1.9-5.2 2.7-5.2 2.7s1.1-4.8-3.5-7.1-9.5 1.5-9.5 1.5.8-6-2.8-8c-3.7-2-9.9-.2-9.9-.2s1.8-9.1-1.4-12.3z"/></g><g fill="#C1D862"><path d="M69.3 7s-2 3.1-6.3 3.8c-4.3.8-5.6 1.5-5.6 1.5s4.7 5.2 1.7 8.2l-6.6 3.1s6.2 3.3 4.7 6.8c-1.4 3.5-3.9 5.9-3.9 5.9s3-1.7 4.7 1.8l.5 6.8s1.1-3.4 4.3-4.2l4.8-1.3s-3.4-2.3-1.9-6.4l6.7-4.6s-4-3.2-2.9-6.6l6-5.9s-7.1-4.9-6.2-8.9zM69.2 7.6l-10.3 36.6c.5-1 1.7-2.8 4-3.4 3.2-.8 4.8-1.3 4.8-1.3s-3.4-2.3-1.9-6.4c1.5-4.1 6.7-4.6 6.7-4.6s-4-3.2-2.9-6.6c1.1-3.4 6-5.9 6-5.9s-6.5-4.5-6.4-8.4z"/></g><path fill="#5BB95D" d="M69.3 7s-2 3.1-6.3 3.8c-4.3.8-5.6 1.5-5.6 1.5s4.7 5.2 1.7 8.2l-6.6 3.1s6.2 3.3 4.7 6.8c-1.4 3.5-3.9 5.9-3.9 5.9s3-1.7 4.7 1.8l.5 6.8s1.1-3.4 4.3-4.2l4.8-1.3s-3.4-2.3-1.9-6.4l6.7-4.6s-4-3.2-2.9-6.6l6-5.9s-7.1-4.9-6.2-8.9z"/><path fill="#0B7A3D" d="M69.2 7.6l-10.3 36.6c.5-1 1.7-2.8 4-3.4 3.2-.8 4.8-1.3 4.8-1.3s-3.4-2.3-1.9-6.4c1.5-4.1 6.7-4.6 6.7-4.6s-4-3.2-2.9-6.6c1.1-3.4 6-5.9 6-5.9s-6.5-4.5-6.4-8.4z"/><g fill="#C1D862"><path d="M123.4 107.2s-5 .5-9.7-3.5c-4.6-4-6.5-4.8-6.5-4.8s-1.6 9.7-7.6 9l-9.1-4.5s1.7 9.7-3.4 11.1c-5.1 1.5-9.8.8-9.8.8s4.5 1.9 2.1 6.8-7 6.4-7 6.4 4.6-1.7 8.3 1.1c3.7 2.8 5.6 4.1 5.6 4.1s-.5-5.8 5.4-7.7c5.8-1.9 10.9 3.3 10.9 3.3s.1-7.2 4.7-8.9c4.6-1.7 11.7 1.5 11.7 1.5s-.7-12.3 4.4-14.7zM122.7 107.6l-49.1 20.4c1.6-.3 4.6-.6 7.2 1.4 3.7 2.8 5.6 4.1 5.6 4.1s-.5-5.8 5.4-7.7l10.9 3.3s.1-7.2 4.7-8.9c4.6-1.7 11.7 1.5 11.7 1.5s-.7-10.9 3.6-14.1z"/></g><g fill="#C1D862"><path d="M68.5 108.6s-6.8.7-13-4.8c-6.2-5.4-8.7-6.5-8.7-6.5s-2.2 13.1-10.2 12.1c-8-1-12.3-6-12.3-6s2.3 13-4.5 14.9c-6.8 2-13.2 1-13.2 1s6 2.5 2.8 9.1-9.4 8.6-9.4 8.6 6.2-2.3 11.2 1.5c5 3.8 7.5 5.5 7.5 5.5s-.6-7.8 7.2-10.3l14.6 4.5s.1-9.7 6.3-12c6.2-2.3 15.7 2 15.7 2s-.9-16.4 6-19.6zM67.5 109.2l-66 27.5c2.2-.4 6.2-.7 9.7 1.9 5 3.8 7.5 5.5 7.5 5.5s-.6-7.8 7.2-10.3c7.8-2.6 14.6 4.5 14.6 4.5s.1-9.7 6.3-12c6.2-2.3 15.7 2 15.7 2s-.8-14.8 5-19.1z"/></g><g fill="#C1D862"><path d="M132.7 106.7s-3 3-8.2 2.8c-5.1-.2-6.8.3-6.8.3s4.1 7.2-.2 9.9-8.3 1.9-8.3 1.9 6.2 5.4 3.7 9c-2.6 3.6-6 5.7-6 5.7s3.9-1.1 4.9 3.3c1 4.5-1.2 7.9-1.2 7.9s2.1-3.6 6-3.7c3.9-.1 5.8-.3 5.8-.3s-3.3-3.5-.5-7.8 8.9-3.5 8.9-3.5-3.7-4.7-1.6-8.3c2.1-3.6 8.4-5.2 8.4-5.2s-7-7.8-4.9-12zM132.5 107.4l-21.3 39.2c.9-1.1 2.7-2.8 5.4-2.9 3.9-.1 5.8-.3 5.8-.3s-3.3-3.5-.5-7.8 8.9-3.5 8.9-3.5-3.7-4.7-1.6-8.3c2.1-3.6 8.4-5.2 8.4-5.2s-6.3-6.9-5.1-11.2z"/></g><g fill="#C1D862"><path d="M193.5 49.8s.8-3.5-1.7-7.2c-2.5-3.6-2.9-5-2.9-5s7-.3 7.1-4.6c0-4.3-2.4-6.9-2.4-6.9s6.7 2.1 8.2-1.4l1.4-6.9s.9 3.3 4.6 2.1c3.7-1.2 5.2-4.4 5.2-4.4s-1.6 3.1 0 6c1.7 2.9 2.4 4.3 2.4 4.3s-4-.8-5.9 3.1l1.4 8s-5.1-.6-6.7 2.5c-1.6 3.1 0 8.4 0 8.4s-8.5-1.4-10.7 2zM193.9 49.3l18.8-33c-.4 1.1-.8 3.2.3 5.2 1.7 2.9 2.4 4.3 2.4 4.3s-4-.8-5.9 3.1c-1.9 4 1.4 8 1.4 8s-5.1-.6-6.7 2.5c-1.6 3.1 0 8.4 0 8.4s-7.7-1.2-10.3 1.5z"/></g><path fill="#17B24B" d="M207.1 112s3.4 3 3.5 8.4c.1 5.4.7 7.2.7 7.2s7.4-4.8 10.4-.5c3.1 4.3 2.6 8.7 2.6 8.7s5.3-6.9 9.3-4.5l6.4 6s-1.5-4 3.2-5.5l8.4.7s-3.9-2-4.3-6.1c-.4-4.1-.7-6.1-.7-6.1s-3.5 3.8-8.2 1.1c-4.7-2.7-4.3-9.1-4.3-9.1s-4.7 4.3-8.6 2.3c-3.9-2-6-8.5-6-8.5s-7.7 7.8-12.4 5.9z"/><path fill="#0B7A3D" d="M207.9 112.2l42.9 19.8c-1.2-.9-3.1-2.7-3.4-5.5-.4-4.1-.7-6.1-.7-6.1s-3.5 3.8-8.2 1.1l-4.3-9.1s-4.7 4.3-8.6 2.3c-3.9-2-6-8.5-6-8.5s-7 6.9-11.7 6z"/><g fill="#C1D862"><path d="M199.5 54.4s4.2 1.7 6.1 6.8c1.9 5.1 3 6.5 3 6.5s5.4-6.9 9.7-3.8c4.3 3.1 5.3 7.3 5.3 7.3s2.7-8.3 7.3-7.3c4.6 1 8 3.6 8 3.6s-2.7-3.3 1.2-6.2c3.9-2.9 8.2-2.1 8.2-2.1s-4.3-.6-6.1-4.4c-1.7-3.7-2.6-5.5-2.6-5.5s-2.1 4.7-7.4 3.7c-5.4-1-7.1-7.2-7.1-7.2s-3.1 5.6-7.4 5c-4.3-.6-8.5-6.1-8.5-6.1s-4.6 9.9-9.7 9.7zM200.3 54.3l47 4.7c-1.4-.4-3.8-1.5-5-4.1-1.7-3.7-2.6-5.5-2.6-5.5s-2.1 4.7-7.4 3.7c-5.4-1-7.1-7.2-7.1-7.2s-3.1 5.6-7.4 5c-4.3-.6-8.5-6.1-8.5-6.1s-4.3 8.8-9 9.5z"/></g><path fill="#17B24B" d="M199.5 54.4s4.2 1.7 6.1 6.8c1.9 5.1 3 6.5 3 6.5s5.4-6.9 9.7-3.8c4.3 3.1 5.3 7.3 5.3 7.3s2.7-8.3 7.3-7.3c4.6 1 8 3.6 8 3.6s-2.7-3.3 1.2-6.2c3.9-2.9 8.2-2.1 8.2-2.1s-4.3-.6-6.1-4.4c-1.7-3.7-2.6-5.5-2.6-5.5s-2.1 4.7-7.4 3.7c-5.4-1-7.1-7.2-7.1-7.2s-3.1 5.6-7.4 5c-4.3-.6-8.5-6.1-8.5-6.1s-4.6 9.9-9.7 9.7z"/><path fill="#0B7A3D" d="M200.3 54.3l47 4.7c-1.4-.4-3.8-1.5-5-4.1-1.7-3.7-2.6-5.5-2.6-5.5s-2.1 4.7-7.4 3.7c-5.4-1-7.1-7.2-7.1-7.2s-3.1 5.6-7.4 5c-4.3-.6-8.5-6.1-8.5-6.1s-4.3 8.8-9 9.5z"/><path fill="#17B24B" d="M128.6 105.4s4.2 1 8.5-1.8 6-3.2 6-3.2.2 8.3 5.2 8.5c5.1.1 8.2-2.6 8.2-2.6s-2.6 7.9 1.5 9.7l8.1 1.8s-4 1-2.6 5.4 5.1 6.2 5.1 6.2-3.7-2-7.1-.1l-5.2 2.7s1.1-4.8-3.5-7.1-9.5 1.5-9.5 1.5.8-6-2.8-8c-3.7-2-9.9-.2-9.9-.2s2-10.2-2-12.8z"/><path fill="#0B7A3D" d="M129.2 105.9l38.5 23.1c-1.3-.5-3.8-1-6.2.3-3.4 1.9-5.2 2.7-5.2 2.7s1.1-4.8-3.5-7.1-9.5 1.5-9.5 1.5.8-6-2.8-8c-3.7-2-9.9-.2-9.9-.2s1.8-9.1-1.4-12.3z"/><path fill="#17B24B" d="M123.4 107.2s-5 .5-9.7-3.5c-4.6-4-6.5-4.8-6.5-4.8s-1.6 9.7-7.6 9l-9.1-4.5s1.7 9.7-3.4 11.1c-5.1 1.5-9.8.8-9.8.8s4.5 1.9 2.1 6.8-7 6.4-7 6.4 4.6-1.7 8.3 1.1c3.7 2.8 5.6 4.1 5.6 4.1s-.5-5.8 5.4-7.7c5.8-1.9 10.9 3.3 10.9 3.3s.1-7.2 4.7-8.9c4.6-1.7 11.7 1.5 11.7 1.5s-.7-12.3 4.4-14.7z"/><path fill="#0B7A3D" d="M122.7 107.6l-49.1 20.4c1.6-.3 4.6-.6 7.2 1.4 3.7 2.8 5.6 4.1 5.6 4.1s-.5-5.8 5.4-7.7l10.9 3.3s.1-7.2 4.7-8.9c4.6-1.7 11.7 1.5 11.7 1.5s-.7-10.9 3.6-14.1z"/><path fill="#17B24B" d="M68.5 108.6s-6.8.7-13-4.8c-6.2-5.4-8.7-6.5-8.7-6.5s-2.2 13.1-10.2 12.1c-8-1-12.3-6-12.3-6s2.3 13-4.5 14.9c-6.8 2-13.2 1-13.2 1s6 2.5 2.8 9.1-9.4 8.6-9.4 8.6 6.2-2.3 11.2 1.5c5 3.8 7.5 5.5 7.5 5.5s-.6-7.8 7.2-10.3l14.6 4.5s.1-9.7 6.3-12c6.2-2.3 15.7 2 15.7 2s-.9-16.4 6-19.6z"/><path fill="#0B7A3D" d="M67.5 109.2l-66 27.5c2.2-.4 6.2-.7 9.7 1.9 5 3.8 7.5 5.5 7.5 5.5s-.6-7.8 7.2-10.3c7.8-2.6 14.6 4.5 14.6 4.5s.1-9.7 6.3-12c6.2-2.3 15.7 2 15.7 2s-.8-14.8 5-19.1z"/><path fill="#17B24B" d="M65.7 105.2s-2.1 3-6.5 3.7c-4.4.6-5.7 1.3-5.7 1.3s4.6 5.5 1.4 8.4c-3.2 2.9-6.8 2.9-6.8 2.9s6.1 3.6 4.5 7.1c-1.6 3.5-4.2 5.8-4.2 5.8s3.1-1.6 4.7 2 .2 6.9.2 6.9 1.2-3.4 4.5-4.1c3.3-.7 4.9-1.1 4.9-1.1s-3.4-2.5-1.7-6.6 7-4.4 7-4.4-3.9-3.4-2.7-6.8c1.2-3.4 6.3-5.7 6.3-5.7s-7-5.4-5.9-9.4z"/><path fill="#0B7A3D" d="M65.6 105.9l-11.9 36.7c.6-1 1.9-2.8 4.2-3.3 3.3-.7 4.9-1.1 4.9-1.1s-3.4-2.5-1.7-6.6 7-4.4 7-4.4-3.9-3.4-2.7-6.8c1.2-3.4 6.3-5.7 6.3-5.7s-6.3-5-6.1-8.8z"/><path fill="#17B24B" d="M132.7 106.7s-3 3-8.2 2.8c-5.1-.2-6.8.3-6.8.3s4.1 7.2-.2 9.9-8.3 1.9-8.3 1.9 6.2 5.4 3.7 9c-2.6 3.6-6 5.7-6 5.7s3.9-1.1 4.9 3.3c1 4.5-1.2 7.9-1.2 7.9s2.1-3.6 6-3.7c3.9-.1 5.8-.3 5.8-.3s-3.3-3.5-.5-7.8 8.9-3.5 8.9-3.5-3.7-4.7-1.6-8.3c2.1-3.6 8.4-5.2 8.4-5.2s-7-7.8-4.9-12z"/><path fill="#0B7A3D" d="M132.5 107.4l-21.3 39.2c.9-1.1 2.7-2.8 5.4-2.9 3.9-.1 5.8-.3 5.8-.3s-3.3-3.5-.5-7.8 8.9-3.5 8.9-3.5-3.7-4.7-1.6-8.3c2.1-3.6 8.4-5.2 8.4-5.2s-6.3-6.9-5.1-11.2z"/><path fill="#17B24B" d="M193.5 49.8s.8-3.5-1.7-7.2c-2.5-3.6-2.9-5-2.9-5s7-.3 7.1-4.6c0-4.3-2.4-6.9-2.4-6.9s6.7 2.1 8.2-1.4l1.4-6.9s.9 3.3 4.6 2.1c3.7-1.2 5.2-4.4 5.2-4.4s-1.6 3.1 0 6c1.7 2.9 2.4 4.3 2.4 4.3s-4-.8-5.9 3.1l1.4 8s-5.1-.6-6.7 2.5c-1.6 3.1 0 8.4 0 8.4s-8.5-1.4-10.7 2z"/><path fill="#0B7A3D" d="M193.9 49.3l18.8-33c-.4 1.1-.8 3.2.3 5.2 1.7 2.9 2.4 4.3 2.4 4.3s-4-.8-5.9 3.1c-1.9 4 1.4 8 1.4 8s-5.1-.6-6.7 2.5c-1.6 3.1 0 8.4 0 8.4s-7.7-1.2-10.3 1.5z"/><g fill="#C1D862"><path d="M123.9 45.7s4.5-.3 8.5 3.4l5.7 4.4s1.7-8.6 6.9-7.8c5.3.8 8 4.2 8 4.2s-1.3-8.6 3.2-9.8c4.6-1.2 8.8-.5 8.8-.5s-3.9-1.8-1.7-6.1 6.3-5.5 6.3-5.5-4.1 1.4-7.4-1.1l-4.9-3.7s.3 5.1-4.9 6.7c-5.2 1.6-9.6-3.2-9.6-3.2s-.2 6.4-4.4 7.8c-4.1 1.4-10.3-1.6-10.3-1.6s.4 10.8-4.2 12.8zM124.6 45.3l44-17.1c-1.4.3-4.1.4-6.4-1.4-3.2-2.6-4.9-3.7-4.9-3.7s.3 5.1-4.9 6.7l-9.6-3.2s-.2 6.4-4.4 7.8c-4.1 1.4-10.3-1.6-10.3-1.6s.3 9.8-3.5 12.5z"/></g><path fill="#17B24B" d="M123.9 45.7s4.5-.3 8.5 3.4l5.7 4.4s1.7-8.6 6.9-7.8c5.3.8 8 4.2 8 4.2s-1.3-8.6 3.2-9.8c4.6-1.2 8.8-.5 8.8-.5s-3.9-1.8-1.7-6.1 6.3-5.5 6.3-5.5-4.1 1.4-7.4-1.1l-4.9-3.7s.3 5.1-4.9 6.7c-5.2 1.6-9.6-3.2-9.6-3.2s-.2 6.4-4.4 7.8c-4.1 1.4-10.3-1.6-10.3-1.6s.4 10.8-4.2 12.8z"/><path fill="#0B7A3D" d="M124.6 45.3l44-17.1c-1.4.3-4.1.4-6.4-1.4-3.2-2.6-4.9-3.7-4.9-3.7s.3 5.1-4.9 6.7l-9.6-3.2s-.2 6.4-4.4 7.8c-4.1 1.4-10.3-1.6-10.3-1.6s.3 9.8-3.5 12.5z"/><circle fill="#F1627A" cx="123.7" cy="41.9" r="8.2"/><path fill="#ED4855" d="M123.7 33.8c-2.9 0-5.4 1.5-6.9 3.8 1.3-.8 2.8-1.3 4.4-1.3 4.5 0 8.2 3.7 8.2 8.2 0 1.6-.5 3.1-1.3 4.4 2.3-1.5 3.8-4 3.8-6.9 0-4.6-3.7-8.2-8.2-8.2z"/><circle fill="#F1627A" cx="119.4" cy="108.4" r="7.7"/><path fill="#ED4855" d="M118.6 116.1c2.7.3 5.2-.9 6.8-2.9-1.3.6-2.7 1-4.3.8-4.2-.4-7.3-4.2-6.9-8.5.2-1.5.7-2.9 1.6-4-2.3 1.1-3.9 3.4-4.2 6.1-.3 4.3 2.8 8.1 7 8.5z"/><circle fill="#F1627A" cx="131.1" cy="108.9" r="7.7"/><path fill="#ED4855" d="M130.3 116.5c2.7.3 5.2-.9 6.8-2.9-1.3.6-2.7 1-4.3.8-4.2-.4-7.3-4.2-6.9-8.5.2-1.5.7-2.9 1.6-4-2.3 1.1-3.9 3.4-4.2 6.1-.3 4.3 2.8 8.1 7 8.5z"/><circle fill="#F1627A" cx="193.4" cy="51.9" r="7.7"/><path fill="#ED4855" d="M192.7 59.6c2.7.3 5.2-.9 6.8-2.9-1.3.6-2.7 1-4.3.8-4.2-.4-7.3-4.2-6.9-8.5.2-1.5.7-2.9 1.6-4-2.3 1.1-3.9 3.4-4.2 6.1-.4 4.3 2.7 8 7 8.5z"/><g fill="#C1D862"><path d="M34.6 13.4s1.4 3.3-.3 7.3c-1.8 4-1.9 5.5-1.9 5.5s7-1 7.8 3.2c.8 4.2-1.1 7.2-1.1 7.2s6.2-3.3 8.3-.1c2.1 3.2 2.6 6.6 2.6 6.6s.3-3.4 4.2-2.9c3.9.6 5.9 3.4 5.9 3.4s-2.2-2.8-1-5.9c1.1-3.1 1.6-4.7 1.6-4.7s-3.8 1.6-6.4-2v-8.1s-4.9 1.5-7.1-1.3l-1.5-8.3s-8.4 3.1-11.1.1zM35 13.8l24.5 29.1c-.6-1-1.4-3-.6-5.2 1.1-3.1 1.6-4.7 1.6-4.7s-3.8 1.6-6.4-2v-8.1s-4.9 1.5-7.1-1.3c-2.2-2.8-1.5-8.3-1.5-8.3s-7.3 2.7-10.5.5z"/></g><path fill="#17B24B" d="M34.6 13.4s1.4 3.3-.3 7.3c-1.8 4-1.9 5.5-1.9 5.5s7-1 7.8 3.2c.8 4.2-1.1 7.2-1.1 7.2s6.2-3.3 8.3-.1c2.1 3.2 2.6 6.6 2.6 6.6s.3-3.4 4.2-2.9c3.9.6 5.9 3.4 5.9 3.4s-2.2-2.8-1-5.9c1.1-3.1 1.6-4.7 1.6-4.7s-3.8 1.6-6.4-2v-8.1s-4.9 1.5-7.1-1.3l-1.5-8.3s-8.4 3.1-11.1.1z"/><path fill="#0B7A3D" d="M35 13.8l24.5 29.1c-.6-1-1.4-3-.6-5.2 1.1-3.1 1.6-4.7 1.6-4.7s-3.8 1.6-6.4-2v-8.1s-4.9 1.5-7.1-1.3c-2.2-2.8-1.5-8.3-1.5-8.3s-7.3 2.7-10.5.5z"/><g fill="#C1D862"><path d="M207.7 114.4s4.5.4 7.9 4.7c3.4 4.3 4.9 5.3 4.9 5.3s3-8.2 8.1-6.6c5.1 1.6 7.3 5.4 7.3 5.4s.1-8.7 4.7-9.1c4.7-.4 8.7.9 8.7.9s-3.6-2.4-.7-6.3c2.9-3.9 7.1-4.4 7.1-4.4s-4.3.7-7.1-2.3l-4.2-4.5s-.5 5.1-5.9 5.8c-5.4.7-8.9-4.7-8.9-4.7s-1.2 6.3-5.6 7l-9.9-3.2s-1.6 10.7-6.4 12zM208.4 114.1l46.2-9.8c-1.5 0-4.1-.3-6.1-2.4l-4.2-4.5s-.5 5.1-5.9 5.8c-5.4.7-8.9-4.7-8.9-4.7s-1.2 6.3-5.6 7c-4.3.7-9.9-3.2-9.9-3.2s-1.3 9.7-5.6 11.8z"/></g><path fill="#17B24B" d="M207.7 114.4s4.5.4 7.9 4.7c3.4 4.3 4.9 5.3 4.9 5.3s3-8.2 8.1-6.6c5.1 1.6 7.3 5.4 7.3 5.4s.1-8.7 4.7-9.1c4.7-.4 8.7.9 8.7.9s-3.6-2.4-.7-6.3c2.9-3.9 7.1-4.4 7.1-4.4s-4.3.7-7.1-2.3l-4.2-4.5s-.5 5.1-5.9 5.8c-5.4.7-8.9-4.7-8.9-4.7s-1.2 6.3-5.6 7l-9.9-3.2s-1.6 10.7-6.4 12z"/><path fill="#0B7A3D" d="M208.4 114.1l46.2-9.8c-1.5 0-4.1-.3-6.1-2.4l-4.2-4.5s-.5 5.1-5.9 5.8c-5.4.7-8.9-4.7-8.9-4.7s-1.2 6.3-5.6 7c-4.3.7-9.9-3.2-9.9-3.2s-1.3 9.7-5.6 11.8z"/><g fill="#C1D862"><path d="M195.4 62.2s2.8 3.5 2 8.9c-.8 5.4-.5 7.2-.5 7.2s8.1-3.5 10.4 1.3c2.3 4.8 1.1 9 1.1 9s6.4-5.9 9.9-2.8c3.5 3.1 5.3 7 5.3 7s-.8-4.2 4.1-4.8c4.8-.6 8.1 2.1 8.1 2.1s-3.5-2.6-3.2-6.7c.3-4.1.4-6.1.4-6.1s-4.1 3.1-8.3-.3c-4.2-3.4-2.7-9.7-2.7-9.7s-5.4 3.4-8.9.8c-3.5-2.6-4.5-9.4-4.5-9.4s-8.9 6.1-13.2 3.5zM196.1 62.5l38.9 26.8c-1-1-2.6-3.2-2.4-6 .3-4.1.4-6.1.4-6.1s-4.1 3.1-8.3-.3c-4.2-3.4-2.7-9.7-2.7-9.7s-5.4 3.4-8.9.8c-3.5-2.6-4.5-9.4-4.5-9.4s-8 5.6-12.5 3.9z"/></g><path fill="#17B24B" d="M195.4 62.2s2.8 3.5 2 8.9c-.8 5.4-.5 7.2-.5 7.2s8.1-3.5 10.4 1.3c2.3 4.8 1.1 9 1.1 9s6.4-5.9 9.9-2.8c3.5 3.1 5.3 7 5.3 7s-.8-4.2 4.1-4.8c4.8-.6 8.1 2.1 8.1 2.1s-3.5-2.6-3.2-6.7c.3-4.1.4-6.1.4-6.1s-4.1 3.1-8.3-.3c-4.2-3.4-2.7-9.7-2.7-9.7s-5.4 3.4-8.9.8c-3.5-2.6-4.5-9.4-4.5-9.4s-8.9 6.1-13.2 3.5z"/><path fill="#0B7A3D" d="M196.1 62.5l38.9 26.8c-1-1-2.6-3.2-2.4-6 .3-4.1.4-6.1.4-6.1s-4.1 3.1-8.3-.3c-4.2-3.4-2.7-9.7-2.7-9.7s-5.4 3.4-8.9.8c-3.5-2.6-4.5-9.4-4.5-9.4s-8 5.6-12.5 3.9z"/><circle fill="#F1627A" cx="197.8" cy="65" r="7.7"/><path fill="#ED4855" d="M195.7 72.5c2.6.7 5.3 0 7.2-1.7-1.4.4-2.9.5-4.3.1-4.1-1.1-6.5-5.4-5.4-9.5.4-1.5 1.2-2.7 2.3-3.7-2.4.7-4.4 2.7-5.2 5.3-1.1 4.1 1.3 8.3 5.4 9.5z"/><circle fill="#F1627A" cx="209.9" cy="114.4" r="7.7"/><path fill="#ED4855" d="M209.2 122.1c2.7.3 5.2-.9 6.8-2.9-1.3.6-2.7 1-4.3.8-4.2-.4-7.3-4.2-6.9-8.5.2-1.5.7-2.9 1.6-4-2.3 1.1-3.9 3.4-4.2 6.1-.4 4.2 2.7 8 7 8.5z"/></svg>