<svg xmlns="http://www.w3.org/2000/svg" xmlns:xlink="http://www.w3.org/1999/xlink" viewBox="0 0 605.7 146.9" enable-background="new 0 0 605.7 146.9"><path opacity=".2" fill="#6BC6B5" d="M525.8 79.1l-1.3-75.3-432.7 39.9v75z"/><linearGradient id="a" gradientUnits="userSpaceOnUse" x1="306.97" y1="116.859" x2="306.97" y2="1.957"><stop offset="0" stop-color="#EDEDED"/><stop offset=".263" stop-color="#FAFAFA"/><stop offset=".507" stop-color="#fff"/><stop offset=".754" stop-color="#FCFCFC"/><stop offset=".933" stop-color="#F3F3F3"/><stop offset="1" stop-color="#EDEDED"/></linearGradient><path fill="url(#a)" d="M524 77.3l-1.3-75.3-432.7 39.9v75z"/><defs><path id="b" d="M524 77.3l-1.3-75.3-432.7 39.9v75z"/></defs><clipPath id="c"><use xlink:href="#b" overflow="visible"/></clipPath><path clip-path="url(#c)" fill="#F6F6F6" d="M521.5 70.2l-32.1.8 33.8-4.6s-40.6-.9-37.9-1c2.7-.1 34.3-5.5 34.3-5.5s-32.2-1.2-31-1.3c1.2 0 33.9-1.3 33.9-1.3l-33.8-4.8 33.5-3.3-35.7 1 38.6-5-49.2 3s47.8-6.3 46.9-6.2l-47.1 2.9 47.4-8.7-25.5-.3 26-3.4-39 1.4 36.4-5.9-33.6.9 32.5-5.7s-37-.7-36.1-.8c.9 0 37.7-3.8 37.7-3.8s-30.7-.4-26.5-.8c4.2-.5 27.3-1.9 27.3-1.9l-34.3-.5 36.7-7.1-62 6.7s58.5-10.6 57.6-10.5c-.9 0-50 5.8-50 5.8l55.5-10.3 14 28s-7.3 37.5-7.5 39.6c-.2 2.1-3.8 20-3.8 20l-55.6-.3-17-4.5 65.2-8.1-40-1.2 40.4-3.3z"/><defs><path id="d" d="M524 77.3l-1.3-75.3-432.7 39.9v75z"/></defs><clipPath id="e"><use xlink:href="#d" overflow="visible"/></clipPath><path clip-path="url(#e)" fill="#F6F6F6" d="M86 50.7l32-2.2-33.6 5.9s40.6-.7 37.9-.5c-2.7.2-34.1 6.9-34.1 6.9s32.2-.1 31 0c-1.2.1-33.8 2.6-33.8 2.6l34 3.4-33.4 4.7 35.6-2.5-38.3 6.6 49-5s-47.5 8.2-46.6 8.1c.9-.1 46.9-4.8 46.9-4.8l-47 10.5 25.5-.8-25.9 4.4 38.9-3-36.2 7.3 33.5-2.3-32.3 7s37-.7 36.1-.7c-.9.1-37.5 5.3-37.5 5.3s30.6-.9 26.5-.2c-4.2.6-27.2 3-27.2 3l34.3-.8-36.4 8.5 62-8.7s-58 12.9-57.1 12.8c.9-.1 49.7-7.8 49.7-7.8l-55 12.4-15-27.3s5.8-37.8 5.9-39.9c.1-2.1 3-20.1 3-20.1l55.6-1.9 17.2 3.8-64.9 10.7 40-.4-40.3 5z"/><path opacity=".2" fill="#6BC6B5" d="M58.6 106l-58.6-19.8s14-1.6 25.9-3.9c11.9-2.3 61.5-13.5 61.5-13.5l.8 54.2 28.9-3.7s-95.4 26.9-97.5 27.6l39-40.9z"/><linearGradient id="f" gradientUnits="userSpaceOnUse" y1="106.04" x2="117.048" y2="106.04"><stop offset="0" stop-color="#EDEDED"/><stop offset=".263" stop-color="#FAFAFA"/><stop offset=".507" stop-color="#fff"/><stop offset=".754" stop-color="#FCFCFC"/><stop offset=".933" stop-color="#F3F3F3"/><stop offset="1" stop-color="#EDEDED"/></linearGradient><path fill="url(#f)" d="M58.6 104.2l-58.6-19.8s14-1.6 25.9-3.9c11.9-2.3 61.5-13.5 61.5-13.5l.8 54.2 28.9-3.7s-95.4 26.9-97.5 27.6l39-40.9z"/><defs><path id="g" d="M58.6 104.2l-58.6-19.8s14-1.6 25.9-3.9c11.9-2.3 61.5-13.5 61.5-13.5l.8 54.2 28.9-3.7s-95.4 26.9-97.5 27.6l39-40.9z"/></defs><clipPath id="h"><use xlink:href="#g" overflow="visible"/></clipPath><path clip-path="url(#h)" fill="#EDEDED" d="M100.6 115.7l-18.5 4.4 19.1-7.1s-23.6 4.2-22 3.8l19.3-7.8s-18.8 3-18.1 2.8c.7-.2 19.5-4.9 19.5-4.9l-20.1.7 19.1-6.2-20.6 4.9 21.8-8-28.1 8s27.1-9.9 26.6-9.8c-.5.1-27 7.6-27 7.6l26.6-11.5-14.8 2.8 14.8-5.4-22.4 5.6 20.5-8.3-19.4 4.6 18.3-7.7s-21.5 3.9-21 3.7l21.5-7s-17.8 3.4-15.4 2.6c2.4-.8 15.6-4.5 15.6-4.5l-19.9 3.7 20.5-9.2-35.5 11.5s32.8-14.1 32.3-14c-.5.1-28.3 9.8-28.3 9.8l31.1-13.5 10.9 17.5s-.5 26.5-.4 28c.1 1.5 16.8 7.8 16.8 7.8l-49.2 12.6-10.3-1.1 36.9-13.2-23.3 3.9 23.1-7.1z"/><path opacity=".2" fill="#6BC6B5" d="M525.6 45.9l2.1 34.8-54.1 4.9s13.2 0 37.3 3.6c24.1 3.5 83.3 8.8 83.3 8.8l-19.9-39.4 31.4-24.6s-52.4-1.4-61.1-1.3h-18.7l-.3 13.2z"/><linearGradient id="i" gradientUnits="userSpaceOnUse" x1="576.862" y1="15.582" x2="521.517" y2="111.442"><stop offset="0" stop-color="#EDEDED"/><stop offset=".263" stop-color="#FAFAFA"/><stop offset=".507" stop-color="#fff"/><stop offset=".754" stop-color="#FCFCFC"/><stop offset=".933" stop-color="#F3F3F3"/><stop offset="1" stop-color="#EDEDED"/></linearGradient><path fill="url(#i)" d="M525.6 44.1l2.1 34.8-54.1 4.9s13.2 0 37.3 3.6c24.1 3.5 83.3 8.8 83.3 8.8l-19.9-39.4 31.3-24.5s-52.4-1.4-61.1-1.3c-8.7.1-18.7 0-18.7 0l-.2 13.1z"/><defs><path id="j" d="M525.6 44.1l2.1 34.8-54.1 4.9s13.2 0 37.3 3.6c24.1 3.5 83.3 8.8 83.3 8.8l-19.9-39.4 31.3-24.5s-52.4-1.4-61.1-1.3c-8.7.1-18.7 0-18.7 0l-.2 13.1z"/></defs><clipPath id="k"><use xlink:href="#j" overflow="visible"/></clipPath><path clip-path="url(#k)" fill="#EDEDED" d="M518.6 81.1l22.2 1.9-23.2-4.5s28.1 1 26.3.8c-1.9-.2-23.5-5.2-23.5-5.2s22.3.5 21.5.4c-.8-.1-23.4-2.2-23.4-2.2l23.6-1.9-23.1-3.7 24.7 2.2-26.5-5.1 33.9 4.1s-32.8-6.3-32.2-6.2c.6.1 32.4 4 32.4 4l-32.5-7.9 17.7.9-17.9-3.4 26.9 2.6-25-5.5 23.2 2-22.2-5.4s25.6 1 25 .9c-.6-.1-25.9-4.2-25.9-4.2s21.2 1 18.3.5c-2.9-.5-18.8-2.4-18.8-2.4l23.7 1-25.1-6.4 42.8 6.8s-40-9.7-39.4-9.6c.6.1 34.3 6 34.3 6l-38-9.3-10.8 18.8s3.5 26.3 3.6 27.7l-32.4.8 72.7 15.2 11.9-2.4-44.8-8.3 27.7.8-27.7-3.8z"/><path opacity=".4" fill="#F1627A" d="M512.8 108.7v-43.3l-170 18.8-.5 43z"/><path fill="#E32345" d="M513.8 109.6v-43.3l-170 18.8-.5 43z"/><defs><path id="l" d="M513.8 109.6v-43.3l-170 18.8-.5 43z"/></defs><linearGradient id="m" gradientUnits="userSpaceOnUse" x1="343.324" y1="97.213" x2="513.808" y2="97.213"><stop offset="0" stop-color="#E32345"/><stop offset=".047" stop-color="#E4304D"/><stop offset=".178" stop-color="#E9475F"/><stop offset=".302" stop-color="#ED576D"/><stop offset=".415" stop-color="#F05F77"/><stop offset=".507" stop-color="#F1627A"/><stop offset=".639" stop-color="#F06078"/><stop offset=".735" stop-color="#EE5B72"/><stop offset=".819" stop-color="#EC5269"/><stop offset=".897" stop-color="#E8445C"/><stop offset=".969" stop-color="#E4304D"/><stop offset="1" stop-color="#E32345"/></linearGradient><use xlink:href="#l" overflow="visible" fill="url(#m)"/><clipPath id="n"><use xlink:href="#l" overflow="visible"/></clipPath><g clip-path="url(#n)" fill="#EDEDED"><path d="M341.8 95.6l13.8-.9-14.5 2.6s17.5-.3 16.4-.2c-1.2.1-14.7 3-14.7 3h13.4c-.5 0-14.6 1.1-14.6 1.1l14.7 1.5-14.4 2 15.4-1.1-16.6 2.8 21.2-2.2s-20.5 3.5-20.1 3.5c.4 0 20.3-2.1 20.3-2.1l-20.3 4.6 11-.3-11.2 1.9 16.8-1.3-15.6 3.2 14.5-1-13.9 3s16-.3 15.6-.3c-.4 0-16.2 2.3-16.2 2.3s13.2-.4 11.4-.1c-1.8.3-11.7 1.3-11.7 1.3l14.8-.4-15.7 3.7 26.8-3.8s-25.1 5.6-24.7 5.5l21.5-3.3-23.8 5.3-6.5-11.9s2.5-16.3 2.6-17.2c.1-.9 1.3-8.7 1.3-8.7l31.4.8-28 4.6 17.3-.2-17.7 2.3zM514.8 76.4l-13.8 1.2 14.7.3s-17.4 2.4-16.2 2.3l15 .6s-13.8 2.2-13.3 2.2l14.6-1.2-14.3 3.7 14.5-.2-15.4 1.3 16.8.2-21.2 1.2s20.8.3 20.4.3c-.4 0-20.3 1.1-20.3 1.1l20.8 1.3-10.9 1.4 11.3.1-16.8 1.3 15.9.7-14.5 1.3 14.2.8s-15.8 2.2-15.4 2.1c.4 0 16.4-.3 16.4-.3s-13.1 1.7-11.3 1.7c1.8 0 11.8-.5 11.8-.5l-14.7 1.9 16.1 1.2-27 .5s25.6 1.6 25.2 1.6h-21.7l24.3 1.6 4.6-12.7s-5-15.7-5.2-16.6c-.2-.9-2.6-8.4-2.6-8.4l-30.8 5.9 28.4.2-17.1 2.5 17.5-.6z"/></g><path opacity=".4" fill="#F1627A" d="M324.6 121.5l-27-12s6.3-.8 11.8-2c5.5-1.2 28.4-7.1 28.4-7.1v31.1l13.6-1.8s-44.2 14.4-45.2 14.8c-1 .4 18.4-23 18.4-23z"/><path fill="#E32345" d="M326.4 121.5l-27-12s6.4-.8 11.9-2 28.5-7.1 28.5-7.1v31.1l13.5-1.8s-44.3 14.4-45.2 14.8c-1.1.4 18.3-23 18.3-23z"/><defs><path id="o" d="M326.4 121.5l-27-12s6.4-.8 11.9-2 28.5-7.1 28.5-7.1v31.1l13.5-1.8s-44.3 14.4-45.2 14.8c-1.1.4 18.3-23 18.3-23z"/></defs><clipPath id="p"><use xlink:href="#o" overflow="visible"/></clipPath><path clip-path="url(#p)" fill="#EDEDED" d="M343 125.6l-9.8 1.8 10.2-3s-12.5 1.6-11.7 1.4l10.3-3.3s-10 1.1-9.6 1c.4-.1 10.4-2 10.4-2l-10.6.1 10.2-2.6-10.9 2 11.6-3.3-15 3.2s14.4-4.1 14.1-4.1c-.3.1-14.3 3.1-14.3 3.1l14.2-4.9-7.9 1.1 7.8-2.2-11.9 2.2 10.9-3.5-10.3 1.8 9.7-3.3s-11.4 1.5-11.1 1.4c.3-.1 11.4-2.9 11.4-2.9s-9.4 1.3-8.2 1c1.3-.3 8.3-1.8 8.3-1.8l-10.6 1.4 11-3.9-18.9 4.8s17.5-6 17.2-5.9c-.3.1-15.1 4.1-15.1 4.1l16.6-5.7 5.6 8s-.5 11.9-.5 12.5c0 .7-.2 6.3-.2 6.3l-22.5 1.9 19.7-5.5-12.4 1.5 12.3-2.7z"/><path opacity=".4" fill="#F1627A" d="M515.8 90.7l.6 20-21.2 2.3s5.2.1 14.6 2.4c9.4 2.3 32.6 5.8 32.6 5.8l-7.5-22.8 12.4-13.8s-20.6-1.3-23.9-1.3c-3.4 0-7.4-.2-7.4-.2l-.2 7.6z"/><path fill="#E32345" d="M516.7 91.6l.6 20-21.2 2.3s5.2.1 14.6 2.4c9.4 2.3 32.6 5.8 32.6 5.8l-7.5-22.8 12.4-13.8s-20.6-1.3-23.9-1.3l-7.4-.2-.2 7.6z"/><defs><path id="q" d="M516.7 91.6l.6 20-21.2 2.3s5.2.1 14.6 2.4c9.4 2.3 32.6 5.8 32.6 5.8l-7.5-22.8 12.4-13.8s-20.6-1.3-23.9-1.3l-7.4-.2-.2 7.6z"/></defs><clipPath id="r"><use xlink:href="#q" overflow="visible"/></clipPath><path clip-path="url(#r)" fill="#EDEDED" d="M518.6 92.6l9.6 2.7-10.4-1.8s12 4 11.2 3.8c-.8-.2-10.7-1.5-10.7-1.5s9.4 3.3 9.1 3.2c-.4-.1-10.2-2.8-10.2-2.8l9.6 4.5-10.3-2.1 10.7 3-11.9-2.1 14.9 3.6s-14.8-2.6-14.5-2.5c.3.1 14.2 3.5 14.2 3.5l-14.9-1.8 7.6 2.4-8-1.4 11.7 3.2-11.4-1.6 10.1 2.8-10.2-1.3s10.9 3.6 10.6 3.6c-.3-.1-11.5-2.4-11.5-2.4s9.1 2.9 7.8 2.7c-1.3-.3-8.3-1.9-8.3-1.9l10.1 3.3-11.5-1.3 19.1 3.9s-18.3-2.3-18.1-2.2c.3.1 15.4 2.9 15.4 2.9l-17.4-2.1-1.6-9.6s5.6-10.5 5.9-11.1c.3-.6 3-5.6 3-5.6l21.1 8.1-20.1-3.6 11.8 4.1-12.5-2.6z"/><text transform="matrix(.984 -.103 -.103 .995 365.36 117.484)" fill="#fff" font-family="'Wisdom-Script'" font-size="37.631">Tracker</text><linearGradient id="s" gradientUnits="userSpaceOnUse" x1="558.418" y1="278.396" x2="590.029" y2="278.396" gradientTransform="matrix(1.011 -.105 -.105 1 -62.118 -180.702)"><stop offset="0" stop-color="#E6E3DC"/><stop offset="1" stop-color="#D0C4B6"/></linearGradient><path fill="url(#s)" d="M501.4 27.8l.4-4.2c-2.7-1.8-5.4-3-8.7-2.7-4.4.5-6.1 3.5-6.4 5.7-.4 4.1 2.2 5.1 7.8 6.8 7 2.1 10.4 4.4 9.7 10.8-.8 7.2-8.6 12.2-17.4 13.1-5.5.6-9.1 0-12.2-2.4l-.3 2.5c-.1.5-.7 1.1-1.2 1.1-.4 0-1.1-.1-1.4-.5-.1-.2.3-.1.3-.4l1.1-10.6c.1-.6.7-1.2 1.3-1.2l-.3-.3c.7 0 1.4.8 1.3 1.3l-.5 5.2c2.2 2.5 5.8 3.8 9.7 3.4 4.4-.5 7.3-2 7.6-4.8.3-2.6-.9-4-8.4-5.7-7.6-1.8-10.7-6-10-12.4.8-7.4 7.7-12.5 17.8-13.5 3.9-.4 7.1.4 10.4 2l.3-3.1c.1-.6.5-1.1 1.2-1.2.1 0-.4-.3-.4-.3.8-.1 1.4.8 1.3 1.3l-1.1 10.1c-.1.6-.5 1.1-1.3 1.2-.7.1-1.1-.4-1.3-.5.1-.4.6-.4.7-.7z"/><linearGradient id="t" gradientUnits="userSpaceOnUse" x1="502.489" y1="278.847" x2="556.201" y2="278.847" gradientTransform="matrix(1.011 -.105 -.105 1 -62.118 -180.702)"><stop offset="0" stop-color="#E6E3DC"/><stop offset="1" stop-color="#D0C4B6"/></linearGradient><path fill="url(#t)" d="M468 56.5l-5.2.5-7.8-33.5c-.1-.5-.9-1-1.4-1l-21.8 2.7c-.6.1-1.2.7-1.2 1.3 0 .3-.5.2-.4.4.2.3 1 .7 1.3.6l5.8-.6-14.6 34.2-6.2.6c-.6.1-1.3.7-1.3 1.3l-.6.2c.2.4.9.9 1.6.9l14.9-1.5c.6-.1 1.3-.7 1.3-1.3 0-.5-.8-1.2-1.1-1.4-.1-.1-.7 0-.8 0l-5.4 1 4.3-10.3 15.7-1.6 2.2 9.6-3.3.4c-.7.1-1.3.7-1.4 1.3l-.5.2c.2.3 1 .9 1.6.8l24-2.5c.7-.1 1.2-.7 1.3-1.3.1-.8-.7-1.4-1.2-1.4-.1.1.3.4.2.4zm-37.5-7.7l9.3-22h.3l4.6 20.5-14.2 1.5z"/><linearGradient id="u" gradientUnits="userSpaceOnUse" x1="502.322" y1="278.571" x2="555.492" y2="278.571" gradientTransform="matrix(1.011 -.105 -.105 1 -62.118 -180.702)"><stop offset="0" stop-color="#93D5D8"/><stop offset="1" stop-color="#6DCACA"/></linearGradient><path fill="url(#u)" d="M467.3 56.1l-5.2.5-7.8-33.5c-.1-.5-.5-.7-1-.6l-22.2 2.3c-.6.1-1.2.7-1.2 1.3s.4 1.1 1 1.1l5.8-.6-14.6 34.2-6.2.6c-.6.1-1.3.7-1.3 1.3-.1.6.5 1.1 1.1 1.1l14.9-1.5c.6-.1 1.3-.7 1.3-1.3.1-.6-.5-1.2-1.1-1.1l-6.2.6 4.3-10.3 15.7-1.6 2.2 9.6-3.5.4c-.7.1-1.3.7-1.4 1.3-.1.6.4 1.1 1.1 1.1l24-2.5c.7-.1 1.2-.7 1.3-1.3.1-.6-.3-1.1-1-1.1zm-37.4-7.7l9.3-22h.3l4.6 20.5-14.2 1.5z"/><linearGradient id="v" gradientUnits="userSpaceOnUse" x1="444.366" y1="278.95" x2="501.185" y2="278.95" gradientTransform="matrix(1.011 -.105 -.105 1 -62.118 -180.702)"><stop offset="0" stop-color="#E6E3DC"/><stop offset="1" stop-color="#D0C4B6"/></linearGradient><path fill="url(#v)" d="M378.9 61.6l-11.7-23.2-3.1 29.2 6-.6c.2 0-.1-.4 0-.4.3.1 1 .6 1 1.4-.1.6-.6 1.1-1.2 1.1l-12.4 1.3c-1 .1-1.6-.3-1.5-1l.6-.5c.1-.6.5-.6 1.2-.6l4.2-.4 3.5-33.2-3.1.3c-.5.1-1.4-.2-1.4-.8l.4-.1c.1-.6.6-1.1 1.3-1.2l16.2-2.1c.5 0 1 .6 1.2.9l7.7 13.8 8.8-15.5c.3-.4.7-.7 1-.7l18.7-1.9c.2 0-.1-.4 0-.4.4.1 1 .5.9 1.3-.1.6-.6 1.1-1.2 1.2l-3.6.4-3.5 33.2 3.4-.4v-.4c.4.1 1 .9.9 1.4-.1.6-.6 1.1-1.2 1.1l-22.2 2.2c-.9.1-1.3-.6-1.4-1-.1-.1.4.2.4 0 .1-.6.6-1.2 1.2-1.2l3.4-.4 3.3-30.9-15.8 27.8c-.2.4-.7.7-1.1.7-.4.1-.7-.1-.9-.4z"/><linearGradient id="w" gradientUnits="userSpaceOnUse" x1="405.306" y1="279.014" x2="443.016" y2="279.014" gradientTransform="matrix(1.011 -.105 -.105 1 -62.118 -180.702)"><stop offset="0" stop-color="#E6E3DC"/><stop offset="1" stop-color="#D0C4B6"/></linearGradient><path fill="url(#w)" d="M324.4 73.9c-1.2 0-1.4-.8-1.5-1.2 0-.1.5.4.5.2.1-.6.6-1.1 1.2-1.2l3.9-.4 3.5-33.2-9.4 1-.6 6.9c-.1.6-.6 1.1-1.2 1.2-.9.1-1.3-.6-1.4-1-.1-.1.4.2.4 0l.8-7.9c.1-.6.6-1.2 1.2-1.2l35.3-3.7v-.5c.8 0 1.2.8 1.1 1.5l-.8 8.3c-.1.6-.6 1.1-1.3 1.2-1.3.2-1.4-.7-1.5-1.1 0-.1.5.3.5.1l.8-7.3-9.6 1-3.5 33.2 3.7-.4-.1-.5c.4.1 1.2.6 1.1 1.5-.1.6-.6 1.1-1.2 1.1l-21.9 2.4z"/><linearGradient id="x" gradientUnits="userSpaceOnUse" x1="371.37" y1="278.719" x2="402.98" y2="278.719" gradientTransform="matrix(1.011 -.105 -.105 1 -62.118 -180.702)"><stop offset="0" stop-color="#E6E3DC"/><stop offset="1" stop-color="#D0C4B6"/></linearGradient><path fill="url(#x)" d="M312.2 48l.4-4.2c-2.7-1.8-5.4-3-8.7-2.7-4.4.5-6.2 3.5-6.4 5.7-.4 4.1 2.2 5.1 7.8 6.8 7 2.1 10.4 4.4 9.7 10.8-.8 7.2-8.6 12.2-17.4 13.1-5.5.6-9.1 0-12.2-2.4l-.3 2.5c-.1.5-.7 1.1-1.2 1.1-1.6.2-1.5-1.2-1.7-1.5-.1-.1.5-.2.5-.3l1.2-9.7c.1-.6.7-1.2 1.3-1.2.1 0-.2-.8-.1-.7.4.1 1.2.7 1.1 1.7l-.5 5.2c2.2 2.5 5.8 3.8 9.7 3.4 4.4-.5 7.3-2 7.6-4.8.3-2.6-.9-4-8.4-5.7-7.6-1.8-10.7-6-10-12.4.8-7.4 7.7-12.5 17.8-13.5 3.9-.4 7.1.4 10.4 2l.3-3.1c.1-.6.5-1.1 1.2-1.2.1 0-.4-.8-.3-.7.4.1 1.4.8 1.3 1.8l-1.1 10.1c-.1.6-.5 1.1-1.3 1.2-1.1.1-1.5-1-1.5-1.5.2-.4.8.2.8.2z"/><linearGradient id="y" gradientUnits="userSpaceOnUse" x1="343.303" y1="279.058" x2="366.459" y2="279.058" gradientTransform="matrix(1.011 -.105 -.105 1 -62.118 -180.702)"><stop offset="0" stop-color="#E6E3DC"/><stop offset="1" stop-color="#D0C4B6"/></linearGradient><path fill="url(#y)" d="M259.5 45.8c-.5.1-1.6-.7-1.7-1.2l.7.3c.1-.6.7-1.2 1.3-1.2l19.3-2c.1 0-.5-.8-.4-.7.4.1 1.5.7 1.4 1.7-.1.6-.6 1.1-1.2 1.1l-2.5.3-3.5 33.2 3.3-.3c.2 0-.4-.7-.3-.6.4.1 1.3 1.1 1.3 1.6-.1.6-.6 1.1-1.2 1.2l-20.5 2.1c-.5.1-1.5-.7-1.6-1 0-.1.6.3.6.1.1-.6.6-1.2 1.3-1.2l3.2-.3 3.5-33.2-3 .1z"/><linearGradient id="z" gradientUnits="userSpaceOnUse" x1="293.83" y1="279.862" x2="344.772" y2="279.862" gradientTransform="matrix(1.011 -.105 -.105 1 -62.118 -180.702)"><stop offset="0" stop-color="#E6E3DC"/><stop offset="1" stop-color="#D0C4B6"/></linearGradient><path fill="url(#z)" d="M254 74.1v.6c-1 .9-1.8 1.3-2.6 1.4-2 .2-4.4-1.2-7.2-4.6-1.8-2.1-4.4-3.1-6.8-3.6 4.9-1.4 10.6-6.1 11.3-12.4.7-6.7-4.6-10.6-15.3-9.5l-23.8 2.5c-.6.1-1.2.8-1.3 1.4 0 .3-.9.1-.7.3.1.3 1.3.9 1.7.7l2.3-.2-3.5 33.1-1.9.2c-.6.1-1.1.7-1.2 1.3 0 .3-.8.1-.7.3.2.2.9.9 1.6.8l19.9-2.1c.6-.1 1.2-.7 1.2-1.3.1-.5-.3-.8-.6-1-.3-.3-1.1-.4-1.2-.4l-2.4.7 1.3-12.1c2.4-.2 4.4 2.8 6.6 7.7 2.1 4.7 4.4 7 9.7 6.5 4.3-.4 10.9-3.5 15.1-8.2.1-.2.3-.4.3-.7 0-.5-.2-.9-.7-1-.8-.5-1-.5-1.1-.4zm-29.6-6.3l2-18.9 1-.1c5.1-.5 7.8 2.3 7.2 7.8-.7 6.3-4.5 10.5-10.2 11.2z"/><linearGradient id="A" gradientUnits="userSpaceOnUse" x1="293.651" y1="279.449" x2="343.912" y2="279.449" gradientTransform="matrix(1.011 -.105 -.105 1 -62.118 -180.702)"><stop offset="0" stop-color="#93D5D8"/><stop offset="1" stop-color="#6DCACA"/></linearGradient><path fill="url(#A)" d="M253.9 74c-.3 0-.6.2-.9.4-1 .9-1.8 1.3-2.6 1.4-2 .2-4.4-1.2-7.2-4.6-1.8-2.1-4.4-3.1-6.8-3.6 4.9-1.4 10.6-6.1 11.3-12.5.7-6.7-4.6-10.6-15.3-9.5l-23.8 2.4c-.6.1-1.2.8-1.3 1.4-.1.6.4 1.1 1 1l2.7-.3-3.5 33.1-2.3.2c-.6.1-1.1.7-1.2 1.3-.1.6.4 1.1 1 1.1l19.9-2.1c.6-.1 1.2-.7 1.2-1.3.1-.6-.4-1.1-1-1.1l-2.8.3 1.3-11.9c2.4-.2 4.2 2.8 6.4 7.8 2.1 4.7 4.3 7 9.5 6.5 4.3-.4 10.8-3.5 15-8.2.1-.2.2-.4.3-.7.2-.6-.2-1.2-.9-1.1zm-30-6.5l2-19 .6-.1c5.1-.5 8 2.3 7.4 7.8-.7 6.3-4.2 10.6-10 11.3z"/><linearGradient id="B" gradientUnits="userSpaceOnUse" x1="239.187" y1="278.884" x2="290.475" y2="278.884" gradientTransform="matrix(1.011 -.105 -.105 1 -62.118 -180.702)"><stop offset="0" stop-color="#E6E3DC"/><stop offset="1" stop-color="#D0C4B6"/></linearGradient><path fill="url(#B)" d="M153.9 56.6c-.5.1-1.9-1.3-1.5-1.4.8-.2.5.6.5.5.1-.6.6-1.1 1.3-1.2l17.8-1.3c.1 0 .5-.4.4-1-.1-.4 2.2.1 2.2 1.3 0 .6-.7 1.1-1.3 1.2l-1.6.2-1.7 15 13.5-1.4 1.6-15.1-2.8.3c-.5.1-1.5-1-1.6-1.5l.6.5c.1-.6.7-1.1 1.3-1.2l19-2.7h.2c.5 0 1.9.4 1.8 1.5-.1.6-.6 1.1-1.2 1.2l-2.6.3-3.5 33.2h.6c.1 0 1.8-1.2 2.7-.6.4.2.8.7.8 1.3-.1.6-.6 1.1-1.2 1.1l-20.3 2.2c-.5.1-1.5-.8-1.6-1.7l1.6-.5c.1-.6-.4.1.2 0l2.5-.3 1.7-15.8-13.5 1.4-1.7 15.9 1.1-.4c.2 0 1-.3 1.1-.2.5.1 1.1.9 1 1.4-.1.6-.6 1.1-1.3 1.1l-19.6 2c-.4 0-1.8-1.2-1.3-1.3.8-.2.3.5.3.3.1-.6.7-1.1 1.3-1.2l3-.3 3.5-33.2-3.3.4z"/><linearGradient id="C" gradientUnits="userSpaceOnUse" x1="200.455" y1="279.1" x2="236.657" y2="279.1" gradientTransform="matrix(1.011 -.105 -.105 1 -62.118 -180.702)"><stop offset="0" stop-color="#E6E3DC"/><stop offset="1" stop-color="#D0C4B6"/></linearGradient><path fill="url(#C)" d="M142.3 91.7l1.2-.8c-3.3 2.4-7.2 3.6-12.7 4.2-14.4 1.5-21.2-5.6-20.1-16.2 1.6-15.7 14.6-21.3 24.2-22.3 5.2-.5 8.6-.2 11.2 1.1l.2-1.8c.1-.5-.5-2 .1-2.1.1 0 .2-.2.8.1.5.2 1.4 1.3 1.3 1.8l-.8 7.7c-.1.7-.6 1.1-1.3 1.1h-.2c-.5 0-.8-.4-1.8-1.6l.4-3.4c-.7-.5-3.1-1.3-6.5-1-6.7.7-12 8-13 17.4-.9 8.8 3.6 16.7 10.8 16 2.6-.3 5.4-1.8 7.6-3.8l.4-3.7c.1-.6.1-2 .8-2.1l.7.6c.4.4.8.7.7 1.3l-.9 8.1c-.1.5-.5 1.1-1.1 1.1h-.3c-.4 0-1.7-1.2-1.7-1.7z"/><path fill="#fff" d="M129.8 92c-5.1-2.5-8-9.5-7.2-16.7.8-7.6 4-14 8.7-17.4-8.1 1.6-17.8 7.2-19.1 19.3-1.2 12.3 8.2 15.6 17.6 14.8z"/><linearGradient id="D" gradientUnits="userSpaceOnUse" x1="239.123" y1="278.62" x2="289.806" y2="278.62" gradientTransform="matrix(1.011 -.105 -.105 1 -62.118 -180.702)"><stop offset="0" stop-color="#93D5D8"/><stop offset="1" stop-color="#6DCACA"/></linearGradient><path fill="url(#D)" d="M153.3 56.1c-.7.1-1.1-.4-1-1 .1-.6.6-1.1 1.3-1.2l19.3-2c.6-.1 1.2.3 1.1.9-.1.6-.7 1.1-1.3 1.2l-1.6.2-1.6 15.1 13.5-1.4 1.6-15.1-2.8.3c-.6.1-1.1-.4-1-1 .1-.6.7-1.1 1.3-1.2l20-2.1c.6-.1 1 .3 1 1-.1.6-.6 1.1-1.2 1.2l-2.6.3-3.5 33.2 3.1-.3c.6-.1 1 .4 1 1-.1.6-.6 1.1-1.2 1.1l-20.2 2.1c-.6.1-1.1-.3-1-.9.1-.6.7-1.2 1.3-1.2l2.2-.3 1.7-15.8-13.5 1.4-1.7 15.8 2.1-.2c.7-.1 1.2.4 1.1 1-.1.6-.6 1.1-1.3 1.1l-19.6 2c-.6 0-1.1-.4-1-1 .1-.6.7-1.1 1.3-1.2l3-.3 3.5-33.2-3.3.5z"/><path fill="#fff" d="M155.3 88.7l9.9-1.1 3.5-33.1-9.9 1z"/><g fill="#6DCACA"><path d="M167.2 55.7c.2 0 .4.1.3.3 0 .2-.2.3-.4.4l-4.2.4c-1.4.1-2 .3-2.6.4-.7.1-.8-.1-.8-.3s.2-.4.9-.5c.6-.1 1.1 0 2.6-.2l4.2-.5zM167.1 57.3c.2 0 .4.1.3.3 0 .2-.2.3-.4.4l-4.2.4c-1.4.1-2 .3-2.6.4-.7.1-.8-.1-.8-.3 0-.3.2-.4.9-.5.6-.1 1.1 0 2.6-.2l4.2-.5zM166.9 58.9c.2 0 .4.1.3.3 0 .2-.2.3-.4.4l-4.2.4c-1.4.1-2 .3-2.6.4-.7.1-.8-.1-.8-.3 0-.3.2-.4.9-.5.6-.1 1.1 0 2.6-.2l4.2-.5zM166.7 60.6c.2 0 .4.1.3.3 0 .2-.2.3-.4.4l-4.2.4c-1.4.1-2 .3-2.6.4-.7.1-.8-.1-.8-.3 0-.3.2-.4.9-.5.6-.1 1.1 0 2.6-.2l4.2-.5zM166.6 62.2c.2 0 .4.1.3.3 0 .2-.2.3-.4.4l-4.2.4c-1.4.1-2 .3-2.6.4-.7.1-.8-.1-.8-.3 0-.3.2-.4.9-.5.6-.1 1.1 0 2.6-.2l4.2-.5zM166.4 63.8c.2 0 .4.1.3.3 0 .2-.2.3-.4.4l-4.2.4c-1.4.1-2 .3-2.6.4-.7.1-.8-.1-.8-.3 0-.3.2-.4.9-.5.6-.1 1.1 0 2.6-.2l4.2-.5zM166.2 65.4c.2 0 .4.1.3.3 0 .2-.2.3-.4.4l-4.2.4c-1.4.1-2 .3-2.6.4-.7.1-.8-.1-.8-.3 0-.3.2-.4.9-.5.6-.1 1.1 0 2.6-.2l4.2-.5zM166 67c.2 0 .4.1.3.3 0 .2-.2.3-.4.4l-4.2.4c-1.4.1-2 .3-2.6.4-.7.1-.8-.1-.8-.3 0-.3.2-.4.9-.5.6-.1 1.1 0 2.6-.2l4.2-.5zM165.9 68.6c.2 0 .4.1.3.3 0 .2-.2.3-.4.4l-4.2.4c-1.4.1-2 .3-2.6.4-.7.1-.8-.1-.8-.3 0-.3.2-.4.9-.5.6-.1 1.1 0 2.6-.2l4.2-.5zM165.7 70.2c.2 0 .4.1.3.3 0 .2-.2.3-.4.4l-4.2.4c-1.4.1-2 .3-2.6.4-.7.1-.8-.1-.8-.3 0-.3.2-.4.9-.5.6-.1 1.1 0 2.6-.2l4.2-.5zM165.5 71.8c.2 0 .4.1.3.3 0 .2-.2.3-.4.4l-4.2.4c-1.4.1-2 .3-2.6.4-.7.1-.8-.1-.8-.3 0-.3.2-.4.9-.5.6-.1 1.1 0 2.6-.2l4.2-.5zM165.4 73.4c.2 0 .4.1.3.3 0 .2-.2.3-.4.4l-4.2.4c-1.4.1-2 .3-2.6.4-.7.1-.8-.1-.8-.3 0-.3.2-.4.9-.5.6-.1 1.1 0 2.6-.2l4.2-.5zM165.2 75c.2 0 .4.1.3.3 0 .2-.2.3-.4.4l-4.2.4c-1.4.1-2 .3-2.6.4-.7.1-.8-.1-.8-.3 0-.3.2-.4.9-.5.6-.1 1.1 0 2.6-.2l4.2-.5zM165 76.6c.2 0 .4.1.3.3 0 .2-.2.3-.4.4l-4.2.4c-1.4.1-2 .3-2.6.4-.7.1-.8-.1-.8-.3 0-.3.2-.4.9-.5.6-.1 1.1 0 2.6-.2l4.2-.5zM164.9 78.2c.2 0 .4.1.3.3 0 .2-.2.3-.4.4l-4.2.4c-1.4.1-2 .3-2.6.4-.7.1-.8-.1-.8-.3 0-.3.2-.4.9-.5.6-.1 1.1 0 2.6-.2l4.2-.5zM164.7 79.8c.2 0 .4.1.3.3 0 .2-.2.3-.4.4l-4.2.4c-1.4.1-2 .3-2.6.4-.7.1-.8-.1-.8-.3 0-.3.2-.4.9-.5.6-.1 1.1 0 2.6-.2l4.2-.5zM164.5 81.4c.2 0 .4.1.3.3 0 .2-.2.3-.4.4l-4.2.4c-1.4.1-2 .3-2.6.4-.7.1-.8-.1-.8-.3 0-.3.2-.4.9-.5.6-.1 1.1 0 2.6-.2l4.2-.5zM164.4 83c.2 0 .4.1.3.3 0 .2-.2.3-.4.4l-4.2.4c-1.4.1-2 .3-2.6.4-.7.1-.8-.1-.8-.3 0-.3.2-.4.9-.5.6-.1 1.1 0 2.6-.2l4.2-.5zM164.2 84.6c.2 0 .4.1.3.3 0 .2-.2.3-.4.4l-4.2.4c-1.4.1-2 .3-2.6.4-.7.1-.8-.1-.8-.3 0-.3.2-.4.9-.5.6-.1 1.1 0 2.6-.2l4.2-.5zM164 86.2c.2 0 .4.1.3.3 0 .2-.2.3-.4.4l-4.2.4c-1.4.1-2 .3-2.6.4-.7.1-.8-.1-.8-.3 0-.3.2-.4.9-.5.6-.1 1.1 0 2.6-.2l4.2-.5z"/></g><g fill="#34A8A6"><path d="M167.2 55.6c.2 0 .4.1.3.3 0 .2-.2.3-.4.4l-4.2.4c-1.4.1-2 .3-2.6.4-.7.1-.8-.1-.8-.3 0-.3.2-.4.9-.5.6-.1 1.1 0 2.6-.2l4.2-.5zM167.1 57.2c.2 0 .4.1.3.3 0 .2-.2.3-.4.4l-4.2.4c-1.4.1-2 .3-2.6.4-.7.1-.8-.1-.8-.3 0-.3.2-.4.9-.5.6-.1 1.1 0 2.6-.2l4.2-.5zM166.9 58.8c.2 0 .4.1.3.3 0 .2-.2.3-.4.4l-4.2.4c-1.4.1-2 .3-2.6.4-.7.1-.8-.1-.8-.3 0-.3.2-.4.9-.5.6-.1 1.1 0 2.6-.2l4.2-.5zM166.7 60.4c.2 0 .4.1.3.3 0 .2-.2.3-.4.4l-4.2.4c-1.4.1-2 .3-2.6.4-.7.1-.8-.1-.8-.3 0-.3.2-.4.9-.5.6-.1 1.1 0 2.6-.2l4.2-.5zM166.6 62c.2 0 .4.1.3.3 0 .2-.2.3-.4.4l-4.2.4c-1.4.1-2 .3-2.6.4-.7.1-.8-.1-.8-.3 0-.3.2-.4.9-.5.6-.1 1.1 0 2.6-.2l4.2-.5zM166.4 63.7c.2 0 .4.1.3.3 0 .2-.2.3-.4.4l-4.2.4c-1.4.1-2 .3-2.6.4-.7.1-.8-.1-.8-.3 0-.3.2-.4.9-.5.6-.1 1.1 0 2.6-.2l4.2-.5zM166.2 65.3c.2 0 .4.1.3.3 0 .2-.2.3-.4.4l-4.2.4c-1.4.1-2 .3-2.6.4-.7.1-.8-.1-.8-.3 0-.3.2-.4.9-.5.6-.1 1.1 0 2.6-.2l4.2-.5zM166.1 66.9c.2 0 .4.1.3.3 0 .2-.2.3-.4.4l-4.2.4c-1.4.1-2 .3-2.6.4-.7.1-.8-.1-.8-.3 0-.3.2-.4.9-.5.6-.1 1.1 0 2.6-.2l4.2-.5zM165.9 68.5c.2 0 .4.1.3.3 0 .2-.2.3-.4.4l-4.2.4c-1.4.1-2 .3-2.6.4-.7.1-.8-.1-.8-.3 0-.3.2-.4.9-.5.6-.1 1.1 0 2.6-.2l4.2-.5zM165.7 70.1c.2 0 .4.1.3.3 0 .2-.2.3-.4.4l-4.2.4c-1.4.1-2 .3-2.6.4-.7.1-.8-.1-.8-.3 0-.3.2-.4.9-.5.6-.1 1.1 0 2.6-.2l4.2-.5zM165.6 71.7c.2 0 .4.1.3.3 0 .2-.2.3-.4.4l-4.2.4c-1.4.1-2 .3-2.6.4-.7.1-.8-.1-.8-.3 0-.3.2-.4.9-.5.6-.1 1.1 0 2.6-.2l4.2-.5zM165.4 73.3c.2 0 .4.1.3.3 0 .2-.2.3-.4.4l-4.2.4c-1.4.1-2 .3-2.6.4-.7.1-.8-.1-.8-.3 0-.3.2-.4.9-.5.6-.1 1.1 0 2.6-.2l4.2-.5zM165.2 74.9c.2 0 .4.1.3.3 0 .2-.2.3-.4.4l-4.1.4c-1.4.1-2 .3-2.6.4-.7.1-.8-.1-.8-.3 0-.3.2-.4.9-.5.6-.1 1.1 0 2.6-.2l4.1-.5zM165 76.5c.2 0 .4.1.3.3 0 .2-.2.3-.4.4l-4.2.4c-1.4.1-2 .3-2.6.4-.7.1-.8-.1-.8-.3 0-.3.2-.4.9-.5.6-.1 1.1 0 2.6-.2l4.2-.5zM164.9 78.1c.2 0 .4.1.3.3 0 .2-.2.3-.4.4l-4.2.4c-1.4.1-2 .3-2.6.4-.7.1-.8-.1-.8-.3 0-.3.2-.4.9-.5.6-.1 1.1 0 2.6-.2l4.2-.5zM164.7 79.7c.2 0 .4.1.3.3 0 .2-.2.3-.4.4l-4.2.4c-1.4.1-2 .3-2.6.4-.7.1-.8-.1-.8-.3 0-.3.2-.4.9-.5.6-.1 1.1 0 2.6-.2l4.2-.5zM164.5 81.3c.2 0 .4.1.3.3 0 .2-.2.3-.4.4l-4.2.4c-1.4.1-2 .3-2.6.4-.7.1-.8-.1-.8-.3 0-.3.2-.4.9-.5.6-.1 1.1 0 2.6-.2l4.2-.5zM164.4 82.9c.2 0 .4.1.3.3 0 .2-.2.3-.4.4l-4.2.4c-1.4.1-2 .3-2.6.4-.7.1-.8-.1-.8-.3 0-.3.2-.4.9-.5.6-.1 1.1 0 2.6-.2l4.2-.5zM164.2 84.5c.2 0 .4.1.3.3 0 .2-.2.3-.4.4l-4.2.4c-1.4.1-2 .3-2.6.4-.7.1-.8-.1-.8-.3 0-.3.2-.4.9-.5.6-.1 1.1 0 2.6-.2l4.2-.5zM164 86.1c.2 0 .4.1.3.3 0 .2-.2.3-.4.4l-4.2.4c-1.4.1-2 .3-2.6.4-.7.1-.8-.1-.8-.3 0-.3.2-.4.9-.5.6-.1 1.1 0 2.6-.2l4.2-.5z"/></g><path fill="#fff" d="M183.3 85.8l10.1-1.1 3.5-33.2-10.1 1.1z"/><g fill="#6DCACA"><path d="M195.2 52.8c.2 0 .4.1.3.3 0 .2-.2.3-.4.4l-4.2.4c-1.4.1-2 .3-2.6.4-.7.1-.8-.1-.8-.3s.2-.4.9-.5c.6-.1 1.1 0 2.6-.2l4.2-.5zM195 54.4c.2 0 .4.1.3.3 0 .2-.2.3-.4.4l-4.2.4c-1.4.1-2 .3-2.6.4-.7.1-.8-.1-.8-.3 0-.3.2-.4.9-.5.6-.1 1.1 0 2.6-.2l4.2-.5zM194.9 56c.2 0 .4.1.3.3 0 .2-.2.3-.4.4l-4.2.4c-1.4.1-2 .3-2.6.4-.7.1-.8-.1-.8-.3 0-.3.2-.4.9-.5.6-.1 1.1 0 2.6-.2l4.2-.5zM194.7 57.6c.2 0 .4.1.3.3 0 .2-.2.3-.4.4l-4.2.4c-1.4.1-2 .3-2.6.4-.7.1-.8-.1-.8-.3 0-.3.2-.4.9-.5.6-.1 1.1 0 2.6-.2l4.2-.5zM194.5 59.2c.2 0 .4.1.3.3 0 .2-.2.3-.4.4l-4.2.4c-1.4.1-2 .3-2.6.4-.7.1-.8-.1-.8-.3 0-.3.2-.4.9-.5.6-.1 1.1 0 2.6-.2l4.2-.5zM194.4 60.9c.2 0 .4.1.3.3 0 .2-.2.3-.4.4l-4.2.4c-1.4.1-2 .3-2.6.4-.7.1-.8-.1-.8-.3 0-.3.2-.4.9-.5.6-.1 1.1 0 2.6-.2l4.2-.5zM194.2 62.5c.2 0 .4.1.3.3 0 .2-.2.3-.4.4l-4.2.4c-1.4.1-2 .3-2.6.4-.7.1-.8-.1-.8-.3 0-.3.2-.4.9-.5.6-.1 1.1 0 2.6-.2l4.2-.5zM194 64.1c.2 0 .4.1.3.3 0 .2-.2.3-.4.4l-4.2.4c-1.4.1-2 .3-2.6.4-.7.1-.8-.1-.8-.3 0-.3.2-.4.9-.5.6-.1 1.1 0 2.6-.2l4.2-.5zM193.9 65.7c.2 0 .4.1.3.3 0 .2-.2.3-.4.4l-4.2.4c-1.4.1-2 .3-2.6.4-.7.1-.8-.1-.8-.3 0-.3.2-.4.9-.5.6-.1 1.1 0 2.6-.2l4.2-.5zM193.7 67.3c.2 0 .4.1.3.3 0 .2-.2.3-.4.4l-4.2.4c-1.4.1-2 .3-2.6.4-.7.1-.8-.1-.8-.3 0-.3.2-.4.9-.5.6-.1 1.1 0 2.6-.2l4.2-.5zM193.5 68.9c.2 0 .4.1.3.3 0 .2-.2.3-.4.4l-4.2.4c-1.4.1-2 .3-2.6.4-.7.1-.8-.1-.8-.3 0-.3.2-.4.9-.5.6-.1 1.1 0 2.6-.2l4.2-.5zM193.3 70.5c.2 0 .4.1.3.3 0 .2-.2.3-.4.4l-4.2.4c-1.4.1-2 .3-2.6.4-.7.1-.8-.1-.8-.3 0-.3.2-.4.9-.5.6-.1 1.1 0 2.6-.2l4.2-.5zM193.2 72.1c.2 0 .4.1.3.3 0 .2-.2.3-.4.4l-4.2.4c-1.4.1-2 .3-2.6.4-.7.1-.8-.1-.8-.3 0-.3.2-.4.9-.5.6-.1 1.1 0 2.6-.2l4.2-.5zM193 73.7c.2 0 .4.1.3.3 0 .2-.2.3-.4.4l-4.2.4c-1.4.1-2 .3-2.6.4-.7.1-.8-.1-.8-.3 0-.3.2-.4.9-.5.6-.1 1.1 0 2.6-.2l4.2-.5zM192.8 75.3c.2 0 .4.1.3.3 0 .2-.2.3-.4.4l-4.2.4c-1.4.1-2 .3-2.6.4-.7.1-.8-.1-.8-.3 0-.3.2-.4.9-.5.6-.1 1.1 0 2.6-.2l4.2-.5zM192.7 76.9c.2 0 .4.1.3.3 0 .2-.2.3-.4.4l-4.2.4c-1.4.1-2 .3-2.6.4-.7.1-.8-.1-.8-.3 0-.3.2-.4.9-.5.6-.1 1.1 0 2.6-.2l4.2-.5zM192.5 78.5c.2 0 .4.1.3.3 0 .2-.2.3-.4.4l-4.2.4c-1.4.1-2 .3-2.6.4-.7.1-.8-.1-.8-.3 0-.3.2-.4.9-.5.6-.1 1.1 0 2.6-.2l4.2-.5zM192.3 80.1c.2 0 .4.1.3.3 0 .2-.2.3-.4.4l-4.2.4c-1.4.1-2 .3-2.6.4-.7.1-.8-.1-.8-.3 0-.3.2-.4.9-.5.6-.1 1.1 0 2.6-.2l4.2-.5zM192.2 81.7c.2 0 .4.1.3.3 0 .2-.2.3-.4.4l-4.2.4c-1.4.1-2 .3-2.6.4-.7.1-.8-.1-.8-.3 0-.3.2-.4.9-.5.6-.1 1.1 0 2.6-.2l4.2-.5zM192 83.3c.2 0 .4.1.3.3 0 .2-.2.3-.4.4l-4.2.4c-1.4.1-2 .3-2.6.4-.7.1-.8-.1-.8-.3 0-.3.2-.4.9-.5.6-.1 1.1 0 2.6-.2l4.2-.5z"/></g><g fill="#6DCACA"><path d="M195.2 52.7c.2 0 .4.1.3.3 0 .2-.2.3-.4.4l-4.2.4c-1.4.1-2 .3-2.6.4-.7.1-.8-.1-.8-.3 0-.3.2-.4.9-.5.6-.1 1.1 0 2.6-.2l4.2-.5zM195 54.3c.2 0 .4.1.3.3 0 .2-.2.3-.4.4l-4.2.4c-1.4.1-2 .3-2.6.4-.7.1-.8-.1-.8-.3 0-.3.2-.4.9-.5.6-.1 1.1 0 2.6-.2l4.2-.5zM194.9 55.9c.2 0 .4.1.3.3 0 .2-.2.3-.4.4l-4.2.4c-1.4.1-2 .3-2.6.4-.7.1-.8-.1-.8-.3 0-.3.2-.4.9-.5.6-.1 1.1 0 2.6-.2l4.2-.5zM194.7 57.5c.2 0 .4.1.3.3 0 .2-.2.3-.4.4l-4.2.4c-1.4.1-2 .3-2.6.4-.7.1-.8-.1-.8-.3 0-.3.2-.4.9-.5.6-.1 1.1 0 2.6-.2l4.2-.5zM194.5 59.1c.2 0 .4.1.3.3 0 .2-.2.3-.4.4l-4.2.4c-1.4.1-2 .3-2.6.4-.7.1-.8-.1-.8-.3 0-.3.2-.4.9-.5.6-.1 1.1 0 2.6-.2l4.2-.5zM194.4 60.7c.2 0 .4.1.3.3 0 .2-.2.3-.4.4l-4.2.4c-1.4.1-2 .3-2.6.4-.7.1-.8-.1-.8-.3 0-.3.2-.4.9-.5.6-.1 1.1 0 2.6-.2l4.2-.5zM194.2 62.4c.2 0 .4.1.3.3 0 .2-.2.3-.4.4l-4.2.4c-1.4.1-2 .3-2.6.4-.7.1-.8-.1-.8-.3 0-.3.2-.4.9-.5.6-.1 1.1 0 2.6-.2l4.2-.5zM194 64c.2 0 .4.1.3.3 0 .2-.2.3-.4.4l-4.2.4c-1.4.1-2 .3-2.6.4-.7.1-.8-.1-.8-.3 0-.3.2-.4.9-.5.6-.1 1.1 0 2.6-.2l4.2-.5zM193.9 65.6c.2 0 .4.1.3.3 0 .2-.2.3-.4.4l-4.2.4c-1.4.1-2 .3-2.6.4-.7.1-.8-.1-.8-.3 0-.3.2-.4.9-.5.6-.1 1.1 0 2.6-.2l4.2-.5zM193.7 67.2c.2 0 .4.1.3.3 0 .2-.2.3-.4.4l-4.2.4c-1.4.1-2 .3-2.6.4-.7.1-.8-.1-.8-.3 0-.3.2-.4.9-.5.6-.1 1.1 0 2.6-.2l4.2-.5zM193.5 68.8c.2 0 .4.1.3.3 0 .2-.2.3-.4.4l-4.2.4c-1.4.1-2 .3-2.6.4-.7.1-.8-.1-.8-.3 0-.3.2-.4.9-.5.6-.1 1.1 0 2.6-.2l4.2-.5zM193.4 70.4c.2 0 .4.1.3.3 0 .2-.2.3-.4.4l-4.2.4c-1.4.1-2 .3-2.6.4-.7.1-.8-.1-.8-.3 0-.3.2-.4.9-.5.6-.1 1.1 0 2.6-.2l4.2-.5zM193.2 72c.2 0 .4.1.3.3 0 .2-.2.3-.4.4l-4.2.4c-1.4.1-2 .3-2.6.4-.7.1-.8-.1-.8-.3 0-.3.2-.4.9-.5.6-.1 1.1 0 2.6-.2l4.2-.5zM193 73.6c.2 0 .4.1.3.3 0 .2-.2.3-.4.4l-4.2.4c-1.4.1-2 .3-2.6.4-.7.1-.8-.1-.8-.3 0-.3.2-.4.9-.5.6-.1 1.1 0 2.6-.2l4.2-.5zM192.8 75.2c.2 0 .4.1.3.3 0 .2-.2.3-.4.4l-4.2.4c-1.4.1-2 .3-2.6.4-.7.1-.8-.1-.8-.3 0-.3.2-.4.9-.5.6-.1 1.1 0 2.6-.2l4.2-.5zM192.7 76.8c.2 0 .4.1.3.3 0 .2-.2.3-.4.4l-4.2.4c-1.4.1-2 .3-2.6.4-.7.1-.8-.1-.8-.3 0-.3.2-.4.9-.5.6-.1 1.1 0 2.6-.2l4.2-.5zM192.5 78.4c.2 0 .4.1.3.3 0 .2-.2.3-.4.4l-4.2.4c-1.4.1-2 .3-2.6.4-.7.1-.8-.1-.8-.3 0-.3.2-.4.9-.5.6-.1 1.1 0 2.6-.2l4.2-.5zM192.3 80c.2 0 .4.1.3.3 0 .2-.2.3-.4.4l-4.2.4c-1.4.1-2 .3-2.6.4-.7.1-.8-.1-.8-.3 0-.3.2-.4.9-.5.6-.1 1.1 0 2.6-.2l4.2-.5zM192.2 81.6c.2 0 .4.1.3.3 0 .2-.2.3-.4.4l-4.2.4c-1.4.1-2 .3-2.6.4-.7.1-.8-.1-.8-.3 0-.3.2-.4.9-.5.6-.1 1.1 0 2.6-.2l4.2-.5zM192 83.2c.2 0 .4.1.3.3 0 .2-.2.3-.4.4l-4.2.4c-1.4.1-2 .3-2.6.4-.7.1-.8-.1-.8-.3 0-.3.2-.4.9-.5.6-.1 1.1 0 2.6-.2l4.2-.5z"/></g><path fill="#fff" d="M209.8 83l10.2-1 3.5-33.2-10.2 1z"/><g fill="#6DCACA"><path d="M221.8 50.1c.2 0 .4.1.3.3 0 .2-.2.3-.4.4l-4.3.4c-1.4.1-2 .3-2.6.4-.7.1-.8-.1-.8-.3 0-.3.2-.4.9-.5.6-.1 1.1 0 2.6-.2l4.3-.5zM221.6 51.7c.2 0 .4.1.3.3 0 .2-.2.3-.4.4l-4.3.4c-1.4.1-2 .3-2.6.4-.7.1-.8-.1-.8-.3 0-.3.2-.4.9-.5.6-.1 1.1 0 2.6-.2l4.3-.5zM221.4 53.3c.2 0 .4.1.3.3 0 .2-.2.3-.4.4l-4.3.4c-1.4.1-2 .3-2.6.4-.7.1-.8-.1-.8-.3 0-.3.2-.4.9-.5.6-.1 1.1 0 2.6-.2l4.3-.5zM221.3 54.9c.2 0 .4.1.3.3 0 .2-.2.3-.4.4l-4.3.4c-1.4.1-2 .3-2.6.4-.7.1-.8-.1-.8-.3 0-.3.2-.4.9-.5.6-.1 1.1 0 2.6-.2l4.3-.5zM221.1 56.5c.2 0 .4.1.3.3 0 .2-.2.3-.4.4l-4.3.4c-1.4.1-2 .3-2.6.4-.7.1-.8-.1-.8-.3 0-.3.2-.4.9-.5.6-.1 1.1 0 2.6-.2l4.3-.5zM220.9 58.1c.2 0 .4.1.3.3 0 .2-.2.3-.4.4l-4.3.4c-1.4.1-2 .3-2.6.4-.7.1-.8-.1-.8-.3 0-.3.2-.4.9-.5.6-.1 1.1 0 2.6-.2l4.3-.5zM220.7 59.7c.2 0 .4.1.3.3 0 .2-.2.3-.4.4l-4.3.4c-1.4.1-2 .3-2.6.4-.7.1-.8-.1-.8-.3 0-.3.2-.4.9-.5.6-.1 1.1 0 2.6-.2l4.3-.5zM220.6 61.3c.2 0 .4.1.3.3 0 .2-.2.3-.4.4l-4.3.4c-1.4.1-2 .3-2.6.4-.7.1-.8-.1-.8-.3 0-.3.2-.4.9-.5.6-.1 1.1 0 2.6-.2l4.3-.5zM220.4 62.9c.2 0 .4.1.3.3 0 .2-.2.3-.4.4l-4.3.4c-1.4.1-2 .3-2.6.4-.7.1-.8-.1-.8-.3 0-.3.2-.4.9-.5.6-.1 1.1 0 2.6-.2l4.3-.5zM220.2 64.5c.2 0 .4.1.3.3 0 .2-.2.3-.4.4l-4.3.4c-1.4.1-2 .3-2.6.4-.7.1-.8-.1-.8-.3 0-.3.2-.4.9-.5.6-.1 1.1 0 2.6-.2l4.3-.5zM220.1 66.1c.2 0 .4.1.3.3 0 .2-.2.3-.4.4l-4.3.4c-1.4.1-2 .3-2.6.4-.7.1-.8-.1-.8-.3 0-.3.2-.4.9-.5.6-.1 1.1 0 2.6-.2l4.3-.5zM219.9 67.7c.2 0 .4.1.3.3 0 .2-.2.3-.4.4l-4.3.4c-1.4.1-2 .3-2.6.4-.7.1-.8-.1-.8-.3 0-.3.2-.4.9-.5.6-.1 1.1 0 2.6-.2l4.3-.5zM219.7 69.3c.2 0 .4.1.3.3 0 .2-.2.3-.4.4l-4.3.4c-1.4.1-2 .3-2.6.4-.7.1-.8-.1-.8-.3 0-.3.2-.4.9-.5.6-.1 1.1 0 2.6-.2l4.3-.5zM219.6 70.9c.2 0 .4.1.3.3 0 .2-.2.3-.4.4l-4.3.4c-1.4.1-2 .3-2.6.4-.7.1-.8-.1-.8-.3 0-.3.2-.4.9-.5.6-.1 1.1 0 2.6-.2l4.3-.5zM219.4 72.5c.2 0 .4.1.3.3 0 .2-.2.3-.4.4l-4.3.4c-1.4.1-2 .3-2.6.4-.7.1-.8-.1-.8-.3 0-.3.2-.4.9-.5.6-.1 1.1 0 2.6-.2l4.3-.5zM219.2 74.1c.2 0 .4.1.3.3 0 .2-.2.3-.4.4l-4.3.4c-1.4.1-2 .3-2.6.4-.7.1-.8-.1-.8-.3 0-.3.2-.4.9-.5.6-.1 1.1 0 2.6-.2l4.3-.5zM219.1 75.8c.2 0 .4.1.3.3 0 .2-.2.3-.4.4l-4.3.4c-1.4.1-2 .3-2.6.4-.7.1-.8-.1-.8-.3 0-.3.2-.4.9-.5.6-.1 1.1 0 2.6-.2l4.3-.5zM218.9 77.4c.2 0 .4.1.3.3 0 .2-.2.3-.4.4l-4.3.4c-1.4.1-2 .3-2.6.4-.7.1-.8-.1-.8-.3 0-.3.2-.4.9-.5.6-.1 1.1 0 2.6-.2l4.3-.5zM218.7 79c.2 0 .4.1.3.3 0 .2-.2.3-.4.4l-4.3.4c-1.4.1-2 .3-2.6.4-.7.1-.8-.1-.8-.3 0-.3.2-.4.9-.5.6-.1 1.1 0 2.6-.2l4.3-.5zM218.6 80.6c.2 0 .4.1.3.3 0 .2-.2.3-.4.4l-4.3.4c-1.4.1-2 .3-2.6.4-.7.1-.8-.1-.8-.3 0-.3.2-.4.9-.5.6-.1 1.1 0 2.6-.2l4.3-.5z"/></g><g fill="#6DCACA"><path d="M221.7 49.9c.2 0 .4.1.3.3 0 .2-.2.3-.4.4l-4.3.4c-1.4.1-2 .3-2.6.4-.7.1-.8-.1-.8-.3 0-.3.2-.4.9-.5.6-.1 1.1 0 2.6-.2l4.3-.5zM221.5 51.5c.2 0 .4.1.3.3 0 .2-.2.3-.4.4l-4.3.4c-1.4.1-2 .3-2.6.4-.7.1-.8-.1-.8-.3 0-.3.2-.4.9-.5.6-.1 1.1 0 2.6-.2l4.3-.5zM221.4 53.1c.2 0 .4.1.3.3 0 .2-.2.3-.4.4l-4.3.4c-1.4.1-2 .3-2.6.4-.7.1-.8-.1-.8-.3 0-.3.2-.4.9-.5.6-.1 1.1 0 2.6-.2l4.3-.5zM221.2 54.8c.2 0 .4.1.3.3 0 .2-.2.3-.4.4l-4.3.4c-1.4.1-2 .3-2.6.4-.7.1-.8-.1-.8-.3 0-.3.2-.4.9-.5.6-.1 1.1 0 2.6-.2l4.3-.5zM221 56.4c.2 0 .4.1.3.3 0 .2-.2.3-.4.4l-4.3.4c-1.4.1-2 .3-2.6.4-.7.1-.8-.1-.8-.3 0-.3.2-.4.9-.5.6-.1 1.1 0 2.6-.2l4.3-.5zM220.9 58c.2 0 .4.1.3.3 0 .2-.2.3-.4.4l-4.3.4c-1.4.1-2 .3-2.6.4-.7.1-.8-.1-.8-.3 0-.3.2-.4.9-.5.6-.1 1.1 0 2.6-.2l4.3-.5zM220.7 59.6c.2 0 .4.1.3.3 0 .2-.2.3-.4.4l-4.3.4c-1.4.1-2 .3-2.6.4-.7.1-.8-.1-.8-.3 0-.3.2-.4.9-.5.6-.1 1.1 0 2.6-.2l4.3-.5zM220.5 61.2c.2 0 .4.1.3.3 0 .2-.2.3-.4.4l-4.3.4c-1.4.1-2 .3-2.6.4-.7.1-.8-.1-.8-.3 0-.3.2-.4.9-.5.6-.1 1.1 0 2.6-.2l4.3-.5zM220.4 62.8c.2 0 .4.1.3.3 0 .2-.2.3-.4.4l-4.3.4c-1.4.1-2 .3-2.6.4-.7.1-.8-.1-.8-.3 0-.3.2-.4.9-.5.6-.1 1.1 0 2.6-.2l4.3-.5zM220.2 64.4c.2 0 .4.1.3.3 0 .2-.2.3-.4.4l-4.3.4c-1.4.1-2 .3-2.6.4-.7.1-.8-.1-.8-.3 0-.3.2-.4.9-.5.6-.1 1.1 0 2.6-.2l4.3-.5zM220 66c.2 0 .4.1.3.3 0 .2-.2.3-.4.4l-4.3.4c-1.4.1-2 .3-2.6.4-.7.1-.8-.1-.8-.3 0-.3.2-.4.9-.5.6-.1 1.1 0 2.6-.2l4.3-.5zM219.9 67.6c.2 0 .4.1.3.3 0 .2-.2.3-.4.4l-4.3.4c-1.4.1-2 .3-2.6.4-.7.1-.8-.1-.8-.3 0-.3.2-.4.9-.5.6-.1 1.1 0 2.6-.2l4.3-.5zM219.7 69.2c.2 0 .4.1.3.3 0 .2-.2.3-.4.4l-4.3.4c-1.4.1-2 .3-2.6.4-.7.1-.8-.1-.8-.3 0-.3.2-.4.9-.5.6-.1 1.1 0 2.6-.2l4.3-.5zM219.5 70.8c.2 0 .4.1.3.3 0 .2-.2.3-.4.4l-4.3.4c-1.4.1-2 .3-2.6.4-.7.1-.8-.1-.8-.3 0-.3.2-.4.9-.5.6-.1 1.1 0 2.6-.2l4.3-.5zM219.4 72.4c.2 0 .4.1.3.3 0 .2-.2.3-.4.4l-4.3.4c-1.4.1-2 .3-2.6.4-.7.1-.8-.1-.8-.3 0-.3.2-.4.9-.5.6-.1 1.1 0 2.6-.2l4.3-.5zM219.2 74c.2 0 .4.1.3.3 0 .2-.2.3-.4.4l-4.3.4c-1.4.1-2 .3-2.6.4-.7.1-.8-.1-.8-.3 0-.3.2-.4.9-.5.6-.1 1.1 0 2.6-.2l4.3-.5zM219 75.6c.2 0 .4.1.3.3 0 .2-.2.3-.4.4l-4.3.4c-1.4.1-2 .3-2.6.4-.7.1-.8-.1-.8-.3 0-.3.2-.4.9-.5.6-.1 1.1 0 2.6-.2l4.3-.5zM218.8 77.2c.2 0 .4.1.3.3 0 .2-.2.3-.4.4l-4.3.4c-1.4.1-2 .3-2.6.4-.7.1-.8-.1-.8-.3 0-.3.2-.4.9-.5.6-.1 1.1 0 2.6-.2l4.3-.5zM218.7 78.8c.2 0 .4.1.3.3 0 .2-.2.3-.4.4l-4.3.4c-1.4.1-2 .3-2.6.4-.7.1-.8-.1-.8-.3 0-.3.2-.4.9-.5.6-.1 1.1 0 2.6-.2l4.3-.5zM218.5 80.4c.2 0 .4.1.3.3 0 .2-.2.3-.4.4l-4.3.4c-1.4.1-2 .3-2.6.4-.7.1-.8-.1-.8-.3 0-.3.2-.4.9-.5.6-.1 1.1 0 2.6-.2l4.3-.5z"/></g><path fill="#fff" d="M227.5 69c1.2.4 3.2 3.9 4.6 7.2 1.5 3.4 2.9 6.1 7.6 5.6 2.9-.3 6.5-1.6 9.3-4-2.2.1-5.1-1.9-7.8-5.1-3-3.5-6.9-4.3-12.4-3.9l-1.3.2zM232.6 47.9c2.9 1.6 3.8 4.7 3.5 8.2-.5 4.5-2.4 8.5-5.4 10.6l1.5-.2c5-.5 12.6-4.4 13.3-11.1.6-5.8-4.6-8.4-12.9-7.5z"/><g fill="#6DCACA"><path d="M238.3 48.7c0 .2-.2.3-.4.4-1.3.1-1.4.2-2 .3-.4 0-.6 0-.6-.3s.2-.4.6-.4c.5-.1.6 0 2-.2.2-.1.4 0 .4.2zM235.9 64.8c0 .2-.2.3-.4.4-.5.1-1.1.2-1.4.3-.3 0-.5-.1-.4-.4 0-.3.3-.5.5-.5h1.4c.2-.1.4 0 .3.2zM239.2 62.9c0 .2-.2.3-.4.4-2 .2-2.6.4-3.2.4-.7.1-.8-.1-.8-.3 0-.3.2-.4.9-.5.6-.1 1.1 0 3.2-.2.2-.1.3-.1.3.2zM241.1 49.6c.2 0 .4.1.3.3 0 .2-.2.3-.4.4l-.8.1c-1.4.1-2.5.4-3.1.4-.7.1-.8-.1-.8-.3 0-.3.2-.4.9-.5.6-.1 1.6-.1 3-.2l.9-.2zM241.2 60.7c.2 0 .4.1.3.3 0 .2-.2.3-.4.4l-2 .2c-1.4.1-2 .3-2.6.4-.7.1-.8-.1-.8-.3 0-.3.2-.4.9-.5.6-.1 1.1 0 2.6-.2l2-.3zM242.9 51c.2 0 .4.1.3.3 0 .2-.2.3-.4.4l-2.6.3c-1.4.1-2 .3-2.6.4-.7.1-.8-.1-.8-.3 0-.3.2-.4.9-.5.6-.1 1.1 0 2.6-.2l2.6-.4zM242.8 59c.2 0 .4.1.3.3 0 .2-.2.3-.4.4l-3 .3c-1.4.1-2 .3-2.6.4-.7.1-.8-.1-.8-.3s.2-.4.9-.5c.6-.1 1.1 0 2.6-.2l3-.4zM243.7 52.6c.2 0 .4.1.3.3 0 .2-.2.3-.4.4l-3 .3c-1.4.1-2 .3-2.6.4-.7.1-.8-.1-.8-.3 0-.3.2-.4.9-.5.6-.1 1.1 0 2.6-.2l3-.4zM243.5 57.3c.2 0 .4.1.3.3 0 .2-.2.3-.4.4l-3.2.3c-1.4.1-2 .3-2.6.4-.7.1-.8-.1-.8-.3 0-.3.2-.4.9-.5.6-.1 1.1 0 2.6-.2l3.2-.4zM244.1 54.1c.2 0 .4.1.3.3 0 .2-.2.3-.4.4l-3.5.4c-1.4.1-2 .3-2.6.4-.7.1-.8-.1-.8-.3 0-.3.2-.4.9-.5.6-.1 1.1 0 2.6-.2l3.5-.5zM244 55.7c.2 0 .4.1.3.3 0 .2-.2.3-.4.4l-3.5.4c-1.4.1-2 .3-2.6.4-.7.1-.8-.1-.8-.3 0-.3.2-.4.9-.5.6-.1 1.1 0 2.6-.2l3.5-.5z"/></g><g fill="#6DCACA"><path d="M238.3 48.5c0 .2-.2.3-.4.4-1.3.1-1.4.2-2 .3-.4 0-.6 0-.6-.3s.2-.4.6-.4c.5-.1.6 0 2-.2.3-.1.4 0 .4.2zM236 64.6c0 .2-.2.3-.4.4-.5.1-1.1.2-1.4.3-.3 0-.5-.1-.4-.4 0-.3.3-.5.5-.5h1.4c.1-.1.3 0 .3.2zM239.2 62.7c0 .2-.2.3-.4.4-2 .2-2.6.4-3.2.4-.7.1-.8-.1-.8-.3 0-.3.2-.4.9-.5.6-.1 1.1 0 3.2-.2.2-.1.4 0 .3.2zM241.2 49.5c.2 0 .4.1.3.3 0 .2-.2.3-.4.4l-.8.1c-1.4.1-2.5.4-3.1.4-.7.1-.8-.1-.8-.3 0-.3.2-.4.9-.5.6-.1 1.6-.1 3-.2l.9-.2zM241.2 60.6c.2 0 .4.1.3.3 0 .2-.2.3-.4.4l-2 .2c-1.4.1-2 .3-2.6.4-.7.1-.8-.1-.8-.3 0-.3.2-.4.9-.5.6-.1 1.1 0 2.6-.2l2-.3zM243 50.9c.2 0 .4.1.3.3 0 .2-.2.3-.4.4l-2.6.3c-1.4.1-2 .3-2.6.4-.7.1-.8-.1-.8-.3 0-.3.2-.4.9-.5.6-.1 1.1 0 2.6-.2l2.6-.4zM242.8 58.8c.2 0 .4.1.3.3 0 .2-.2.3-.4.4l-3 .3c-1.4.1-2 .3-2.6.4-.7.1-.8-.1-.8-.3 0-.3.2-.4.9-.5.6-.1 1.1 0 2.6-.2l3-.4zM243.7 52.4c.2 0 .4.1.3.3 0 .2-.2.3-.4.4l-3 .3c-1.4.1-2 .3-2.6.4-.7.1-.8-.1-.8-.3 0-.3.2-.4.9-.5.6-.1 1.1 0 2.6-.2l3-.4zM243.5 57.2c.2 0 .4.1.3.3 0 .2-.2.3-.4.4l-3.2.3c-1.4.1-2 .3-2.6.4-.7.1-.8-.1-.8-.3 0-.3.2-.4.9-.5.6-.1 1.1 0 2.6-.2l3.2-.4zM244.2 53.9c.2 0 .4.1.3.3 0 .2-.2.3-.4.4l-3.5.4c-1.4.1-2 .3-2.6.4-.7.1-.8-.1-.8-.3 0-.3.2-.4.9-.5.6-.1 1.1 0 2.6-.2l3.5-.5zM244 55.5c.2 0 .4.1.3.3 0 .2-.2.3-.4.4l-3.5.4c-1.4.1-2 .3-2.6.4-.7.1-.8-.1-.8-.3 0-.3.2-.4.9-.5.6-.1 1.1 0 2.6-.2l3.5-.5z"/></g><g fill="#6DCACA"><path d="M233.3 69.6c.2 0 .4.1.3.3 0 .2-.2.3-.4.4h-.3c-.9.1-1.5.3-2.1.3-.7.1-.8-.1-.8-.3 0-.3.2-.4.9-.5l2.1-.1.3-.1zM237.2 70.7c.2 0 .4.1.3.3 0 .2-.2.3-.4.4l-2.7.3c-1.4.1-2 .3-2.6.4-.7.1-.8-.1-.8-.3 0-.3.2-.4.9-.5.6-.1 1.1 0 2.6-.2l2.7-.4zM239.1 72.1c.2 0 .4.1.3.3 0 .2-.2.3-.4.4l-3.8.4c-1.4.1-2 .3-2.6.4-.7.1-.8-.1-.8-.3 0-.3.2-.4.9-.5.6-.1 1.1 0 2.6-.2l3.8-.5zM240.5 73.5c.2 0 .4.1.3.3 0 .2-.2.3-.4.4l-4.4.5c-1.4.1-2 .3-2.6.4-.7.1-.8-.1-.8-.3 0-.3.2-.4.9-.5.6-.1 1.1 0 2.6-.2l4.4-.6zM241.6 75c.2 0 .4.1.3.3 0 .2-.2.3-.4.4l-4.9.5c-1.4.1-2 .3-2.6.4-.7.1-.8-.1-.8-.3 0-.3.2-.4.9-.5.6-.1 1.1 0 2.6-.2l4.9-.6zM243.1 76.4c.2 0 .4.1.3.3 0 .2-.2.3-.4.4l-5.5.6c-1.4.1-2 .3-2.6.4-.7.1-.8-.1-.8-.3 0-.3.2-.4.9-.5.6-.1 1.1 0 2.6-.2l5.5-.7zM245.4 77.8c.2 0 .4.1.3.3 0 .2-.2.3-.4.4l-6.6.7c-1.4.1-2 .3-2.6.4-.7.1-.8-.1-.8-.3 0-.3.2-.4.9-.5.6-.1 1.1 0 2.6-.2l6.6-.8zM243.7 79.5c.2 0 .4.1.3.3 0 .2-.2.3-.4.4l-3.4.4c-1.4.1-2 .3-2.6.4-.7.1-.8-.1-.8-.3 0-.3.2-.4.9-.5.6-.1 1.1 0 2.6-.2l3.4-.5z"/></g><g fill="#6DCACA"><path d="M233.3 69.4c.2 0 .4.1.3.3 0 .2-.2.3-.4.4h-.3c-.9.1-1.5.3-2.1.3-.7.1-.8-.1-.8-.3 0-.3.2-.4.9-.5l2.1-.1.3-.1zM237.2 70.5c.2 0 .4.1.3.3 0 .2-.2.3-.4.4l-2.7.3c-1.4.1-2 .3-2.6.4-.7.1-.8-.1-.8-.3 0-.3.2-.4.9-.5.6-.1 1.1 0 2.6-.2l2.7-.4zM239.1 71.9c.2 0 .4.1.3.3 0 .2-.2.3-.4.4l-3.8.4c-1.4.1-2 .3-2.6.4-.7.1-.8-.1-.8-.3 0-.3.2-.4.9-.5.6-.1 1.1 0 2.6-.2l3.8-.5zM240.5 73.3c.2 0 .4.1.3.3 0 .2-.2.3-.4.4l-4.4.5c-1.4.1-2 .3-2.6.4-.7.1-.8-.1-.8-.3 0-.3.2-.4.9-.5.6-.1 1.1 0 2.6-.2l4.4-.6zM241.6 74.8c.2 0 .4.1.3.3 0 .2-.2.3-.4.4l-4.9.5c-1.4.1-2 .3-2.6.4-.7.1-.8-.1-.8-.3 0-.3.2-.4.9-.5.6-.1 1.1 0 2.6-.2l4.9-.6zM243.1 76.3c.2 0 .4.1.3.3 0 .2-.2.3-.4.4l-5.5.6c-1.4.1-2 .3-2.6.4-.7.1-.8-.1-.8-.3 0-.3.2-.4.9-.5.6-.1 1.1 0 2.6-.2l5.5-.7zM245.4 77.6c.2 0 .4.1.3.3 0 .2-.2.3-.4.4l-6.6.7c-1.4.1-2 .3-2.6.4-.7.1-.8-.1-.8-.3 0-.3.2-.4.9-.5.6-.1 1.1 0 2.6-.2l6.6-.8zM243.8 79.4c.2 0 .4.1.3.3 0 .2-.2.3-.4.4l-3.4.4c-1.4.1-2 .3-2.6.4-.7.1-.8-.1-.8-.3 0-.3.2-.4.9-.5.6-.1 1.1 0 2.6-.2l3.4-.5z"/></g><linearGradient id="E" gradientUnits="userSpaceOnUse" x1="343.101" y1="278.62" x2="365.632" y2="278.62" gradientTransform="matrix(1.011 -.105 -.105 1 -62.118 -180.702)"><stop offset="0" stop-color="#93D5D8"/><stop offset="1" stop-color="#6DCACA"/></linearGradient><path fill="url(#E)" d="M258.8 45.1c-.6.1-1.1-.3-1-.9.1-.6.7-1.2 1.3-1.2l19.3-2c.6-.1 1 .4 1 1-.1.6-.6 1.1-1.2 1.1l-2.5.3-3.5 33.2 3.3-.3c.6-.1 1 .3 1 1-.1.6-.6 1.1-1.2 1.2l-20.5 2.1c-.7.1-1.1-.3-1-.9.1-.6.6-1.2 1.3-1.2l3.2-.3 3.5-33.2-3 .1z"/><path fill="#fff" d="M260.3 77.8l9.5-1 3.5-33.2-9.5 1z"/><g fill="#6DCACA"><path d="M271.7 44.9c.2 0 .4.1.3.3 0 .2-.2.3-.4.4l-3.8.4c-1.4.1-2 .3-2.6.4-.7.1-.8-.1-.8-.3 0-.3.2-.4.9-.5.6-.1 1.1 0 2.6-.2l3.8-.5zM271.5 46.5c.2 0 .4.1.3.3 0 .2-.2.3-.4.4l-3.8.4c-1.4.1-2 .3-2.6.4-.7.1-.8-.1-.8-.3 0-.3.2-.4.9-.5.6-.1 1.1 0 2.6-.2l3.8-.5zM271.4 48.1c.2 0 .4.1.3.3s-.2.3-.4.4l-3.8.4c-1.4.1-2 .3-2.6.4-.7.1-.8-.1-.8-.3 0-.3.2-.4.9-.5.6-.1 1.1 0 2.6-.2l3.8-.5zM271.2 49.7c.2 0 .4.1.3.3 0 .2-.2.3-.4.4l-3.8.4c-1.4.1-2 .3-2.6.4-.7.1-.8-.1-.8-.3 0-.3.2-.4.9-.5.6-.1 1.1 0 2.6-.2l3.8-.5zM271 51.3c.2 0 .4.1.3.3 0 .2-.2.3-.4.4l-3.8.4c-1.4.1-2 .3-2.6.4-.7.1-.8-.1-.8-.3 0-.3.2-.4.9-.5.6-.1 1.1 0 2.6-.2l3.8-.5zM270.9 52.9c.2 0 .4.1.3.3 0 .2-.2.3-.4.4l-3.8.4c-1.4.1-2 .3-2.6.4-.7.1-.8-.1-.8-.3 0-.3.2-.4.9-.5.6-.1 1.1 0 2.6-.2l3.8-.5zM270.7 54.5c.2 0 .4.1.3.3 0 .2-.2.3-.4.4l-3.8.4c-1.4.1-2 .3-2.6.4-.7.1-.8-.1-.8-.3 0-.3.2-.4.9-.5.6-.1 1.1 0 2.6-.2l3.8-.5zM270.5 56.1c.2 0 .4.1.3.3s-.2.3-.4.4l-3.8.4c-1.4.1-2 .3-2.6.4-.7.1-.8-.1-.8-.3 0-.3.2-.4.9-.5.6-.1 1.1 0 2.6-.2l3.8-.5zM270.4 57.7c.2 0 .4.1.3.3 0 .2-.2.3-.4.4l-3.8.4c-1.4.1-2 .3-2.6.4-.7.1-.8-.1-.8-.3 0-.3.2-.4.9-.5.6-.1 1.1 0 2.6-.2l3.8-.5zM270.2 59.3c.2 0 .4.1.3.3 0 .2-.2.3-.4.4l-3.8.4c-1.4.1-2 .3-2.6.4-.7.1-.8-.1-.8-.3 0-.3.2-.4.9-.5.6-.1 1.1 0 2.6-.2l3.8-.5zM270 60.9c.2 0 .4.1.3.3 0 .2-.2.3-.4.4l-3.8.4c-1.4.1-2 .3-2.6.4-.7.1-.8-.1-.8-.3 0-.3.2-.4.9-.5.6-.1 1.1 0 2.6-.2l3.8-.5zM269.8 62.5c.2 0 .4.1.3.3s-.2.3-.4.4l-3.8.4c-1.4.1-2 .3-2.6.4-.7.1-.8-.1-.8-.3 0-.3.2-.4.9-.5.6-.1 1.1 0 2.6-.2l3.8-.5zM269.7 64.1c.2 0 .4.1.3.3 0 .2-.2.3-.4.4l-3.8.4c-1.4.1-2 .3-2.6.4-.7.1-.8-.1-.8-.3 0-.3.2-.4.9-.5.6-.1 1.1 0 2.6-.2l3.8-.5zM269.5 65.7c.2 0 .4.1.3.3 0 .2-.2.3-.4.4l-3.8.4c-1.4.1-2 .3-2.6.4-.7.1-.8-.1-.8-.3 0-.3.2-.4.9-.5.6-.1 1.1 0 2.6-.2l3.8-.5zM269.3 67.4c.2 0 .4.1.3.3 0 .2-.2.3-.4.4l-3.8.4c-1.4.1-2 .3-2.6.4-.7.1-.8-.1-.8-.3 0-.3.2-.4.9-.5.6-.1 1.1 0 2.6-.2l3.8-.5zM269.2 69c.2 0 .4.1.3.3 0 .2-.2.3-.4.4l-3.8.4c-1.4.1-2 .3-2.6.4-.7.1-.8-.1-.8-.3 0-.3.2-.4.9-.5.6-.1 1.1 0 2.6-.2l3.8-.5zM269 70.6c.2 0 .4.1.3.3 0 .2-.2.3-.4.4l-3.8.4c-1.4.1-2 .3-2.6.4-.7.1-.8-.1-.8-.3s.2-.4.9-.5c.6-.1 1.1 0 2.6-.2l3.8-.5zM268.8 72.2c.2 0 .4.1.3.3 0 .2-.2.3-.4.4l-3.8.4c-1.4.1-2 .3-2.6.4-.7.1-.8-.1-.8-.3 0-.3.2-.4.9-.5.6-.1 1.1 0 2.6-.2l3.8-.5zM268.7 73.8c.2 0 .4.1.3.3 0 .2-.2.3-.4.4l-3.8.4c-1.4.1-2 .3-2.6.4-.7.1-.8-.1-.8-.3 0-.3.2-.4.9-.5.6-.1 1.1 0 2.6-.2l3.8-.5zM268.5 75.4c.2 0 .4.1.3.3s-.2.3-.4.4l-3.8.4c-1.4.1-2 .3-2.6.4-.7.1-.8-.1-.8-.3 0-.3.2-.4.9-.5.6-.1 1.1 0 2.6-.2l3.8-.5z"/></g><g fill="#6DCACA"><path d="M271.7 44.7c.2 0 .4.1.3.3 0 .2-.2.3-.4.4l-3.8.4c-1.4.1-2 .3-2.6.4-.7.1-.8-.1-.8-.3 0-.3.2-.4.9-.5.6-.1 1.1 0 2.6-.2l3.8-.5zM271.5 46.3c.2 0 .4.1.3.3 0 .2-.2.3-.4.4l-3.8.4c-1.4.1-2 .3-2.6.4-.7.1-.8-.1-.8-.3 0-.3.2-.4.9-.5.6-.1 1.1 0 2.6-.2l3.8-.5zM271.4 47.9c.2 0 .4.1.3.3 0 .2-.2.3-.4.4l-3.8.4c-1.4.1-2 .3-2.6.4-.7.1-.8-.1-.8-.3 0-.3.2-.4.9-.5.6-.1 1.1 0 2.6-.2l3.8-.5zM271.2 49.5c.2 0 .4.1.3.3 0 .2-.2.3-.4.4l-3.8.4c-1.4.1-2 .3-2.6.4-.7.1-.8-.1-.8-.3 0-.3.2-.4.9-.5.6-.1 1.1 0 2.6-.2l3.8-.5zM271 51.1c.2 0 .4.1.3.3 0 .2-.2.3-.4.4l-3.8.4c-1.4.1-2 .3-2.6.4-.7.1-.8-.1-.8-.3 0-.3.2-.4.9-.5.6-.1 1.1 0 2.6-.2l3.8-.5zM270.9 52.7c.2 0 .4.1.3.3 0 .2-.2.3-.4.4l-3.8.4c-1.4.1-2 .3-2.6.4-.7.1-.8-.1-.8-.3 0-.3.2-.4.9-.5.6-.1 1.1 0 2.6-.2l3.8-.5zM270.7 54.4c.2 0 .4.1.3.3 0 .2-.2.3-.4.4l-3.8.4c-1.4.1-2 .3-2.6.4-.7.1-.8-.1-.8-.3 0-.3.2-.4.9-.5.6-.1 1.1 0 2.6-.2l3.8-.5zM270.5 56c.2 0 .4.1.3.3s-.2.3-.4.4l-3.8.4c-1.4.1-2 .3-2.6.4-.7.1-.8-.1-.8-.3 0-.3.2-.4.9-.5.6-.1 1.1 0 2.6-.2l3.8-.5zM270.4 57.6c.2 0 .4.1.3.3 0 .2-.2.3-.4.4l-3.8.4c-1.4.1-2 .3-2.6.4-.7.1-.8-.1-.8-.3 0-.3.2-.4.9-.5.6-.1 1.1 0 2.6-.2l3.8-.5zM270.2 59.2c.2 0 .4.1.3.3 0 .2-.2.3-.4.4l-3.8.4c-1.4.1-2 .3-2.6.4-.7.1-.8-.1-.8-.3 0-.3.2-.4.9-.5.6-.1 1.1 0 2.6-.2l3.8-.5zM270 60.8c.2 0 .4.1.3.3 0 .2-.2.3-.4.4l-3.8.4c-1.4.1-2 .3-2.6.4-.7.1-.8-.1-.8-.3 0-.3.2-.4.9-.5.6-.1 1.1 0 2.6-.2l3.8-.5zM269.9 62.4c.2 0 .4.1.3.3 0 .2-.2.3-.4.4l-3.8.4c-1.4.1-2 .3-2.6.4-.7.1-.8-.1-.8-.3 0-.3.2-.4.9-.5.6-.1 1.1 0 2.6-.2l3.8-.5zM269.7 64c.2 0 .4.1.3.3s-.2.3-.4.4l-3.8.4c-1.4.1-2 .3-2.6.4-.7.1-.8-.1-.8-.3 0-.3.2-.4.9-.5.6-.1 1.1 0 2.6-.2l3.8-.5zM269.5 65.6c.2 0 .4.1.3.3 0 .2-.2.3-.4.4l-3.8.4c-1.4.1-2 .3-2.6.4-.7.1-.8-.1-.8-.3 0-.3.2-.4.9-.5.6-.1 1.1 0 2.6-.2l3.8-.5zM269.4 67.2c.2 0 .4.1.3.3 0 .2-.2.3-.4.4l-3.8.4c-1.4.1-2 .3-2.6.4-.7.1-.8-.1-.8-.3 0-.3.2-.4.9-.5.6-.1 1.1 0 2.6-.2l3.8-.5zM269.2 68.8c.2 0 .4.1.3.3 0 .2-.2.3-.4.4l-3.8.4c-1.4.1-2 .3-2.6.4-.7.1-.8-.1-.8-.3 0-.3.2-.4.9-.5.6-.1 1.1 0 2.6-.2l3.8-.5zM269 70.4c.2 0 .4.1.3.3 0 .2-.2.3-.4.4l-3.8.4c-1.4.1-2 .3-2.6.4-.7.1-.8-.1-.8-.3 0-.3.2-.4.9-.5.6-.1 1.1 0 2.6-.2l3.8-.5zM268.8 72c.2 0 .4.1.3.3 0 .2-.2.3-.4.4l-3.7.3c-1.4.1-2 .3-2.6.4-.7.1-.8-.1-.8-.3 0-.3.2-.4.9-.5.6-.1 1.1 0 2.6-.2l3.7-.4zM268.7 73.6c.2 0 .4.1.3.3s-.2.3-.4.4l-3.8.4c-1.4.1-2 .3-2.6.4-.7.1-.8-.1-.8-.3 0-.3.2-.4.9-.5.6-.1 1.1 0 2.6-.2l3.8-.5zM268.5 75.2c.2 0 .4.1.3.3 0 .2-.2.3-.4.4l-3.8.4c-1.4.1-2 .3-2.6.4-.7.1-.8-.1-.8-.3 0-.3.2-.4.9-.5.6-.1 1.1 0 2.6-.2l3.8-.5z"/></g><linearGradient id="F" gradientUnits="userSpaceOnUse" x1="370.661" y1="278.165" x2="402.271" y2="278.165" gradientTransform="matrix(1.011 -.105 -.105 1 -62.118 -180.702)"><stop offset="0" stop-color="#93D5D8"/><stop offset="1" stop-color="#6DCACA"/></linearGradient><path fill="url(#F)" d="M311.6 47.1l.4-4.2c-2.7-1.8-5.4-3-8.7-2.7-4.4.5-6.2 3.5-6.4 5.7-.4 4.1 2.2 5.1 7.8 6.8 7 2.1 10.4 4.4 9.7 10.8-.8 7.2-8.6 12.2-17.4 13.1-5.5.6-9.1 0-12.2-2.4l-.3 2.5c-.1.5-.7 1.1-1.2 1.1-.6.1-1.2-.4-1.1-.9l1.1-10.6c.1-.6.7-1.2 1.3-1.2.5-.1 1 .4 1 1l-.5 5.2c2.2 2.5 5.8 3.8 9.7 3.4 4.4-.5 7.3-2 7.6-4.8.3-2.6-.9-4-8.4-5.7-7.6-1.8-10.7-6-10-12.4.8-7.4 7.7-12.5 17.8-13.5 3.9-.4 7.1.4 10.4 2l.3-3.1c.1-.6.5-1.1 1.2-1.2.6-.1 1 .4 1 1l-1.1 10.1c-.1.6-.6 1.2-1.3 1.2-.5-.2-.8-.6-.7-1.2z"/><path fill="#fff" d="M286.4 51.4c-.6 5.4 2.1 9.1 8.8 10.5 7 1.5 10 3.3 9.5 7.6-.2 1.6-1 2.9-1.8 3.6 3.4-1.1 8.8-4.3 9.4-9.5.5-5.2-2.3-7.2-8.5-9-6.2-1.8-9.7-3.3-9.1-8.6.2-1.7 1.1-3.9 2.8-5.1-6.7 1.8-10.6 5.5-11.1 10.5z"/><g fill="#6DCACA"><path d="M294.4 50.5c.2 0 .4.1.3.3 0 .2-.2.3-.4.4l-3.6.4c-1.4.1-2 .3-2.6.4-.7.1-.8-.1-.8-.3 0-.3.2-.4.9-.5.6-.1 1.1 0 2.6-.2l3.6-.5zM293.9 48.9c.2 0 .4.1.3.3s-.2.3-.4.4l-2.8.3c-1.4.1-2 .3-2.6.4-.7.1-.8-.1-.8-.3 0-.3.2-.4.9-.5.6-.1 1.1 0 2.6-.2l2.8-.4zM295.3 51.9c.2 0 .4.1.3.3 0 .2-.2.3-.4.4l-4.6.5c-1.4.1-2 .3-2.6.4-.7.1-.8-.1-.8-.3 0-.3.2-.4.9-.5.6-.1 1.1 0 2.6-.2l4.6-.6zM297.4 53.3c.2 0 .4.1.3.3 0 .2-.2.3-.4.4l-6.5.7c-1.4.1-2 .3-2.6.4-.7.1-.8-.1-.8-.3 0-.3.2-.4.9-.5.6-.1 1.1 0 2.6-.2l6.5-.8zM293.5 47.4c.2 0 .4.1.3.3s-.2.3-.4.4l-1.9.2c-1.4.1-2 .3-2.6.4-.7.1-.8-.1-.8-.3 0-.3.2-.4.9-.5.6-.1 1.1 0 2.6-.2l1.9-.3zM300.2 54.6c.2 0 .4.1.3.3 0 .2-.2.3-.4.4l-8.8.9c-1.4.1-2 .3-2.6.4-.7.1-.8-.1-.8-.3 0-.3.2-.4.9-.5.6-.1 1.1 0 2.6-.2l8.8-1zM293.8 45.8c.2 0 .4.1.3.3 0 .2-.2.3-.4.4l-1 .1c-1.4.1-2 .3-2.6.4-.7.1-.8-.1-.8-.3 0-.3.2-.4.9-.5.6-.1 1.1 0 2.6-.2l1-.2zM304.2 55.8c.2 0 .4.1.3.3 0 .2-.2.3-.4.4l-11.6 1.2c-1.4.1-2 .3-2.6.4-.7.1-.8-.1-.8-.3 0-.3.2-.4.9-.5.6-.1 1.1 0 2.6-.2l11.6-1.3zM294.4 44.5c0 .2-.2.3-.4.4-1.4.1-1.5.2-2.1.3-.7.1-.8 0-.8-.3s.2-.4.9-.5c.6-.1.7 0 2.1-.2.2 0 .4.1.3.3zM307.4 57c.2 0 .4.1.3.3 0 .2-.2.3-.4.4l-13.2 1.4c-1.4.1-2 .3-2.6.4-.7.1-.8-.1-.8-.3 0-.3.2-.4.9-.5.6-.1 1.1 0 2.6-.2l13.2-1.5zM294.7 42.8c.2 0 .4.1.3.3s-.2.3-.4.4l-.7.1c-.3 0-.4-.1-.4-.3s.2-.3.5-.4l.7-.1zM309.6 58.4c.2 0 .4.1.3.3 0 .2-.2.3-.4.4l-12.9 1.3c-1.4.1-2 .3-2.6.4-.7.1-.8-.1-.8-.3 0-.3.2-.4.9-.5.6-.1 1.1 0 2.6-.2l12.9-1.4zM310.8 59.9c.2 0 .4.1.3.3 0 .2-.2.3-.4.4l-9.9 1c-1.4.1-2 .3-2.6.4-.7.1-.8-.1-.8-.3 0-.3.2-.4.9-.5.6-.1 1.1 0 2.6-.2l9.9-1.1zM311.2 61.4c.2 0 .4.1.3.3 0 .2-.2.3-.4.4l-6.7.7c-1.4.1-2 .3-2.6.4-.7.1-.8-.1-.8-.3 0-.3.2-.4.9-.5.6-.1 1.1 0 2.6-.2l6.7-.8zM311.4 63c.2 0 .4.1.3.3s-.2.3-.4.4l-4.4.5c-1.4.1-2 .3-2.6.4-.7.1-.8-.1-.8-.3 0-.3.2-.4.9-.5.6-.1 1.1 0 2.6-.2l4.4-.6zM311.1 64.6c.2 0 .4.1.3.3 0 .2-.2.3-.4.4l-2.8.3c-1.4.1-2 .3-2.6.4-.7.1-.8-.1-.8-.3 0-.3.2-.4.9-.5.6-.1 1.1 0 2.6-.2l2.8-.4zM310.6 66.2c.2 0 .4.1.3.3s-.2.3-.4.4l-1.6.2c-1.4.1-2 .3-2.6.4-.7.1-.8-.1-.8-.3s.2-.4.9-.5c.6-.1 1.1 0 2.6-.2l1.6-.3zM307.7 70.1c0 .2-.2.3-.4.4-.4 0-.7.1-1.3.2-.4 0-.6 0-.6-.3s.2-.4.6-.4l1.3-.1c.3-.1.5 0 .4.2zM309.3 68c.2 0 .4.1.3.3 0 .2-.2.3-.4.4h-.1c-1.4.1-2 .3-2.6.4-.7.1-.8-.1-.8-.3 0-.3.2-.4.9-.5.6-.1 1.1 0 2.6-.2l.1-.1z"/></g><g fill="#6DCACA"><path d="M294.4 50.3c.2 0 .4.1.3.3 0 .2-.2.3-.4.4l-3.6.4c-1.4.1-2 .3-2.6.4-.7.1-.8-.1-.8-.3 0-.3.2-.4.9-.5.6-.1 1.1 0 2.6-.2l3.6-.5zM293.9 48.7c.2 0 .4.1.3.3s-.2.3-.4.4l-2.8.3c-1.4.1-2 .3-2.6.4-.7.1-.8-.1-.8-.3 0-.3.2-.4.9-.5.6-.1 1.1 0 2.6-.2l2.8-.4zM295.4 51.7c.2 0 .4.1.3.3 0 .2-.2.3-.4.4l-4.6.5c-1.4.1-2 .3-2.6.4-.7.1-.8-.1-.8-.3 0-.3.2-.4.9-.5.6-.1 1.1 0 2.6-.2l4.6-.6zM297.4 53.1c.2 0 .4.1.3.3 0 .2-.2.3-.4.4l-6.5.7c-1.4.1-2 .3-2.6.4-.7.1-.8-.1-.8-.3s.2-.4.9-.5c.6-.1 1.1 0 2.6-.2l6.5-.8zM293.6 47.2c.2 0 .4.1.3.3 0 .2-.2.3-.4.4l-1.9.2c-1.4.1-2 .3-2.6.4-.7.1-.8-.1-.8-.3 0-.3.2-.4.9-.5.6-.1 1.1 0 2.6-.2l1.9-.3zM300.3 54.4c.2 0 .4.1.3.3 0 .2-.2.3-.4.4l-8.8.9c-1.4.1-2 .3-2.6.4-.7.1-.8-.1-.8-.3 0-.3.2-.4.9-.5.6-.1 1.1 0 2.6-.2l8.8-1zM293.8 45.6c.2 0 .4.1.3.3 0 .2-.2.3-.4.4l-1 .1c-1.4.1-2 .3-2.6.4-.7.1-.8-.1-.8-.3 0-.3.2-.4.9-.5.6-.1 1.1 0 2.6-.2l1-.2zM304.2 55.6c.2 0 .4.1.3.3 0 .2-.2.3-.4.4l-11.6 1.2c-1.4.1-2 .3-2.6.4-.7.1-.8-.1-.8-.3 0-.3.2-.4.9-.5.6-.1 1.1 0 2.6-.2l11.6-1.3zM294.5 44.3c0 .2-.2.3-.4.4-1.4.1-1.5.2-2.1.3-.7.1-.8 0-.8-.3s.2-.4.9-.5c.6-.1.7 0 2.1-.2.1 0 .3.1.3.3zM307.5 56.8c.2 0 .4.1.3.3s-.2.3-.4.4l-13.2 1.4c-1.4.1-2 .3-2.6.4-.7.1-.8-.1-.8-.3 0-.3.2-.4.9-.5.6-.1 1.1 0 2.6-.2l13.2-1.5zM294.7 42.6c.2 0 .4.1.3.3 0 .2-.2.3-.4.4l-.7.1c-.3 0-.4-.1-.4-.3s.2-.3.5-.4l.7-.1zM309.6 58.2c.2 0 .4.1.3.3s-.2.3-.4.4l-12.9 1.3c-1.4.1-2 .3-2.6.4-.7.1-.8-.1-.8-.3 0-.3.2-.4.9-.5.6-.1 1.1 0 2.6-.2l12.9-1.4zM310.8 59.7c.2 0 .4.1.3.3s-.2.3-.4.4l-9.9 1c-1.4.1-2 .3-2.6.4-.7.1-.8-.1-.8-.3 0-.3.2-.4.9-.5.6-.1 1.1 0 2.6-.2l9.9-1.1zM311.3 61.2c.2 0 .4.1.3.3 0 .2-.2.3-.4.4l-6.7.7c-1.4.1-2 .3-2.6.4-.7.1-.8-.1-.8-.3 0-.3.2-.4.9-.5.6-.1 1.1 0 2.6-.2l6.7-.8zM311.4 62.8c.2 0 .4.1.3.3 0 .2-.2.3-.4.4l-4.4.5c-1.4.1-2 .3-2.6.4-.7.1-.8-.1-.8-.3 0-.3.2-.4.9-.5.6-.1 1.1 0 2.6-.2l4.4-.6zM311.1 64.4c.2 0 .4.1.3.3 0 .2-.2.3-.4.4l-2.8.3c-1.4.1-2 .3-2.6.4-.7.1-.8-.1-.8-.3 0-.3.2-.4.9-.5.6-.1 1.1 0 2.6-.2l2.8-.4zM310.6 66c.2 0 .4.1.3.3 0 .2-.2.3-.4.4l-1.6.2c-1.4.1-2 .3-2.6.4-.7.1-.8-.1-.8-.3s.2-.4.9-.5c.6-.1 1.1 0 2.6-.2l1.6-.3zM307.8 69.9c0 .2-.2.3-.4.4-.4 0-.7.1-1.3.2-.4 0-.6 0-.6-.3s.2-.4.6-.4l1.3-.1c.2-.1.4 0 .4.2zM309.3 67.8c.2 0 .4.1.3.3 0 .2-.2.3-.4.4h-.1c-1.4.1-2 .3-2.6.4-.7.1-.8-.1-.8-.3 0-.3.2-.4.9-.5.6-.1 1.1 0 2.6-.2l.1-.1z"/></g><linearGradient id="G" gradientUnits="userSpaceOnUse" x1="405.142" y1="278.62" x2="442.425" y2="278.62" gradientTransform="matrix(1.011 -.105 -.105 1 -62.118 -180.702)"><stop offset="0" stop-color="#93D5D8"/><stop offset="1" stop-color="#6DCACA"/></linearGradient><path fill="url(#G)" d="M323.9 73.3c-.6.1-1-.3-1-1 .1-.6.6-1.1 1.2-1.2l3.9-.4 3.5-33.2-9.4 1-.7 6.8c-.1.6-.6 1.1-1.2 1.2-.6.1-1-.4-1-1l.8-7.9c.1-.6.6-1.2 1.2-1.2l35.3-3.7c.8-.1 1.1.4 1.1 1l-.8 8.3c-.1.6-.6 1.1-1.3 1.2-.7.1-1.1-.4-1-1l.8-7.3-9.6 1-3.5 33.2 3.7-.4c.6-.1 1 .4 1 1-.1.6-.6 1.1-1.2 1.1l-21.8 2.5z"/><path fill="#fff" d="M330.3 70.5l9.6-1 3.5-33.2-9.6 1z"/><g fill="#6DCACA"><path d="M341.9 37.6c.2 0 .4.1.3.3s-.2.3-.4.4l-3.9.4c-1.4.1-2 .3-2.6.4-.7.1-.8-.1-.8-.3 0-.3.2-.4.9-.5.6-.1 1.1 0 2.6-.2l3.9-.5zM341.7 39.2c.2 0 .4.1.3.3 0 .2-.2.3-.4.4l-3.9.4c-1.4.1-2 .3-2.6.4-.7.1-.8-.1-.8-.3 0-.3.2-.4.9-.5.6-.1 1.1 0 2.6-.2l3.9-.5zM341.6 40.8c.2 0 .4.1.3.3 0 .2-.2.3-.4.4l-3.9.4c-1.4.1-2 .3-2.6.4-.7.1-.8-.1-.8-.3 0-.3.2-.4.9-.5.6-.1 1.1 0 2.6-.2l3.9-.5zM341.4 42.4c.2 0 .4.1.3.3 0 .2-.2.3-.4.4l-3.9.4c-1.4.1-2 .3-2.6.4-.7.1-.8-.1-.8-.3 0-.3.2-.4.9-.5.6-.1 1.1 0 2.6-.2l3.9-.5zM341.2 44c.2 0 .4.1.3.3s-.2.3-.4.4l-3.9.4c-1.4.1-2 .3-2.6.4-.7.1-.8-.1-.8-.3 0-.3.2-.4.9-.5.6-.1 1.1 0 2.6-.2l3.9-.5zM341.1 45.6c.2 0 .4.1.3.3 0 .2-.2.3-.4.4l-3.9.4c-1.4.1-2 .3-2.6.4-.7.1-.8-.1-.8-.3 0-.3.2-.4.9-.5.6-.1 1.1 0 2.6-.2l3.9-.5zM340.9 47.2c.2 0 .4.1.3.3 0 .2-.2.3-.4.4l-3.9.4c-1.4.1-2 .3-2.6.4-.7.1-.8-.1-.8-.3 0-.3.2-.4.9-.5.6-.1 1.1 0 2.6-.2l3.9-.5zM340.7 48.8c.2 0 .4.1.3.3 0 .2-.2.3-.4.4l-3.9.4c-1.4.1-2 .3-2.6.4-.7.1-.8-.1-.8-.3 0-.3.2-.4.9-.5.6-.1 1.1 0 2.6-.2l3.9-.5zM340.6 50.4c.2 0 .4.1.3.3 0 .2-.2.3-.4.4l-3.9.4c-1.4.1-2 .3-2.6.4-.7.1-.8-.1-.8-.3 0-.3.2-.4.9-.5.6-.1 1.1 0 2.6-.2l3.9-.5zM340.4 52c.2 0 .4.1.3.3s-.2.3-.4.4l-3.9.4c-1.4.1-2 .3-2.6.4-.7.1-.8-.1-.8-.3 0-.3.2-.4.9-.5.6-.1 1.1 0 2.6-.2l3.9-.5zM340.2 53.6c.2 0 .4.1.3.3s-.2.3-.4.4l-3.9.4c-1.4.1-2 .3-2.6.4-.7.1-.8-.1-.8-.3 0-.3.2-.4.9-.5.6-.1 1.1 0 2.6-.2l3.9-.5zM340.1 55.2c.2 0 .4.1.3.3 0 .2-.2.3-.4.4l-3.9.4c-1.4.1-2 .3-2.6.4-.7.1-.8-.1-.8-.3 0-.3.2-.4.9-.5.6-.1 1.1 0 2.6-.2l3.9-.5zM339.9 56.8c.2 0 .4.1.3.3 0 .2-.2.3-.4.4l-3.9.4c-1.4.1-2 .3-2.6.4-.7.1-.8-.1-.8-.3 0-.3.2-.4.9-.5.6-.1 1.1 0 2.6-.2l3.9-.5zM339.7 58.4c.2 0 .4.1.3.3s-.2.3-.4.4l-3.9.4c-1.4.1-2 .3-2.6.4-.7.1-.8-.1-.8-.3 0-.3.2-.4.9-.5.6-.1 1.1 0 2.6-.2l3.9-.5zM339.5 60.1c.2 0 .4.1.3.3 0 .2-.2.3-.4.4l-3.9.4c-1.4.1-2 .3-2.6.4-.7.1-.8-.1-.8-.3 0-.3.2-.4.9-.5.6-.1 1.1 0 2.6-.2l3.9-.5zM339.4 61.7c.2 0 .4.1.3.3 0 .2-.2.3-.4.4l-3.9.4c-1.4.1-2 .3-2.6.4-.7.1-.8-.1-.8-.3 0-.3.2-.4.9-.5.6-.1 1.1 0 2.6-.2l3.9-.5zM339.2 63.3c.2 0 .4.1.3.3 0 .2-.2.3-.4.4l-3.9.4c-1.4.1-2 .3-2.6.4-.7.1-.8-.1-.8-.3 0-.3.2-.4.9-.5.6-.1 1.1 0 2.6-.2l3.9-.5zM339 64.9c.2 0 .4.1.3.3 0 .2-.2.3-.4.4l-3.9.4c-1.4.1-2 .3-2.6.4-.7.1-.8-.1-.8-.3 0-.3.2-.4.9-.5.6-.1 1.1 0 2.6-.2l3.9-.5zM338.9 66.5c.2 0 .4.1.3.3 0 .2-.2.3-.4.4l-3.9.4c-1.4.1-2 .3-2.6.4-.7.1-.8-.1-.8-.3 0-.3.2-.4.9-.5.6-.1 1.1 0 2.6-.2l3.9-.5zM338.7 68.1c.2 0 .4.1.3.3s-.2.3-.4.4l-3.9.4c-1.4.1-2 .3-2.6.4-.7.1-.8-.1-.8-.3 0-.3.2-.4.9-.5.6-.1 1.1 0 2.6-.2l3.9-.5z"/></g><g fill="#6DCACA"><path d="M341.9 37.4c.2 0 .4.1.3.3 0 .2-.2.3-.4.4l-3.9.4c-1.4.1-2 .3-2.6.4-.7.1-.8-.1-.8-.3 0-.3.2-.4.9-.5.6-.1 1.1 0 2.6-.2l3.9-.5zM341.8 39c.2 0 .4.1.3.3 0 .2-.2.3-.4.4l-3.9.4c-1.4.1-2 .3-2.6.4-.7.1-.8-.1-.8-.3 0-.3.2-.4.9-.5.6-.1 1.1 0 2.6-.2l3.9-.5zM341.6 40.6c.2 0 .4.1.3.3s-.2.3-.4.4l-3.9.4c-1.4.1-2 .3-2.6.4-.7.1-.8-.1-.8-.3 0-.3.2-.4.9-.5.6-.1 1.1 0 2.6-.2l3.9-.5zM341.4 42.2c.2 0 .4.1.3.3 0 .2-.2.3-.4.4l-3.9.4c-1.4.1-2 .3-2.6.4-.7.1-.8-.1-.8-.3 0-.3.2-.4.9-.5.6-.1 1.1 0 2.6-.2l3.9-.5zM341.3 43.8c.2 0 .4.1.3.3 0 .2-.2.3-.4.4l-3.9.4c-1.4.1-2 .3-2.6.4-.7.1-.8-.1-.8-.3 0-.3.2-.4.9-.5.6-.1 1.1 0 2.6-.2l3.9-.5zM341.1 45.4c.2 0 .4.1.3.3s-.2.3-.4.4l-3.9.4c-1.4.1-2 .3-2.6.4-.7.1-.8-.1-.8-.3 0-.3.2-.4.9-.5.6-.1 1.1 0 2.6-.2l3.9-.5zM340.9 47c.2 0 .4.1.3.3 0 .2-.2.3-.4.4l-3.9.4c-1.4.1-2 .3-2.6.4-.7.1-.8-.1-.8-.3 0-.3.2-.4.9-.5.6-.1 1.1 0 2.6-.2l3.9-.5zM340.7 48.6c.2 0 .4.1.3.3 0 .2-.2.3-.4.4l-3.9.4c-1.4.1-2 .3-2.6.4-.7.1-.8-.1-.8-.3 0-.3.2-.4.9-.5.6-.1 1.1 0 2.6-.2l3.9-.5zM340.6 50.2c.2 0 .4.1.3.3 0 .2-.2.3-.4.4l-3.9.4c-1.4.1-2 .3-2.6.4-.7.1-.8-.1-.8-.3 0-.3.2-.4.9-.5.6-.1 1.1 0 2.6-.2l3.9-.5zM340.4 51.8c.2 0 .4.1.3.3s-.2.3-.4.4l-3.9.4c-1.4.1-2 .3-2.6.4-.7.1-.8-.1-.8-.3 0-.3.2-.4.9-.5.6-.1 1.1 0 2.6-.2l3.9-.5zM340.2 53.5c.2 0 .4.1.3.3 0 .2-.2.3-.4.4l-3.9.4c-1.4.1-2 .3-2.6.4-.7.1-.8-.1-.8-.3 0-.3.2-.4.9-.5.6-.1 1.1 0 2.6-.2l3.9-.5zM340.1 55.1c.2 0 .4.1.3.3s-.2.3-.4.4l-3.9.4c-1.4.1-2 .3-2.6.4-.7.1-.8-.1-.8-.3 0-.3.2-.4.9-.5.6-.1 1.1 0 2.6-.2l3.9-.5zM339.9 56.7c.2 0 .4.1.3.3 0 .2-.2.3-.4.4l-3.9.4c-1.4.1-2 .3-2.6.4-.7.1-.8-.1-.8-.3 0-.3.2-.4.9-.5.6-.1 1.1 0 2.6-.2l3.9-.5zM339.7 58.3c.2 0 .4.1.3.3 0 .2-.2.3-.4.4l-3.9.4c-1.4.1-2 .3-2.6.4-.7.1-.8-.1-.8-.3 0-.3.2-.4.9-.5.6-.1 1.1 0 2.6-.2l3.9-.5zM339.6 59.9c.2 0 .4.1.3.3 0 .2-.2.3-.4.4l-3.9.4c-1.4.1-2 .3-2.6.4-.7.1-.8-.1-.8-.3 0-.3.2-.4.9-.5.6-.1 1.1 0 2.6-.2l3.9-.5zM339.4 61.5c.2 0 .4.1.3.3 0 .2-.2.3-.4.4l-3.9.4c-1.4.1-2 .3-2.6.4-.7.1-.8-.1-.8-.3 0-.3.2-.4.9-.5.6-.1 1.1 0 2.6-.2l3.9-.5zM339.2 63.1c.2 0 .4.1.3.3 0 .2-.2.3-.4.4l-3.9.4c-1.4.1-2 .3-2.6.4-.7.1-.8-.1-.8-.3 0-.3.2-.4.9-.5.6-.1 1.1 0 2.6-.2l3.9-.5zM339.1 64.7c.2 0 .4.1.3.3 0 .2-.2.3-.4.4l-3.9.4c-1.4.1-2 .3-2.6.4-.7.1-.8-.1-.8-.3 0-.3.2-.4.9-.5.6-.1 1.1 0 2.6-.2l3.9-.5zM338.9 66.3c.2 0 .4.1.3.3 0 .2-.2.3-.4.4l-3.9.4c-1.4.1-2 .3-2.6.4-.7.1-.8-.1-.8-.3 0-.3.2-.4.9-.5.6-.1 1.1 0 2.6-.2l3.9-.5zM338.7 67.9c.2 0 .4.1.3.3s-.2.3-.4.4l-3.9.4c-1.4.1-2 .3-2.6.4-.7.1-.8-.1-.8-.3 0-.3.2-.4.9-.5.6-.1 1.1 0 2.6-.2l3.9-.5z"/></g><linearGradient id="H" gradientUnits="userSpaceOnUse" x1="444.322" y1="278.62" x2="500.625" y2="278.62" gradientTransform="matrix(1.011 -.105 -.105 1 -62.118 -180.702)"><stop offset="0" stop-color="#93D5D8"/><stop offset="1" stop-color="#6DCACA"/></linearGradient><path fill="url(#H)" d="M378.4 61.1l-11.7-23.2-3.1 29.1 6-.6c.6-.1 1 .3 1 1-.1.6-.6 1.1-1.2 1.1l-12.4 1.3c-.7.1-1.1-.3-1-.9.1-.6.6-1.2 1.3-1.2l4.2-.4 3.5-33.2-3.1.3c-.7.1-1.2-.4-1.1-.9.1-.6.6-1.1 1.3-1.2l16.4-1.7c.5 0 .9.1 1 .5l7.7 13.8 8.8-15.5c.3-.4.7-.7 1-.7l18.7-1.9c.6-.1 1 .4 1 1-.1.6-.6 1.1-1.2 1.2l-3.6.4-3.5 33.2 3.4-.4c.6-.1 1 .4 1 1-.1.6-.6 1.1-1.2 1.1l-22.3 2.3c-.6.1-1-.3-1-.9.1-.6.6-1.2 1.2-1.2l3.5-.5 3.3-30.9-15.8 27.8c-.2.4-.7.7-1.1.7-.5 0-.8-.2-1-.5z"/><path fill="#fff" d="M367.3 33.8l12.3 24.2 6-10.6-8-14.6z"/><g fill="#6DCACA"><path d="M376.9 33.9c.2 0 .4.1.3.3 0 .2-.2.3-.4.4l-4.4.5c-1.4.1-2 .3-2.6.4-.7.1-.8-.1-.8-.3 0-.3.2-.4.9-.5.6-.1 1.1 0 2.6-.2l4.4-.6zM377.6 35.5c.2 0 .4.1.3.3 0 .2-.2.3-.4.4l-4.4.5c-1.4.1-2 .3-2.6.4-.7.1-.8-.1-.8-.3 0-.3.2-.4.9-.5.6-.1 1.1 0 2.6-.2l4.4-.6zM378.3 37c.2 0 .4.1.3.3s-.2.3-.4.4l-4.4.5c-1.4.1-2 .3-2.6.4-.7.1-.8-.1-.8-.3 0-.3.2-.4.9-.5.6-.1 1.1 0 2.6-.2l4.4-.6zM379.1 38.5c.2 0 .4.1.3.3s-.2.3-.4.4l-4.4.5c-1.4.1-2 .3-2.6.4-.7.1-.8-.1-.8-.3 0-.3.2-.4.9-.5.6-.1 1.1 0 2.6-.2l4.4-.6zM379.9 40c.2 0 .4.1.3.3 0 .2-.2.3-.4.4l-4.4.5c-1.4.1-2 .3-2.6.4-.7.1-.8-.1-.8-.3 0-.3.2-.4.9-.5.6-.1 1.1 0 2.6-.2l4.4-.6zM380.6 41.5c.2 0 .4.1.3.3 0 .2-.2.3-.4.4l-4.4.5c-1.4.1-2 .3-2.6.4-.7.1-.8-.1-.8-.3 0-.3.2-.4.9-.5.6-.1 1.1 0 2.6-.2l4.4-.6zM381.3 43c.2 0 .4.1.3.3 0 .2-.2.3-.4.4l-4.4.5c-1.4.1-2 .3-2.6.4-.7.1-.8-.1-.8-.3 0-.3.2-.4.9-.5.6-.1 1.1 0 2.6-.2l4.4-.6zM382.1 44.5c.2 0 .4.1.3.3s-.2.3-.4.4l-4.4.5c-1.4.1-2 .3-2.6.4-.7.1-.8-.1-.8-.3s.2-.4.9-.5c.6-.1 1.1 0 2.6-.2l4.4-.6zM382.9 46c.2 0 .4.1.3.3 0 .2-.2.3-.4.4l-4.4.5c-1.4.1-2 .3-2.6.4-.7.1-.8-.1-.8-.3 0-.3.2-.4.9-.5.6-.1 1.1 0 2.6-.2l4.4-.6zM383.7 47.5c.2 0 .4.1.3.3 0 .2-.2.3-.4.4l-4.4.5c-1.4.1-2 .3-2.6.4-.7.1-.8-.1-.8-.3 0-.3.2-.4.9-.5.6-.1 1.1 0 2.6-.2l4.4-.6zM383.3 49.2c.2 0 .4.1.3.3 0 .2-.2.3-.4.4l-3.2.3c-1.4.1-2 .3-2.6.4-.7.1-.8-.1-.8-.3 0-.3.2-.4.9-.5.6-.1 1.1 0 2.6-.2l3.2-.4zM382.3 50.8c.2 0 .4.1.3.3 0 .2-.2.3-.4.4l-1.5.2c-1.4.1-2 .3-2.6.4-.7.1-.8-.1-.8-.3 0-.3.2-.4.9-.5.6-.1 1.1 0 2.6-.2l1.5-.3zM381.8 52.8c0 .2-.2.3-.4.4-1.3.1-1.8.2-2.7.3-.3 0-.5-.1-.5-.3 0-.3.2-.4.5-.4 1.1-.1 1.7-.1 2.7-.2.3-.1.4 0 .4.2zM380.5 54.1c.2 0 .4.1.3.3 0 .2-.2.3-.4.4l-1.2.1c-.3 0-.4-.1-.3-.3 0-.2.1-.3.4-.4l1.2-.1zM380.2 55.9c0 .2-.2.3-.4.4-.3 0-.4-.1-.3-.3 0-.2.1-.3.4-.4.2 0 .4.1.3.3z"/></g><g fill="#6DCACA"><path d="M376.9 33.7c.2 0 .4.1.3.3s-.2.3-.4.4l-4.4.5c-1.4.1-2 .3-2.6.4-.7.1-.8-.1-.8-.3s.2-.4.9-.5c.6-.1 1.1 0 2.6-.2l4.4-.6zM377.7 35.2c.2 0 .4.1.3.3 0 .2-.2.3-.4.4l-4.4.5c-1.4.1-2 .3-2.6.4-.7.1-.8-.1-.8-.3 0-.3.2-.4.9-.5.6-.1 1.1 0 2.6-.2l4.4-.6zM378.4 36.7c.2 0 .4.1.3.3 0 .2-.2.3-.4.4l-4.4.5c-1.4.1-2 .3-2.6.4-.7.1-.8-.1-.8-.3 0-.3.2-.4.9-.5.6-.1 1.1 0 2.6-.2l4.4-.6zM379.1 38.2c.2 0 .4.1.3.3 0 .2-.2.3-.4.4l-4.4.5c-1.4.1-2 .3-2.6.4-.7.1-.8-.1-.8-.3 0-.3.2-.4.9-.5.6-.1 1.1 0 2.6-.2l4.4-.6zM379.9 39.7c.2 0 .4.1.3.3 0 .2-.2.3-.4.4l-4.4.5c-1.4.1-2 .3-2.6.4-.7.1-.8-.1-.8-.3 0-.3.2-.4.9-.5.6-.1 1.1 0 2.6-.2l4.4-.6zM380.7 41.3c.2 0 .4.1.3.3 0 .2-.2.3-.4.4l-4.4.5c-1.4.1-2 .3-2.6.4-.7.1-.8-.1-.8-.3 0-.3.2-.4.9-.5.6-.1 1.1 0 2.6-.2l4.4-.6zM381.4 42.8c.2 0 .4.1.3.3 0 .2-.2.3-.4.4l-4.4.5c-1.4.1-2 .3-2.6.4-.7.1-.8-.1-.8-.3 0-.3.2-.4.9-.5.6-.1 1.1 0 2.6-.2l4.4-.6zM382.2 44.3c.2 0 .4.1.3.3 0 .2-.2.3-.4.4l-4.4.5c-1.4.1-2 .3-2.6.4-.7.1-.8-.1-.8-.3 0-.3.2-.4.9-.5.6-.1 1.1 0 2.6-.2l4.4-.6zM382.9 45.8c.2 0 .4.1.3.3 0 .2-.2.3-.4.4l-4.4.5c-1.4.1-2 .3-2.6.4-.7.1-.8-.1-.8-.3 0-.3.2-.4.9-.5.6-.1 1.1 0 2.6-.2l4.4-.6zM383.7 47.3c.2 0 .4.1.3.3s-.2.3-.4.4l-4.4.5c-1.4.1-2 .3-2.6.4-.7.1-.8-.1-.8-.3 0-.3.2-.4.9-.5.6-.1 1.1 0 2.6-.2l4.4-.6zM383.3 48.9c.2 0 .4.1.3.3 0 .2-.2.3-.4.4l-3.2.3c-1.4.1-2 .3-2.6.4-.7.1-.8-.1-.8-.3 0-.3.2-.4.9-.5.6-.1 1.1 0 2.6-.2l3.2-.4zM382.4 50.6c.2 0 .4.1.3.3s-.2.3-.4.4l-1.5.2c-1.4.1-2 .3-2.6.4-.7.1-.8-.1-.8-.3 0-.3.2-.4.9-.5.6-.1 1.1 0 2.6-.2l1.5-.3zM381.8 52.6c0 .2-.2.3-.4.4-1.3.1-1.8.2-2.7.3-.3 0-.5-.1-.5-.3 0-.3.2-.4.5-.4 1.1-.1 1.7-.1 2.7-.2.3-.1.5-.1.4.2zM380.6 53.9c.2 0 .4.1.3.3 0 .2-.2.3-.4.4l-1.2.1c-.3 0-.4-.1-.3-.3 0-.2.1-.3.4-.4l1.2-.1zM380.3 55.6c0 .2-.2.3-.4.4-.3 0-.4-.1-.3-.3s.1-.3.4-.4c.1 0 .3.1.3.3z"/></g><path fill="#fff" d="M395.2 63.7l10.8-1.1 3.5-33.2-10.8 1.2z"/><g fill="#6DCACA"><path d="M408.1 30.7c.2 0 .4.1.3.3 0 .2-.2.3-.4.4l-5.1.5c-1.4.1-2 .3-2.6.4-.7.1-.8-.1-.8-.3 0-.3.2-.4.9-.5.6-.1 1.1 0 2.6-.2l5.1-.6zM407.9 32.3c.2 0 .4.1.3.3 0 .2-.2.3-.4.4l-5.1.5c-1.4.1-2 .3-2.6.4-.7.1-.8-.1-.8-.3 0-.3.2-.4.9-.5.6-.1 1.1 0 2.6-.2l5.1-.6zM407.7 33.9c.2 0 .4.1.3.3s-.2.3-.4.4l-5.1.5c-1.4.1-2 .3-2.6.4-.7.1-.8-.1-.8-.3 0-.3.2-.4.9-.5.6-.1 1.1 0 2.6-.2l5.1-.6zM407.6 35.5c.2 0 .4.1.3.3 0 .2-.2.3-.4.4l-5.1.5c-1.4.1-2 .3-2.6.4-.7.1-.8-.1-.8-.3 0-.3.2-.4.9-.5.6-.1 1.1 0 2.6-.2l5.1-.6zM407.4 37.1c.2 0 .4.1.3.3 0 .2-.2.3-.4.4l-5.1.5c-1.4.1-2 .3-2.6.4-.7.1-.8-.1-.8-.3 0-.3.2-.4.9-.5.6-.1 1.1 0 2.6-.2l5.1-.6zM407.2 38.7c.2 0 .4.1.3.3 0 .2-.2.3-.4.4l-5.1.5c-1.4.1-2 .3-2.6.4-.7.1-.8-.1-.8-.3 0-.3.2-.4.9-.5.6-.1 1.1 0 2.6-.2l5.1-.6zM407.1 40.3c.2 0 .4.1.3.3 0 .2-.2.3-.4.4l-5.1.5c-1.4.1-2 .3-2.6.4-.7.1-.8-.1-.8-.3 0-.3.2-.4.9-.5.6-.1 1.1 0 2.6-.2l5.1-.6zM406.9 41.9c.2 0 .4.1.3.3 0 .2-.2.3-.4.4l-5.1.5c-1.4.1-2 .3-2.6.4-.7.1-.8-.1-.8-.3 0-.3.2-.4.9-.5.6-.1 1.1 0 2.6-.2l5.1-.6zM406.7 43.5c.2 0 .4.1.3.3 0 .2-.2.3-.4.4l-5.1.5c-1.4.1-2 .3-2.6.4-.7.1-.8-.1-.8-.3 0-.3.2-.4.9-.5.6-.1 1.1 0 2.6-.2l5.1-.6zM406.6 45.1c.2 0 .4.1.3.3 0 .2-.2.3-.4.4l-5.1.5c-1.4.1-2 .3-2.6.4-.7.1-.8-.1-.8-.3 0-.3.2-.4.9-.5.6-.1 1.1 0 2.6-.2l5.1-.6zM406.4 46.8c.2 0 .4.1.3.3s-.2.3-.4.4l-5.1.5c-1.4.1-2 .3-2.6.4-.7.1-.8-.1-.8-.3 0-.3.2-.4.9-.5.6-.1 1.1 0 2.6-.2l5.1-.6zM406.2 48.4c.2 0 .4.1.3.3 0 .2-.2.3-.4.4l-5.1.5c-1.4.1-2 .3-2.6.4-.7.1-.8-.1-.8-.3 0-.3.2-.4.9-.5.6-.1 1.1 0 2.6-.2l5.1-.6zM406 50c.2 0 .4.1.3.3 0 .2-.2.3-.4.4l-5.1.5c-1.4.1-2 .3-2.6.4-.7.1-.8-.1-.8-.3 0-.3.2-.4.9-.5.6-.1 1.1 0 2.6-.2l5.1-.6zM405.9 51.6c.2 0 .4.1.3.3 0 .2-.2.3-.4.4l-5.1.5c-1.4.1-2 .3-2.6.4-.7.1-.8-.1-.8-.3 0-.3.2-.4.9-.5.6-.1 1.1 0 2.6-.2l5.1-.6zM405.7 53.2c.2 0 .4.1.3.3 0 .2-.2.3-.4.4l-5.1.5c-1.4.1-2 .3-2.6.4-.7.1-.8-.1-.8-.3 0-.3.2-.4.9-.5.6-.1 1.1 0 2.6-.2l5.1-.6zM405.5 54.8c.2 0 .4.1.3.3 0 .2-.2.3-.4.4l-5.1.5c-1.4.1-2 .3-2.6.4-.7.1-.8-.1-.8-.3 0-.3.2-.4.9-.5.6-.1 1.1 0 2.6-.2l5.1-.6zM405.4 56.4c.2 0 .4.1.3.3s-.2.3-.4.4l-5.1.5c-1.4.1-2 .3-2.6.4-.7.1-.8-.1-.8-.3s.2-.4.9-.5c.6-.1 1.1 0 2.6-.2l5.1-.6zM405.2 58c.2 0 .4.1.3.3 0 .2-.2.3-.4.4l-5.1.5c-1.4.1-2 .3-2.6.4-.7.1-.8-.1-.8-.3 0-.3.2-.4.9-.5.6-.1 1.1 0 2.6-.2l5.1-.6zM405 59.6c.2 0 .4.1.3.3 0 .2-.2.3-.4.4l-5.1.5c-1.4.1-2 .3-2.6.4-.7.1-.8-.1-.8-.3 0-.3.2-.4.9-.5.6-.1 1.1 0 2.6-.2l5.1-.6zM404.9 61.2c.2 0 .4.1.3.3s-.2.3-.4.4l-5.1.5c-1.4.1-2 .3-2.6.4-.7.1-.8-.1-.8-.3 0-.3.2-.4.9-.5.6-.1 1.1 0 2.6-.2l5.1-.6z"/></g><g fill="#6DCACA"><path d="M408.1 30.5c.2 0 .4.1.3.3 0 .2-.2.3-.4.4l-5.1.5c-1.4.1-2 .3-2.6.4-.7.1-.8-.1-.8-.3s.2-.4.9-.5c.6-.1 1.1 0 2.6-.2l5.1-.6zM407.9 32.1c.2 0 .4.1.3.3 0 .2-.2.3-.4.4l-5.1.5c-1.4.1-2 .3-2.6.4-.7.1-.8-.1-.8-.3 0-.3.2-.4.9-.5.6-.1 1.1 0 2.6-.2l5.1-.6zM407.8 33.7c.2 0 .4.1.3.3 0 .2-.2.3-.4.4l-5.1.5c-1.4.1-2 .3-2.6.4-.7.1-.8-.1-.8-.3 0-.3.2-.4.9-.5.6-.1 1.1 0 2.6-.2l5.1-.6zM407.6 35.3c.2 0 .4.1.3.3s-.2.3-.4.4l-5.1.5c-1.4.1-2 .3-2.6.4-.7.1-.8-.1-.8-.3 0-.3.2-.4.9-.5.6-.1 1.1 0 2.6-.2l5.1-.6zM407.4 36.9c.2 0 .4.1.3.3 0 .2-.2.3-.4.4l-5.1.5c-1.4.1-2 .3-2.6.4-.7.1-.8-.1-.8-.3 0-.3.2-.4.9-.5.6-.1 1.1 0 2.6-.2l5.1-.6zM407.3 38.5c.2 0 .4.1.3.3 0 .2-.2.3-.4.4l-5.1.5c-1.4.1-2 .3-2.6.4-.7.1-.8-.1-.8-.3 0-.3.2-.4.9-.5.6-.1 1.1 0 2.6-.2l5.1-.6zM407.1 40.1c.2 0 .4.1.3.3 0 .2-.2.3-.4.4l-5.1.5c-1.4.1-2 .3-2.6.4-.7.1-.8-.1-.8-.3 0-.3.2-.4.9-.5.6-.1 1.1 0 2.6-.2l5.1-.6zM406.9 41.7c.2 0 .4.1.3.3s-.2.3-.4.4l-5.1.5c-1.4.1-2 .3-2.6.4-.7.1-.8-.1-.8-.3s.2-.4.9-.5c.6-.1 1.1 0 2.6-.2l5.1-.6zM406.7 43.3c.2 0 .4.1.3.3 0 .2-.2.3-.4.4l-5.1.5c-1.4.1-2 .3-2.6.4-.7.1-.8-.1-.8-.3 0-.3.2-.4.9-.5.6-.1 1.1 0 2.6-.2l5.1-.6zM406.6 44.9c.2 0 .4.1.3.3s-.2.3-.4.4l-5.1.5c-1.4.1-2 .3-2.6.4-.7.1-.8-.1-.8-.3 0-.3.2-.4.9-.5.6-.1 1.1 0 2.6-.2l5.1-.6zM406.4 46.5c.2 0 .4.1.3.3 0 .2-.2.3-.4.4l-5.1.5c-1.4.1-2 .3-2.6.4-.7.1-.8-.1-.8-.3 0-.3.2-.4.9-.5.6-.1 1.1 0 2.6-.2l5.1-.6zM406.2 48.1c.2 0 .4.1.3.3 0 .2-.2.3-.4.4l-5.1.5c-1.4.1-2 .3-2.6.4-.7.1-.8-.1-.8-.3 0-.3.2-.4.9-.5.6-.1 1.1 0 2.6-.2l5.1-.6zM406.1 49.7c.2 0 .4.1.3.3 0 .2-.2.3-.4.4l-5.1.5c-1.4.1-2 .3-2.6.4-.7.1-.8-.1-.8-.3 0-.3.2-.4.9-.5.6-.1 1.1 0 2.6-.2l5.1-.6zM405.9 51.3c.2 0 .4.1.3.3s-.2.3-.4.4l-5.1.5c-1.4.1-2 .3-2.6.4-.7.1-.8-.1-.8-.3 0-.3.2-.4.9-.5.6-.1 1.1 0 2.6-.2l5.1-.6zM405.7 52.9c.2 0 .4.1.3.3 0 .2-.2.3-.4.4l-5.1.5c-1.4.1-2 .3-2.6.4-.7.1-.8-.1-.8-.3 0-.3.2-.4.9-.5.6-.1 1.1 0 2.6-.2l5.1-.6zM405.6 54.5c.2 0 .4.1.3.3 0 .2-.2.3-.4.4l-5.1.5c-1.4.1-2 .3-2.6.4-.7.1-.8-.1-.8-.3 0-.3.2-.4.9-.5.6-.1 1.1 0 2.6-.2l5.1-.6zM405.4 56.1c.2 0 .4.1.3.3s-.2.3-.4.4l-5.1.5c-1.4.1-2 .3-2.6.4-.7.1-.8-.1-.8-.3 0-.3.2-.4.9-.5.6-.1 1.1 0 2.6-.2l5.1-.6zM405.2 57.8c.2 0 .4.1.3.3 0 .2-.2.3-.4.4l-5.1.5c-1.4.1-2 .3-2.6.4-.7.1-.8-.1-.8-.3 0-.3.2-.4.9-.5.6-.1 1.1 0 2.6-.2l5.1-.6zM405.1 59.4c.2 0 .4.1.3.3 0 .2-.2.3-.4.4l-5.1.5c-1.4.1-2 .3-2.6.4-.7.1-.8-.1-.8-.3 0-.3.2-.4.9-.5.6-.1 1.1 0 2.6-.2l5.1-.6zM404.9 61c.2 0 .4.1.3.3 0 .2-.2.3-.4.4l-5.1.5c-1.4.1-2 .3-2.6.4-.7.1-.8-.1-.8-.3 0-.3.2-.4.9-.5.6-.1 1.1 0 2.6-.2l5.1-.6z"/></g><path fill="#fff" d="M441.9 26.1l7.4 32 10.5-1.1-7.4-32z"/><g fill="#6DCACA"><path d="M451.4 26.2c.2 0 .4.1.3.3 0 .2-.2.3-.4.4l-4.6.5c-1.4.1-2 .3-2.6.4-.7.1-.8-.1-.8-.3s.2-.4.9-.5c.6-.1 1.1 0 2.6-.2l4.6-.6zM451.7 27.8c.2 0 .4.1.3.3 0 .2-.2.3-.4.4l-4.6.5c-1.4.1-2 .3-2.6.4-.7.1-.8-.1-.8-.3 0-.3.2-.4.9-.5.6-.1 1.1 0 2.6-.2l4.6-.6zM452.1 29.3c.2 0 .4.1.3.3 0 .2-.2.3-.4.4l-4.6.5c-1.4.1-2 .3-2.6.4-.7.1-.8-.1-.8-.3 0-.3.2-.4.9-.5.6-.1 1.1 0 2.6-.2l4.6-.6zM452.4 30.8c.2 0 .4.1.3.3 0 .2-.2.3-.4.4l-4.6.5c-1.4.1-2 .3-2.6.4-.7.1-.8-.1-.8-.3 0-.3.2-.4.9-.5.6-.1 1.1 0 2.6-.2l4.6-.6zM452.8 32.4c.2 0 .4.1.3.3 0 .2-.2.3-.4.4l-4.6.5c-1.4.1-2 .3-2.6.4-.7.1-.8-.1-.8-.3 0-.3.2-.4.9-.5.6-.1 1.1 0 2.6-.2l4.6-.6zM453.1 34c.2 0 .4.1.3.3 0 .2-.2.3-.4.4l-4.6.5c-1.4.1-2 .3-2.6.4-.7.1-.8-.1-.8-.3 0-.3.2-.4.9-.5.6-.1 1.1 0 2.6-.2l4.6-.6zM453.5 35.5c.2 0 .4.1.3.3 0 .2-.2.3-.4.4l-4.6.5c-1.4.1-2 .3-2.6.4-.7.1-.8-.1-.8-.3 0-.3.2-.4.9-.5.6-.1 1.1 0 2.6-.2l4.6-.6zM453.8 37.1c.2 0 .4.1.3.3 0 .2-.2.3-.4.4l-4.6.5c-1.4.1-2 .3-2.6.4-.7.1-.8-.1-.8-.3 0-.3.2-.4.9-.5.6-.1 1.1 0 2.6-.2l4.6-.6zM454.2 38.6c.2 0 .4.1.3.3 0 .2-.2.3-.4.4l-4.6.5c-1.4.1-2 .3-2.6.4-.7.1-.8-.1-.8-.3 0-.3.2-.4.9-.5.6-.1 1.1 0 2.6-.2l4.6-.6zM454.5 40.2c.2 0 .4.1.3.3s-.2.3-.4.4l-4.6.5c-1.4.1-2 .3-2.6.4-.7.1-.8-.1-.8-.3 0-.3.2-.4.9-.5.6-.1 1.1 0 2.6-.2l4.6-.6zM454.9 41.7c.2 0 .4.1.3.3s-.2.3-.4.4l-4.6.5c-1.4.1-2 .3-2.6.4-.7.1-.8-.1-.8-.3 0-.3.2-.4.9-.5.6-.1 1.1 0 2.6-.2l4.6-.6zM455.3 43.3c.2 0 .4.1.3.3s-.2.3-.4.4l-4.6.5c-1.4.1-2 .3-2.6.4-.7.1-.8-.1-.8-.3 0-.3.2-.4.9-.5.6-.1 1.1 0 2.6-.2l4.6-.6zM455.6 44.8c.2 0 .4.1.3.3s-.2.3-.4.4l-4.6.5c-1.4.1-2 .3-2.6.4-.7.1-.8-.1-.8-.3 0-.3.2-.4.9-.5.6-.1 1.1 0 2.6-.2l4.6-.6zM455.9 46.4c.2 0 .4.1.3.3 0 .2-.2.3-.4.4l-4.6.5c-1.4.1-2 .3-2.6.4-.7.1-.8-.1-.8-.3 0-.3.2-.4.9-.5.6-.1 1.1 0 2.6-.2l4.6-.6zM456.3 47.9c.2 0 .4.1.3.3 0 .2-.2.3-.4.4l-4.6.5c-1.4.1-2 .3-2.6.4-.7.1-.8-.1-.8-.3 0-.3.2-.4.9-.5.6-.1 1.1 0 2.6-.2l4.6-.6zM456.6 49.5c.2 0 .4.1.3.3 0 .2-.2.3-.4.4l-4.6.5c-1.4.1-2 .3-2.6.4-.7.1-.8-.1-.8-.3 0-.3.2-.4.9-.5.6-.1 1.1 0 2.6-.2l4.6-.6zM457 51c.2 0 .4.1.3.3 0 .2-.2.3-.4.4l-4.6.5c-1.4.1-2 .3-2.6.4-.7.1-.8-.1-.8-.3s.2-.4.9-.5c.6-.1 1.1 0 2.6-.2l4.6-.6zM457.4 52.6c.2 0 .4.1.3.3 0 .2-.2.3-.4.4l-4.6.5c-1.4.1-2 .3-2.6.4-.7.1-.8-.1-.8-.3 0-.3.2-.4.9-.5.6-.1 1.1 0 2.6-.2l4.6-.6zM457.8 54.1c.2 0 .4.1.3.3 0 .2-.2.3-.4.4l-4.6.5c-1.4.1-2 .3-2.6.4-.7.1-.8-.1-.8-.3 0-.3.2-.4.9-.5.6-.1 1.1 0 2.6-.2l4.6-.6zM458 55.7c.2 0 .4.1.3.3 0 .2-.2.3-.4.4l-4.6.5c-1.4.1-2 .3-2.6.4-.7.1-.8-.1-.8-.3 0-.3.2-.4.9-.5.6-.1 1.1 0 2.6-.2l4.6-.6z"/></g><g fill="#6DCACA"><path d="M451.2 26.1c.2 0 .4.1.3.3s-.2.3-.4.4l-4.6.5c-1.4.1-2 .3-2.6.4-.7.1-.8-.1-.8-.3s.2-.4.9-.5c.6-.1 1.1 0 2.6-.2l4.6-.6zM451.6 27.6c.2 0 .4.1.3.3 0 .2-.2.3-.4.4l-4.6.5c-1.4.1-2 .3-2.6.4-.7.1-.8-.1-.8-.3 0-.3.2-.4.9-.5.6-.1 1.1 0 2.6-.2l4.6-.6zM451.9 29.2c.2 0 .4.1.3.3 0 .2-.2.3-.4.4l-4.6.5c-1.4.1-2 .3-2.6.4-.7.1-.8-.1-.8-.3 0-.3.2-.4.9-.5.6-.1 1.1 0 2.6-.2l4.6-.6zM452.3 30.7c.2 0 .4.1.3.3 0 .2-.2.3-.4.4l-4.6.5c-1.4.1-2 .3-2.6.4-.7.1-.8-.1-.8-.3 0-.3.2-.4.9-.5.6-.1 1.1 0 2.6-.2l4.6-.6zM452.6 32.3c.2 0 .4.1.3.3 0 .2-.2.3-.4.4l-4.6.5c-1.4.1-2 .3-2.6.4-.7.1-.8-.1-.8-.3 0-.3.2-.4.9-.5.6-.1 1.1 0 2.6-.2l4.6-.6zM453 33.8c.2 0 .4.1.3.3 0 .2-.2.3-.4.4l-4.6.5c-1.4.1-2 .3-2.6.4-.7.1-.8-.1-.8-.3 0-.3.2-.4.9-.5.6-.1 1.1 0 2.6-.2l4.6-.6zM453.3 35.4c.2 0 .4.1.3.3 0 .2-.2.3-.4.4l-4.6.5c-1.4.1-2 .3-2.6.4-.7.1-.8-.1-.8-.3 0-.3.2-.4.9-.5.6-.1 1.1 0 2.6-.2l4.6-.6zM453.7 36.9c.2 0 .4.1.3.3 0 .2-.2.3-.4.4l-4.6.5c-1.4.1-2 .3-2.6.4-.7.1-.8-.1-.8-.3 0-.3.2-.4.9-.5.6-.1 1.1 0 2.6-.2l4.6-.6zM454 38.5c.2 0 .4.1.3.3 0 .2-.2.3-.4.4l-4.6.5c-1.4.1-2 .3-2.6.4-.7.1-.8-.1-.8-.3 0-.3.2-.4.9-.5.6-.1 1.1 0 2.6-.2l4.6-.6zM454.4 40c.2 0 .4.1.3.3 0 .2-.2.3-.4.4l-4.6.5c-1.4.1-2 .3-2.6.4-.7.1-.8-.1-.8-.3 0-.3.2-.4.9-.5.6-.1 1.1 0 2.6-.2l4.6-.6zM454.8 41.6c.2 0 .4.1.3.3 0 .2-.2.3-.4.4l-4.6.5c-1.4.1-2 .3-2.6.4-.7.1-.8-.1-.8-.3 0-.3.2-.4.9-.5.6-.1 1.1 0 2.6-.2l4.6-.6zM455.2 43.1c.2 0 .4.1.3.3 0 .2-.2.3-.4.4l-4.6.5c-1.4.1-2 .3-2.6.4-.7.1-.8-.1-.8-.3 0-.3.2-.4.9-.5.6-.1 1.1 0 2.6-.2l4.6-.6zM455.5 44.7c.2 0 .4.1.3.3 0 .2-.2.3-.4.4l-4.6.5c-1.4.1-2 .3-2.6.4-.7.1-.8-.1-.8-.3 0-.3.2-.4.9-.5.6-.1 1.1 0 2.6-.2l4.6-.6zM455.8 46.2c.2 0 .4.1.3.3s-.2.3-.4.4l-4.6.5c-1.4.1-2 .3-2.6.4-.7.1-.8-.1-.8-.3 0-.3.2-.4.9-.5.6-.1 1.1 0 2.6-.2l4.6-.6zM456.2 47.8c.2 0 .4.1.3.3s-.2.3-.4.4l-4.6.5c-1.4.1-2 .3-2.6.4-.7.1-.8-.1-.8-.3 0-.3.2-.4.9-.5.6-.1 1.1 0 2.6-.2l4.6-.6zM456.5 49.3c.2 0 .4.1.3.3 0 .2-.2.3-.4.4l-4.6.5c-1.4.1-2 .3-2.6.4-.7.1-.8-.1-.8-.3 0-.3.2-.4.9-.5.6-.1 1.1 0 2.6-.2l4.6-.6zM456.9 50.9c.2 0 .4.1.3.3s-.2.3-.4.4l-4.6.5c-1.4.1-2 .3-2.6.4-.7.1-.8-.1-.8-.3 0-.3.2-.4.9-.5.6-.1 1.1 0 2.6-.2l4.6-.6zM457.3 52.4c.2 0 .4.1.3.3 0 .2-.2.3-.4.4l-4.6.5c-1.4.1-2 .3-2.6.4-.7.1-.8-.1-.8-.3 0-.3.2-.4.9-.5.6-.1 1.1 0 2.6-.2l4.6-.6zM457.6 54c.2 0 .4.1.3.3s-.2.3-.4.4l-4.6.5c-1.4.1-2 .3-2.6.4-.7.1-.8-.1-.8-.3 0-.3.2-.4.9-.5.6-.1 1.1 0 2.6-.2l4.6-.6zM457.9 55.5c.2 0 .4.1.3.3 0 .2-.2.3-.4.4l-4.6.5c-1.4.1-2 .3-2.6.4-.7.1-.8-.1-.8-.3 0-.3.2-.4.9-.5.6-.1 1.1 0 2.6-.2l4.6-.6z"/></g><linearGradient id="I" gradientUnits="userSpaceOnUse" x1="557.769" y1="278.165" x2="589.379" y2="278.165" gradientTransform="matrix(1.011 -.105 -.105 1 -62.118 -180.702)"><stop offset="0" stop-color="#93D5D8"/><stop offset="1" stop-color="#6DCACA"/></linearGradient><path fill="url(#I)" d="M500.7 27.4l.4-4.2c-2.7-1.8-5.4-3-8.7-2.7-4.4.5-6.1 3.5-6.4 5.7-.4 4.1 2.2 5.1 7.8 6.8 7 2.1 10.4 4.4 9.7 10.8-.8 7.2-8.6 12.2-17.4 13.1-5.5.6-9.1 0-12.2-2.4l-.3 2.5c-.1.5-.7 1.1-1.2 1.1-.6.1-1.2-.4-1.1-.9l1.1-10.6c.1-.6.7-1.2 1.3-1.2.5-.1 1 .4 1 1l-.5 5.2c2.2 2.5 5.8 3.8 9.7 3.4 4.4-.5 7.3-2 7.6-4.8.3-2.6-.9-4-8.4-5.7-7.6-1.8-10.7-6-10-12.4.8-7.4 7.7-12.5 17.8-13.5 3.9-.4 7.1.4 10.4 2l.3-3.1c.1-.6.5-1.1 1.2-1.2.6-.1 1 .4 1 1l-1.1 10.1c-.1.6-.6 1.2-1.3 1.2-.4-.2-.7-.6-.7-1.2z"/><path fill="#fff" d="M475.5 31.8c-.6 5.4 2.1 9.1 8.8 10.5 7 1.5 10 3.3 9.5 7.6-.2 1.6-1 2.9-1.8 3.6 3.4-1.1 8.8-4.3 9.4-9.5.5-5.2-2.3-7.2-8.5-9-6.2-1.8-9.7-3.3-9.1-8.6.2-1.7 1.1-3.9 2.8-5.1-6.6 1.8-10.5 5.4-11.1 10.5z"/><g fill="#6DCACA"><path d="M483.5 30.8c.2 0 .4.1.3.3 0 .2-.2.3-.4.4l-3.6.4c-1.4.1-2 .3-2.6.4-.7.1-.8-.1-.8-.3 0-.3.2-.4.9-.5.6-.1 1.1 0 2.6-.2l3.6-.5zM483 29.3c.2 0 .4.1.3.3 0 .2-.2.3-.4.4l-2.8.3c-1.4.1-2 .3-2.6.4-.7.1-.8-.1-.8-.3 0-.3.2-.4.9-.5.6-.1 1.1 0 2.6-.2l2.8-.4zM484.5 32.3c.2 0 .4.1.3.3 0 .2-.2.3-.4.4l-4.6.5c-1.4.1-2 .3-2.6.4-.7.1-.8-.1-.8-.3 0-.3.2-.4.9-.5.6-.1 1.1 0 2.6-.2l4.6-.6zM486.6 33.7c.2 0 .4.1.3.3 0 .2-.2.3-.4.4l-6.5.6c-1.4.1-2 .3-2.6.4-.7.1-.8-.1-.8-.3 0-.3.2-.4.9-.5.6-.1 1.1 0 2.6-.2l6.5-.7zM482.7 27.7c.2 0 .4.1.3.3 0 .2-.2.3-.4.4l-1.9.2c-1.4.1-2 .3-2.6.4-.7.1-.8-.1-.8-.3 0-.3.2-.4.9-.5.6-.1 1.1 0 2.6-.2l1.9-.3zM489.4 34.9c.2 0 .4.1.3.3 0 .2-.2.3-.4.4l-8.8.9c-1.4.1-2 .3-2.6.4-.7.1-.8-.1-.8-.3 0-.3.2-.4.9-.5.6-.1 1.1 0 2.6-.2l8.8-1zM482.9 26.1c.2 0 .4.1.3.3 0 .2-.2.3-.4.4l-1 .1c-1.4.1-2 .3-2.6.4-.7.1-.8-.1-.8-.3 0-.3.2-.4.9-.5.6-.1 1.1 0 2.6-.2l1-.2zM493.3 36.1c.2 0 .4.1.3.3 0 .2-.2.3-.4.4l-11.6 1.2c-1.4.1-2 .3-2.6.4-.7.1-.8-.1-.8-.3 0-.3.2-.4.9-.5.6-.1 1.1 0 2.6-.2l11.6-1.3zM483.6 24.8c0 .2-.2.3-.4.4-1.4.1-1.5.2-2.1.3-.7.1-.8 0-.8-.3s.2-.4.9-.5c.6-.1.7 0 2.1-.2.2 0 .3.1.3.3zM496.6 37.4c.2 0 .4.1.3.3 0 .2-.2.3-.4.4l-13.2 1.4c-1.4.1-2 .3-2.6.4-.7.1-.8-.1-.8-.3 0-.3.2-.4.9-.5.6-.1 1.1 0 2.6-.2l13.2-1.5zM483.9 23.1c.2 0 .4.1.3.3 0 .2-.2.3-.4.4l-.7.1c-.3 0-.4-.1-.4-.3s.2-.3.5-.4l.7-.1zM498.7 38.7c.2 0 .4.1.3.3s-.2.3-.4.4l-12.9 1.3c-1.4.1-2 .3-2.6.4-.7.1-.8-.1-.8-.3 0-.3.2-.4.9-.5.6-.1 1.1 0 2.6-.2l12.9-1.4zM499.9 40.2c.2 0 .4.1.3.3 0 .2-.2.3-.4.4l-9.9 1c-1.4.1-2 .3-2.6.4-.7.1-.8-.1-.8-.3 0-.3.2-.4.9-.5.6-.1 1.1 0 2.6-.2l9.9-1.1zM500.4 41.7c.2 0 .4.1.3.3s-.2.3-.4.4l-6.7.7c-1.4.1-2 .3-2.6.4-.7.1-.8-.1-.8-.3 0-.3.2-.4.9-.5.6-.1 1.1 0 2.6-.2l6.7-.8zM500.5 43.3c.2 0 .4.1.3.3 0 .2-.2.3-.4.4l-4.4.5c-1.4.1-2 .3-2.6.4-.7.1-.8-.1-.8-.3 0-.3.2-.4.9-.5.6-.1 1.1 0 2.6-.2l4.4-.6zM500.2 44.9c.2 0 .4.1.3.3 0 .2-.2.3-.4.4l-2.8.3c-1.4.1-2 .3-2.6.4-.7.1-.8-.1-.8-.3 0-.3.2-.4.9-.5.6-.1 1.1 0 2.6-.2l2.8-.4zM499.8 46.6c.2 0 .4.1.3.3s-.2.3-.4.4l-1.6.2c-1.4.1-2 .3-2.6.4-.7.1-.8-.1-.8-.3 0-.3.2-.4.9-.5.6-.1 1.1 0 2.6-.2l1.6-.3zM496.9 50.4c0 .2-.2.3-.4.4-.4 0-.7.1-1.3.2-.4 0-.6 0-.6-.3s.2-.4.6-.4l1.3-.1c.3-.1.4 0 .4.2zM498.5 48.3c.2 0 .4.1.3.3 0 .2-.2.3-.4.4h-.1c-1.4.1-2 .3-2.6.4-.7.1-.8-.1-.8-.3 0-.3.2-.4.9-.5.6-.1 1.1 0 2.6-.2l.1-.1z"/></g><g fill="#6DCACA"><path d="M483.6 30.6c.2 0 .4.1.3.3 0 .2-.2.3-.4.4l-3.6.4c-1.4.1-2 .3-2.6.4-.7.1-.8-.1-.8-.3 0-.3.2-.4.9-.5.6-.1 1.1 0 2.6-.2l3.6-.5zM483.1 29c.2 0 .4.1.3.3 0 .2-.2.3-.4.4l-2.8.3c-1.4.1-2 .3-2.6.4-.7.1-.8-.1-.8-.3 0-.3.2-.4.9-.5.6-.1 1.1 0 2.6-.2l2.8-.4zM484.5 32c.2 0 .4.1.3.3 0 .2-.2.3-.4.4l-4.6.5c-1.4.1-2 .3-2.6.4-.7.1-.8-.1-.8-.3 0-.3.2-.4.9-.5.6-.1 1.1 0 2.6-.2l4.6-.6zM486.6 33.4c.2 0 .4.1.3.3 0 .2-.2.3-.4.4l-6.5.7c-1.4.1-2 .3-2.6.4-.7.1-.8-.1-.8-.3 0-.3.2-.4.9-.5.6-.1 1.1 0 2.6-.2l6.5-.8zM482.7 27.5c.2 0 .4.1.3.3 0 .2-.2.3-.4.4l-1.9.2c-1.4.1-2 .3-2.6.4-.7.1-.8-.1-.8-.3 0-.3.2-.4.9-.5.6-.1 1.1 0 2.6-.2l1.9-.3zM489.4 34.7c.2 0 .4.1.3.3 0 .2-.2.3-.4.4l-8.8.9c-1.4.1-2 .3-2.6.4-.7.1-.8-.1-.8-.3 0-.3.2-.4.9-.5.6-.1 1.1 0 2.6-.2l8.8-1zM483 25.9c.2 0 .4.1.3.3 0 .2-.2.3-.4.4l-1 .1c-1.4.1-2 .3-2.6.4-.7.1-.8-.1-.8-.3 0-.3.2-.4.9-.5.6-.1 1.1 0 2.6-.2l1-.2zM493.4 35.9c.2 0 .4.1.3.3s-.2.3-.4.4l-11.6 1.2c-1.4.1-2 .3-2.6.4-.7.1-.8-.1-.8-.3 0-.3.2-.4.9-.5.6-.1 1.1 0 2.6-.2l11.6-1.3zM483.6 24.6c0 .2-.2.3-.4.4-1.4.1-1.5.2-2.1.3-.7.1-.8 0-.8-.3s.2-.4.9-.5c.6-.1.7 0 2.1-.2.2 0 .4.1.3.3zM496.6 37.1c.2 0 .4.1.3.3s-.2.3-.4.4l-13.2 1.4c-1.4.1-2 .3-2.6.4-.7.1-.8-.1-.8-.3 0-.3.2-.4.9-.5.6-.1 1.1 0 2.6-.2l13.2-1.5zM483.9 22.8c.2 0 .4.1.3.3s-.2.3-.4.4l-.7.1c-.3 0-.4-.1-.4-.3 0-.2.2-.3.5-.4l.7-.1zM498.8 38.5c.2 0 .4.1.3.3 0 .2-.2.3-.4.4l-12.9 1.3c-1.4.1-2 .3-2.6.4-.7.1-.8-.1-.8-.3 0-.3.2-.4.9-.5.6-.1 1.1 0 2.6-.2l12.9-1.4zM500 40c.2 0 .4.1.3.3s-.2.3-.4.4l-9.9 1c-1.4.1-2 .3-2.6.4-.7.1-.8-.1-.8-.3 0-.3.2-.4.9-.5.6-.1 1.1 0 2.6-.2l9.9-1.1zM500.4 41.5c.2 0 .4.1.3.3 0 .2-.2.3-.4.4l-6.7.7c-1.4.1-2 .3-2.6.4-.7.1-.8-.1-.8-.3 0-.3.2-.4.9-.5.6-.1 1.1 0 2.6-.2l6.7-.8zM500.6 43.1c.2 0 .4.1.3.3 0 .2-.2.3-.4.4l-4.4.5c-1.4.1-2 .3-2.6.4-.7.1-.8-.1-.8-.3 0-.3.2-.4.9-.5.6-.1 1.1 0 2.6-.2l4.4-.6zM500.3 44.7c.2 0 .4.1.3.3 0 .2-.2.3-.4.4l-2.8.3c-1.4.1-2 .3-2.6.4-.7.1-.8-.1-.8-.3 0-.3.2-.4.9-.5.6-.1 1.1 0 2.6-.2l2.8-.4zM499.8 46.3c.2 0 .4.1.3.3 0 .2-.2.3-.4.4l-1.6.2c-1.4.1-2 .3-2.6.4-.7.1-.8-.1-.8-.3s.2-.4.9-.5c.6-.1 1.1 0 2.6-.2l1.6-.3zM496.9 50.2c0 .2-.2.3-.4.4-.4 0-.7.1-1.3.2-.4 0-.6 0-.6-.3s.2-.4.6-.4l1.3-.1c.3-.1.5 0 .4.2zM498.5 48.1c.2 0 .4.1.3.3 0 .2-.2.3-.4.4h-.1c-1.4.1-2 .3-2.6.4-.7.1-.8-.1-.8-.3 0-.3.2-.4.9-.5.6-.1 1.1 0 2.6-.2l.1-.1z"/></g><g fill="#6DCACA"><path d="M121.3 76.4c.2 0 .4.1.3.3s-.2.3-.4.4l-4.8.5c-1.4.1-2 .3-2.6.4-.7.1-.8-.1-.8-.3 0-.3.2-.4.9-.5.6-.1 1.1 0 2.6-.2l4.8-.6zM121.5 74.8c.2 0 .4.1.3.3s-.2.3-.4.4l-4.5.5c-1.4.1-2 .3-2.6.4-.7.1-.8-.1-.8-.3 0-.3.2-.4.9-.5.6-.1 1.1 0 2.6-.2l4.5-.6zM121.3 78c.2 0 .4.1.3.3s-.2.3-.4.4l-4.6.5c-1.4.1-2 .3-2.6.4-.7.1-.8-.1-.8-.3 0-.3.2-.4.9-.5.6-.1 1.1 0 2.6-.2l4.6-.6zM121.7 73.2c.2 0 .4.1.3.3 0 .2-.2.3-.4.4l-4.4.5c-1.4.1-2 .3-2.6.4-.7.1-.8-.1-.8-.3 0-.3.2-.4.9-.5.6-.1 1.1 0 2.6-.2l4.4-.6zM121.3 79.6c.2 0 .4.1.3.3s-.2.3-.4.4l-4.5.5c-1.4.1-2 .3-2.6.4-.7.1-.8-.1-.8-.3 0-.3.2-.4.9-.5.6-.1 1.1 0 2.6-.2l4.5-.6zM122.1 71.5c.2 0 .4.1.3.3s-.2.3-.4.4l-4.2.4c-1.4.1-2 .3-2.6.4-.7.1-.8-.1-.8-.3s.2-.4.9-.5c.6-.1 1.1 0 2.6-.2l4.2-.5zM121.4 81.1c.2 0 .4.1.3.3s-.2.3-.4.4l-4.5.5c-1.4.1-2 .3-2.6.4-.7.1-.8-.1-.8-.3 0-.3.2-.4.9-.5.6-.1 1.1 0 2.6-.2l4.5-.6zM122.5 69.9c.2 0 .4.1.3.3 0 .2-.2.3-.4.4l-4 .4c-1.4.1-2 .3-2.6.4-.7.1-.8-.1-.8-.3 0-.3.2-.4.9-.5.6-.1 1.1 0 2.6-.2l4-.5zM121.7 82.7c.2 0 .4.1.3.3s-.2.3-.4.4l-4.6.5c-1.4.1-2 .3-2.6.4-.7.1-.8-.1-.8-.3 0-.3.2-.4.9-.5.6-.1 1.1 0 2.6-.2l4.6-.6zM122.9 68.3c.2 0 .4.1.3.3 0 .2-.2.3-.4.4l-3.8.4c-1.4.1-2 .3-2.6.4-.7.1-.8-.1-.8-.3 0-.3.2-.4.9-.5.6-.1 1.1 0 2.6-.2l3.8-.5zM122.3 84.2c.2 0 .4.1.3.3 0 .2-.2.3-.4.4l-4.5.5c-1.4.1-2 .3-2.6.4-.7.1-.8-.1-.8-.3 0-.3.2-.4.9-.5.6-.1 1.1 0 2.6-.2l4.5-.6zM123.6 66.6c.2 0 .4.1.3.3s-.2.3-.4.4l-3.4.4c-1.4.1-2 .3-2.6.4-.7.1-.8-.1-.8-.3 0-.3.2-.4.9-.5.6-.1 1.1 0 2.6-.2l3.4-.5zM122.9 85.8c.2 0 .4.1.3.3s-.2.3-.4.4l-4 .4c-1.4.1-2 .3-2.6.4-.7.1-.8-.1-.8-.3 0-.3.2-.4.9-.5.6-.1 1.1 0 2.6-.2l4-.5zM124.3 65c.2 0 .4.1.3.3s-.2.3-.4.4l-2.6.3c-1.4.1-2 .3-2.6.4-.7.1-.8-.1-.8-.3 0-.3.2-.4.9-.5.6-.1 1.1 0 2.6-.2l2.6-.4zM123.8 87.2c.2 0 .4.1.3.3 0 .2-.2.3-.4.4l-3.4.4c-1.4.1-2 .3-2.6.4-.7.1-.8-.1-.8-.3 0-.3.2-.4.9-.5.6-.1 1.1 0 2.6-.2l3.4-.5zM125.2 63.3c.2 0 .4.1.3.3s-.2.3-.4.4l-1.7.2c-1.4.1-2 .3-2.6.4-.7.1-.8-.1-.8-.3 0-.3.2-.4.9-.5.6-.1 1.1 0 2.6-.2l1.7-.3zM124.7 88.7c.2 0 .4.1.3.3s-.2.3-.4.4l-2.1.2c-1.4.1-2 .3-2.6.4-.7.1-.8-.1-.8-.3 0-.3.2-.4.9-.5.6-.1 1.1 0 2.6-.2l2.1-.3zM126.4 61.6c.2 0 .4.1.3.3 0 .2-.2.3-.4.4h-.4c-1.4.1-2 .3-2.6.4-.7.1-.8-.1-.8-.3 0-.3.2-.4.9-.5.6-.1 1.1 0 2.6-.2l.4-.1zM127.8 60.4c0 .2-.2.3-.4.4-.7.1-.7.1-1.3.2-.4 0-.6 0-.6-.3s.2-.4.6-.4c.4 0 .6 0 1.3-.1.3-.1.4 0 .4.2zM126.1 90.4c0 .2-.2.3-.4.4-.8.1-1.4.3-2 .3-.7.1-.8-.1-.8-.3 0-.3.2-.4.9-.5l2-.1c.1-.1.3 0 .3.2z"/></g><g fill="#34A8A6"><path d="M121.3 76.3c.2 0 .4.1.3.3 0 .2-.2.3-.4.4l-4.8.5c-1.4.1-2 .3-2.6.4-.7.1-.8-.1-.8-.3 0-.3.2-.4.9-.5.6-.1 1.1 0 2.6-.2l4.8-.6zM121.4 74.7c.2 0 .4.1.3.3s-.2.3-.4.4l-4.5.5c-1.4.1-2 .3-2.6.4-.7.1-.8-.1-.8-.3 0-.3.2-.4.9-.5.6-.1 1.1 0 2.6-.2l4.5-.6zM121.3 77.9c.2 0 .4.1.3.3s-.2.3-.4.4l-4.6.5c-1.4.1-2 .3-2.6.4-.7.1-.8-.1-.8-.3 0-.3.2-.4.9-.5.6-.1 1.1 0 2.6-.2l4.6-.6zM121.7 73.1c.2 0 .4.1.3.3 0 .2-.2.3-.4.4l-4.4.5c-1.4.1-2 .3-2.6.4-.7.1-.8-.1-.8-.3 0-.3.2-.4.9-.5.6-.1 1.1 0 2.6-.2l4.4-.6zM121.3 79.5c.2 0 .4.1.3.3s-.2.3-.4.4l-4.5.5c-1.4.1-2 .3-2.6.4-.7.1-.8-.1-.8-.3 0-.3.2-.4.9-.5.6-.1 1.1 0 2.6-.2l4.5-.6zM122 71.4c.2 0 .4.1.3.3s-.2.3-.4.4l-4.2.4c-1.4.1-2 .3-2.6.4-.7.1-.8-.1-.8-.3 0-.3.2-.4.9-.5.6-.1 1.1 0 2.6-.2l4.2-.5zM121.4 81c.2 0 .4.1.3.3s-.2.3-.4.4l-4.5.5c-1.4.1-2 .3-2.6.4-.7.1-.8-.1-.8-.3 0-.3.2-.4.9-.5.6-.1 1.1 0 2.6-.2l4.5-.6zM122.4 69.8c.2 0 .4.1.3.3 0 .2-.2.3-.4.4l-4 .4c-1.4.1-2 .3-2.6.4-.7.1-.8-.1-.8-.3 0-.3.2-.4.9-.5.6-.1 1.1 0 2.6-.2l4-.5zM121.7 82.6c.2 0 .4.1.3.3s-.2.3-.4.4l-4.6.5c-1.4.1-2 .3-2.6.4-.7.1-.8-.1-.8-.3 0-.3.2-.4.9-.5.6-.1 1.1 0 2.6-.2l4.6-.6zM122.9 68.2c.2 0 .4.1.3.3s-.2.3-.4.4l-3.8.4c-1.4.1-2 .3-2.6.4-.7.1-.8-.1-.8-.3 0-.3.2-.4.9-.5.6-.1 1.1 0 2.6-.2l3.8-.5zM122.3 84.1c.2 0 .4.1.3.3 0 .2-.2.3-.4.4l-4.5.5c-1.4.1-2 .3-2.6.4-.7.1-.8-.1-.8-.3 0-.3.2-.4.9-.5.6-.1 1.1 0 2.6-.2l4.5-.6zM123.6 66.5c.2 0 .4.1.3.3s-.2.3-.4.4l-3.4.4c-1.4.1-2 .3-2.6.4-.7.1-.8-.1-.8-.3 0-.3.2-.4.9-.5.6-.1 1.1 0 2.6-.2l3.4-.5zM122.9 85.6c.2 0 .4.1.3.3s-.2.3-.4.4l-4 .4c-1.4.1-2 .3-2.6.4-.7.1-.8-.1-.8-.3 0-.3.2-.4.9-.5.6-.1 1.1 0 2.6-.2l4-.5zM124.3 64.9c.2 0 .4.1.3.3s-.2.3-.4.4l-2.6.3c-1.4.1-2 .3-2.6.4-.7.1-.8-.1-.8-.3 0-.3.2-.4.9-.5.6-.1 1.1 0 2.6-.2l2.6-.4zM123.7 87.1c.2 0 .4.1.3.3 0 .2-.2.3-.4.4l-3.4.4c-1.4.1-2 .3-2.6.4-.7.1-.8-.1-.8-.3 0-.3.2-.4.9-.5.6-.1 1.1 0 2.6-.2l3.4-.5zM125.2 63.2c.2 0 .4.1.3.3s-.2.3-.4.4l-1.7.2c-1.4.1-2 .3-2.6.4-.7.1-.8-.1-.8-.3 0-.3.2-.4.9-.5.6-.1 1.1 0 2.6-.2l1.7-.3zM124.7 88.6c.2 0 .4.1.3.3s-.2.3-.4.4l-2.1.2c-1.4.1-2 .3-2.6.4-.7.1-.8-.1-.8-.3 0-.3.2-.4.9-.5.6-.1 1.1 0 2.6-.2l2.1-.3zM126.3 61.5c.2 0 .4.1.3.3 0 .2-.2.3-.4.4h-.4c-1.4.1-2 .3-2.6.4-.7.1-.8-.1-.8-.3 0-.3.2-.4.9-.5.6-.1 1.1 0 2.6-.2l.4-.1zM127.8 60.3c0 .2-.2.3-.4.4-.7.1-.7.1-1.3.2-.4 0-.6 0-.6-.3s.2-.4.6-.4c.4 0 .6 0 1.3-.1.3-.1.4 0 .4.2zM126.1 90.3c0 .2-.2.3-.4.4-.8.1-1.4.3-2 .3-.7.1-.8-.1-.8-.3 0-.3.2-.4.9-.5l2-.1c.1-.1.3 0 .3.2z"/></g><path fill="#6DCACA" d="M142.8 91.5l.2-1.6c-3.3 2.4-7.2 3.6-12.7 4.2-14.4 1.5-21.2-5.6-20.1-16.2 1.6-15.7 14.6-21.3 24.2-22.3 5.2-.5 8.6-.2 11.2 1.1l.2-1.8c.1-.5.5-1.1 1.1-1.1.7-.1 1.2.4 1.1.9l-.8 7.7c-.1.7-.6 1.1-1.3 1.1-.6.1-1-.4-.9-.9l.4-3.4c-1.8-1.2-4.2-2.1-7.5-1.7-6.7.7-12 8-13 17.4-.9 8.8 3.6 16.7 10.8 16 2.6-.3 5.4-1.8 7.6-3.8l.4-3.7c.1-.6.5-1.1 1.3-1.2.6-.1 1 .3 1 1l-.9 8.1c-.1.5-.5 1.1-1.1 1.1-.8 0-1.3-.4-1.2-.9zm-13 .5c-5.1-2.5-8-9.5-7.2-16.7.8-7.6 4-14 8.7-17.4-8.1 1.6-17.8 7.2-19.1 19.3-1.2 12.3 8.2 15.6 17.6 14.8z"/><linearGradient id="J" gradientUnits="userSpaceOnUse" x1="199.508" y1="278.513" x2="235.711" y2="278.513" gradientTransform="matrix(1.011 -.105 -.105 1 -62.118 -180.702)"><stop offset="0" stop-color="#93D5D8"/><stop offset="1" stop-color="#6DCACA"/></linearGradient><path fill="url(#J)" d="M142.8 91.5l.2-1.6c-3.3 2.4-7.2 3.6-12.7 4.2-14.4 1.5-21.2-5.6-20.1-16.2 1.6-15.7 14.6-21.3 24.2-22.3 5.2-.5 8.6-.2 11.2 1.1l.2-1.8c.1-.5.5-1.1 1.1-1.1.7-.1 1.2.4 1.1.9l-.8 7.7c-.1.7-.6 1.1-1.3 1.1-.6.1-1-.4-.9-.9l.4-3.4c-1.8-1.2-4.2-2.1-7.5-1.7-6.7.7-12 8-13 17.4-.9 8.8 3.6 16.7 10.8 16 2.6-.3 5.4-1.8 7.6-3.8l.4-3.7c.1-.6.5-1.1 1.3-1.2.6-.1 1 .3 1 1l-.9 8.1c-.1.5-.5 1.1-1.1 1.1-.8 0-1.3-.4-1.2-.9zm-13 .5c-5.1-2.5-8-9.5-7.2-16.7.8-7.6 4-14 8.7-17.4-8.1 1.6-17.8 7.2-19.1 19.3-1.2 12.3 8.2 15.6 17.6 14.8z"/><g fill="#C1D862"><path d="M150.5 38.4s-4.5-.6-8.8 2.8l-6 4.1s-1.1-8.8-6.4-8.3c-5.3.4-8.3 3.6-8.3 3.6s1.9-8.6-2.6-10c-4.5-1.5-8.8-1.1-8.8-1.1s4.1-1.5 2.1-6l-6-6s4.1 1.7 7.5-.6l5.1-3.4s-.6 5.1 4.5 7.1c5.1 1.9 9.8-2.6 9.8-2.6s-.2 6.4 3.8 8.1c4.1 1.7 10.5-.9 10.5-.9s-.9 10.8 3.6 13.2zM149.8 37.9l-43-20.2c1.4.4 4.1.7 6.5-1 3.4-2.4 5.1-3.4 5.1-3.4s-.6 5.1 4.5 7.1c5.1 1.9 9.8-2.6 9.8-2.6s-.2 6.4 3.8 8.1c4.1 1.7 10.5-.9 10.5-.9s-.9 9.9 2.8 12.9z"/></g><g fill="#C1D862"><path d="M149.4 37.6s4.5-.3 8.5 3.4l5.7 4.4s1.7-8.6 6.9-7.8c5.3.8 8 4.2 8 4.2s-1.3-8.6 3.2-9.8c4.6-1.2 8.8-.5 8.8-.5s-3.9-1.8-1.7-6.1 6.3-5.5 6.3-5.5-4.1 1.4-7.4-1.1l-4.9-3.7s.3 5.1-4.9 6.7c-5.2 1.6-9.6-3.2-9.6-3.2s-.2 6.4-4.4 7.8l-10.3-1.6s.4 10.8-4.2 12.8zM150 37.2l44-17.1c-1.4.3-4.1.4-6.4-1.4-3.2-2.6-4.9-3.7-4.9-3.7s.3 5.1-4.9 6.7c-5.2 1.6-9.6-3.2-9.6-3.2s-.2 6.4-4.4 7.8c-4.1 1.4-10.3-1.6-10.3-1.6s.4 9.8-3.5 12.5z"/></g><g fill="#F1627A"><circle cx="149.2" cy="33.8" r="8.2"/><path d="M149.2 25.7c-2.9 0-5.4 1.5-6.9 3.8 1.3-.8 2.8-1.3 4.4-1.3 4.5 0 8.2 3.7 8.2 8.2 0 1.6-.5 3.1-1.3 4.4 2.3-1.5 3.8-4 3.8-6.9 0-4.6-3.7-8.2-8.2-8.2z"/></g></svg>