<svg xmlns="http://www.w3.org/2000/svg" viewBox="0 0 106.8 224.4" enable-background="new 0 0 106.8 224.4"><path fill="#EC7290" d="M96.1 147.8h4.3v2.1h-4.3zM96.1 150h8.5v2.1h-8.5zM96.1 154.2h8.5v2.1h-8.5zM96.1 156.4h6.4v2.1h-6.4zM96.1 152.1h10.7v2.1h-10.7z"/><path fill="#E22346" d="M98.2 149.7h2.1v.2h-2.1zM98.2 151.9h6.4v.2h-6.4zM98.2 154h6.4v.2h-6.4zM98.2 156.2h6.4v.2h-6.4z"/><path fill="#CC1C67" d="M69.1 147.8h27v10.7h-27z"/><path fill="#EC7290" d="M6.4 147.8h4.3v2.1h-4.3zM2.1 150h8.5v2.1h-8.5zM2.1 154.2h8.5v2.1h-8.5zM4.3 156.4h6.4v2.1h-6.4zM0 152.1h10.7v2.1h-10.7z"/><path fill="#E22346" d="M6.4 149.7h2.1v.2h-2.1zM2.1 151.9h6.4v.2h-6.4zM2.1 154h6.4v.2h-6.4zM2.1 156.2h6.4v.2h-6.4z"/><path fill="#CC1C67" d="M10.7 147.8h27v10.7h-27z"/><path fill="#EC7290" d="M36.6 193.9c-1.7 0-3.1 1.4-3.1 3.1v1.5c0 1.7-1.4 3.1-3.1 3.1h-1.4c-1.7 0-3.1 1.4-3.1 3.1v1.5c0 1.7-1.4 3.1-3.1 3.1h-1.5c-1.7 0-3.1 1.4-3.1 3.1v1.5c0 1.7-1.4 3.1-3.1 3.1h-1.5c-1.7 0-3.1 1.4-3.1 3.1v1.5c0 1.7 1.4 3.1 3.1 3.1h32c1.7 0 3.1-1.4 3.1-3.1v-24.6c0-1.7-1.4-3.1-3.1-3.1h-9zM70.2 193.9c1.7 0 3.1 1.4 3.1 3.1v1.5c0 1.7 1.4 3.1 3.1 3.1h1.5c1.7 0 3.1 1.4 3.1 3.1v1.5c0 1.7 1.4 3.1 3.1 3.1h1.5c1.7 0 3.1 1.4 3.1 3.1v1.5c0 1.7 1.4 3.1 3.1 3.1h1.5c1.7 0 3.1 1.4 3.1 3.1v1.5c0 1.7-1.4 3.1-3.1 3.1h-32.3c-1.7 0-3.1-1.4-3.1-3.1v-24.6c0-1.7 1.4-3.1 3.1-3.1h9.2z"/><path fill="#CC1C67" d="M0 197l53.4-91.6 53.4 91.6z"/><path fill="#fff" d="M4.4 181.7l-4.4 7.6h106.8l-4.5-7.6z"/><circle fill="#EC7290" cx="55.2" cy="107.4" r="38.1"/><path fill="#E22346" d="M54.8 107.6h.8v22.1h-.8zM58.2 108.9h-6.1l3.1-9.1z"/><path stroke="#E22346" stroke-width=".763" stroke-miterlimit="10" d="M78.1 112c0 2.1-1.3 4-3.4 5.4s-4.9 2.2-8.1 2.2c0 2.1-1.3 4-3.4 5.4-2.1 1.4-4.9 4.5-8.1 4.5s-6-3.1-8.1-4.5c-2.1-1.4-3.4-3.3-3.4-5.4-3.2 0-6-.9-8.1-2.2s-3.4-3.3-3.4-5.4" fill="none"/><g fill="#E22346"><path d="M61.3 104.3c0-.3.1-.6.2-.9.1-.3.3-.5.5-.7.2-.2.5-.4.7-.5.3-.1.6-.2.9-.2s.6.1.9.2c.3.1.5.3.7.5.2.2.4.5.5.7.1.3.2.6.2.9v1.5h.8v-1.5c0-.4-.1-.8-.2-1.2-.2-.4-.4-.7-.7-1-.3-.3-.6-.5-1-.7-.4-.2-.8-.2-1.2-.2-.4 0-.8.1-1.2.2-.4.2-.7.4-1 .7-.3.3-.5.6-.7 1-.2.4-.2.8-.2 1.2v1.5h.8v-1.5zM45.3 104.3c0-.3.1-.6.2-.9.1-.3.3-.5.5-.7.2-.2.5-.4.7-.5.3-.1.6-.2.9-.2s.6.1.9.2c.3.1.5.3.7.5.2.2.4.5.5.7.1.3.2.6.2.9v1.5h.8v-1.5c0-.4-.1-.8-.2-1.2-.2-.4-.4-.7-.7-1-.3-.3-.6-.5-1-.7-.4-.2-.8-.2-1.2-.2-.4 0-.8.1-1.2.2-.4.2-.7.4-1 .7-.3.3-.5.6-.7 1-.2.4-.2.8-.2 1.2v1.5h.8v-1.5z"/></g><path fill="#CC1C67" d="M8.3 102.3l53.4-83.9 38.2 76.2z"/><path fill="#fff" d="M13.5 86.6l-5.2 8 91.6-7.6-3.7-7.3z"/><path fill="#FEE96E" d="M61 30.1l-11.6 6.6 1.8-13.2-9.8-9.1 13.1-2.3 5.6-12.1 6.3 11.8 13.2 1.5-9.3 9.6 2.7 13.1z"/><path fill="#F5DF04" d="M79.6 13.3l-13-1.5-6 6.4-.5-18.2-5.6 12.1-13.1 2.3 9.8 9.1-1.8 13.2 11.6-6.6 12 5.9-2.7-13.1z"/><path fill="#FEE96E" d="M70.3 22.9l9.3-9.6-19 4.9zM61 30.1l12 5.9v-.1l-12.4-17.7zM51.2 23.6l-1.8 13.1 11.2-18.5zM60.6 18.2l-6-6.2-.1.1-12.9 2.3z"/></svg>