<svg xmlns="http://www.w3.org/2000/svg" viewBox="0 0 140 280.2" enable-background="new 0 0 140 280.2"><path fill="#6BC6B5" d="M126 179.8h5.6v2.8h-5.6zM126 182.6h11.2v2.8h-11.2zM126 188.2h11.2v2.8h-11.2zM126 191h8.4v2.8h-8.4zM126 185.4h14v2.8h-14z"/><path fill="#34A8A6" d="M128.8 182.3h2.8v.3h-2.8zM128.8 185.1h8.4v.3h-8.4zM128.8 187.9h8.4v.3h-8.4zM128.8 190.7h8.4v.3h-8.4z"/><path fill="#F1627A" d="M90.6 179.8h35.4v14h-35.4z"/><path fill="#6BC6B5" d="M8.4 179.8h5.6v2.8h-5.6zM2.8 182.6h11.2v2.8h-11.2zM2.8 188.2h11.2v2.8h-11.2zM5.6 191h8.4v2.8h-8.4zM0 185.4h14v2.8h-14z"/><path fill="#34A8A6" d="M8.4 182.3h2.8v.3h-2.8zM2.8 185.1h8.4v.3h-8.4zM2.8 187.9h8.4v.3h-8.4zM2.8 190.7h8.4v.3h-8.4z"/><path fill="#F1627A" d="M14 179.8h35.4v14h-35.4z"/><path fill="#6BC6B5" d="M48 240.2c-2.2 0-4 1.8-4 4v2c0 2.2-1.8 4-4 4h-2c-2.2 0-4 1.8-4 4v2c0 2.2-1.8 4-4 4h-2c-2.2 0-4 1.8-4 4v2c0 2.2-1.8 4-4 4h-2c-2.2 0-4 1.8-4 4v2c0 2.2 1.8 4 4 4h42c2.2 0 4-1.8 4-4v-32c0-2.2-1.8-4-4-4h-12zM92 240.2c2.2 0 4 1.8 4 4v2c0 2.2 1.8 4 4 4h2c2.2 0 4 1.8 4 4v2c0 2.2 1.8 4 4 4h2c2.2 0 4 1.8 4 4v2c0 2.2 1.8 4 4 4h2c2.2 0 4 1.8 4 4v2c0 2.2-1.8 4-4 4h-42c-2.2 0-4-1.8-4-4v-32c0-2.2 1.8-4 4-4h12z"/><path fill="#F1627A" d="M0 244.2l70-120 70 120z"/><path fill="#fff" d="M5.8 224.2l-5.8 10h140l-5.8-10z"/><circle fill="#6BC6B5" cx="72.3" cy="126.8" r="50"/><path fill="#34A8A6" d="M71.8 127h1v29h-1zM76.3 128.8h-8l4-12z"/><path stroke="#34A8A6" stroke-linecap="round" stroke-miterlimit="10" d="M102.3 132.8c0 2.8-1.7 5.3-4.4 7.1s-6.5 2.9-10.6 2.9c0 2.8-1.7 5.3-4.4 7.1s-6.5 5.9-10.6 5.9-7.9-4.1-10.6-5.9c-2.7-1.8-4.4-4.3-4.4-7.1-4.1 0-7.9-1.1-10.6-2.9s-4.4-4.3-4.4-7.1" fill="none"/><path fill="#F1627A" d="M10.9 120l70-110 50 100z"/><path fill="#fff" d="M17.6 99.4l-6.7 10.6 120-10-4.8-9.6z"/><circle fill="#fff" cx="80.9" cy="10" r="10"/><path fill="#F6D86C" d="M83.3 122.8c2.2 0 4-1.8 4-4h-8c0 2.2 1.8 4 4 4z"/><path fill="#E32345" d="M83.3 120.8c1.1 0 2-.9 2-2h-4c0 1.1.9 2 2 2z"/><path fill="#F6D86C" d="M62.3 122.8c2.2 0 4-1.8 4-4h-8c0 2.2 1.8 4 4 4z"/><path fill="#E32345" d="M62.3 120.8c1.1 0 2-.9 2-2h-4c0 1.1.9 2 2 2z"/></svg>