<svg xmlns="http://www.w3.org/2000/svg" xmlns:xlink="http://www.w3.org/1999/xlink" viewBox="0 0 27.9 289.6" enable-background="new 0 0 27.9 289.6"><defs><path id="a" d="M5.6 0h16.8v249.1h-16.8z"/></defs><clipPath id="b"><use xlink:href="#a" overflow="visible"/></clipPath><g clip-path="url(#b)"><path fill="#E32345" d="M-8.7 246.7l55.2 9.5v6.6l-55.2-9.5z"/><path fill="#fff" d="M-8.7 240l55.2 9.5v6.7l-55.2-9.5z"/><path fill="#E32345" d="M-8.7 233.3l55.2 9.6v6.6l-55.2-9.5z"/><path fill="#fff" d="M-8.7 226.7l55.2 9.5v6.7l-55.2-9.6z"/><path fill="#E32345" d="M-8.7 220l55.2 9.5v6.7l-55.2-9.5z"/><path fill="#fff" d="M-8.7 213.4l55.2 9.5v6.6l-55.2-9.5z"/><path fill="#E32345" d="M-8.7 206.7l55.2 9.5v6.7l-55.2-9.5z"/><path fill="#fff" d="M-8.7 200l55.2 9.6v6.6l-55.2-9.5z"/><path fill="#E32345" d="M-8.7 193.4l55.2 9.5v6.7l-55.2-9.6z"/><path fill="#fff" d="M-8.7 186.7l55.2 9.5v6.7l-55.2-9.5z"/><path fill="#E32345" d="M-8.7 180.1l55.2 9.5v6.6l-55.2-9.5z"/><path fill="#fff" d="M-8.7 173.4l55.2 9.5v6.7l-55.2-9.5z"/><path fill="#E32345" d="M-8.7 166.7l55.2 9.6v6.6l-55.2-9.5z"/><path fill="#fff" d="M-8.7 160.1l55.2 9.5v6.7l-55.2-9.6z"/></g><g clip-path="url(#b)"><path fill="#E32345" d="M-8.7 153.7l55.2 9.5v6.6l-55.2-9.5z"/><path fill="#fff" d="M-8.7 147l55.2 9.5v6.7l-55.2-9.5z"/><path fill="#E32345" d="M-8.7 140.3l55.2 9.6v6.6l-55.2-9.5z"/><path fill="#fff" d="M-8.7 133.7l55.2 9.5v6.7l-55.2-9.6z"/><path fill="#E32345" d="M-8.7 127l55.2 9.5v6.7l-55.2-9.5z"/><path fill="#fff" d="M-8.7 120.4l55.2 9.5v6.6l-55.2-9.5z"/><path fill="#E32345" d="M-8.7 113.7l55.2 9.5v6.7l-55.2-9.5z"/><path fill="#fff" d="M-8.7 107l55.2 9.6v6.6l-55.2-9.5z"/><path fill="#E32345" d="M-8.7 100.4l55.2 9.5v6.7l-55.2-9.6z"/><path fill="#fff" d="M-8.7 93.7l55.2 9.5v6.7l-55.2-9.5z"/><path fill="#E32345" d="M-8.7 87.1l55.2 9.5v6.6l-55.2-9.5z"/><path fill="#fff" d="M-8.7 80.4l55.2 9.5v6.7l-55.2-9.5z"/><path fill="#E32345" d="M-8.7 73.7l55.2 9.6v6.6l-55.2-9.5z"/><path fill="#fff" d="M-8.7 67.1l55.2 9.5v6.7l-55.2-9.6z"/></g><g clip-path="url(#b)"><path fill="#E32345" d="M-8.7 60.7l55.2 9.5v6.6l-55.2-9.5z"/><path fill="#fff" d="M-8.7 54l55.2 9.5v6.7l-55.2-9.5z"/><path fill="#E32345" d="M-8.7 47.3l55.2 9.6v6.6l-55.2-9.5z"/><path fill="#fff" d="M-8.7 40.7l55.2 9.5v6.7l-55.2-9.6z"/><path fill="#E32345" d="M-8.7 34l55.2 9.5v6.7l-55.2-9.5z"/><path fill="#fff" d="M-8.7 27.4l55.2 9.5v6.6l-55.2-9.5z"/><path fill="#E32345" d="M-8.7 20.7l55.2 9.5v6.7l-55.2-9.5z"/><path fill="#fff" d="M-8.7 14l55.2 9.6v6.6l-55.2-9.5z"/><path fill="#E32345" d="M-8.7 7.4l55.2 9.5v6.7l-55.2-9.6z"/><path fill="#fff" d="M-8.7.7l55.2 9.5v6.7l-55.2-9.5z"/><path fill="#E32345" d="M-8.7-5.9l55.2 9.5v6.6l-55.2-9.5z"/><path fill="#fff" d="M-8.7-12.6l55.2 9.5v6.7l-55.2-9.5z"/><path fill="#E32345" d="M-8.7-19.3l55.2 9.6v6.6l-55.2-9.5z"/><path fill="#fff" d="M-8.7-25.9l55.2 9.5v6.7l-55.2-9.6z"/></g><path fill="#E4F4F4" d="M18.1 0h1.9v252.1h-1.9z"/><path fill="#C58D4D" d="M5.8 249.3h16.4c3.2 0 5.8 2.6 5.8 5.8v3.7c0 3.2-2.6 5.8-5.8 5.8h-16.4c-3.2 0-5.8-2.6-5.8-5.8v-3.7c0-3.2 2.6-5.8 5.8-5.8z"/><path fill="#9A6C3D" d="M0 258.4h27.9v1.8h-27.9zM0 253.4h27.9v1.8h-27.9z"/><circle fill="#C58D4D" cx="14" cy="275.6" r="14"/><path opacity=".49" fill="#9A6C3D" d="M8.1 285.2c-1-1.7-1.5-3.6-1.5-5.7 0-6.3 5.1-11.3 11.3-11.3 2.1 0 4 .6 5.7 1.5-2-3.4-5.6-5.6-9.8-5.6-6.3 0-11.3 5.1-11.3 11.3 0 4.2 2.2 7.9 5.6 9.8z"/><g stroke-linecap="round" stroke-linejoin="round" stroke-miterlimit="10"><path stroke="#9A6C3D" fill="none" d="M15.734 281.468l-1.768 1.768-1.768-1.768 1.768-1.768zM15.744 269.693l-1.768 1.768-1.768-1.768 1.768-1.768zM19.835 273.859l1.768 1.768-1.768 1.768-1.768-1.768zM8.039 273.849l1.768 1.768-1.768 1.768-1.768-1.768z"/><path stroke="#fff" fill="none" d="M14 286.5v-21.8M3.1 275.6h21.7M8.3 281.3l11.4-11.4M19.7 281.3l-11.4-11.4"/><path fill="#9A6C3D" stroke="#fff" d="M15.734 281.468l-1.768 1.768-1.768-1.768 1.768-1.768zM15.744 269.693l-1.768 1.768-1.768-1.768 1.768-1.768zM19.835 273.859l1.768 1.768-1.768 1.768-1.768-1.768zM8.039 273.849l1.768 1.768-1.768 1.768-1.768-1.768zM16.206 275.684l-2.263 2.263-2.263-2.263 2.263-2.263z"/></g></svg>