<svg xmlns="http://www.w3.org/2000/svg" xmlns:xlink="http://www.w3.org/1999/xlink" viewBox="0 0 1141.5 307" enable-background="new 0 0 1141.5 307"><path fill="#08564D" d="M687.7 88.9c2.8 0 5.8 3.8 8.1 10.1 2.6 7.2 4.1 16.8 4.1 27.1s-1.4 19.9-4.1 27.1c-2.3 6.3-5.3 10.1-8.1 10.1s-5.8-3.8-8.1-10.1c-2.6-7.2-4.1-16.8-4.1-27.1s1.4-19.9 4.1-27.1c2.3-6.4 5.3-10.1 8.1-10.1m0-2.2c-7.9 0-14.3 17.6-14.3 39.3 0 21.7 6.4 39.3 14.3 39.3s14.3-17.6 14.3-39.3c0-21.7-6.4-39.3-14.3-39.3z"/><path fill="#7F5733" d="M700.6 219.1v-65.8h28.6l-14.3 64.4-.1.2 34.4 48.2-2.5 2.5-45.5-45.5zM737.9 153.3h28.6v56.5l3.4 5.3 37.9 53.1-2.5 2.5-45.5-45.4-7.7-7.7.1-.1zM782.5 157.2l13.8-8.3.1 2.1 3.5-2.1.1 4.9-3.4 3.4h-10.5z"/><path fill="#fff" d="M793 152v1l1.8-1v2.4l-1.7 1.7h-7z"/><path fill="#7F5733" d="M698.2 58.4v9.5h4.8v-9.5l4.7-4.8v19.1h-4.7v9.5h-4.8v-9.5h-4.8v-9.6z"/><path fill="#a74" d="M672 82.2h32.1l3.6-3.6v74.7h68.2l6.6 3.9 3.8 6.6v118.2h-3.5l-10.8-64.3-4.9-22.3-20 11.5h-28.7l-20-11.5-5 22.3v.2l34.4 48.2-2.6 2.5-45.5-45.5-.6-4v-65.8l11.2-55.7-18.3-10.6z"/><path fill="#5D4157" d="M672 85.2v-3h4.4z"/><path fill="#097168" d="M682.7 87v-4.8h7.1v4.8l-4.4 7.7-5.4-3.1zM743.5 153.3h-28.7l8.6 16c-3.5-.7-8.1-3.7-12.9-8.5-5.9-5.9-11.9-14.3-16.8-23.6-11.8-22.2-13.6-41.2-8.1-45.1l-.4-2.2c-.1 0-.1 0-.2.1-8.1 4.3-5.1 25.9 6.8 48.3 10.4 19.5 24.1 33.2 32.8 33.4l18.9 35.3v-53.7z"/><path fill="#F6D86B" d="M694.3 88.2c-1.6 0-2.9-1.3-2.9-2.9h5.7c.1 1.6-1.2 2.9-2.8 2.9z"/><path fill="#2920E2" d="M694.3 86.7c-.8 0-1.4-.6-1.4-1.4h2.9c-.1.8-.7 1.4-1.5 1.4z"/><path fill="#08564D" d="M727 113.9c2.8 0 5.8 3.8 8.1 10.1 2.6 7.2 4.1 16.8 4.1 27.1s-1.4 19.9-4.1 27.1c-2.3 6.3-5.3 10.1-8.1 10.1s-5.8-3.8-8.1-10.1c-2.6-7.2-4.1-16.8-4.1-27.1s1.4-19.9 4.1-27.1c2.3-6.3 5.3-10.1 8.1-10.1m0-2.2c-7.9 0-14.3 17.6-14.3 39.3 0 21.7 6.4 39.3 14.3 39.3s14.3-17.6 14.3-39.3c0-21.7-6.4-39.3-14.3-39.3z"/><path fill="#996B3D" d="M739.9 244.1v-65.8h28.6l-14.3 64.4-.1.3 34.4 48.1-2.5 2.5-45.5-45.5zM777.2 178.3h28.6v56.5l3.4 5.4 37.9 53-2.5 2.6-45.5-45.5-7.7-7.7.1-.1z"/><path fill="#C68D4E" d="M711.3 107.2h32.2l3.5-3.6v74.7h68.2l6.6 3.9 3.8 6.6v118.2h-3.5l-10.7-64.3-5-22.3-20 11.5h-28.7l-20-11.5-5 22.3v.3l34.4 48.1-2.6 2.5-45.4-45.5-.7-4v-65.8l11.2-55.7-18.3-10.6z"/><path fill="#996B3D" d="M821.8 182.2l13.9-8.2v2.1l3.5-2.1.1 4.8-3.4 3.4h-10.5z"/><path fill="#fff" d="M832.3 177v1l1.8-1v2.4l-1.6 1.7h-7.1z"/><path fill="#F6D86B" d="M733.6 113.2c-1.6 0-2.9-1.3-2.9-2.9h5.7c.1 1.6-1.2 2.9-2.8 2.9z"/><path fill="#2920E2" d="M733.6 111.8c-.8 0-1.4-.6-1.4-1.4h2.9c0 .7-.7 1.4-1.5 1.4z"/><path fill="#996B3D" d="M737.5 83.4v9.5h4.8v-9.5l4.7-4.8v19.1h-4.7v9.5h-4.8v-9.5h-4.8v-9.5z"/><path fill="#5D4157" d="M711.3 110.2v-3h4.5z"/><path fill="#097168" d="M722 112v-4.8h7.2v4.8l-4.5 7.7-5.4-3.1zM782.8 178.3h-28.7l8.6 16c-3.5-.7-8.1-3.7-12.9-8.5-5.9-5.9-11.9-14.3-16.8-23.6-11.8-22.2-13.6-41.2-8.1-45.1l-.4-2.2c-.1 0-.1 0-.2.1-8.1 4.3-5.1 25.9 6.8 48.3 10.4 19.5 24.1 33.2 32.8 33.4l18.9 35.3v-53.7z"/><path fill="#08564D" d="M512.6 71c2.8 0 5.8 3.8 8.1 10.1 2.6 7.2 4.1 16.8 4.1 27.1s-1.4 19.9-4.1 27.1c-2.3 6.3-5.3 10.1-8.1 10.1s-5.8-3.8-8.1-10.1c-2.6-7.2-4.1-16.8-4.1-27.1s1.4-19.9 4.1-27.1c2.3-6.3 5.3-10.1 8.1-10.1m0-2.2c-7.9 0-14.3 17.6-14.3 39.3 0 21.7 6.4 39.3 14.3 39.3s14.3-17.6 14.3-39.3c0-21.7-6.4-39.3-14.3-39.3z"/><path fill="#7F5733" d="M525.5 201.2v-65.7h28.5l-14.2 64.3-.1.3 34.4 48.1-2.5 2.5-45.5-45.5zM562.8 135.5h28.6v56.4l3.4 5.4 37.9 53-2.6 2.6-45.4-45.5-7.7-7.7zM607.4 139.3l13.8-8.2.1 2.1 3.5-2.1.1 4.8-3.4 3.4h-10.5z"/><path fill="#fff" d="M617.9 134.1v1.1l1.8-1.1v2.4l-1.7 1.7h-7z"/><path fill="#7F5733" d="M523.1 40.5v9.5h4.7v-9.5l4.8-4.8v19.1h-4.8v9.5h-4.7v-9.5h-4.8v-9.5z"/><path fill="#a74" d="M496.9 64.3h32.1l3.6-3.5v74.7h68.2l6.6 3.8 3.8 6.6v118.2h-3.5l-10.8-64.3-4.9-22.3-20 11.6h-28.7l-20-11.6-5 22.3v.3l34.3 48.1-2.5 2.5-45.5-45.5-.6-4v-65.7l11.2-55.8-18.3-10.6z"/><path fill="#5D4157" d="M496.9 67.3v-3h4.4z"/><path fill="#097168" d="M539.7 135.5h28.7v53.6zM507.6 69.1v-4.8h7.1v4.8l-4.4 7.8-5.4-3.1zM510 72.1l.2-.1.4 2.2c-5.5 3.9-3.7 22.9 8.1 45.1 4.9 9.3 10.9 17.7 16.8 23.6 5.5 5.5 10.7 8.7 14.3 8.7.8 0 1.6-.2 2.2-.5l.3-.2 1.4 1.6-.7.5c-1 .5-2 .8-3.2.8-8.7 0-22.5-13.7-33-33.4-11.9-22.3-15-44-6.8-48.3z"/><path fill="#F6D86B" d="M519.2 70.3c-1.6 0-2.9-1.3-2.9-2.9h5.7c.1 1.6-1.2 2.9-2.8 2.9z"/><path fill="#E41F44" d="M519.2 68.9c-.8 0-1.4-.6-1.4-1.4h2.9c-.1.7-.7 1.4-1.5 1.4z"/><path fill="#08564D" d="M551.9 96c2.8 0 5.8 3.8 8.1 10.1 2.6 7.2 4.1 16.8 4.1 27.1s-1.4 19.9-4.1 27.1c-2.3 6.3-5.3 10.1-8.1 10.1s-5.8-3.8-8.1-10.1c-2.6-7.2-4.1-16.8-4.1-27.1s1.4-19.9 4.1-27.1c2.3-6.3 5.3-10.1 8.1-10.1m0-2.1c-7.9 0-14.3 17.6-14.3 39.3s6.4 39.3 14.3 39.3 14.3-17.6 14.3-39.3-6.4-39.3-14.3-39.3z"/><path fill="#996B3D" d="M564.8 226.2v-65.7h28.6l-14.3 64.3-.1.3 34.4 48.1-2.5 2.5-45.5-45.4zM602.1 160.5h28.6v56.5l3.4 5.3 37.9 53.1-2.5 2.5-45.5-45.5-7.7-7.6.1-.1z"/><path fill="#C68D4E" d="M536.2 89.3h32.1l3.6-3.5v74.7h68.2l6.6 3.8 3.8 6.6v118.2h-3.5l-10.8-64.3-4.9-22.3-20 11.6h-28.7l-20-11.6-5 22.3v.3l34.4 48.1-2.6 2.5-45.5-45.4-.6-4.1v-65.7l11.2-55.8-18.3-10.6z"/><path fill="#996B3D" d="M646.7 164.3l13.8-8.2.1 2.1 3.5-2.1.1 4.9-3.4 3.3h-10.5z"/><path fill="#fff" d="M657.2 159.1v1.1l1.8-1.1v2.5l-1.7 1.6h-7z"/><path fill="#F6D86B" d="M558.5 95.3c-1.6 0-2.9-1.3-2.9-2.9h5.7c.1 1.6-1.2 2.9-2.8 2.9z"/><path fill="#E41F44" d="M558.5 93.9c-.8 0-1.4-.6-1.4-1.4h2.9c-.1.7-.7 1.4-1.5 1.4z"/><path fill="#996B3D" d="M562.4 65.5v9.5h4.8v-9.5l4.7-4.7v19h-4.7v9.5h-4.8v-9.5h-4.8v-9.5z"/><path fill="#5D4157" d="M536.2 92.3v-3h4.4z"/><path fill="#097168" d="M579 160.5h28.7v53.6zM546.9 94.1v-4.8h7.1v4.8l-4.4 7.8-5.4-3.1zM549.3 97.1l.2-.1.4 2.2c-5.5 3.9-3.7 22.9 8.1 45.1 4.9 9.3 10.9 17.7 16.8 23.6 5.5 5.5 10.7 8.7 14.3 8.7.8 0 1.6-.2 2.2-.5l.3-.2 1.4 1.6-.7.5c-1 .5-2 .8-3.2.8-8.7 0-22.5-13.7-33-33.4-11.9-22.3-15-43.9-6.8-48.3z"/><path fill="#08564D" d="M337.5 53.1c2.8 0 5.8 3.8 8.1 10.1 2.6 7.2 4.1 16.8 4.1 27.1s-1.4 19.9-4.1 27.1c-2.3 6.3-5.3 10.1-8.1 10.1s-5.8-3.8-8.1-10.1c-2.6-7.2-4.1-16.8-4.1-27.1s1.4-19.9 4.1-27.1c2.3-6.3 5.3-10.1 8.1-10.1m0-2.1c-7.9 0-14.3 17.6-14.3 39.3 0 21.7 6.4 39.3 14.3 39.3s14.3-17.6 14.3-39.3c0-21.7-6.4-39.3-14.3-39.3z"/><path fill="#7F5733" d="M350.3 183.3v-65.7h28.6l-14.3 64.3v.3l34.4 48.1-2.6 2.6-45.4-45.5zM387.7 117.6h28.6v56.5l3.4 5.3 37.9 53.1-2.6 2.5-45.5-45.5-7.6-7.6v-.1zM432.3 121.4l13.8-8.2v2.1l3.6-2.1.1 4.9-3.4 3.3h-10.5z"/><path fill="#fff" d="M442.8 116.2v1.1l1.8-1.1v2.5l-1.7 1.6h-7z"/><path fill="#7F5733" d="M348 22.6v9.6h4.7v-9.6l4.8-4.7v19h-4.8v9.6h-4.7v-9.6h-4.8v-9.5z"/><path fill="#a74" d="M321.8 46.5h32.1l3.6-3.6v74.7h68.2l6.6 3.8 3.8 6.7v118.1h-3.6l-10.7-64.3-4.9-22.3-20 11.6h-28.8l-20-11.6-4.9 22.3v.3l34.3 48.1-2.5 2.6-45.5-45.5-.6-4.1v-65.7l11.2-55.8-18.3-10.6z"/><path fill="#5D4157" d="M321.8 49.5v-3h4.4z"/><path fill="#097168" d="M364.6 117.6h28.7v53.6zM332.5 51.2v-4.7h7.1v4.7l-4.4 7.8-5.4-3.1zM334.8 54.3l.2-.1.4 2.2c-5.5 3.9-3.7 22.9 8.1 45.1 4.9 9.3 10.9 17.7 16.8 23.6 5.5 5.5 10.7 8.7 14.3 8.7.8 0 1.6-.2 2.2-.5l.3-.2 1.4 1.6-.7.5c-1 .5-2 .8-3.2.8-8.7 0-22.5-13.7-33-33.4-11.8-22.4-14.9-44-6.8-48.3z"/><path fill="#F6D86B" d="M344.1 52.4c-1.6 0-2.9-1.3-2.9-2.9h5.7c.1 1.6-1.2 2.9-2.8 2.9z"/><path fill="#960" d="M344.1 51c-.8 0-1.4-.6-1.4-1.4h2.9c-.1.8-.7 1.4-1.5 1.4z"/><path fill="#08564D" d="M376.8 78.1c2.8 0 5.8 3.8 8.1 10.1 2.6 7.2 4.1 16.8 4.1 27.1s-1.4 19.9-4.1 27.1c-2.3 6.3-5.3 10.1-8.1 10.1s-5.8-3.8-8.1-10.1c-2.6-7.2-4.1-16.8-4.1-27.1s1.4-19.9 4.1-27.1c2.3-6.3 5.3-10.1 8.1-10.1m0-2.1c-7.9 0-14.3 17.6-14.3 39.3s6.4 39.3 14.3 39.3 14.3-17.6 14.3-39.3-6.4-39.3-14.3-39.3z"/><path fill="#996B3D" d="M389.7 208.4v-65.8h28.5l-14.2 64.3-.1.3 34.4 48.2-2.5 2.5-45.5-45.5zM427 142.6h28.6v56.5l3.4 5.3 37.9 53.1-2.6 2.5-45.4-45.5-7.7-7.6v-.1z"/><path fill="#C68D4E" d="M361.1 71.5h32.1l3.6-3.6v74.7h68.2l6.6 3.8 3.8 6.7v118.2h-3.5l-10.8-64.4-4.9-22.2-20 11.5h-28.7l-20-11.5-5 22.2v.3l34.3 48.2-2.5 2.5-45.5-45.5-.6-4v-65.8l11.2-55.7-18.3-10.6z"/><path fill="#996B3D" d="M471.6 146.4l13.8-8.2.1 2.1 3.5-2.1.1 4.9-3.4 3.3h-10.5z"/><path fill="#fff" d="M482.1 141.3v1l1.8-1v2.4l-1.7 1.7h-7z"/><path fill="#F6D86B" d="M383.4 77.4c-1.6 0-2.9-1.3-2.9-2.9h5.7c.1 1.7-1.2 2.9-2.8 2.9z"/><path fill="#960" d="M383.4 76c-.8 0-1.4-.6-1.4-1.4h2.9c-.1.8-.7 1.4-1.5 1.4z"/><path fill="#996B3D" d="M387.3 47.6v9.6h4.7v-9.6l4.8-4.7v19h-4.8v9.6h-4.7v-9.6h-4.8v-9.5z"/><path fill="#5D4157" d="M361.1 74.5v-3h4.4z"/><path fill="#097168" d="M403.9 142.6h28.7v53.6zM371.8 76.3v-4.8h7.1v4.8l-4.4 7.7-5.4-3.1zM374.2 79.3l.2-.1.4 2.2c-5.5 3.9-3.7 22.9 8.1 45.1 4.9 9.3 10.9 17.7 16.8 23.6 5.5 5.5 10.7 8.7 14.3 8.7.8 0 1.6-.2 2.2-.5l.3-.2 1.4 1.6-.7.5c-1 .5-2 .8-3.2.8-8.7 0-22.5-13.7-33-33.4-11.9-22.4-15-44-6.8-48.3z"/><path fill="#08564D" d="M162.4 35.3c2.8 0 5.8 3.8 8.1 10.1 2.6 7.2 4.1 16.8 4.1 27.1s-1.4 19.9-4.1 27.1c-2.3 6.3-5.3 10.1-8.1 10.1s-5.8-3.8-8.1-10.1c-2.6-7.2-4.1-16.8-4.1-27.1s1.4-19.9 4.1-27.1c2.3-6.4 5.3-10.1 8.1-10.1m0-2.2c-7.9 0-14.3 17.6-14.3 39.3s6.4 39.3 14.3 39.3 14.3-17.6 14.3-39.3-6.4-39.3-14.3-39.3z"/><path fill="#7F5733" d="M175.2 165.5v-65.8h28.6l-14.3 64.3v.3l34.4 48.2-2.6 2.5-45.5-45.5zM212.6 99.7h28.5v56.5l3.4 5.3 37.9 53.1-2.5 2.5-45.5-45.4-7.6-7.7v-.1zM257.2 103.5l13.8-8.2v2.1l3.6-2.1v4.9l-3.3 3.3h-10.6z"/><path fill="#fff" d="M267.7 98.4v1l1.8-1v2.4l-1.7 1.7h-7.1z"/><path fill="#7F5733" d="M172.9 4.8v9.5h4.7v-9.5l4.8-4.8v19.1h-4.8v9.5h-4.7v-9.5h-4.8v-9.6z"/><path fill="#a74" d="M146.6 28.6h32.2l3.6-3.6v74.7h68.1l6.7 3.8 3.8 6.7v118.2h-3.6l-10.7-64.4-4.9-22.2-20 11.5h-28.8l-20-11.5-4.9 22.2-.1.3 34.4 48.2-2.5 2.5-45.5-45.5-.6-4v-65.8l11.2-55.7-18.4-10.6z"/><path fill="#5D4157" d="M146.6 31.6v-3h4.5z"/><path fill="#097168" d="M189.5 99.7h28.7v53.6zM157.4 33.4v-4.8h7.1v4.8l-4.5 7.7-5.3-3.1zM159.7 36.4l.2-.1.4 2.2c-5.5 3.9-3.7 22.9 8.1 45.1 4.9 9.3 10.9 17.7 16.8 23.6 5.5 5.5 10.7 8.7 14.3 8.7.8 0 1.6-.2 2.2-.5l.3-.2 1.4 1.6-.7.5c-1 .5-2 .8-3.2.8-8.7 0-22.5-13.7-33-33.4-11.9-22.4-14.9-44-6.8-48.3z"/><path fill="#F6D86B" d="M169 34.6c-1.6 0-2.9-1.3-2.9-2.9h5.7c0 1.6-1.2 2.9-2.8 2.9z"/><path fill="#090" d="M169 33.1c-.8 0-1.4-.6-1.4-1.4h2.9c-.1.8-.7 1.4-1.5 1.4z"/><path fill="#08564D" d="M201.7 60.3c2.8 0 5.8 3.8 8.1 10.1 2.6 7.2 4.1 16.8 4.1 27.1s-1.4 19.9-4.1 27.1c-2.3 6.3-5.3 10.1-8.1 10.1s-5.8-3.8-8.1-10.1c-2.6-7.2-4.1-16.8-4.1-27.1s1.4-19.9 4.1-27.1c2.3-6.4 5.3-10.1 8.1-10.1m0-2.2c-7.9 0-14.3 17.6-14.3 39.3s6.4 39.3 14.3 39.3 14.3-17.6 14.3-39.3-6.4-39.3-14.3-39.3z"/><path fill="#996B3D" d="M214.5 190.5v-65.8h28.6l-14.3 64.4v.3l34.4 48.1-2.6 2.5-45.4-45.5zM251.9 124.7h28.6v56.5l3.4 5.4 37.9 53-2.6 2.6-45.5-45.5-7.6-7.7v-.1z"/><path fill="#C68D4E" d="M186 53.6h32.1l3.6-3.6v74.7h68.1l6.7 3.9 3.8 6.6v118.2h-3.6l-10.7-64.3-4.9-22.3-20 11.5h-28.8l-20-11.5-4.9 22.3-.1.3 34.4 48.1-2.5 2.5-45.5-45.5-.6-4v-65.8l11.2-55.7-18.3-10.6z"/><path fill="#996B3D" d="M296.5 128.6l13.8-8.2v2.1l3.6-2.1.1 4.8-3.4 3.4h-10.5z"/><path fill="#fff" d="M307 123.4v1l1.8-1v2.4l-1.7 1.7h-7z"/><path fill="#F6D86B" d="M208.3 59.6c-1.6 0-2.9-1.3-2.9-2.9h5.7c.1 1.6-1.2 2.9-2.8 2.9z"/><path fill="#090" d="M208.3 58.1c-.8 0-1.4-.6-1.4-1.4h2.9c-.1.8-.7 1.4-1.5 1.4z"/><path fill="#996B3D" d="M212.2 29.8v9.5h4.7v-9.5l4.8-4.8v19.1h-4.8v9.5h-4.7v-9.5h-4.8v-9.6z"/><path fill="#5D4157" d="M186 56.6v-3h4.4z"/><path fill="#097168" d="M228.8 124.7h28.7v53.6zM196.7 58.4v-4.8h7.1v4.8l-4.4 7.7-5.4-3.1zM199 61.4l.2-.1.4 2.2c-5.5 3.9-3.7 22.9 8.1 45.1 4.9 9.3 10.9 17.7 16.8 23.6 5.5 5.5 10.7 8.7 14.3 8.7.8 0 1.6-.2 2.2-.5l.3-.2 1.4 1.6-.7.5c-1 .5-2 .8-3.2.8-8.7 0-22.5-13.7-33-33.4-11.8-22.4-14.9-44-6.8-48.3z"/><path fill="#08564D" d="M26.6 42.4c2.8 0 5.8 3.8 8.1 10.1 2.6 7.2 4.1 16.8 4.1 27.1s-1.4 19.9-4.1 27.1c-2.3 6.3-5.3 10.1-8.1 10.1s-5.8-3.8-8.1-10.1c-2.6-7.2-4.1-16.8-4.1-27.1s1.4-19.9 4.1-27.1c2.3-6.3 5.3-10.1 8.1-10.1m0-2.1c-7.9 0-14.3 17.6-14.3 39.3 0 21.7 6.4 39.3 14.3 39.3s14.3-17.6 14.3-39.3c0-21.7-6.4-39.3-14.3-39.3z"/><path fill="#996B3D" d="M39.4 172.6v-65.7h28.6l-14.3 64.3v.3l34.4 48.1-2.6 2.5-45.5-45.4zM76.8 106.9h28.5v56.5l3.4 5.3 37.9 53.1-2.5 2.5-45.5-45.5-7.6-7.6v-.1z"/><path fill="#C68D4E" d="M10.8 35.7h32.2l3.6-3.5v74.7h68.1l6.7 3.8 3.8 6.6v118.2h-3.6l-10.7-64.3-4.9-22.3-20 11.6h-28.8l-20-11.6-4.9 22.3-.1.3 34.4 48.1-2.5 2.5-45.5-45.4-.6-4.1v-65.7l11.2-55.8-18.4-10.6z"/><path fill="#996B3D" d="M121.4 110.7l13.8-8.2v2.1l3.6-2.1v4.8l-3.3 3.4h-10.6z"/><path fill="#fff" d="M131.9 105.5v1.1l1.8-1.1v2.5l-1.7 1.6h-7.1z"/><path fill="#996B3D" d="M37.1 11.9v9.5h4.7v-9.5l4.8-4.8v19.1h-4.8v9.5h-4.7v-9.5h-4.8v-9.5z"/><path fill="#E41F44" d="M10.8 38.7v-3h4.5z"/><path fill="#097168" d="M53.7 106.9h28.7v53.6zM21.6 40.5v-4.8h7.1v4.8l-4.5 7.8-5.3-3.1zM23.9 43.5l.2-.1.4 2.2c-5.5 3.9-3.7 22.9 8.1 45.1 4.9 9.3 10.9 17.7 16.8 23.6 5.5 5.5 10.7 8.7 14.3 8.7.8 0 1.6-.2 2.2-.5l.3-.2 1.4 1.6-.7.5c-1 .5-2 .8-3.2.8-8.7 0-22.5-13.7-33-33.4-11.9-22.3-14.9-44-6.8-48.3z"/><path fill="#7F5733" d="M35.3 41.7c0-.3-.1-.6-.2-.8-.1-.3-.3-.5-.5-.7-.2-.2-.4-.4-.7-.5-.3-.1-.5-.2-.8-.2-.3 0-.6.1-.8.2-.3.1-.5.3-.7.5-.2.2-.4.4-.5.7-.1.3-.2.5-.2.8v1.4h-.7v-1.4c0-.4.1-.8.2-1.1.1-.3.4-.7.6-.9.3-.3.6-.5.9-.6.3-.1.7-.2 1.1-.2.4 0 .8.1 1.1.2.3.1.7.4.9.6.3.3.5.6.6.9.1.3.2.7.2 1.1v1.4h-.7v-1.4z"/><g fill="#FF6179"><path d="M10.7 24.3h1.4v4.3h-1.4zM10.7 42.9h1.4v4.3h-1.4z"/></g><g fill="#FF6179"><path d="M15.577 29.928l-1.212-.7 2.15-3.724 1.212.7zM6.296 46.021l-1.212-.7 2.15-3.724 1.212.7z"/></g><g fill="#FF6179"><path d="M17.926 32.778l-.7-1.212 3.724-2.15.7 1.212zM1.842 42.071l-.7-1.212 3.724-2.15.7 1.212z"/></g><path fill="#FF6179" d="M0 35h4.3v1.4h-4.3zM1.146 30.592l.7-1.212 3.724 2.15-.7 1.212zM5.097 26.138l1.212-.7 2.15 3.724-1.212.7z"/><path fill="#CC5068" d="M1108.6 176.5l-9.6 8.5-17 5h-19.6l-17-5-9.6-8.5-4.5 8.2v10.8l11 9.4 18.9 5.4h21.9l19-5.4 11-9.4v-10.8z"/><path fill="#F25F7B" d="M1062.4 190h19.6l17-5 9.6-8.5.1-.1v-10l-3.8-7.1-6.7 7.2-14.4 5.1-17.3.6-15.5-4.1-9.6-7.5-.5-4.1-5.3 9.9v10l.2.1 9.6 8.5z"/><path fill="#BF4B61" d="M1071.1 120.2l-9.3-3.1 3.4 5.7 2.2.6 1-1.7z"/><path fill="#CC5068" d="M1080.3 125.6v-.7l-.5-1 2.5-.6 2.8-4.7-7.6 2.5-2.2-1.2h-3.7l-.5.3-2.7 1.5-1 1.7-.7 1.2 11.1-.3z"/><path fill="#FF6179" d="M1051 168.1l15.5 4.1 17.3-.6 14.4-5.1 6.7-7.2.9-.9-1.1-9.1-10.8-16.5-13.6-7.2-2.5-1.3-11.1.3-6.1.3-13.8 9.5-6.5 17.1.6 5 .5 4.1z"/><path fill="#CC5068" d="M1072.7 142.3l6.6-4.7 4.6 6.6-1.8-.3-1 5.6-7.5-1.4 1-5.5zM1060.1 140l6.6-4.6 4.6 6.6-1.8-.3-1 5.5-7.5-1.3 1-5.5z"/><g fill="#CB5068"><path d="M1060.3 148.6l-.7-.1.1-.5 1.9.3-.1.5-.7-.1-.3 2-.5-.1.3-2zM1061.9 148.4l.5.1-.2.9 1 .2.2-.9.5.1-.4 2.4-.5-.1.2-1.1-1-.2-.2 1.1-.5-.1.4-2.4zM1064.5 148.8l.5.1-.4 2.4-.5-.1.4-2.4zM1066.6 149.8c-.1-.1-.2-.2-.4-.2s-.4 0-.4.2c-.1.4 1.1.4 1 1.2-.1.5-.6.7-1.1.6-.3-.1-.6-.2-.8-.4l.5-.4c.1.2.3.3.4.3.2 0 .4 0 .4-.2.1-.4-1.1-.4-1-1.2.1-.5.6-.7 1.1-.6.3 0 .5.2.7.4l-.4.3zM1068.3 149.5l.6.1.1 1.6.8-1.5.5.1.2 1.7.7-1.5.5.1-1.1 2.3-.5-.1-.3-1.8-.8 1.6-.5-.1-.2-2.5zM1072.7 150.2l.4.1.6 2.6-.6-.1-.1-.6-.9-.2-.3.5-.6-.1 1.5-2.2zm.1.8l-.4.7.6.1-.2-.8zM1074.5 152l-.7-1.6.7.1.4 1 .7-.8.6.1-1.2 1.2-.2 1-.5-.1.2-.9zM1079.2 152.9c-.1.6-.5.9-1.2.8-.7-.1-1-.6-.9-1.2l.3-1.5.5.1-.3 1.5c-.1.3.1.6.4.6.3 0 .5-.1.6-.4l.3-1.5.5.1-.2 1.5zM1079.9 151.5l.9.2c.5.1.9.3.8.9-.1.6-.5.7-1 .6l-.4-.1-.2 1-.5-.1.4-2.5zm.4 1.1l.4.1c.2 0 .4 0 .4-.2 0-.3-.2-.3-.4-.4h-.3l-.1.5z"/></g><path fill="#C0D860" d="M1083.7 200.7c0 1.2 1 2.1 2.1 2.1 1.2 0 2.1-1 2.1-2.1v-4.3h-4.3v4.3zM1090.2 200.7c0 1.2 1 2.1 2.1 2.1 1.2 0 2.1-1 2.1-2.1v-4.3h-4.3v4.3zM1083.7 180.1v16.3h10.8v-16.3z"/><path fill="#EFDE11" d="M1073.5 151.4h.1v.1h-.1z"/><circle fill="#EEE0B7" cx="1089.1" cy="175" r="8.9"/><path fill="#B2A58E" d="M1088.4 177.1h1.4l-.7-2.1z"/><circle fill="#FF6179" cx="1089.2" cy="178.2" r=".7"/><path fill="#fff" d="M1089.2 177.5c.4 0 .7.3.7.7h-1.4c0-.4.3-.7.7-.7z"/><path fill="#B2A58E" d="M1087.8 176v-.2l-.1-.2s-.1-.1-.2-.1h-.4l-.2.1s-.1.1-.1.2v.6000000000000001h-.2v-.4c0-.1 0-.2.1-.3 0-.1.1-.2.2-.2l.2-.2s.2-.1.3-.1.2 0 .3.1.2.1.2.2l.2.2.1.3v.4h-.2v-.4zM1091.5 176v-.2l-.1-.2s-.1-.1-.2-.1h-.4l-.2.1s-.1.1-.1.2v.6000000000000001h-.2v-.4c0-.1 0-.2.1-.3 0-.1.1-.2.2-.2l.2-.2.3-.1s.2 0 .3.1c.1 0 .2.1.2.2l.2.2s.1.2.1.3v.4h-.2v-.4z"/><circle fill="#FF99AD" cx="1092.1" cy="178.2" r="1.1"/><circle fill="#FF99AD" cx="1086.2" cy="178.2" r="1.1"/><circle cx="1089.1" cy="175" r="8.9" fill="none"/><defs><circle id="a" cx="1089.1" cy="175" r="8.9"/></defs><clipPath id="b"><use xlink:href="#a" overflow="visible"/></clipPath><path clip-path="url(#b)" fill="#B2A58E" d="M1080.2 173.2l4.4-1.8 4.5 1.8h8.9v-8.2h-17.8v6.1z"/><path fill="#EEE0B7" d="M1101.1 185.4h-1.5v-.1l1.5.1v-.5h-1v-.5h-1v2.5h1.5v-.5h-1v-.1h1.5v-.5h-1.5v-.1h1.5v.1h.5v-.5h-.5zm-1.5-.5h.5v.1l-.5-.1z"/><path fill="#B2A58E" d="M1099.6 184.9h.5v.1h-.5zM1099.6 185.4h1.5v.1h-1.5zM1099.6 185.9h1.5v.1h-1.5zM1099.6 186.4h1.5-1.5z"/><path fill="#C0D860" d="M1092.8 184.4h6.3v2.5h-6.3z"/><path fill="#EEE0B7" d="M1078.1 184.4v.5h.5-.5-1v.5h1.5-1.5-.5v.5h2-1.5v.5h1.5-1v.5h1.5v-2.5z"/><path fill="#B2A58E" d="M1078.1 184.9h.5v.1h-.5zM1077.1 185.4h1.5v.1h-1.5zM1077.1 185.9h1.5v.1h-1.5zM1078.6 186.4h-1.5.5 1z"/><path fill="#C0D860" d="M1079.1 184.4h6.3v2.5h-6.3zM1078.2 173.8l12.5-19.7 9 17.9z"/><path fill="#fff" d="M1079.4 170.1l-1.2 1.9 21.5-1.8-.9-1.7z"/><path fill="#C0D860" d="M1054.9 200.7c0 1.2 1 2.1 2.1 2.1 1.2 0 2.1-1 2.1-2.1v-4.3h-4.3v4.3zM1061.4 200.7c0 1.2 1 2.1 2.1 2.1s2.1-1 2.1-2.1v-4.3h-4.3v4.3zM1054.9 180.1v16.3h10.7v-16.3z"/><path fill="#EFDE11" d="M1044.7 151.4h.1v.1h-.1z"/><circle fill="#EEE0B7" cx="1060.3" cy="175" r="8.9"/><path fill="#B2A58E" d="M1059.6 177.1h1.4l-.7-2.1z"/><circle fill="#FF6179" cx="1060.4" cy="178.2" r=".7"/><path fill="#fff" d="M1060.4 177.5c.4 0 .7.3.7.7h-1.4c0-.4.3-.7.7-.7z"/><path fill="#B2A58E" d="M1058.9 176v-.2l-.1-.2s-.1-.1-.2-.1h-.4l-.2.1s-.1.1-.1.2v.6000000000000001h-.2v-.4c0-.1 0-.2.1-.3 0-.1.1-.2.2-.2l.2-.2s.2-.1.3-.1.2 0 .3.1.2.1.2.2l.2.2s.1.2.1.3v.4h-.2v-.4zM1062.7 176v-.2l-.1-.2s-.1-.1-.2-.1h-.4l-.2.1s-.1.1-.1.2v.6000000000000001h-.2v-.4c0-.1 0-.2.1-.3s.1-.2.2-.2l.2-.2s.2-.1.3-.1.2 0 .3.1.2.1.2.2l.2.2.1.3v.4h-.2v-.4z"/><circle fill="#FF99AD" cx="1063.2" cy="178.2" r="1.1"/><circle fill="#FF99AD" cx="1057.3" cy="178.2" r="1.1"/><circle cx="1060.3" cy="175" r="8.9" fill="none"/><path fill="#EEE0B7" d="M1072.3 185.4v-.5h-1.5v-.1h.5v-.5h-1v2.5h1.5v-.5h-1v-.1h1.5v.1-.5h.5v-.5h-.5zm0 .5h-1.5v-.1l1.5.1zm0-.5h-1.5v-.1l1.5.1z"/><path fill="#B2A58E" d="M1070.8 184.9h.5v.1h-.5zM1070.8 185.4h1.5v.1h-1.5zM1070.8 185.9h1.5v.1h-1.5zM1070.8 186.4h1.5z"/><path fill="#C0D860" d="M1064 184.4h6.3v2.5h-6.3z"/><path fill="#EEE0B7" d="M1049.3 184.4v.5h.5-.5-1v.5h1.5-1.5-.5v.5h2-1.5v.5h1.5-1v.5h1.5v-2.5z"/><path fill="#B2A58E" d="M1049.3 184.9h.5v.1h-.5zM1048.3 185.4h1.5v.1h-1.5zM1048.3 185.9h1.5v.1h-1.5zM1049.8 186.4h-1.5.5 1z"/><path fill="#C0D860" d="M1050.3 184.4h6.3v2.5h-6.3z"/><path fill="#B2A58E" d="M1060.3 173.2h8.8c-.1-.4-.2-.7-.3-1l-9.1.8.6.2z"/><path fill="#C0D860" d="M1059.6 172.9l9.2-.7 2-.2-8.9-17.9-12.5 19.7z"/><path fill="#fff" d="M1050.6 170.1l-1.2 1.9 21.4-1.8-.8-1.7z"/><circle fill="#66C9B6" cx="977.4" cy="184.1" r="10.7"/><path fill="#FF6179" d="M1039.3 228.7v-32.2h-.1c0-4.4-.9-8.7-2.5-12.5s-4-7.3-6.9-10.2c-2.9-2.9-6.4-5.3-10.2-6.9s-8.1-2.5-12.5-2.5-8.7.9-12.5 2.5-7.3 4-10.2 6.9c-2.9 2.9-5.3 6.4-6.9 10.2s-2.5 8.1-2.5 12.5c0 .8 0 1.5.1 2.3v29.9h22.9v1.8h-3.6v3.6h-3.6v3.6h-3.6v3.6h17.9v-12.5h4.3v12.5h17.9v-3.6h-3.6v-3.6h-3.6v-3.6h-3.6v-1.8h22.8z"/><circle fill="#EEE0B7" cx="1007" cy="164.4" r="21.4"/><path fill="#fff" d="M1007 175.1c10 0 18.4-6.8 20.8-16.1.4 1.7.7 3.5.7 5.4 0 11.8-9.6 21.4-21.4 21.4-11.8 0-21.4-9.6-21.4-21.4 0-1.9.2-3.6.7-5.4 2.3 9.3 10.6 16.1 20.6 16.1z"/><path fill="#B2A58E" d="M1005.6 168.7h2.9l-1.5-4.3z"/><circle fill="#FF6179" cx="1007" cy="170.9" r="1.4"/><path fill="#E2F7F6" d="M1007 169.4c.8 0 1.4.6 1.4 1.4h-2.9c.1-.7.8-1.4 1.5-1.4z"/><g fill="#B2A58E"><path d="M1004.2 166.6c0-.1 0-.3-.1-.4l-.2-.3c-.1-.1-.2-.2-.3-.2-.1-.1-.3-.1-.4-.1s-.3 0-.4.1l-.3.2c-.1.1-.2.2-.2.3-.1.1-.1.3-.1.4v.7h-.4v-.7c0-.2 0-.4.1-.6l.3-.5c.1-.1.3-.2.5-.3.2-.1.4-.1.6-.1s.4 0 .6.1l.5.3c.1.1.2.3.3.5.1.2.1.4.1.6v.7h-.4v-.7zM1011.7 166.6c0-.1 0-.3-.1-.4l-.2-.3c-.1-.1-.2-.2-.3-.2-.1-.1-.3-.1-.4-.1s-.3 0-.4.1l-.3.2c-.1.1-.2.2-.2.3-.1.1-.1.3-.1.4v.7h-.4v-.7c0-.2 0-.4.1-.6l.3-.5c.1-.1.3-.2.5-.3.2-.1.4-.1.6-.1s.4 0 .6.1.3.2.5.3c.1.1.2.3.3.5.1.2.1.4.1.6v.7h-.4v-.7z"/></g><g fill="#fff"><circle cx="1007" cy="203.7" r=".7"/><circle cx="1007" cy="210.9" r=".7"/><circle cx="1007" cy="196.6" r=".7"/></g><g fill="#FF99AD"><circle cx="1012.9" cy="170.9" r="2.1"/><circle cx="1001.1" cy="170.9" r="2.1"/></g><path fill="#EEE0B7" d="M1021 194.1h2v1h-2zM1019 195.1h4v1h-4zM1019 197.1h4v1h-4zM1020 198.1h3v1h-3zM1018 196.1h5v1h-5z"/><path fill="#B2A58E" d="M1021 195h1v.1h-1zM1019 196h3v.1h-3zM1019 197h3v.1h-3zM1019 198h3v.1h-3z"/><linearGradient id="c" gradientUnits="userSpaceOnUse" x1="2158.533" y1="196.583" x2="2171.175" y2="196.583" gradientTransform="matrix(-1 0 0 1 3194.163 0)"><stop offset="0" stop-color="#FF6179"/><stop offset="1" stop-color="#E55C7D"/></linearGradient><path fill="url(#c)" d="M1023 194.1h12.6v5h-12.6z"/><path fill="#FF6179" d="M1035.6 164.4l-28.6-71.5-28.5 71.5z"/><path fill="#fff" d="M1032.8 153.7l2.8 7.1h-57.1l2.8-7.1z"/><circle fill="#fff" cx="1007" cy="92.9" r="3.6"/><path fill="#66C9B6" d="M983.2 175.1l10.4 21.5-19.4-14.8z"/><path fill="#EEE0B7" d="M991.1 194.1h2v1h-2zM991.1 195.1h4v1h-4zM991.1 197.1h4v1h-4zM991.1 198.1h3v1h-3zM991.1 196.1h5v1h-5z"/><path fill="#B2A58E" d="M992.1 195h1v.1h-1zM992.1 196h3v.1h-3zM992.1 197h3v.1h-3zM992.1 198h3v.1h-3z"/><linearGradient id="d" gradientUnits="userSpaceOnUse" x1="1625.643" y1="2161.492" x2="1638.285" y2="2161.492" gradientTransform="matrix(1 0 0 -1 -647.192 2358.074)"><stop offset="0" stop-color="#FF6179"/><stop offset="1" stop-color="#E55C7D"/></linearGradient><path fill="url(#d)" d="M978.5 194.1h12.6v5h-12.6z"/><path fill="#B28C62" d="M859.8 224.5c2.9-7.1 7.1-13.4 12.5-18.9 4.4-4.4 9.6-7.9 15.4-10.2 5.6-2.3 11.5-3.4 17.5-3.4s11.9 1.1 17.5 3.4c5.8 2.3 11 5.8 15.4 10.2 3.6 3.6 6.4 7.9 8.4 12.6 1.9 4.6 2.8 9.4 2.8 14.3s-.9 9.8-2.8 14.3c-1.9 4.7-4.7 9-8.4 12.6-5.9 5.9-13.8 9.2-22.1 9.2-8.4 0-16.2-3.3-22.1-9.2-4.9-4.9-7.6-11.4-7.6-18.3s2.7-13.4 7.6-18.3c4.1-4.1 9.5-6.3 15.3-6.3s11.2 2.2 15.3 6.3c3.4 3.4 5.3 8 5.3 12.8 0 4.8-1.9 9.4-5.3 12.8-2.9 2.9-6.8 4.5-10.8 4.5-4.1 0-8-1.6-10.8-4.5-2.5-2.5-3.8-5.8-3.8-9.3 0-3.5 1.4-6.8 3.8-9.3 1.7-1.7 4.4-1.7 6 0 1.7 1.7 1.7 4.4 0 6-.9.9-1.3 2-1.3 3.3 0 1.2.5 2.4 1.3 3.3 1.3 1.3 3 2 4.8 2 1.8 0 3.5-.7 4.8-2 1.8-1.8 2.8-4.2 2.8-6.8 0-2.6-1-5-2.8-6.8-2.5-2.5-5.7-3.8-9.2-3.8-3.5 0-6.8 1.4-9.2 3.8-3.3 3.3-5.1 7.7-5.1 12.3s1.8 9 5.1 12.3c4.3 4.3 10 6.7 16.1 6.7s11.8-2.4 16.1-6.7c5.6-5.6 8.7-13 8.7-20.9 0-7.9-3.1-15.3-8.7-20.9-7.2-7.2-16.7-11.1-26.9-11.1s-19.7 4-26.9 11.1c-4.6 4.6-8.2 10-10.7 16.1-2.4 5.8-3.6 12-3.6 18.3s1.2 12.5 3.6 18.3c2.4 6 6 11.4 10.7 16.1 5.9 5.9 12.8 10.5 20.4 13.6 7.4 3 15.2 4.5 23.3 4.5h53.6l21.3-21.3 21.3 21.3 21.3-21.3 21.3 21.3 21.3-21.3 21.3 21.3h33.9c2.4 0 4.3 1.9 4.3 4.3s-1.9 4.3-4.3 4.3h-215.5c-9.1 0-18-1.7-26.5-5.1-8.7-3.5-16.6-8.7-23.3-15.4-5.4-5.4-9.7-11.8-12.5-18.9-2.8-6.8-4.2-14.1-4.2-21.5.1-7.6 1.5-14.8 4.3-21.7z"/><path fill="#fc8" d="M859.8 221.3c2.9-7.1 7.1-13.4 12.5-18.9 4.4-4.4 9.6-7.9 15.4-10.2 5.6-2.3 11.5-3.4 17.5-3.4s11.9 1.1 17.5 3.4c5.8 2.3 11 5.8 15.4 10.2 3.6 3.6 6.4 7.9 8.4 12.6 1.9 4.6 2.8 9.4 2.8 14.3s-.9 9.8-2.8 14.3c-1.9 4.7-4.7 9-8.4 12.6-5.9 5.9-13.8 9.2-22.1 9.2-8.4 0-16.2-3.3-22.1-9.2-4.9-4.9-7.6-11.4-7.6-18.3s2.7-13.4 7.6-18.3c4.1-4.1 9.5-6.3 15.3-6.3s11.2 2.2 15.3 6.3c3.4 3.4 5.3 8 5.3 12.8 0 4.8-1.9 9.4-5.3 12.8-2.9 2.9-6.8 4.5-10.8 4.5-4.1 0-8-1.6-10.8-4.5-2.5-2.5-3.8-5.8-3.8-9.3 0-3.5 1.4-6.8 3.8-9.3 1.7-1.7 4.4-1.7 6 0 1.7 1.7 1.7 4.4 0 6-.9.9-1.3 2-1.3 3.3 0 1.2.5 2.4 1.3 3.3 1.3 1.3 3 2 4.8 2 1.8 0 3.5-.7 4.8-2 1.8-1.8 2.8-4.2 2.8-6.8 0-2.6-1-5-2.8-6.8-2.5-2.5-5.7-3.8-9.2-3.8-3.5 0-6.8 1.4-9.2 3.8-3.3 3.3-5.1 7.7-5.1 12.3 0 4.6 1.8 9 5.1 12.3 4.3 4.3 10 6.7 16.1 6.7s11.8-2.4 16.1-6.7c5.6-5.6 8.7-13 8.7-20.9 0-7.9-3.1-15.3-8.7-20.9-7.2-7.2-16.7-11.1-26.9-11.1s-19.7 4-26.9 11.1c-4.6 4.6-8.2 10-10.7 16.1-2.4 5.8-3.6 12-3.6 18.3s1.2 12.5 3.6 18.3c2.4 6 6 11.4 10.7 16.1 5.9 5.9 12.8 10.5 20.4 13.6 7.4 3 15.2 4.5 23.3 4.5h53.6l21.3-21.3 21.3 21.3 21.3-21.3 21.3 21.3 21.3-21.3 21.3 21.3h33.9c2.4 0 4.3 1.9 4.3 4.3s-1.9 4.3-4.3 4.3h-215.5c-9.1 0-18-1.7-26.5-5.1-8.7-3.5-16.6-8.7-23.3-15.4-5.4-5.4-9.7-11.8-12.5-18.9-2.8-6.8-4.2-14.1-4.2-21.5.1-7.6 1.5-14.8 4.3-21.7z"/><linearGradient id="e" gradientUnits="userSpaceOnUse" x1="2152.955" y1="273.99" x2="2152.955" y2="188.819" gradientTransform="matrix(-1 0 0 1 3194.163 0)"><stop offset="0" stop-color="#043227"/><stop offset="1" stop-color="#097168"/></linearGradient><path fill="url(#e)" d="M990.1 199.5c4.7 0 8.5 3.8 8.5 8.5v4.3c0 4.7 3.8 8.5 8.5 8.5h14.9c4.7 0 8.5-3.8 8.5-8.5v-14.9c0-4.7 3.8-8.5 8.5-8.5h68.1c4.7 0 8.5 3.8 8.5 8.5v68.1c0 4.7-3.8 8.5-8.5 8.5h-132c-4.7 0-8.5-3.8-8.5-8.5v-57.5c0-4.7 3.8-8.5 8.5-8.5h15z"/><path fill="#fc8" d="M985.4 206.6h-18.6c.7-4 4.2-7.1 8.4-7.1h14.9c4.7 0 8.5 3.8 8.5 8.5v4.3c0 4.7 3.8 8.5 8.5 8.5h14.9c4.7 0 8.5-3.8 8.5-8.5v-14.9c0-4.7 3.8-8.5 8.5-8.5h68.1c4.2 0 7.7 3.1 8.4 7.1h-76.6c-.7 0-1.4.6-1.4 1.4v14.9c0 8.6-7 15.7-15.7 15.7h-14.9c-8.6 0-15.7-7-15.7-15.7v-4.3c0-.7-.6-1.4-1.4-1.4h-4.4z"/></svg>