<svg xmlns="http://www.w3.org/2000/svg" viewBox="0 0 163 166" enable-background="new 0 0 163 166"><g stroke="#fff" stroke-width="4" stroke-linecap="round" stroke-miterlimit="10" fill="none"><path d="M68 11v67M101.5 44.5h-67"/><path stroke-linejoin="round" d="M84 19l-5 8h11M51 19l6 8h-11M84 70l-5-9h11M51 70l6-9h-11M62 87l6-9 5 9M73 2l-5 9-6-9M106 53l-4.5-8.5 4.5-8.5M29 36l4.5 8.5-4.5 8.5"/></g><g stroke="#fff" stroke-width="4" stroke-linecap="round" stroke-miterlimit="10" fill="none"><path d="M29 121v34M50.8 138h-43.2"/><path stroke-linejoin="round" d="M40 121l-5 8h11M18 121l6 8h-11M40 155l-5-9h11M18 155l6.5-9h-11M24 164l5-9 6 9M35 112l-6 9-5-9M57 146l-6-8 6-9M2 129l5 9-5 8"/></g><g stroke="#fff" stroke-width="4" stroke-linecap="round" stroke-miterlimit="10" fill="none"><path d="M139.1 70v17.2M156 78h-32.7"/><path stroke-linejoin="round" d="M134 95.3l5.1-8.1 6.1 7.8M145 61l-6 9-5-9M161 87l-5-9 5-8M117 70l5.9 8-5.9 9"/></g></svg>