<svg xmlns="http://www.w3.org/2000/svg" xmlns:xlink="http://www.w3.org/1999/xlink" viewBox="0 0 356.9 366.5" enable-background="new 0 0 356.9 366.5"><circle stroke="#fff" stroke-width="5.461" stroke-miterlimit="10" cx="178.4" cy="178.4" r="175.7" fill="none"/><path d="M2.4 131.3" fill="none"/><path stroke="#fff" stroke-width="2" stroke-linecap="round" stroke-linejoin="round" stroke-miterlimit="10" d="M114.1 30.7c-46.1 16.9-80.5 57.8-88.1 107.5" fill="none"/><path fill="#C58D4D" d="M320 346.5h3.1l-17.3-21.2v-6.7h-.4s4.3 0 4.3-6.3l-3.5-6.7-11.8 3.1h-236.3l-7.2-6.3s-4.3 3.9-4.3 8.1l2.4 8.1h-.3v6.7l-17 21.2c-5.5 0-10 4.5-10 10s4.5 10 10 10h288.3c5.5 0 10-4.5 10-10 .1-5.5-4.5-10-10-10z"/><defs><path id="a" d="M320 346.5h3.1l-17.3-21.2v-6.7h-.4s4.3 0 4.3-6.3l-3.5-6.7-11.8 3.1h-236.3l-7.2-6.3s-4.3 3.9-4.3 8.1l2.4 8.1h-.3v6.7l-17 21.2c-5.5 0-10 4.5-10 10s4.5 10 10 10h288.3c5.5 0 10-4.5 10-10 .1-5.5-4.5-10-10-10z"/></defs><clipPath><use xlink:href="#a" overflow="visible"/></clipPath><path stroke="#EDE0B7" stroke-width="5" stroke-miterlimit="10" fill="none" d="M27.4 290.9l33.8 20.1h234.2l29.3-8.5"/><path fill="#F6D86C" d="M80.4 357.2l-2.5-2.3-6.9-15.5 6.5-16.6 200.8-1 2.1 1 6.4 16.6-6.5 18z"/><path fill="#EDE0B7" d="M77.4 354.4l-6.4-16.3 6.4-16.3h199.8l6.3 16.3-6.3 16.3z"/></svg>