<svg xmlns="http://www.w3.org/2000/svg" xmlns:xlink="http://www.w3.org/1999/xlink" viewBox="0 0 349.1 318.9" enable-background="new 0 0 349.1 318.9"><defs><circle id="a" cx="174.5" cy="174.5" r="174.5"/></defs><clipPath id="b"><use xlink:href="#a" overflow="visible"/></clipPath><g clip-path="url(#b)"><path fill="#EFF8F9" d="M316 128.7c-5-10.5-15.7-17.8-28.1-17.8-13.1 0-24.2 8.1-28.8 19.5-7.6-3.5-16.1-5.5-25-5.5-25.8 0-47.7 16.5-55.9 39.5-4.5-5.2-11-8.5-18.4-8.5-8.1 0-15.2 3.9-19.6 10-8.5-9.3-20.6-15.1-34.2-15.1-6.2 0-12.2 1.2-17.6 3.5-.8-8.5-8-15.2-16.7-15.2-4.2 0-7.9 1.5-10.9 4-10.6-18.1-30.3-30.3-52.9-30.3h-1.1c-7.5 19.8-11.6 41.2-11.6 63.6 0 20.7 3.5 40.6 9.9 59l2.7.1c12.2 0 23.6-3.6 33.2-9.8h.5c8.9 0 16.8-4 22-10.3 7.1 16.4 23.4 27.8 42.4 27.8 23.5 0 42.9-17.5 45.8-40.2 2.5.9 5.1 1.3 7.9 1.3 6.4 0 12.3-2.5 16.6-6.6 6.2 26.1 29.6 45.5 57.6 45.5 26.2 0 48.4-17 56.2-40.6 4.4 10.5 11.8 19.4 21.1 25.7 7 8.8 17.6 14.6 29.7 14.8 8.3-20.7 12.9-43.2 12.9-66.9 0-19.2-3-37.6-8.6-55h-1.1c-10 .3-19.6 2.9-28 7.5z"/><path fill="#34A8A6" d="M.3 215.1c10.4 42.6 35.9 79.2 70.6 103.8h207.3c34.7-24.6 60.2-61.2 70.6-103.8h-348.5z"/><path fill="none" d="M8 94.2h342.9v120.9h-342.9zM7.7 132.9h342.8v82.3h-342.8z"/><path opacity=".6" fill="#6BC6B5" d="M7.7 215.2l16.1-62.8 15 62.8zM310.4 215.2l16.1-62.8 15 62.8zM94.4 215.2l10.8-42 10.1 42zM110.5 215.2l10.8-42 10 42zM203.1 215.2l16-62.8 15.1 62.8z"/><path opacity=".6" fill="#39A893" d="M125.1 215.2l6.4-25.2 6 25.2z"/><path opacity=".6" fill="#6BC6B5" d="M36 215.2l9-35.1 8.4 35.1z"/><path fill="#F1627A" d="M175.2 176.4l-24.4 24.3-.1.1h.1v42.300000000000004h48.5v-42.4l-24.1-24.3z"/><path fill="#E32345" d="M154.4 175.1h10.2v3.3h-10.2z"/><path fill="#F1627A" d="M156.2 178.4h6.7v12.8h-6.7z"/><path fill="#fff" d="M199.3 204.3c-.9 0-1.8-.4-2.5-1.1l-21.6-21.8-21.9 21.8c-1.4 1.4-3.7 1.4-5.1 0-1.4-1.4-1.4-3.7 0-5.1l24.4-24.3c.7-.7 1.6-1 2.5-1 .9 0 1.9.4 2.5 1.1l24.1 24.3c1.4 1.4 1.4 3.7 0 5.1-.6.7-1.5 1-2.4 1z"/><path fill="#E32345" d="M149.3 220h51.6v3.3h-51.6zM170.3 226.5h9.4v16.6h-9.4z"/><path fill="#F598AD" d="M180.2 243.6h-10.3v-17.5h10.3v17.5zm-9.4-.9h8.5v-15.7h-8.5v15.7z"/><path fill="#F6D86C" d="M184.3 226.6h9.5v10.4h-9.5z"/><path fill="#fff" d="M194.2 237.4h-10.4v-11.3h10.4v11.3zm-9.5-.8h8.6v-9.5h-8.6v9.5z"/><path fill="#F6D86C" d="M189 226.7v10.3"/><path fill="#fff" d="M188.6 226.7h.9v10.3h-.9z"/><path fill="#F6D86C" d="M184.3 231.8h9.4"/><path fill="#fff" d="M184.3 231.4h9.5v.9h-9.5z"/><path fill="#F6D86C" d="M155.5 226.6h9.5v10.4h-9.5z"/><path fill="#fff" d="M165.4 237.4h-10.4v-11.3h10.4v11.3zm-9.5-.8h8.6v-9.5h-8.6v9.5z"/><path fill="#F6D86C" d="M160 226.7v10.3"/><path fill="#fff" d="M159.6 226.7h.9v10.3h-.9z"/><path fill="#F6D86C" d="M155.5 231.8h9.5"/><path fill="#fff" d="M155.5 231.4h9.5v.9h-9.5z"/><path fill="#F6D86C" d="M155.5 207.6h9.5v10.4h-9.5z"/><path fill="#fff" d="M165.4 218.5h-10.4v-11.3h10.4v11.3zm-9.5-.9h8.6v-9.5h-8.6v9.5zM155.5 212.4h9.5v.9h-9.5z"/><path fill="#F6D86C" d="M160 207.7v10.3"/><path fill="#fff" d="M159.6 207.7h.9v10.3h-.9z"/><path fill="#F6D86C" d="M170.3 207.6h9.5v10.4h-9.5z"/><path fill="#fff" d="M180.2 218.5h-10.4v-11.3h10.4v11.3zm-9.5-.9h8.6v-9.5h-8.6v9.5zM170.3 212.4h9.5v.9h-9.5z"/><path fill="#F6D86C" d="M174.9 207.7v10.3"/><path fill="#fff" d="M174.4 207.7h.9v10.3h-.9z"/><path fill="#F6D86C" d="M184.3 207.6h9.5v10.4h-9.5z"/><path fill="#fff" d="M194.2 218.5h-10.4v-11.3h10.4v11.3zm-9.5-.9h8.6v-9.5h-8.6v9.5z"/><path fill="#F6D86C" d="M189 207.7v10.3"/><path fill="#fff" d="M188.6 207.7h.9v10.3h-.9z"/><path fill="#F6D86C" d="M184.3 212.8h9.4"/><path fill="#fff" d="M184.3 212.4h9.5v.9h-9.5z"/><path fill="#F6D86C" d="M170.3 189.5h9.5v10.4h-9.5z"/><path fill="#fff" d="M180.2 200.3h-10.4v-11.3h10.4v11.3zm-9.5-.9h8.6v-9.5h-8.6v9.5z"/><path fill="#F6D86C" d="M174.9 189.5v10.3"/><path fill="#fff" d="M174.4 189.5h.9v10.3h-.9z"/><path fill="#F6D86C" d="M170.3 194.6h9.5"/><path fill="#fff" d="M170.3 194.2h9.5v.9h-9.5zM163.8 172.5h-8.5c-.5 0-.9-.4-.9-.9s.4-.9.9-.9h8.5c.5 0 .9.4.9.9s-.4.9-.9.9zM167.3 168.8h-11.2c-.5 0-.9-.4-.9-.9s.4-.9.9-.9h11.2c.5 0 .9.4.9.9s-.4.9-.9.9zM166.6 164.4h-12.4c-.5 0-.9-.4-.9-.9s.4-.9.9-.9h12.4c.5 0 .9.4.9.9s-.4.9-.9.9zM162.7 167.9c-.5 0-.9-.4-.9-.9v-3.1c0-.5.4-.9.9-.9s.9.4.9.9v3.1c0 .5-.4.9-.9.9zM159.6 172.6c-.5 0-.9-.4-.9-.9v-3.6c0-.5.4-.9.9-.9s.9.4.9.9v3.6c0 .5-.4.9-.9.9z"/><path fill="#E32345" d="M168.6 199.8h12.8v3.3h-12.8z"/><path fill="#fff" d="M169.2 247.1c-1.6-4.7-8.9-8.3-17.7-8.3-8.8 0-16.1 3.6-17.7 8.3h35.4zM182 244.3c-1.7-1.8-5.1-3-9-3-3.9 0-7.3 1.2-9 3h18z"/><path fill="#C1D862" d="M175.1 235.8c-2.7 0-4.8-2.2-4.8-4.8s2.2-4.8 4.8-4.8 4.8 2.2 4.8 4.8-2.2 4.8-4.8 4.8zm0-7.4c-1.5 0-2.6 1.2-2.6 2.6 0 1.5 1.2 2.6 2.6 2.6 1.5 0 2.6-1.2 2.6-2.6 0-1.5-1.2-2.6-2.6-2.6z"/><circle fill="#fff" cx="175.1" cy="227.3" r=".5"/><circle fill="#fff" cx="178.8" cy="231" r=".5"/><circle fill="#fff" cx="171.3" cy="231" r=".5"/><circle fill="#fff" cx="177.7" cy="233.6" r=".5"/><circle fill="#fff" cx="172.4" cy="228.4" r=".5"/><circle fill="#fff" cx="172.4" cy="233.6" r=".5"/><circle fill="#fff" cx="177.7" cy="228.4" r=".5"/><path fill="#7E6983" d="M174.7 234h.7v1.1h-.7zM174.8 234.5l1.6-1.2v2.3zM175.3 234.6l-1.6-1.3v2.3z"/><path fill="#fff" d="M97.5 261.9c-1.6-1.7-4.8-2.9-8.5-2.9s-6.8 1.2-8.5 2.9h17z"/><path fill="#F1627A" d="M27.6 194.1h59.4v60h-59.4z"/><path fill="#fff" d="M88.1 210.4h-60.8c-3.6 0-6.5-2.9-6.5-6.5l7.6-13.1c2.2-3.5 2.9-6.5 6.5-6.5h46.8c3.6 0 4.4 2.2 6.5 6.5l6.5 13.1c-.1 3.6-3 6.5-6.6 6.5z"/><path fill="#F1627A" d="M44.9 212.1l12.8-16.6 13.3 16.6z"/><path fill="#E32345" d="M63 254.1v-13.2c0-2.8-2.3-5-5-5h-1.3c-2.8 0-5 2.3-5 5v13.2h11.3z"/><path fill="#F598AD" d="M63.4 254.5h-12.2v-13.6c0-3 2.5-5.5 5.5-5.5h1.3c3 0 5.5 2.5 5.5 5.5v13.6zm-11.3-.8h10.5v-12.8c0-2.5-2.1-4.6-4.6-4.6h-1.3c-2.5 0-4.6 2.1-4.6 4.6v12.8z"/><path fill="#F6D86C" d="M41.6 248.7v-9.3c0-2-1.3-3.5-3-3.5h-.7c-1.6 0-3 1.6-3 3.5v9.3h6.7z"/><path fill="#fff" d="M42.1 249.2h-7.7v-9.8c0-2.2 1.6-4.1 3.5-4.1h.7c1.9 0 3.5 1.8 3.5 4.1v9.8zm-6.7-1h5.7v-8.8c0-1.7-1.1-3-2.5-3h-.7c-1.4 0-2.5 1.4-2.5 3v8.8z"/><path fill="#F6D86C" d="M38.3 248.7v-12.8"/><path fill="#fff" d="M37.8 235.9h1v12.8h-1z"/><path fill="#F6D86C" d="M34.9 245h6.7"/><path fill="#fff" d="M34.9 244.5h6.7v1h-6.7z"/><path fill="#F6D86C" d="M76.4 248.7v-9.3c0-2-1.3-3.5-3-3.5h-.7c-1.6 0-3 1.6-3 3.5v9.3h6.7z"/><path fill="#fff" d="M76.9 249.2h-7.7v-9.8c0-2.2 1.6-4.1 3.5-4.1h.7c1.9 0 3.5 1.8 3.5 4.1v9.8zm-6.7-1h5.7v-8.8c0-1.7-1.1-3-2.5-3h-.7c-1.4 0-2.5 1.4-2.5 3v8.8z"/><path fill="#F6D86C" d="M73 248.7v-12.8"/><path fill="#fff" d="M72.5 235.9h1v12.8h-1z"/><path fill="#F6D86C" d="M69.7 245h6.7"/><path fill="#fff" d="M69.7 244.5h6.7v1h-6.7z"/><path fill="#F6D86C" d="M41.6 227.7v-9.3c0-2-1.3-3.5-3-3.5h-.7c-1.6 0-3 1.6-3 3.5v9.3h6.7z"/><path fill="#fff" d="M42.1 228.2h-7.7v-9.8c0-2.2 1.6-4.1 3.5-4.1h.7c1.9 0 3.5 1.8 3.5 4.1v9.8zm-6.7-1h5.7v-8.8c0-1.7-1.1-3-2.5-3h-.7c-1.4 0-2.5 1.4-2.5 3v8.8z"/><path fill="#F6D86C" d="M38.3 227.7v-12.8"/><path fill="#fff" d="M37.8 214.9h1v12.8h-1z"/><path fill="#F6D86C" d="M34.9 224h6.7"/><path fill="#fff" d="M34.9 223.5h6.7v1h-6.7z"/><path fill="#F6D86C" d="M60.7 227.7v-9.3c0-2-1.3-3.5-3-3.5h-.7c-1.6 0-3 1.6-3 3.5v9.3h6.7z"/><path fill="#fff" d="M61.2 228.2h-7.7v-9.8c0-2.2 1.6-4.1 3.5-4.1h.7c1.9 0 3.5 1.8 3.5 4.1v9.8zm-6.7-1h5.7v-8.8c0-1.7-1.1-3-2.5-3h-.7c-1.4 0-2.5 1.4-2.5 3v8.8z"/><path fill="#F6D86C" d="M57.3 227.7v-12.8"/><path fill="#fff" d="M56.8 214.9h1v12.8h-1z"/><path fill="#F6D86C" d="M54 224h6.7"/><path fill="#fff" d="M54 223.5h6.7v1h-6.7z"/><path fill="#F6D86C" d="M76.4 227.7v-9.3c0-2-1.3-3.5-3-3.5h-.7c-1.6 0-3 1.6-3 3.5v9.3h6.7z"/><path fill="#fff" d="M76.9 228.2h-7.7v-9.8c0-2.2 1.6-4.1 3.5-4.1h.7c1.9 0 3.5 1.8 3.5 4.1v9.8zm-6.7-1h5.7v-8.8c0-1.7-1.1-3-2.5-3h-.7c-1.4 0-2.5 1.4-2.5 3v8.8z"/><path fill="#F6D86C" d="M73 227.7v-12.8"/><path fill="#fff" d="M72.5 214.9h1v12.8h-1z"/><path fill="#F6D86C" d="M69.7 224h6.7"/><path fill="#fff" d="M69.7 223.5h6.7v1h-6.7z"/><path fill="#E32345" d="M25.5 227.7h63.5v4.8h-63.5z"/><circle fill="#F6D86C" cx="57.3" cy="206.2" r="3.1"/><path fill="#fff" d="M57.3 209.8c-2 0-3.5-1.6-3.5-3.5 0-2 1.6-3.5 3.5-3.5 2 0 3.5 1.6 3.5 3.5s-1.6 3.5-3.5 3.5zm0-6.2c-1.5 0-2.7 1.2-2.7 2.7s1.2 2.7 2.7 2.7c1.5 0 2.7-1.2 2.7-2.7s-1.3-2.7-2.7-2.7z"/><path fill="#F6D86C" d="M54.2 206.2h6.2"/><path fill="#fff" d="M54.2 205.8h6.2v.9h-6.2zM79.7 258c-1.5-4.4-8.4-7.8-16.7-7.8-8.3 0-15.2 3.4-16.7 7.8h33.4z"/><path fill="#34A8A6" d="M57.4 244.7c-2.5 0-4.5-2-4.5-4.5s2-4.5 4.5-4.5 4.5 2 4.5 4.5-2 4.5-4.5 4.5zm0-7c-1.4 0-2.5 1.1-2.5 2.5s1.1 2.5 2.5 2.5 2.5-1.1 2.5-2.5-1.1-2.5-2.5-2.5z"/><circle fill="#fff" cx="57.4" cy="236.7" r=".5"/><circle fill="#fff" cx="60.9" cy="240.2" r=".5"/><circle fill="#fff" cx="53.9" cy="240.2" r=".5"/><circle fill="#fff" cx="59.9" cy="242.7" r=".5"/><circle fill="#fff" cx="54.9" cy="237.7" r=".5"/><circle fill="#fff" cx="54.9" cy="242.7" r=".5"/><circle fill="#fff" cx="59.9" cy="237.7" r=".5"/><path fill="#7E6983" d="M57.1 243h.7v1h-.7zM57.2 243.5l1.4-1.1v2.1zM57.6 243.5l-1.4-1.1v2.1z"/><path opacity=".6" fill="#6BC6B5" d="M288 231.9l6.4-25.1 6 25.1zM310 231.9l6.5-25.1 6 25.1zM298.3 231.9l9.3-36.2 8.7 36.2z"/><path fill="#F1627A" d="M303.9 228.7h38.1v20.3h-38.1zM303.9 228.7h38.1v20.3h-38.1z"/><path fill="#F6D86C" d="M315.4 245v-9.2c0-1.9-1.3-3.5-2.9-3.5-1.6 0-2.9 1.6-2.9 3.5v9.2h5.8z"/><path fill="#fff" d="M316 245.6h-7.1v-9.8c0-2.3 1.6-4.1 3.5-4.1s3.5 1.8 3.5 4.1v9.8zm-5.9-1.2h4.7v-8.6c0-1.6-1-2.9-2.3-2.9-1.3 0-2.3 1.3-2.3 2.9v8.6z"/><path fill="#F6D86C" d="M312.5 232.3v12.7"/><path fill="#fff" d="M311.9 232.3h1.2v12.7h-1.2z"/><path fill="#F6D86C" d="M309.5 241h5.9"/><path fill="#fff" d="M309.5 240.4h5.9v1.2h-5.9z"/><path fill="#F6D86C" d="M326 245v-9.2c0-1.9-1.3-3.5-2.9-3.5-1.6 0-2.9 1.6-2.9 3.5v9.2h5.8z"/><path fill="#fff" d="M326.6 245.6h-7.1v-9.8c0-2.3 1.6-4.1 3.5-4.1s3.5 1.8 3.5 4.1v9.8zm-5.9-1.2h4.7v-8.6c0-1.6-1-2.9-2.3-2.9s-2.3 1.3-2.3 2.9v8.6z"/><path fill="#F6D86C" d="M323.1 232.3v12.7"/><path fill="#fff" d="M322.5 232.3h1.2v12.7h-1.2z"/><path fill="#F6D86C" d="M320.1 241h5.9"/><path fill="#fff" d="M320.1 240.4h5.9v1.2h-5.9z"/><path fill="#F6D86C" d="M337.7 245v-9.2c0-1.9-1.3-3.5-2.9-3.5-1.6 0-2.9 1.6-2.9 3.5v9.2h5.8z"/><path fill="#fff" d="M338.3 245.6h-7.1v-9.8c0-2.3 1.6-4.1 3.5-4.1s3.5 1.8 3.5 4.1v9.8zm-5.8-1.2h4.7v-8.6c0-1.6-1-2.9-2.3-2.9s-2.3 1.3-2.3 2.9v8.6z"/><path fill="#F6D86C" d="M334.8 232.3v12.7"/><path fill="#fff" d="M334.2 232.3h1.2v12.7h-1.2z"/><path fill="#F6D86C" d="M331.9 241h5.8"/><path fill="#fff" d="M331.9 240.4h5.9v1.2h-5.9z"/><path fill="#EAF6F5" d="M303.9 228.7h38.5c4.5 0 4.1-5.7 2.1-8.3-2.1-2.6-8.5-11.8-10.2-13.8s-1.2-2.3-4.6-2.3h-44.5l1.1 5.9 17.6 14.1v4.4z"/><path fill="#F1627A" d="M274.2 177.8h23.9v38.4h-23.9z"/><path fill="#F6D86C" d="M281.9 181.1h8.5v7.3h-8.5z"/><path fill="#fff" d="M290.9 189h-9.7v-8.5h9.7v8.5zm-8.4-1.2h7.3v-6.1h-7.3v6.1z"/><path fill="#F6D86C" d="M286.2 181.1v7.3"/><path fill="#fff" d="M285.6 181.1h1.2v7.3h-1.2z"/><path fill="#F6D86C" d="M281.9 192h8.5v7.3h-8.5z"/><path fill="#fff" d="M290.9 199.9h-9.7v-8.5h9.7v8.5zm-8.4-1.2h7.3v-6.1h-7.3v6.1z"/><path fill="#F6D86C" d="M286.2 192v7.3"/><path fill="#fff" d="M285.6 192h1.2v7.3h-1.2zM272.5 174.2h27.3v4h-27.3z"/><path fill="#F1627A" d="M277.6 163.7h16.7v10.6h-16.7zM277.6 163.7h16.7v10.6h-16.7z"/><path fill="#fff" d="M273.6 161.3v2.8h24.6v-2.8s-6-2.9-8.3-12.9c-2.3-10-3.6-24.1-3.6-24.1s-2 18.6-2.7 23.2c-1.4 7.7-10 13.8-10 13.8zM358.4 252.8c-2-6-11.4-10.6-22.6-10.6-11.3 0-20.6 4.6-22.6 10.6h45.2z"/><path fill="#F6D86C" d="M284 174.2v-5.6c0-1.2-.8-2.1-1.8-2.1s-1.8.9-1.8 2.1v5.6h3.6z"/><path fill="#fff" d="M284.6 174.8h-4.7v-6.2c0-1.5 1.1-2.7 2.4-2.7 1.3 0 2.4 1.2 2.4 2.7v6.2zm-3.5-1.2h2.3v-5c0-.8-.5-1.5-1.2-1.5s-1.2.7-1.2 1.5v5z"/><path fill="#F6D86C" d="M291.6 174.2v-5.6c0-1.2-.8-2.1-1.8-2.1s-1.8.9-1.8 2.1v5.6h3.6z"/><path fill="#fff" d="M292.2 174.8h-4.7v-6.2c0-1.5 1.1-2.7 2.4-2.7s2.4 1.2 2.4 2.7v6.2zm-3.5-1.2h2.3v-5c0-.8-.5-1.5-1.2-1.5s-1.2.7-1.2 1.5v5z"/><path fill="#F1627A" d="M268.3 223.7l17.7-13.2 17.9 13.2v25.3h-35.6z"/><path fill="#E32345" d="M291.6 248.5v-13.6c0-2.8-2.4-5.2-5.3-5.2s-5.3 2.3-5.3 5.2v13.6h10.6z"/><path fill="#F598AD" d="M292.1 249h-11.6v-14.1c0-3.1 2.6-5.7 5.8-5.7s5.8 2.5 5.8 5.7v14.1zm-10.6-1h9.6v-13.1c0-2.6-2.2-4.7-4.8-4.7s-4.8 2.1-4.8 4.7v13.1z"/><circle fill="#F6D86C" cx="286.1" cy="222.1" r="4.2"/><path fill="#fff" d="M286.1 226.9c-2.7 0-4.8-2.2-4.8-4.8 0-2.7 2.2-4.8 4.8-4.8s4.8 2.2 4.8 4.8c0 2.6-2.1 4.8-4.8 4.8zm0-8.5c-2 0-3.6 1.6-3.6 3.6s1.6 3.6 3.6 3.6 3.6-1.6 3.6-3.6-1.6-3.6-3.6-3.6z"/><path fill="#F6D86C" d="M286.1 226.3v-8.5"/><path fill="#fff" d="M285.5 217.8h1.2v8.5h-1.2z"/><path fill="#F6D86C" d="M281.9 222.1h8.4"/><path fill="#fff" d="M281.9 221.5h8.5v1.2h-8.5zM264.7 228.8c-1.2 0-2.3-.5-3.1-1.5-1.4-1.7-1.1-4.2.6-5.6l21.6-17.1c1.5-1.2 3.7-1.1 5.1.2l19.1 17.1c1.6 1.5 1.8 4 .3 5.6-1.5 1.6-4 1.8-5.6.3l-16.6-14.9-18.9 15c-.7.6-1.6.9-2.5.9z"/><path fill="#C1D862" d="M286.3 242c-2.7 0-4.8-2.2-4.8-4.8s2.2-4.8 4.8-4.8c2.7 0 4.8 2.2 4.8 4.8s-2.1 4.8-4.8 4.8zm0-7.5c-1.5 0-2.6 1.2-2.6 2.6 0 1.5 1.2 2.6 2.6 2.6 1.5 0 2.6-1.2 2.6-2.6 0-1.4-1.1-2.6-2.6-2.6z"/><circle fill="#fff" cx="286.3" cy="233.4" r=".5"/><circle fill="#fff" cx="290" cy="237.1" r=".5"/><circle fill="#fff" cx="282.6" cy="237.1" r=".5"/><circle fill="#fff" cx="288.9" cy="239.8" r=".5"/><circle fill="#fff" cx="283.7" cy="234.5" r=".5"/><circle fill="#fff" cx="283.7" cy="239.8" r=".5"/><circle fill="#fff" cx="288.9" cy="234.5" r=".5"/><path fill="#7E6983" d="M285.9 240.2h.7v1.1h-.7zM286.1 240.7l1.5-1.2v2.3zM286.5 240.7l-1.5-1.2v2.3z"/><path opacity=".6" fill="#6BC6B5" d="M222.8 215.2l10.8-42 10.1 42z"/><path fill="#E32345" d="M242.3 165.7h8.2v2.7h-8.2z"/><path fill="#F1627A" d="M243.7 168.3h5.3v10.2h-5.3z"/><path fill="#fff" d="M249.7 165h-6.8c-.4 0-.7-.3-.7-.7 0-.4.3-.7.7-.7h6.8c.4 0 .7.3.7.7 0 .4-.3.7-.7.7zM249.1 162.1h-8.9c-.4 0-.7-.3-.7-.7 0-.4.3-.7.7-.7h8.9c.4 0 .7.3.7.7 0 .3-.3.7-.7.7zM250.6 158.6h-9.9c-.4 0-.7-.3-.7-.7 0-.4.3-.7.7-.7h9.9c.4 0 .7.3.7.7 0 .4-.3.7-.7.7zM243.8 161.3c-.4 0-.7-.3-.7-.7v-2.5c0-.4.3-.7.7-.7.4 0 .7.3.7.7v2.5c0 .4-.3.7-.7.7zM246.3 165.1c-.4 0-.7-.3-.7-.7v-2.9c0-.4.3-.7.7-.7.4 0 .7.3.7.7v2.9c0 .4-.3.7-.7.7z"/><path fill="#F1627A" d="M250.2 223.7h-26.2v-38.4l13.1-12.8 13.1 12.8z"/><path fill="#F6D86C" d="M239.9 189.9v-7.9c0-1.7-1.1-3-2.5-3h-.6c-1.4 0-2.5 1.4-2.5 3v7.9h5.6z"/><path fill="#fff" d="M240.4 190.4h-6.5v-8.3c0-1.9 1.3-3.4 2.9-3.4h.6c1.6 0 2.9 1.5 2.9 3.4v8.3zm-5.7-.9h4.8v-7.4c0-1.4-.9-2.6-2.1-2.6h-.6c-1.2 0-2.1 1.2-2.1 2.6v7.4z"/><path fill="#F6D86C" d="M237.1 189.9v-10.8"/><path fill="#fff" d="M236.7 179.1h.9v10.9h-.9z"/><path fill="#F6D86C" d="M234.3 186.8h5.6"/><path fill="#fff" d="M234.3 186.4h5.7v.9h-5.7z"/><path fill="#F6D86C" d="M227.6 195.7h7.6v8.3h-7.6z"/><path fill="#fff" d="M235.5 204.4h-8.3v-9h8.3v9zm-7.6-.8h6.9v-7.6h-6.9v7.6z"/><path fill="#F6D86C" d="M231.4 195.8v8.2"/><path fill="#fff" d="M231 195.8h.7v8.2h-.7z"/><path fill="#F6D86C" d="M227.6 199.9h7.6"/><path fill="#fff" d="M227.6 199.5h7.6v.7h-7.6z"/><path fill="#F6D86C" d="M227.6 209.1h7.6v8.3h-7.6z"/><path fill="#fff" d="M235.5 217.7h-8.3v-9h8.3v9zm-7.6-.7h6.9v-7.6h-6.9v7.6z"/><path fill="#F6D86C" d="M231.4 209.2v8.2"/><path fill="#fff" d="M231 209.2h.7v8.2h-.7z"/><path fill="#F6D86C" d="M227.6 213.2h7.6"/><path fill="#fff" d="M227.6 212.9h7.6v.7h-7.6z"/><path fill="#F6D86C" d="M239.2 195.7h7.6v8.3h-7.6z"/><path fill="#fff" d="M247.2 204.4h-8.3v-9h8.3v9zm-7.6-.8h6.9v-7.6h-6.9v7.6z"/><path fill="#F6D86C" d="M243 195.8v8.2"/><path fill="#fff" d="M242.7 195.8h.7v8.2h-.7z"/><path fill="#F6D86C" d="M239.2 199.9h7.6"/><path fill="#fff" d="M239.2 199.5h7.6v.7h-7.6z"/><path fill="#E32345" d="M239.3 209.2h7.5v14.4h-7.5z"/><path fill="#F598AD" d="M247.1 223.9h-8.2v-15.1h8.2v15.1zm-7.5-.7h6.8v-13.6h-6.8v13.6z"/><path fill="#fff" d="M253 188.6c-.8 0-1.5-.3-2.1-.9l-13.7-15.1-13.9 15.1c-1.1 1.2-2.9 1.2-4 .2-1.2-1.1-1.2-2.9-.2-4l16-17.4c.5-.6 1.3-.9 2.1-.9s1.6.3 2.1.9l15.8 17.4c1.1 1.2 1 3-.2 4-.6.4-1.3.7-1.9.7zM247.8 228c-1.6-4.9-9.2-8.6-18.3-8.6-9.1 0-16.7 3.7-18.3 8.6h36.6z"/><path fill="#34A8A6" d="M243 218.1c-2.7 0-4.8-2.2-4.8-4.8 0-2.7 2.2-4.8 4.8-4.8s4.8 2.2 4.8 4.8c0 2.6-2.1 4.8-4.8 4.8zm0-7.5c-1.5 0-2.6 1.2-2.6 2.6 0 1.5 1.2 2.6 2.6 2.6 1.5 0 2.6-1.2 2.6-2.6.1-1.4-1.1-2.6-2.6-2.6z"/><circle fill="#EDE0B7" cx="243" cy="209.5" r=".5"/><circle fill="#EDE0B7" cx="246.7" cy="213.2" r=".5"/><circle fill="#EDE0B7" cx="239.3" cy="213.2" r=".5"/><circle fill="#EDE0B7" cx="245.7" cy="215.9" r=".5"/><circle fill="#EDE0B7" cx="240.4" cy="210.6" r=".5"/><circle fill="#EDE0B7" cx="240.4" cy="215.9" r=".5"/><circle fill="#EDE0B7" cx="245.7" cy="210.6" r=".5"/><path fill="#7E6983" d="M242.7 216.2h.7v1.1h-.7zM242.8 216.8l1.5-1.2v2.2zM243.2 216.8l-1.5-1.2v2.3z"/><path fill="#B5D561" d="M112.9 178.9l-14.7 44.6h29.6z"/><path fill="#7DC248" d="M113 179.1l-.1-.2-14.7 44.6h14.8z"/><path fill="#C58D4D" d="M110.7 223.6h4.1v4.3h-4.1z"/><path fill="#9A6C3D" d="M113.8 223.6h1v4.3h-1z"/><path fill="#fff" d="M119.9 231c-.6-2.5-3.7-4.5-7.4-4.5s-6.8 1.9-7.4 4.5h14.8z"/><circle fill="#F6E002" cx="102.9" cy="210.3" r="1"/><circle fill="#F6D86C" cx="105.5" cy="211.6" r="1"/><circle fill="#EFDE13" cx="107.8" cy="212.5" r="1"/><circle fill="#EDE0B7" cx="110.2" cy="213.5" r="1"/><circle fill="#F6E002" cx="113.2" cy="214.2" r="1"/><circle fill="#F6D86C" cx="116.1" cy="214.8" r="1"/><circle fill="#EDE0B7" cx="119" cy="215.2" r="1"/><circle fill="#EFDE13" cx="122" cy="215.8" r="1"/><circle fill="#F6E002" cx="124.9" cy="216.2" r="1"/><circle fill="#EFDE13" cx="107.9" cy="196.7" r="1"/><circle fill="#F6D86C" cx="111" cy="196.7" r="1"/><circle fill="#EFDE13" cx="114" cy="196.2" r="1"/><circle fill="#EDE0B7" cx="117.5" cy="195.2" r="1"/><path fill="#B5D561" d="M138.7 218.7l-11.2 34h22.4z"/><path fill="#80C346" d="M138.7 218.8v-.1l-11.2 34h11.2z"/><path fill="#C58D4D" d="M137 252.8h3.1v3.2h-3.1z"/><path fill="#9A6C3D" d="M139.4 252.8h.7v3.2h-.7z"/><path fill="#fff" d="M144 258.3c-.5-1.9-2.8-3.4-5.7-3.4-2.8 0-5.2 1.5-5.7 3.4h11.4zM147.3 243.1h-.2c-.3-.3-.8-.6-1.3-.6-.4 0-.7.1-1 .3-.3-.2-.7-.3-1.1-.3-1 0-1.8.6-1.8 1.4 0 .8.8 1.4 1.8 1.4.4 0 .7-.1 1-.2.3.1.7.2 1.1.2.8 0 1.4-.2 1.5-.5.8 0 1.5-.4 1.5-.9 0-.4-.7-.8-1.5-.8zM131.3 248.5c-.1 0-.2 0-.3.1-.3-.3-.9-.6-1.4-.6-1 0-1.9.7-1.9 1.5s.8 1.5 1.9 1.5c.6 0 1.1-.2 1.4-.5.1 0 .2.1.4.1.6 0 1-.5 1-1.1-.1-.5-.5-1-1.1-1zM139 226.5c.1 0 .2 0 .3-.1.3.3.7.5 1.2.5.9 0 1.6-.6 1.6-1.3 0-.7-.7-1.3-1.6-1.3-.5 0-.9.2-1.2.5l-.3-.1c-.5 0-.8.4-.8.9s.3.9.8.9zM37.5 257c-.8-2.5-4.7-4.3-9.3-4.3-4.6 0-8.5 1.9-9.3 4.3h18.6zM310.8 262.7c-.8-2.5-4.7-4.3-9.3-4.3s-8.5 1.9-9.3 4.3h18.6zM115.1 318.8c-3.9-11.7-22.1-20.5-44-20.5s-40.1 8.8-44 20.5h88zM334.6 318.8c-3.9-11.7-22.1-20.5-44-20.5s-40.1 8.8-44 20.5h88zM246.7 318.8c-5.4-16-30.3-28.2-60.4-28.2-30 0-55 12.1-60.4 28.2h120.8zM149.8 318.8c-2.4-7.3-13.8-12.8-27.5-12.8s-25 5.5-27.5 12.8h55zM274.1 318.8c-2.4-7.3-13.8-12.8-27.5-12.8s-25 5.5-27.5 12.8h55z"/><path fill="#FEE96E" d="M115 95.7l-2.4 4.2-1.8-4.4-4.7-1 3.6-3.1-.5-4.8 4.1 2.5 4.3-1.9-1.1 4.6 3.2 3.6z"/><path fill="#F6E002" d="M117.6 87.2l-4.2 1.9-.7 3-3.5-5.5.5 4.8-3.6 3.1 4.7 1 1.8 4.4 2.4-4.2 4.7-.3-3.2-3.6z"/><path fill="#FEE96E" d="M116.5 91.8l1.1-4.6-4.9 4.9zM115 95.7l4.7-.3-7-3.3zM110.8 95.5l1.8 4.4.1-7.8zM112.7 92.1l-3-.8v.1l-3.5 3zM105.1 105.1h-2.4l1.5-1.9-.8-2.3 2.3.8 1.9-1.4v2.4l1.9 1.4-2.3.7-.7 2.3z"/><path fill="#F6E002" d="M109.5 104.1l-1.9-1.4-1.5.5 1.5-2.9-1.9 1.4-2.3-.8.8 2.3-1.5 1.9h2.4l1.4 2 .7-2.3z"/><path fill="#FEE96E" d="M107.2 104.8l2.3-.7-3.4-.9zM105.1 105.1l1.4 2-.4-3.9zM104.2 103.2l-1.5 1.9 3.4-1.9zM106.1 103.2l-.4-1.5-2.2-.8zM71.2 106.8l-6.3 1.1 3-5.7-3-5.7 6.4 1.1 4.5-4.6.9 6.4 5.8 2.9-5.8 2.8-1 6.4z"/><path fill="#F6E002" d="M82.5 102.3l-5.7-2.8-3.8 1.9 2.8-8.4-4.5 4.6-6.4-1.1 3 5.7-3 5.7 6.3-1.1 4.5 4.7 1-6.4z"/><path fill="#FEE96E" d="M76.7 105.1l5.8-2.8-9.5-.9zM71.2 106.8l4.5 4.7v-.1l-2.7-10zM67.9 102.3l-3 5.6 8.1-6.5zM73 101.4l-1.7-3.8-6.3-1.1zM54.7 108.6l-2.7.9.9-2.7-1.8-2.3h2.9l1.7-2.4.9 2.8 2.7.8-2.3 1.7v2.9z"/><path fill="#F6E002" d="M59.3 105.7l-2.7-.8-1.5 1.1.6-3.9-1.7 2.4h-2.9l1.8 2.3-.9 2.7 2.7-.9 2.3 1.7v-2.9z"/><path fill="#FEE96E" d="M57 107.4l2.3-1.7-4.2.3zM54.7 108.6l2.3 1.7-1.9-4.3zM52.9 106.8l-.9 2.7 3.1-3.5zM55.1 106l-1.1-1.5h-2.8zM45 114.7l-1.5 1.7-.4-2.2-2.1-1 2.1-1 .2-2.3 1.6 1.6 2.3-.4-1 2 1.1 2z"/><path fill="#F6E002" d="M47.2 111.1l-2.2.4-.6 1.3-1.1-2.9-.2 2.3-2.1 1 2.1 1 .4 2.2 1.5-1.7 2.3.4-1.1-2z"/><path fill="#FEE96E" d="M46.2 113.1l1-2-2.8 1.7zM45 114.7l2.3.4-2.9-2.3zM43.1 114.2l.4 2.2.9-3.6zM44.4 112.8l-1.3-.7v.1l-2 1zM91.1 107l-1.5 1.7-.5-2.2-2.1-.9 2-1.1.2-2.3 1.7 1.6 2.2-.6-1 2.1 1.2 1.9z"/><path fill="#F6E002" d="M93.1 103.2l-2.2.5-.6 1.4-1.1-2.9-.2 2.3-2 1.1 2.1.9.5 2.2 1.5-1.7 2.2.2-1.2-1.9z"/><path fill="#FEE96E" d="M92.1 105.3l1-2.1-2.8 1.9zM91.1 107l2.2.2-3-2.1zM89.1 106.5l.5 2.2.7-3.6zM90.3 105.1l-1.3-.6-2 1.1z"/><path fill="#B2A58E" d="M132.8 238.3c-.1 0-.2-.1-.2-.2v-.8c0-.1.1-.2.2-.2s.2.1.2.2v.8c0 .1-.1.2-.2.2zM133.6 238.3c-.1 0-.2-.1-.2-.2v-.8c0-.1.1-.2.2-.2s.2.1.2.2v.8c0 .1-.1.2-.2.2zM132.4 237.7l-1.3-.8-.8-1.3v-1.6l.8-1.4 1.3-.8h1.6l1.4.8.8 1.4v1.6l-.8 1.3-1.4.8z"/><path fill="#fff" d="M132.6 237l-1-.6-.6-1v-1.3l.6-1 1-.6h1.2l1.1.6.6 1v1.3l-.6 1-1.1.6z"/><path fill="#E32345" d="M132.8 236.5l-.8-.5-.5-.8v-.9l.5-.8.8-.4h.9l.8.4.4.8v.9l-.4.8-.8.5z"/><path fill="#B2A58E" d="M132.7 234.8l-.9-.6-.6-.9v-1.1l.6-.9.9-.5h1.1l.9.5.5.9v1.1l-.5.9-.9.6z"/><path fill="#F1627A" d="M133.8 234.8l.9-.6.1-.1-.3-.6-.8-.4h-.9l-.8.4-.3.6.1.1.9.6z"/><circle fill="#fff" cx="132.7" cy="232.6" r=".2"/><circle fill="#1D1D1B" cx="132.7" cy="232.6" r=".1"/><circle fill="#fff" cx="133.8" cy="232.6" r=".2"/><circle fill="#1D1D1B" cx="133.8" cy="232.6" r=".1"/><path fill="#1D1D1B" d="M132.9 233.1l.3.7.3-.7z"/><path stroke="#7C6B50" stroke-width=".312" stroke-linecap="round" stroke-linejoin="round" stroke-miterlimit="10" fill="none" d="M131.1 232.7l-.1 1.4v1.2l-.7.3M135.4 232.7l.1 1.4v1.2l.7.3"/><path fill="#B2A58E" d="M139 238.7c-.1 0-.1-.1-.1-.1v-.5c0-.1.1-.1.1-.1.1 0 .1.1.1.1v.5c0 .1-.1.1-.1.1zM139.5 238.7c-.1 0-.1-.1-.1-.1v-.5c0-.1.1-.1.1-.1.1 0 .1.1.1.1v.5c0 .1-.1.1-.1.1zM138.7 238.3l-.9-.5-.5-.8v-1l.5-.9.9-.5h1l.9.5.5.9v1l-.5.8-.9.5z"/><path fill="#fff" d="M138.8 237.9l-.6-.4-.4-.6v-.8l.4-.7.6-.4h.8l.7.4.4.7v.8l-.4.6-.7.4z"/><path fill="#E32345" d="M138.9 237.5l-.5-.3-.3-.4v-.6l.3-.5.5-.3h.6l.5.3.3.5v.6l-.3.4-.5.3z"/><path fill="#B2A58E" d="M138.9 236.5l-.6-.4-.3-.5v-.7l.3-.6.6-.3h.7l.5.3.4.6v.7l-.4.5-.5.4z"/><path fill="#F1627A" d="M139.6 236.5l.5-.4.1-.1-.2-.3-.5-.3h-.6l-.5.3-.2.3.1.1.6.4z"/><circle fill="#fff" cx="138.9" cy="235.1" r=".1"/><circle fill="#1D1D1B" cx="138.9" cy="235.1" r=".1"/><circle fill="#fff" cx="139.6" cy="235.1" r=".1"/><circle fill="#1D1D1B" cx="139.6" cy="235.1" r=".1"/><path fill="#1D1D1B" d="M139 235.4l.2.4.2-.4z"/><path fill="#7C6B50" d="M137.3 237l.4-.2v-1.6.9.7l-.4.2zM141.1 237l-.4-.2v-1.6.9.7l.4.2z"/><path fill="#fff" d="M133.6 238.6c-.1-.3-.5-.6-1-.6s-.9.3-1 .6h2zM134.3 238.5c-.1-.3-.4-.5-.8-.5s-.7.2-.8.5h1.6zM140.2 239.3c-.1-.4-.6-.7-1.2-.7s-1.1.3-1.2.7h2.4z"/><path fill="#235B6E" d="M202.2 240.3h3.5v5.1h-3.5zM205.7 240.3c0 .2 0 .5-.1.7-.1.2-.2.4-.4.6-.2.2-.3.3-.6.4-.2.1-.4.1-.7.1s-.5 0-.7-.1c-.2-.1-.4-.2-.6-.4-.2-.2-.3-.3-.4-.6-.1-.2-.1-.4-.1-.7 0-.2 0-.5.1-.7.1-.2.2-.4.4-.6.2-.2.3-.3.6-.4.2-.1.4-.1.7-.1s.5 0 .7.1c.2.1.4.2.6.4.2.2.3.3.4.6.1.2.1.5.1.7z"/><g fill="#CBD7B3"><path d="M203.2 240.4h.1v.1h-.1zM203.2 240.4h.2v.1h-.2zM203.2 240.6h.2v.1h-.2zM203.2 240.6h.2v.1h-.2zM203.2 240.5h.3v.1h-.3z"/></g><linearGradient id="c" gradientUnits="userSpaceOnUse" x1="203.185" y1="240.537" x2="202.405" y2="240.537"><stop offset="0" stop-color="#3CA2A2"/><stop offset="1" stop-color="#235B6E"/></linearGradient><path fill="url(#c)" d="M202.4 240.4h.8v.3h-.8z"/><g fill="#CBD7B3"><path d="M204.6 240.4h.1v.1h-.1zM204.5 240.4h.2v.1h-.2zM204.5 240.6h.2v.1h-.2zM204.5 240.6h.2v.1h-.2zM204.4 240.5h.3v.1h-.3z"/></g><linearGradient id="d" gradientUnits="userSpaceOnUse" x1="204.711" y1="240.537" x2="205.491" y2="240.537"><stop offset="0" stop-color="#3CA2A2"/><stop offset="1" stop-color="#235B6E"/></linearGradient><path fill="url(#d)" d="M204.7 240.4h.8v.3h-.8z"/><g fill="#fff"><circle cx="204" cy="240.3" r=".1"/><ellipse cx="204.1" cy="240.3" rx=".1" ry=".1"/><ellipse cx="203.8" cy="240.3" rx=".1" ry=".1"/><path d="M203.8 240.4h.4v.3h-.4zM203.7 240.3h.4v.1h-.4z"/></g><circle fill="#235B6E" cx="203.9" cy="238.6" r="1.3"/><circle fill="#CBD7B3" cx="203.9" cy="238.9" r=".9"/><path fill="#fff" d="M203.9 239.3c-.4 0-.8-.3-.9-.7v.2c0 .5.4.9.9.9s.9-.4.9-.9v-.2c-.1.4-.4.7-.9.7z"/><path fill="#838689" d="M204 238.8h-.1v-.2z"/><path fill="#fff" d="M204.2 237.7l-.1-.2v.1l-.2-.3-.1.3v-.1l-.1.2h-.1v.1h.7v-.1z"/><circle fill="#F1627A" cx="203.9" cy="239" r=".1"/><path fill="#fff" d="M203.9 238.9z"/><g fill="#F598AD"><circle cx="203.6" cy="239" r=".1"/><circle cx="204.3" cy="239" r=".1"/></g><g fill="#838689"><path d="M204.1 238.7c.1-.1.1-.1.1 0 0-.1 0-.1-.1 0zM203.7 238.7c.1-.1.1-.1.1 0-.1-.1-.1-.1-.1 0z"/></g><path fill="#BBB74A" d="M198 241.4h3.5v4h-3.5zM201.5 241.4c0 .2 0 .5-.1.7s-.2.4-.4.6c-.2.2-.3.3-.6.4-.2.1-.4.1-.7.1s-.5 0-.7-.1c-.2-.1-.4-.2-.6-.4-.2-.2-.3-.3-.4-.6s-.1-.4-.1-.7c0-.2 0-.5.1-.7.1-.2.2-.4.4-.6.2-.2.3-.3.6-.4.2-.1.4-.1.7-.1s.5 0 .7.1c.2.1.4.2.6.4s.3.3.4.6c.1.2.1.5.1.7z"/><g fill="#EDE0B7"><path d="M199 241.5h.1v.1h-.1zM199 241.5h.2v.1h-.2zM199 241.7h.2v.1h-.2zM199 241.7h.2v.1h-.2zM199 241.6h.3v.1h-.3z"/></g><linearGradient id="e" gradientUnits="userSpaceOnUse" x1="198.997" y1="241.639" x2="198.217" y2="241.639"><stop offset="0" stop-color="#E0EBAC"/><stop offset="1" stop-color="#BBB74A"/></linearGradient><path fill="url(#e)" d="M198.2 241.5h.8v.3h-.8z"/><g fill="#EDE0B7"><path d="M200.4 241.5h.1v.1h-.1zM200.3 241.5h.2v.1h-.2zM200.3 241.7h.2v.1h-.2zM200.3 241.7h.2v.1h-.2zM200.2 241.6h.3v.1h-.3z"/></g><linearGradient id="f" gradientUnits="userSpaceOnUse" x1="200.523" y1="241.639" x2="201.303" y2="241.639"><stop offset="0" stop-color="#E0EBAC"/><stop offset="1" stop-color="#BBB74A"/></linearGradient><path fill="url(#f)" d="M200.5 241.5h.8v.3h-.8z"/><g fill="#fff"><circle cx="199.8" cy="241.4" r=".1"/><ellipse cx="199.9" cy="241.4" rx=".1" ry=".1"/><ellipse cx="199.6" cy="241.4" rx=".1" ry=".1"/><path d="M199.6 241.5h.4v.3h-.4zM199.6 241.4h.4v.1h-.4z"/></g><circle fill="#BBB74A" cx="199.8" cy="239.7" r="1.3"/><circle fill="#EDE0B7" cx="199.8" cy="240" r=".9"/><path fill="#fff" d="M199.8 240.4c-.4 0-.8-.3-.9-.7v.2c0 .5.4.9.9.9s.9-.4.9-.9v-.2c-.2.4-.5.7-.9.7z"/><path fill="#B2A58E" d="M199.8 239.9h-.1l.1-.2z"/><path fill="#fff" d="M200 238.8l-.1-.2v.1l-.1-.3-.2.3v-.1l-.1.2h-.1v.1h.7v-.1z"/><g fill="#B2A58E"><path d="M199.9 239.8c.1-.1.1-.1.1 0 0-.1 0-.1-.1 0zM199.5 239.8c.1-.1.1-.1.1 0 0-.1-.1-.1-.1 0z"/></g><circle fill="#F1627A" cx="199.8" cy="240.1" r=".1"/><path fill="#fff" d="M199.8 240z"/><g fill="#F598AD"><circle cx="199.4" cy="240.1" r=".1"/><circle cx="200.1" cy="240.1" r=".1"/></g><path fill="#DD4327" d="M193.8 242.5h3.5v2.9h-3.5zM197.3 242.5c0 .2 0 .5-.1.7-.1.2-.2.4-.4.6-.2.2-.3.3-.6.4-.2.1-.4.1-.7.1s-.5 0-.7-.1c-.2-.1-.4-.2-.6-.4-.2-.2-.3-.3-.4-.6-.1-.2-.1-.4-.1-.7s0-.5.1-.7c.1-.2.2-.4.4-.6.2-.2.3-.3.6-.4.2-.1.4-.1.7-.1s.5 0 .7.1c.2.1.4.2.6.4s.3.3.4.6c.1.2.1.5.1.7z"/><g fill="#C58D4D"><path d="M194.8 242.6h.1v.1h-.1zM194.8 242.6h.2v.1h-.2zM194.8 242.8h.2v.1h-.2zM194.8 242.8h.2v.1h-.2zM194.8 242.7h.3v.1h-.3z"/></g><linearGradient id="g" gradientUnits="userSpaceOnUse" x1="194.809" y1="242.741" x2="194.029" y2="242.741"><stop offset="0" stop-color="#F1627A"/><stop offset="1" stop-color="#DD4327"/></linearGradient><path fill="url(#g)" d="M194 242.6h.8v.3h-.8z"/><g fill="#C58D4D"><path d="M196.2 242.6h.1v.1h-.1zM196.1 242.6h.2v.1h-.2zM196.1 242.8h.2v.1h-.2zM196.1 242.8h.2v.1h-.2zM196 242.7h.3v.1h-.3z"/></g><linearGradient id="h" gradientUnits="userSpaceOnUse" x1="196.335" y1="242.741" x2="197.115" y2="242.741"><stop offset="0" stop-color="#F1627A"/><stop offset="1" stop-color="#DD4327"/></linearGradient><path fill="url(#h)" d="M196.3 242.6h.8v.3h-.8z"/><g fill="#fff"><circle cx="195.6" cy="242.5" r=".1"/><ellipse cx="195.7" cy="242.5" rx=".1" ry=".1"/><ellipse cx="195.5" cy="242.5" rx=".1" ry=".1"/><path d="M195.4 242.6h.4v.3h-.4zM195.4 242.5h.4v.1h-.4z"/></g><circle fill="#DD4327" cx="195.6" cy="240.8" r="1.3"/><circle fill="#C58D4D" cx="195.6" cy="241.1" r=".9"/><path fill="#9A6C3D" d="M195.7 241h-.2l.1-.2z"/><path fill="#fff" d="M195.8 239.9l-.1-.2v.1l-.1-.3-.2.3v-.1l-.1.2h-.1v.1h.7v-.1z"/><circle fill="#F1627A" cx="195.6" cy="241.2" r=".1"/><path fill="#fff" d="M195.6 241.1z"/><g fill="#F598AD"><circle cx="195.2" cy="241.2" r=".1"/><circle cx="195.9" cy="241.2" r=".1"/></g><path fill="#fff" d="M195.6 241.5c-.4 0-.8-.3-.9-.7v.2c0 .5.4.9.9.9s.9-.4.9-.9v-.2c-.2.4-.5.7-.9.7z"/><g fill="#9A6C3D"><path d="M195.7 240.9c.1-.1.1-.1.1 0 0-.1 0-.1-.1 0 .1-.1 0-.1 0 0zM195.3 240.9c0-.1.1-.1 0 0 .1-.1.1-.1.1 0 0-.1 0-.1-.1 0z"/></g><path fill="#EDE0B7" d="M233.7 245.4c-.1 0-.3-.1-.3-.3v-.6h.5v.6c.1.2 0 .3-.2.3zM232.9 245.4c-.1 0-.3-.1-.3-.3v-.6h.5v.6c.1.2 0 .3-.2.3z"/><path fill="#fff" d="M231.8 245.3l1.5-3.4 1.6 3.4z"/><circle fill="#EDE0B7" cx="233.3" cy="241.9" r="1.1"/><path fill="#B2A58E" d="M233.4 242.2h-.2l.1-.3z"/><circle fill="#F1627A" cx="233.3" cy="242.3" r=".1"/><path fill="#fff" d="M233.3 242.3z"/><path fill="#B2A58E" d="M233.5 242.1c.1-.1.1-.1.1 0 0-.1 0-.1-.1 0zM233 242.1c.1-.1.1-.1.1 0s0-.1-.1 0z"/><circle fill="#F598AD" cx="233" cy="242.3" r=".1"/><circle fill="#F598AD" cx="233.7" cy="242.3" r=".1"/><circle cx="233.3" cy="241.9" r="1.1" fill="none"/><defs><circle id="i" cx="233.3" cy="241.9" r="1.1"/></defs><clipPath id="j"><use xlink:href="#i" overflow="visible"/></clipPath><path clip-path="url(#j)" fill="#B2A58E" d="M232.2 240.7h2.2v1h-2.2z"/><g fill="#EDE0B7"><path d="M232 243.1h.1v.1h-.1zM231.8 243.2h.2v.1h-.2zM231.8 243.3h.2v.1h-.2zM231.9 243.4h.2v.1h-.2zM231.8 243.2h.3v.1h-.3z"/></g><path fill="#fff" d="M232.1 243.1h.8v.3h-.8z"/><g fill="#EDE0B7"><path d="M234.6 243.1h.1v.1h-.1zM234.6 243.2h.2v.1h-.2zM234.6 243.3h.2v.1h-.2zM234.6 243.4h.2v.1h-.2zM234.6 243.2h.3v.1h-.3z"/></g><path fill="#fff" d="M233.8 243.1h.8v.3h-.8z"/><path fill="#B2A58E" d="M226.4 245.4v-.2.2zM226.6 245.4v-.2.2zM226.8 245.3v-.2.2zM226.2 245.3v-.2.2z"/><path fill="#EDE0B7" d="M229.4 245.4c-.1 0-.3-.1-.3-.3v-.6h.5v.6c.1.2 0 .3-.2.3zM228.6 245.4c-.1 0-.3-.1-.3-.3v-.6h.5v.6c.1.2 0 .3-.2.3z"/><path fill="#fff" d="M227.5 245.3l1.5-3.4 1.6 3.4z"/><circle fill="#EDE0B7" cx="229" cy="241.9" r="1.1"/><path fill="#B2A58E" d="M229.1 242.2h-.2l.1-.3z"/><circle fill="#F1627A" cx="229" cy="242.3" r=".1"/><path fill="#fff" d="M229 242.3z"/><path fill="#B2A58E" d="M229.2 242.1c.1-.1.1-.1.1 0 0-.1 0-.1-.1 0zM228.7 242.1c.1-.1.1-.1.1 0 0-.1 0-.1-.1 0z"/><circle fill="#F598AD" cx="228.7" cy="242.3" r=".1"/><circle fill="#F598AD" cx="229.4" cy="242.3" r=".1"/><circle cx="229" cy="241.9" r="1.1" fill="none"/><defs><circle id="k" cx="229" cy="241.9" r="1.1"/></defs><clipPath id="l"><use xlink:href="#k" overflow="visible"/></clipPath><path clip-path="url(#l)" fill="#B2A58E" d="M227.9 240.7h2.2v1h-2.2z"/><g fill="#EDE0B7"><path d="M227.7 243.1h.1v.1h-.1zM227.5 243.2h.2v.1h-.2zM227.5 243.3h.2v.1h-.2zM227.6 243.4h.2v.1h-.2zM227.5 243.2h.3v.1h-.3z"/></g><path fill="#fff" d="M227.8 243.1h.8v.3h-.8z"/><g fill="#EDE0B7"><path d="M230.3 243.1h.1v.1h-.1zM230.3 243.2h.2v.1h-.2zM230.3 243.3h.2v.1h-.2zM230.3 243.4h.2v.1h-.2zM230.3 243.2h.3v.1h-.3z"/></g><path fill="#fff" d="M229.5 243.1h.8v.3h-.8z"/><path stroke="#B2A58E" stroke-width=".179" stroke-linecap="round" stroke-miterlimit="10" d="M230.4 244.4v-1.8c0-.2.2-.4.4-.4s.3.1.3.3c0 .1-.1.2-.2.2s-.2-.1-.2-.2.1-.2.2-.2.1.1.1.1c0 .1 0 .1-.1.1 0 0-.1 0-.1-.1 0 0 0-.1.1-.1" fill="none"/><path fill="#fff" d="M226.3 245.3l-.3-.2-.2-.3v-.4l.2-.3.3-.2h.4l.3.2.2.3v.4l-.2.3-.3.2z"/><path fill="#B2A58E" d="M226.4 244.6l-.2-.1-.1-.2v-.3l.1-.2.2-.1h.2l.2.1.1.2v.3l-.1.2-.2.1z"/><g fill="#B2A58E"><path d="M226 243.8l-.2.1.2.1.2-.1zM227 243.8l-.2.1.2.1.2-.1z"/></g><path fill="#081834" d="M238.3 244.3v-.4h-10.6v.4h.4v.9h-3.1v-10.9h-18.7v10.9h-3.1v-.9h.4v-.4h-10.6v.4h.4v.9h-.4v.9h45.2v-.9h-.4v-.9h.5zm-43.4.9h-.9v-.9h.9v.9zm1.3 0h-.9v-.9h.9v.9zm1.3 0h-.9v-.9h.9v.9zm1.4 0h-.9v-.9h.9v.9zm1.3 0h-.9v-.9h.9v.9zm1.3 0h-.9v-.9h.9v.9zm1.3 0h-.8v-.9h.9v.9zm26.7 0h-.9v-.9h.9v.9zm1.3 0h-.8v-.9h.9v.9zm1.4 0h-.9v-.9h.9v.9zm1.3 0h-.9v-.9h.9v.9zm1.3 0h-.9v-.9h.9v.9zm1.3 0h-.9v-.9h.9v.9zm1.3 0h-.9v-.9h.9v.9z"/><path fill="#023649" d="M204.7 235.1l2.6-5.1h16.8l2.6 5.1z"/><path fill="#CEB481" d="M206.3 246c0 5.2 4.2 9.4 9.4 9.4s9.4-4.2 9.4-9.4h-18.8z"/><path fill="#FBA931" d="M215.7 231.3c-.6 0-1.1.5-1.1 1.1v.9h2.2v-.9c0-.6-.5-1.1-1.1-1.1z"/><path fill="#076665" d="M214.6 233.3c0 .6.5 1.1 1.1 1.1s1.1-.5 1.1-1.1h-2.2z"/><path fill="#081834" d="M216.1 233.3h.6l-.1-.3v-.5l-.1.1h-.2l-.1-.1v.5l-.1.3z"/><g fill="#F6D86C"><path d="M216.4 232.8c-.1.1 0 .1 0 0zM216.5 232.8c0 .1.1.1 0 0z"/></g><path fill="#FBA931" d="M215.7 236c-3.1 0-5.6 2.5-5.6 5.6v4.4h11.2v-4.4c0-3.1-2.5-5.6-5.6-5.6z"/><circle stroke="#F6D86C" stroke-width=".804" stroke-miterlimit="10" cx="215.7" cy="241.8" r="1.4" fill="none"/><path fill="#fff" d="M217 226.4h-2.6c-.2 0-.4-.2-.4-.4s.2-.4.4-.4h2.6c.2 0 .4.2.4.4.1.2-.1.4-.4.4z"/><path fill="#EDE0B7" d="M216.1 228.1c-.1 0-.3-.1-.3-.3v-.6h.5v.6c.1.2-.1.3-.2.3zM215.3 228.1c-.1 0-.3-.1-.3-.3v-.6h.5v.6c.1.2 0 .3-.2.3z"/><circle cx="215.7" cy="224.7" r="1.1" fill="none"/><g fill="#EDE0B7"><path d="M214.3 225.8h.1v.1h-.1zM214.2 225.9h.2v.1h-.2zM214.2 226h.2v.1h-.2zM214.3 226.1h.2v.1h-.2zM214.2 226h.3v.1h-.3z"/></g><linearGradient id="m" gradientUnits="userSpaceOnUse" x1="215.248" y1="225.994" x2="214.469" y2="225.994"><stop offset="0" stop-color="#fff"/><stop offset="1" stop-color="#E4F4F4"/></linearGradient><path fill="url(#m)" d="M214.5 225.8h.8v.3h-.8z"/><g fill="#EDE0B7"><path d="M216.9 225.8h.1v.1h-.1zM216.9 225.9h.2v.1h-.2zM216.9 226h.2v.1h-.2zM216.9 226.1h.2v.1h-.2zM216.9 226h.3v.1h-.3z"/></g><linearGradient id="n" gradientUnits="userSpaceOnUse" x1="216.157" y1="225.994" x2="216.937" y2="225.994"><stop offset="0" stop-color="#fff"/><stop offset="1" stop-color="#E4F4F4"/></linearGradient><path fill="url(#n)" d="M216.2 225.8h.8v.3h-.8z"/><path fill="#fff" d="M214.2 228l1.5-3.3 1.5 3.3z"/><circle fill="#F6E002" cx="216.7" cy="225.1" r=".2"/><circle fill="#F6E002" cx="214.7" cy="225.1" r=".2"/><circle fill="#EDE0B7" cx="215.7" cy="224.7" r="1.1"/><path fill="#B2A58E" d="M215.4 224.8c.1-.1.1-.1.1 0 0-.1 0-.1-.1 0 .1-.1 0-.1 0 0z"/><defs><circle id="o" cx="215.7" cy="224.7" r="1.1"/></defs><clipPath id="p"><use xlink:href="#o" overflow="visible"/></clipPath><path clip-path="url(#p)" fill="#F6E002" d="M214.6 223.4h2.2v1h-2.2z"/><path fill="#B2A58E" d="M215.9 224.8c0-.1.1-.1 0 0 .1-.1.1-.1.1 0 0-.1-.1-.1-.1 0zM215.8 224.9h-.2l.1-.2z"/><circle fill="#F1627A" cx="215.7" cy="225.1" r=".1"/><circle fill="#F598AD" cx="216.1" cy="225.1" r=".1"/><circle fill="#F598AD" cx="215.3" cy="225.1" r=".1"/><path fill="#fff" d="M215.7 225zM215.7 222.8c.4 0 .7.1.7.2s-.3.2-.7.2-.7-.1-.7-.2.3-.2.7-.2m0-.1c-.4 0-.8.1-.8.3s.4.3.8.3.8-.1.8-.3-.4-.3-.8-.3z"/><path fill="#EDE0B7" d="M215.9 244.9c-.1 0-.1-.1-.1-.1v-.3h.3v.3s-.1.1-.2.1zM215.5 244.9c-.1 0-.1-.1-.1-.1v-.3h.3v.3s-.1.1-.2.1zM215.4 243.5h.7v1h-.7z"/><path fill="#fff" d="M215.4 244.1h.7v.4h-.7z"/><circle fill="#EDE0B7" cx="215.7" cy="243.2" r=".6"/><path fill="#B2A58E" d="M215.8 243.3h-.1v-.1zM215.8 243.2zM215.6 243.2z"/><circle fill="#F598AD" cx="215.6" cy="243.4" r=".1"/><circle fill="#F598AD" cx="215.9" cy="243.4" r=".1"/><circle cx="215.7" cy="243.2" r=".6" fill="none"/><defs><circle id="q" cx="215.7" cy="243.2" r=".6"/></defs><clipPath><use xlink:href="#q" overflow="visible"/></clipPath><path fill="#EDE0B7" d="M215.1 243.8h.4v.2h-.4zM216 243.8h.4v.2h-.4z"/><g><circle fill="#F8991D" cx="215.7" cy="243.4" r=".1"/><path fill="#FCB867" d="M215.8 243.4c-.1.1-.1 0 0 0-.1.1-.1.1 0 .1v-.1z"/></g><path fill="#081834" d="M216.5 244.7h-1.5l.6.7-.6.6h.2l.5-.5.6.5h.2l-.7-.6z"/><path fill="#F6E002" d="M216.4 244.7h-1.3v-.1l.1.1v-.1l.1.1.1-.1.1.1.1-.1.1.1v-.1l.1.1.1-.1.1.1.1-.1v.1l.1-.1.1.1.1-.1v.1z"/><path fill="#C0A57D" d="M220 251.3l-1.4-2.2h2.9zM211.2 251.3l-1.4-2.2h2.9zM215.7 251.3l-1.4-2.2h2.9z"/><path fill="#542537" d="M209.4 243.2h3.5v2.9h-3.5zM213 243.2c0 .2 0 .5-.1.7-.1.2-.2.4-.4.6-.2.2-.3.3-.6.4-.2.1-.4.1-.7.1s-.5 0-.7-.1c-.2-.1-.4-.2-.6-.4s-.3-.3-.4-.6c-.1-.2-.1-.4-.1-.7 0-.2 0-.5.1-.7.1-.2.2-.4.4-.6.2-.2.3-.3.6-.4.2-.1.4-.1.7-.1s.5 0 .7.1c.2.1.4.2.6.4.2.2.3.3.4.6 0 .2.1.4.1.7z"/><g fill="#EDE0B7"><path d="M210.5 243.2h.1v.1h-.1zM210.5 243.3h.2v.1h-.2zM210.5 243.4h.2v.1h-.2zM210.5 243.5h.2v.1h-.2zM210.5 243.4h.3v.1h-.3z"/></g><linearGradient id="r" gradientUnits="userSpaceOnUse" x1="210.453" y1="243.403" x2="209.673" y2="243.403"><stop offset="0" stop-color="#C12A43"/><stop offset="1" stop-color="#542537"/></linearGradient><path fill="url(#r)" d="M209.7 243.2h.8v.3h-.8z"/><g fill="#EDE0B7"><path d="M211.9 243.2h.1v.1h-.1zM211.7 243.3h.2v.1h-.2zM211.7 243.4h.2v.1h-.2zM211.8 243.5h.2v.1h-.2zM211.7 243.4h.3v.1h-.3z"/></g><linearGradient id="s" gradientUnits="userSpaceOnUse" x1="211.979" y1="243.403" x2="212.759" y2="243.403"><stop offset="0" stop-color="#C12A43"/><stop offset="1" stop-color="#542537"/></linearGradient><path fill="url(#s)" d="M212 243.2h.8v.3h-.8z"/><circle fill="#EDE0B7" cx="211.2" cy="241.4" r="1.3"/><path fill="#B2A58E" d="M211.3 241.7h-.2l.1-.3z"/><circle fill="#F1627A" cx="211.2" cy="241.8" r=".1"/><path fill="#fff" d="M211.2 241.7c.1.1.1 0 0 0z"/><g fill="#F598AD"><circle cx="210.9" cy="241.8" r=".1"/><circle cx="211.6" cy="241.8" r=".1"/></g><g fill="#B2A58E"><path d="M211.4 241.6c.1-.1.1-.1.1 0 0-.1 0-.1-.1 0zM210.9 241.6c0-.1.1-.1 0 0 .1-.1.1-.1.1 0 0-.1 0-.1-.1 0z"/></g><path fill="#B2A58E" d="M211.2 242.1c-.6 0-1.1-.4-1.3-1v.3c0 .7.6 1.3 1.3 1.3s1.3-.6 1.3-1.3v-.3c-.2.6-.7 1-1.3 1z"/><circle cx="211.2" cy="241.2" r="1.1" fill="none"/><defs><circle id="t" cx="211.2" cy="241.4" r="1.3"/></defs><clipPath id="u"><use xlink:href="#t" overflow="visible"/></clipPath><path clip-path="url(#u)" fill="#B2A58E" d="M211.7 240.6l-1.8.3v-.9h1.8zM212.6 240.9l-.9-.3v-.6h.9z"/><path fill="#3CA2A2" d="M218.3 243.2h3.5v2.9h-3.5zM221.8 243.2c0 .2 0 .5-.1.7-.1.2-.2.4-.4.6s-.3.3-.6.4c-.2.1-.4.1-.7.1-.2 0-.5 0-.7-.1-.2-.1-.4-.2-.6-.4-.2-.2-.3-.3-.4-.6-.1-.2-.1-.4-.1-.7 0-.2 0-.5.1-.7.1-.2.2-.4.4-.6.2-.2.3-.3.6-.4.2-.1.4-.1.7-.1.2 0 .5 0 .7.1.2.1.4.2.6.4.2.2.3.3.4.6.1.2.1.4.1.7z"/><g fill="#EDE0B7"><path d="M219.3 243.2h.1v.1h-.1zM219.3 243.3h.2v.1h-.2zM219.3 243.4h.2v.1h-.2zM219.3 243.5h.2v.1h-.2zM219.3 243.4h.3v.1h-.3z"/></g><linearGradient id="v" gradientUnits="userSpaceOnUse" x1="218.495" y1="243.403" x2="219.275" y2="243.403"><stop offset="0" stop-color="#3CA2A2"/><stop offset="1" stop-color="#6BC6B5"/></linearGradient><path fill="url(#v)" d="M218.5 243.2h.8v.3h-.8z"/><g fill="#EDE0B7"><path d="M220.7 243.2h.1v.1h-.1zM220.6 243.3h.2v.1h-.2zM220.6 243.4h.2v.1h-.2zM220.6 243.5h.2v.1h-.2zM220.5 243.4h.3v.1h-.3z"/></g><linearGradient id="w" gradientUnits="userSpaceOnUse" x1="221.581" y1="243.403" x2="220.801" y2="243.403"><stop offset="0" stop-color="#3CA2A2"/><stop offset="1" stop-color="#6BC6B5"/></linearGradient><path fill="url(#w)" d="M220.8 243.2h.8v.3h-.8z"/><circle fill="#fff" cx="220" cy="241.4" r="1.3"/><circle fill="#EDE0B7" cx="220" cy="241.7" r=".9"/><path fill="#B2A58E" d="M220.1 241.7h-.2l.1-.3z"/><circle fill="#F1627A" cx="220" cy="241.8" r=".1"/><path fill="#fff" d="M220 241.7c.1.1.1 0 0 0z"/><g fill="#F598AD"><circle cx="219.7" cy="241.8" r=".1"/><circle cx="220.4" cy="241.8" r=".1"/></g><g fill="#B2A58E"><path d="M220.2 241.6c.1-.1.1-.1.1 0 0-.1 0-.1-.1 0 .1-.1 0-.1 0 0zM219.7 241.6c0-.1.1-.1 0 0 .1-.1.1-.1.1 0 0-.1 0-.1-.1 0z"/></g><path fill="#E88024" d="M218.6 248h2.9v.2h-2.9z"/><path fill="#490A3D" d="M221.4 247.3l-.1-.3s0-.1-.1-.1h-2.4s-.1 0-.1.1v.2s0 .1-.1.1h-.2s-.1 0-.1.1v.6s0 .1.1.1h2.9s.1 0 .1-.1v-.6c.1-.1.1-.1 0-.1zM221.6 248.8c0 .2-.2.4-.4.4h-2.3c-.2 0-.4-.2-.4-.4v-.4c0-.2.2-.4.4-.4h2.3c.2 0 .4.2.4.4v.4z"/><path fill="#E5AD28" d="M220 248.2c-.1 0-.1-.1-.1-.1 0-.1.1-.1.1-.1.1 0 .1.1.1.1.1 0 0 .1-.1.1z"/><circle fill="#081834" cx="220" cy="248" r=".1"/><path fill="#899C3B" d="M220 247.4l.1.1h.1l-.1.1v.1h-.2v-.2h.1z"/><path fill="#E88024" d="M214.3 248h2.9v.2h-2.9z"/><path fill="#490A3D" d="M217.1 247.3l-.1-.3s0-.1-.1-.1h-2.4s-.1 0-.1.1v.2s0 .1-.1.1h-.2s-.1 0-.1.1v.6s0 .1.1.1h2.9s.1 0 .1-.1v-.6c.1-.1.1-.1 0-.1zM217.3 248.8c0 .2-.2.4-.4.4h-2.3c-.2 0-.4-.2-.4-.4v-.4c0-.2.2-.4.4-.4h2.3c.2 0 .4.2.4.4v.4z"/><path fill="#E5AD28" d="M215.7 248.2c-.1 0-.1-.1-.1-.1 0-.1.1-.1.1-.1.1 0 .1.1.1.1.1 0 0 .1-.1.1z"/><circle fill="#081834" cx="215.7" cy="248" r=".1"/><path fill="#899C3B" d="M215.7 247.6c-.1-.1-.1-.1 0-.2h-.1c-.1.1-.1.2.1.2 0 .2.1.2.2.1v-.1c-.1.1-.1 0-.2 0z"/><path fill="#E88024" d="M209.8 248h2.9v.2h-2.9z"/><path fill="#490A3D" d="M212.6 247.3l-.1-.3s0-.1-.1-.1h-2.4s-.1 0-.1.1v.2s0 .1-.1.1h-.2s-.1 0-.1.1v.6s0 .1.1.1h2.9s.1 0 .1-.1v-.6c.1-.1.1-.1 0-.1zM212.8 248.8c0 .2-.2.4-.4.4h-2.3c-.2 0-.4-.2-.4-.4v-.4c0-.2.2-.4.4-.4h2.3c.2 0 .4.2.4.4v.4z"/><path fill="#E5AD28" d="M211.2 248.2c-.1 0-.1-.1-.1-.1 0-.1.1-.1.1-.1.1 0 .1.1.1.1s0 .1-.1.1z"/><circle fill="#081834" cx="211.2" cy="248" r=".1"/><path fill="#899C3B" d="M211 247.7l.2-.3.2.3z"/><path fill="#906A3C" d="M210.1 249.7h2.2l.4-.6h-2.9zM214.6 249.7h2.2l.4-.6h-2.9zM218.9 249.7h2.2l.4-.6h-2.9z"/><path fill="#fff" d="M231 223.3c-1 0-1.8.8-1.8 1.8 0 .1.1.2.2.2s.2-.1.2-.2c0 .1.1.2.2.2s.2-.1.2-.2c0 .1.1.2.2.2s.2-.1.2-.2c0 .1.1.2.2.2s.2-.1.2-.2c0 .1.1.2.2.2s.2-.1.2-.2c0 .1.1.2.2.2s.2-.1.2-.2c0 .1.1.2.2.2s.2-.1.2-.2c0 .1.1.2.2.2s.2-.1.2-.2c.3-1-.4-1.8-1.4-1.8z"/><path fill="#B2A58E" d="M231.1 223.8h-.2l.1-.2z"/><circle fill="#F598AD" cx="231" cy="224" r=".1"/><path fill="#E4F4F4" d="M231 223.9z"/><circle fill="#F598AD" cx="230.6" cy="224" r=".1"/><circle fill="#F598AD" cx="231.4" cy="224" r=".1"/><path fill="#F6E002" d="M231.2 223v-.1l-.1.1-.1-.3-.2.3v-.1l-.1.1h-.1v.2h.7v-.2zM230.8 225.5l-.5.7h.5l-.3.7 1.2-.8h-.7l.5-.5h-.7z"/><g fill="#B2A58E"><path d="M231.2 223.7c.1-.1.1-.1.1 0-.1-.1-.1-.1-.1 0 0-.1-.1-.1 0 0zM230.7 223.7c.1-.1.1-.1.1 0 0-.1 0-.1-.1 0z"/></g><path fill="#fff" d="M232.5 227c-.1 0-.2.1-.2.2 0-.1-.1-.2-.2-.2s-.2.1-.2.2c0-.1-.1-.2-.2-.2s-.2.1-.2.2c0-.1-.1-.2-.2-.2s-.2.1-.2.2c0-.1-.1-.2-.2-.2s-.2.1-.2.2c0-.1-.1-.2-.2-.2s-.2.1-.2.2c0-.1-.1-.2-.2-.2s-.2.1-.2.2c0-.1-.1-.2-.2-.2s-.2.1-.2.2c0 1 .8 1.8 1.8 1.8s1.8-.8 1.8-1.8c-.4-.1-.5-.2-.6-.2z"/><path fill="#B5D561" d="M259.6 227.5l-9.5 29.1h19.1z"/><path fill="#80C346" d="M259.6 227.7v-.2l-9.5 29.1h9.5z"/><path fill="#C58D4D" d="M258.1 256.6h2.7v2.8h-2.7z"/><path fill="#9A6C3D" d="M260.2 256.6h.6v2.8h-.6z"/><path fill="#fff" d="M264.1 261.4c-.4-1.7-2.4-2.9-4.8-2.9s-4.4 1.3-4.8 2.9h9.6zM259.6 242.5v-.2c0-1-.8-1.8-1.8-1.8-.6 0-1.2.3-1.5.8-.3-.1-.5-.2-.9-.2-1.2 0-2.1.9-2.1 2.1 0 1.2.9 2.1 2.1 2.1.3 0 .6-.1.9-.2.2.4.6.6 1.1.6.6 0 1.2-.4 1.3-1h.2c.6 0 1.2-.5 1.2-1.2.1-.5-.1-.8-.5-1zM267 247.6h-.2c-.2-.3-.6-.5-1.1-.5-.3 0-.6.1-.9.2-.3-.1-.6-.2-.9-.2-.9 0-1.6.5-1.6 1.2s.7 1.2 1.6 1.2c.3 0 .6-.1.8-.2.2.1.6.2 1 .2.7 0 1.2-.2 1.3-.5.7 0 1.3-.3 1.3-.7s-.6-.7-1.3-.7zM253.3 253c-.1 0-.2 0-.3.1-.3-.3-.7-.5-1.2-.5-.9 0-1.6.6-1.6 1.3 0 .7.7 1.3 1.6 1.3.5 0 .9-.2 1.2-.5l.3.1c.5 0 .9-.4.9-.9s-.4-.9-.9-.9zM259.9 234.2c.1 0 .2 0 .2-.1.2.2.6.4 1 .4.8 0 1.4-.5 1.4-1.1 0-.6-.6-1.1-1.4-1.1-.4 0-.8.2-1 .4l-.3-.1c-.4 0-.7.3-.7.8s.4.8.8.8zM114.3 278c-.6-.6-1.7-1-3-1s-2.4.4-3 1h6zM108.1 276.6c-.5-1.5-2.9-2.7-5.8-2.7s-5.3 1.2-5.8 2.7h11.6z"/><circle fill="#fff" cx="107.1" cy="265.1" r="10.9"/><circle fill="#fff" cx="107.1" cy="254.2" r="7.2"/><path fill="#F8991D" d="M107.6 255.7h-1l.5-1.5z"/><circle fill="#319ABC" cx="107.1" cy="256.4" r=".5"/><path fill="#E4F4F4" d="M107.1 255.9c-.3 0-.5.2-.5.5h1c0-.2-.2-.5-.5-.5z"/><g fill="#319ABC"><path d="M108.1 255v-.1s0-.1.1-.1l.1-.1h.2s.1 0 .1.1l.1.1v.30000000000000004h.1v-.4l-.1-.2s-.1-.1-.2-.1h-.4l-.2.1s-.1.1-.1.2v.4h.1v-.2zM105.5 255v-.1s0-.1.1-.1l.1-.1h.2s.1 0 .1.1l.1.1v.30000000000000004h.1v-.4l-.1-.2s-.1-.1-.2-.1h-.4l-.2.1s-.1.1-.1.2v.4h.1v-.2z"/></g><g fill="#151515"><circle cx="107.1" cy="267.5" r=".2"/><circle cx="107.1" cy="269.9" r=".2"/><circle cx="107.1" cy="265.1" r=".2"/></g><g fill="#F598AD"><circle cx="105.1" cy="256.4" r=".7"/><circle cx="109.1" cy="256.4" r=".7"/></g><g fill="#EDE0B7"><path d="M101.7 264.3h.7v.3h-.7zM101.7 264.6h1.4v.3h-1.4zM101.7 265.3h1.4v.3h-1.4zM101.7 265.6h1v.3h-1zM101.7 264.9h1.7v.3h-1.7z"/></g><linearGradient id="x" gradientUnits="userSpaceOnUse" x1="97.463" y1="265.109" x2="101.731" y2="265.109"><stop offset="0" stop-color="#fff"/><stop offset="1" stop-color="#E4F4F4"/></linearGradient><path fill="url(#x)" d="M97.5 264.3h4.3v1.7h-4.3z"/><g fill="#EDE0B7"><path d="M111.8 264.3h.7v.3h-.7zM111.1 264.6h1.4v.3h-1.4zM111.1 265.3h1.4v.3h-1.4zM111.5 265.6h1v.3h-1zM110.8 264.9h1.7v.3h-1.7z"/></g><linearGradient id="y" gradientUnits="userSpaceOnUse" x1="116.768" y1="265.109" x2="112.5" y2="265.109"><stop offset="0" stop-color="#fff"/><stop offset="1" stop-color="#E4F4F4"/></linearGradient><path fill="url(#y)" d="M112.5 264.3h4.3v1.7h-4.3z"/><defs><path id="A" d="M109.3 248.5l8.8-3.2-4.4 7.7z"/></defs><defs><path id="z" d="M109.3 248.5l8.8-3.2-4.4 7.7z"/></defs><use xlink:href="#z" overflow="visible" fill="#E21F26"/><clipPath id="B"><use xlink:href="#A" overflow="visible"/></clipPath><clipPath id="C" clip-path="url(#B)"><use xlink:href="#z" overflow="visible"/></clipPath><g clip-path="url(#C)" stroke="#EDE0B7" stroke-width="2.573" stroke-linecap="round" stroke-linejoin="round" stroke-miterlimit="10" fill="none"><path d="M109.4 252.4l.4-.6M110 252.4l.5-.6M110.7 252.4l.4-.6M111.3 252.4l.5-.6M112 252.4l.4-.6M112.6 252.4l.5-.6M113.3 252.4l.4-.6M113.9 252.4l.5-.6M114.6 252.4l.4-.6M115.2 252.4l.4-.6M115.8 252.4l.5-.6M116.5 252.4l.4-.6M117.1 252.4l.5-.6M117.8 252.4l.4-.6M118.4 252.4l.5-.6M109.4 251.4l.4-.7M110 251.4l.5-.7M110.7 251.4l.4-.7M111.3 251.4l.5-.7M112 251.4l.4-.7M112.6 251.4l.5-.7M113.3 251.4l.4-.7M113.9 251.4l.5-.7M114.6 251.4l.4-.7M115.2 251.4l.4-.7M115.8 251.4l.5-.7M116.5 251.4l.4-.7M117.1 251.4l.5-.7M117.8 251.4l.4-.7M118.4 251.4l.5-.7M109.4 250.4l.4-.6M110 250.4l.5-.6M110.7 250.4l.4-.6M111.3 250.4l.5-.6M112 250.4l.4-.6M112.6 250.4l.5-.6M113.3 250.4l.4-.6M113.9 250.4l.5-.6M114.6 250.4l.4-.6M115.2 250.4l.4-.6M115.8 250.4l.5-.6M116.5 250.4l.4-.6M117.1 250.4l.5-.6M117.8 250.4l.4-.6M118.4 250.4l.5-.6M109.4 249.3l.4-.6M110 249.3l.5-.6M110.7 249.3l.4-.6M111.3 249.3l.5-.6M112 249.3l.4-.6M112.6 249.3l.5-.6M113.3 249.3l.4-.6M113.9 249.3l.5-.6M114.6 249.3l.4-.6M115.2 249.3l.4-.6M115.8 249.3l.5-.6M116.5 249.3l.4-.6M117.1 249.3l.5-.6M117.8 249.3l.4-.6M118.4 249.3l.5-.6M109.4 248.4l.4-.6M110 248.4l.5-.6M110.7 248.4l.4-.6M111.3 248.4l.5-.6M112 248.4l.4-.6M112.6 248.4l.5-.6M113.3 248.4l.4-.6M113.9 248.4l.5-.6M114.6 248.4l.4-.6M115.2 248.4l.4-.6M115.8 248.4l.5-.6M116.5 248.4l.4-.6M117.1 248.4l.5-.6M117.8 248.4l.4-.6M118.4 248.4l.5-.6M109.4 247.4l.4-.6M110 247.4l.5-.6M110.7 247.4l.4-.6M111.3 247.4l.5-.6M112 247.4l.4-.6M112.6 247.4l.5-.6M113.3 247.4l.4-.6M113.9 247.4l.5-.6M114.6 247.4l.4-.6M115.2 247.4l.4-.6M115.8 247.4l.5-.6M116.5 247.4l.4-.6M117.1 247.4l.5-.6M117.8 247.4l.4-.6M118.4 247.4l.5-.6M109.4 246.3l.4-.6M110 246.3l.5-.6M110.7 246.3l.4-.6M111.3 246.3l.5-.6M112 246.3l.4-.6M112.6 246.3l.5-.6M113.3 246.3l.4-.6M113.9 246.3l.5-.6M114.6 246.3l.4-.6M115.2 246.3l.4-.6M115.8 246.3l.5-.6M116.5 246.3l.4-.6M117.1 246.3l.5-.6M117.8 246.3l.4-.6M118.4 246.3l.5-.6"/></g><g stroke="#7F3F98" stroke-width="2" stroke-linecap="round" stroke-linejoin="round" stroke-miterlimit="10" fill="none"><path d="M117.9 244.7v1.7M117.1 245.6h1.6M117.3 246.1l1.2-1.1M117.3 245l1.2 1.1"/></g></g><g clip-path="url(#b)" fill="none"><path stroke="#E4F4F4" stroke-width="1.136" stroke-linecap="round" stroke-linejoin="round" stroke-miterlimit="10" d="M273.7 280.3c-3 0-5.4 2.4-5.4 5.4 0 3 2.4 5.4 5.4 5.4h63.8"/><path d="M273.7 285.3c1.4 0 2.5-1.1 2.5-2.5s-1.1-2.5-2.5-2.5M273.7 282.8c-.7 0-1.2.6-1.2 1.2 0 .7.6 1.2 1.2 1.2"/><g stroke="#E4F4F4" stroke-width="1.136" stroke-linecap="round" stroke-linejoin="round" stroke-miterlimit="10"><path d="M264.6 272v5M267.1 274.5h-4.9M263.8 271.1l.8.8.9-.8M265.5 277.7l-.8-.8-.9.9M268 273.6l-.9.8.9.9M261.3 275.3l.8-.9-.8-.8M266.4 272.7l-3.4 3.5M266.4 271.5v1.1h1.2M262.9 277.4v-1.2h-1.2M266.3 276.2l-3.5-3.5M267.6 276.2h-1.2v1.2M261.7 272.7h1.2v-1.3"/></g><path stroke="#E4F4F4" stroke-width="1.136" stroke-linecap="round" stroke-linejoin="round" stroke-miterlimit="10" d="M264.6 269c-6.5 0-11.8 5.3-11.8 11.8 0 6.5 5.3 11.8 11.8 12.8h69.2M264.6 279.8c3 0 5.4-2.4 5.4-5.4 0-3-2.4-5.4-5.4-5.4"/><path d="M264.6 274.4c-1.5 0-2.7 1.2-2.7 2.7 0 1.5 1.2 2.7 2.7 2.7"/><g stroke="#E4F4F4" stroke-width=".656" stroke-linecap="round" stroke-linejoin="round" stroke-miterlimit="10"><path d="M273.1 281.9v2.8M274.5 283.3h-2.8M272.6 281.3l.5.5.5-.5M273.6 285.2l-.5-.5-.5.5M275 282.8l-.4.5.5.4M271.2 283.7l.5-.4-.5-.5M274.2 282.3l-2.1 2M274.1 281.6v.6h.7M272.1 285v-.7h-.7M274.1 284.3l-2-2M274.8 284.3h-.7v.7M271.4 282.2h.7v-.7"/></g></g></svg>