<svg xmlns="http://www.w3.org/2000/svg" xmlns:xlink="http://www.w3.org/1999/xlink" viewBox="0 0 349.1 318.8" enable-background="new 0 0 349.1 318.8"><symbol id="c" viewBox="-3.8 -6.9 7.7 13.8"><path fill="#fff" d="M.4 6.9h-.7c-1.9 0-3.5-1.8-3.5-4.1v-9.8h7.7v9.8c-.1 2.3-1.6 4.1-3.5 4.1z"/><path fill="#F5D76B" d="M.5 5.9v-8.1h2.3v5.1c0 1.6-1 2.9-2.3 3zM-2.8-3.2v-2.7h2.3v2.7zM.5-3.2v-2.7h2.3v2.7zM-2.8-2.2h2.3v8.1c-1.3-.1-2.3-1.4-2.3-3v-5.1z"/></symbol><symbol id="d" viewBox="-3.5 -7 7.1 13.9"><path fill="#F5D76B" d="M2.4 5.7h-5v-11.7h5z"/><path fill="#fff" d="M0 7c-1.9 0-3.5-1.8-3.5-4.1v-9.9h7.1v9.8c-.1 2.3-1.7 4.2-3.6 4.2zm.6-10h1.7v-2.8h-1.7v2.8zm-1.2 8.7v-7.4h-1.7v4.6c0 1.3.7 2.4 1.7 2.8zm-1.7-8.7h1.7v-2.8h-1.7v2.8zm2.9 1.2v7.4c1-.3 1.7-1.5 1.7-2.8v-4.6h-1.7zm-.6 8.2zm2.9-8.8z"/><path fill="none" d="M0 6.4M2.9-2.4"/></symbol><symbol id="e" viewBox="-5.2 -5.6 10.4 11.3"><path fill="#fff" d="M-5.2 5.6v-11.2h10.4v11.2z"/><path fill="#F5D76B" d="M.3.4h4v4.3h-4zM-.6-.4h-3.7v-4.3h3.7zM.3-.4v-4.3h4v4.3zM-.6 4.7h-3.7v-4.3h3.7z"/></symbol><defs><circle id="a" cx="174.5" cy="174.5" r="174.5"/></defs><clipPath id="b"><use xlink:href="#a" overflow="visible"/></clipPath><g clip-path="url(#b)"><path fill="#EEF7F8" d="M341.1 223.3c8.3-20.7 8-23.2 8-46.9 0-19.2-2.1-37.6-7.7-55h-.1c-10.3 0-16.9 2.6-25.3 7.3-5-10.5-15.7-17.8-28.1-17.8-13.1 0-24.2 8.1-28.8 19.5-7.6-3.5-16.1-5.5-25-5.5-25.8 0-47.7 16.5-55.9 39.5-4.5-5.2-11-8.5-18.4-8.5-8.1 0-15.2 3.9-19.6 10-8.5-9.3-20.6-15.1-34.2-15.1-6.2 0-12.2 1.2-17.6 3.5-.8-8.5-8-15.2-16.7-15.2-4.2 0-7.9 1.5-10.9 4-10.7-18.1-26.4-30.3-48.9-30.3h-1.1c-7.5 19.8-10.8 41.2-10.8 63.6 0 20.7.7 29.6 7.2 48"/><path fill="none" d="M12 94.2h338.9v120.9h-338.9zM7.7 132.9h342.8v82.3h-342.8z"/><path opacity=".6" fill="#6AC5B4" d="M37.5 209.4l-13.7-57-16.1 62.7h28.3zM113 205.6l-7.8-32.4-10.8 41.9h16.1zM125.1 215.1l3.2-12.6-7-29.3-8.3 32.4 2.3 9.5zM115.3 215.1l-2.3-9.5-2.5 9.5zM115.3 215.1l-2.3-9.5-2.5 9.5z"/><path opacity=".6" fill="#38A893" d="M137.5 215.1l-6-25.1-3.2 12.5 3 12.6z"/><path opacity=".6" fill="#6AC5B4" d="M131.3 215.1l-3-12.6-3.2 12.6z"/><path opacity=".6" fill="#38A893" d="M131.3 215.1l-3-12.6-3.2 12.6z"/><path opacity=".6" fill="#6AC5B4" d="M53.4 215.1l-8.4-35-7.5 29.3 1.3 5.7zM38.8 215.1l-1.3-5.7-1.5 5.7zM38.8 215.1l-1.3-5.7-1.5 5.7z"/><path fill="#33A7A5" d="M341.9 215.1h-28.9l4 16.7h-18l4.3-16.8h-302.6000000000001c10.4 42.6 35.9 79.2 70.6 103.8h207.3c34.7-24.6 60.2-61.2 70.6-103.8h-7.3z"/><path opacity=".6" fill="#6AC5B4" d="M341.9 215.1l-15.1-62.7-14.9 58.3 1 4.4z"/><path fill="#33A7A5" d="M312.9 215.2h29v-.1h-29z"/><path opacity=".6" fill="#6AC5B4" d="M312.9 215.2h29v-.1h-29zM219.5 152.4l-16.1 62.7h31.1z"/><path fill="#33A7A5" d="M234.5 215.2v-.1h-31.1v.1z"/><path opacity=".6" fill="#6AC5B4" d="M234.5 215.2v-.1h-31.1v.1zM311.9 210.7l-3.6-15-5 19.4h7.4z"/><path fill="#33A7A5" d="M316.9 231.9l-4-16.7h-2.2v-.1h-7.4l-4.3 16.8z"/><path opacity=".6" fill="#6AC5B4" d="M316.9 231.9l-4-16.7h-2.2v-.1h-7.4l-4.3 16.8zM312.9 215.1l-1-4.4-1.2 4.4zM312.9 215.1l-1-4.4-1.2 4.4z"/><path fill="#33A7A5" d="M310.7 215.1v.1h2.2v-.1z"/><path opacity=".6" fill="#6AC5B4" d="M310.7 215.1v.1h2.2v-.1zM310.7 215.1v.1h2.2v-.1z"/><g><g><path fill="#E12145" d="M164 175h-10.2v3.3h10.2z"/><path fill="#F0617A" d="M155.6 178.3v12.7h6.7v-12.7z"/></g><path fill="#fff" d="M198.7 204.2c-.9 0-1.8-.4-2.5-1.1l-21.6-21.8-21.9 21.8c-1.4 1.4-3.7 1.4-5.1 0-1.4-1.4-1.4-3.7 0-5.1l24.4-24.3c.7-.7 1.6-1 2.5-1 .9 0 1.9.4 2.5 1.1l24.1 24.3c1.4 1.4 1.4 3.7 0 5.1-.5.6-1.4 1-2.4 1z"/><path fill="#fff" d="M166.7 166.9h-3.7v-2.6h3c.5 0 .9-.4.9-.9s-.4-.9-.9-.9h-12.4c-.5 0-.9.4-.9.9s.4.9.9.9h7.6v2.6h-5.7c-.5 0-.9.4-.9.9s.4.9.9.9h2.6v1.9h-3.3c-.5 0-.9.4-.9.9s.4.9.9.9h3.8c.1.1.3.1.4.1s.3 0 .4-.1h3.8c.5 0 .9-.4.9-.9s-.4-.9-.9-.9h-3.3v-1.9h6.8c.5 0 .9-.4.9-.9s-.4-.9-.9-.9z"/><path fill="#443639" d="M174.7 176.3l-24.4 24.3-.1.1h.1v42.300000000000004h48.5v-42.4l-24.1-24.3z"/><path fill="#DE4126" d="M151.5 221.6h46v20h-46z"/><path fill="#ECE5CE" d="M176.7 233.7l.4.4 1.5-1.5v5.4h.4v-5.8l1.4-1.4v5.5h.4v-5.9l1.4-1.4v5.4h.4v-5.8l1.4-1.4v5.5h.4v-5.9l1.4-1.4v5.4h.4v-5.8l1.4-1.4v5.4h.4v-6l1.1-1.1h-.7l-11.7 11.8zm14.6-11.8v5.3h.4v-5.3h-.4zm-1.8 4.9h.4v-5h-.4v5z"/><path fill="#F1D4AF" d="M177.6 231.9c.1-.1.2-.2.2-.4 0-.3-.2-.5-.5-.5s-.5.2-.5.5c0 .1.1.3.2.4-.1 0-.1.1-.1.2v8.4h1v-8.4c-.2-.1-.3-.1-.3-.2z"/><path fill="#282022" d="M193.2 222.8v1.9h-1.9v1.8h-1.8v1.8h-1.8v1.8h-1.8v1.8h-1.9v1.9h-1.8v1.8h-1.8v1.8h-1.8v1.8h-1.9v1.8h20.1v-18.2z"/><path fill="#215A6D" d="M151.5 201.6h46v20h-46z"/><g><path opacity=".2" d="M198.8 200.6h-48.6l24.5-24.3zM196.8 200.6h-44.6l22.5-22.3zM194.8 200.6h-40.6l20.5-20.3zM192.8 200.6h-36.6l18.5-18.3zM190.8 200.6h-32.6l16.5-16.3zM188.8 200.6h-28.6l14.5-14.3zM186.8 200.6h-24.6l12.5-12.3z"/><path opacity=".1" d="M194.8 200.6h-40.6"/></g><g><path fill="#282022" d="M150.2 200.6h48.6v2h-48.6z"/><path opacity=".2" d="M197 201.1h1v1h-1zM195 201.1h1v1h-1zM193 201.1h1v1h-1zM191 201.1h1v1h-1zM189 201.1h1v1h-1zM187 201.1h1v1h-1zM185 201.1h1v1h-1zM183 201.1h1v1h-1zM181 201.1h1v1h-1zM179 201.1h1v1h-1zM177 201.1h1v1h-1zM175 201.1h1v1h-1zM173 201.1h1v1h-1zM171 201.1h1v1h-1zM169 201.1h1v1h-1zM167 201.1h1v1h-1zM165 201.1h1v1h-1zM163 201.1h1v1h-1zM161 201.1h1v1h-1zM159 201.1h1v1h-1zM157 201.1h1v1h-1zM155 201.1h1v1h-1zM153 201.1h1v1h-1zM151 201.1h1v1h-1z"/></g><g><path fill="#282022" d="M150.2 220.8h48.6v2h-48.6z"/><path opacity=".2" d="M197 221.3h1v1h-1zM195 221.3h1v1h-1zM193 221.3h1v1h-1zM191 221.3h1v1h-1zM189 221.3h1v1h-1zM187 221.3h1v1h-1zM185 221.3h1v1h-1zM183 221.3h1v1h-1zM181 221.3h1v1h-1zM179 221.3h1v1h-1zM177 221.3h1v1h-1zM175 221.3h1v1h-1zM173 221.3h1v1h-1zM171 221.3h1v1h-1zM169 221.3h1v1h-1zM167 221.3h1v1h-1zM165 221.3h1v1h-1zM163 221.3h1v1h-1zM161 221.3h1v1h-1zM159 221.3h1v1h-1zM157 221.3h1v1h-1zM155 221.3h1v1h-1zM153 221.3h1v1h-1zM151 221.3h1v1h-1z"/></g><g><path fill="#282022" d="M150.2 241h48.6v2h-48.6z"/><path opacity=".2" d="M197 241.5h1v1h-1zM195 241.5h1v1h-1zM193 241.5h1v1h-1zM191 241.5h1v1h-1zM189 241.5h1v1h-1zM187 241.5h1v1h-1zM185 241.5h1v1h-1zM183 241.5h1v1h-1zM181 241.5h1v1h-1zM179 241.5h1v1h-1zM177 241.5h1v1h-1zM175 241.5h1v1h-1zM173 241.5h1v1h-1zM171 241.5h1v1h-1zM169 241.5h1v1h-1zM167 241.5h1v1h-1zM165 241.5h1v1h-1zM163 241.5h1v1h-1zM161 241.5h1v1h-1zM159 241.5h1v1h-1zM157 241.5h1v1h-1zM155 241.5h1v1h-1zM153 241.5h1v1h-1zM151 241.5h1v1h-1z"/></g><g><path fill="#C5BC8E" d="M150.2 202.6h2v40.4h-2z"/><path fill="#696758" d="M150.2 202.9h2v.8h-2z"/><path fill="#45484B" d="M150.2 203.9h.7v.8h-.7z"/><path fill="#36393B" d="M151.1 203.9h1.1v.8h-1.1z"/><path fill="#696758" d="M150.2 204.9h2v.8h-2z"/><path fill="#45484B" d="M151.5 205.9h.7v.8h-.7z"/><path fill="#36393B" d="M150.2 205.9h1.1v.8h-1.1z"/><path fill="#696758" d="M150.2 206.9h2v.8h-2z"/><path fill="#45484B" d="M150.2 207.9h.7v.8h-.7z"/><path fill="#36393B" d="M151.1 207.9h1.1v.8h-1.1z"/><path fill="#696758" d="M150.2 208.9h2v.8h-2z"/><path fill="#45484B" d="M151.5 209.9h.7v.8h-.7z"/><path fill="#36393B" d="M150.2 209.9h1.1v.8h-1.1z"/><path fill="#696758" d="M150.2 210.9h2v.8h-2z"/><path fill="#45484B" d="M150.2 211.9h.7v.8h-.7z"/><path fill="#36393B" d="M151.1 211.9h1.1v.8h-1.1z"/><path fill="#696758" d="M150.2 212.9h2v.8h-2z"/><path fill="#45484B" d="M151.5 213.9h.7v.8h-.7z"/><path fill="#36393B" d="M150.2 213.9h1.1v.8h-1.1z"/><path fill="#696758" d="M150.2 214.9h2v.8h-2z"/><path fill="#45484B" d="M150.2 215.9h.7v.8h-.7z"/><path fill="#36393B" d="M151.1 215.9h1.1v.8h-1.1z"/><path fill="#696758" d="M150.2 216.9h2v.8h-2z"/><path fill="#45484B" d="M151.5 217.9h.7v.8h-.7z"/><path fill="#36393B" d="M150.2 217.9h1.1v.8h-1.1z"/><path fill="#696758" d="M150.2 218.9h2v.8h-2z"/><path fill="#45484B" d="M150.2 219.9h.7v.8h-.7z"/><path fill="#36393B" d="M151.1 219.9h1.1v.8h-1.1z"/><path fill="#696758" d="M150.2 220.9h2v.8h-2z"/><path fill="#45484B" d="M151.5 221.9h.7v.8h-.7z"/><path fill="#36393B" d="M150.2 221.9h1.1v.8h-1.1z"/><path fill="#696758" d="M150.2 222.9h2v.8h-2z"/><path fill="#45484B" d="M150.2 223.9h.7v.8h-.7z"/><path fill="#36393B" d="M151.1 223.9h1.1v.8h-1.1z"/><path fill="#696758" d="M150.2 224.9h2v.8h-2z"/><path fill="#45484B" d="M151.5 225.9h.7v.8h-.7z"/><path fill="#36393B" d="M150.2 225.9h1.1v.8h-1.1z"/><path fill="#696758" d="M150.2 226.9h2v.8h-2z"/><path fill="#45484B" d="M150.2 227.9h.7v.8h-.7z"/><path fill="#36393B" d="M151.1 227.9h1.1v.8h-1.1z"/><path fill="#696758" d="M150.2 228.9h2v.8h-2z"/><path fill="#45484B" d="M151.5 229.9h.7v.8h-.7z"/><path fill="#36393B" d="M150.2 229.9h1.1v.8h-1.1z"/><path fill="#696758" d="M150.2 230.9h2v.8h-2z"/><path fill="#45484B" d="M150.2 231.9h.7v.8h-.7z"/><path fill="#36393B" d="M151.1 231.9h1.1v.8h-1.1z"/><path fill="#696758" d="M150.2 232.9h2v.8h-2z"/><path fill="#45484B" d="M151.5 233.9h.7v.8h-.7z"/><path fill="#36393B" d="M150.2 233.9h1.1v.8h-1.1z"/><path fill="#696758" d="M150.2 234.9h2v.8h-2z"/><path fill="#45484B" d="M150.2 235.9h.7v.8h-.7z"/><path fill="#36393B" d="M151.1 235.9h1.1v.8h-1.1z"/><path fill="#696758" d="M150.2 236.9h2v.8h-2z"/><path fill="#45484B" d="M151.5 237.9h.7v.8h-.7z"/><path fill="#36393B" d="M150.2 237.9h1.1v.8h-1.1z"/><path fill="#696758" d="M150.2 238.9h2v.8h-2z"/><path fill="#45484B" d="M150.2 239.9h.7v.8h-.7z"/><path fill="#36393B" d="M151.1 239.9h1.1v.8h-1.1z"/><path fill="#696758" d="M150.2 240.9h2v.8h-2z"/><path fill="#45484B" d="M151.5 241.9h.7v.8h-.7z"/><path fill="#36393B" d="M150.2 241.9h1.1v.8h-1.1z"/></g><g><path fill="#C5BC8E" d="M196.8 202.6h2v40.4h-2z"/><path fill="#696758" d="M196.8 202.9h2v.8h-2z"/><path fill="#45484B" d="M196.8 203.9h.7v.8h-.7z"/><path fill="#36393B" d="M197.7 203.9h1.1v.8h-1.1z"/><path fill="#696758" d="M196.8 204.9h2v.8h-2z"/><path fill="#45484B" d="M198.1 205.9h.7v.8h-.7z"/><path fill="#36393B" d="M196.8 205.9h1.1v.8h-1.1z"/><path fill="#696758" d="M196.8 206.9h2v.8h-2z"/><path fill="#45484B" d="M196.8 207.9h.7v.8h-.7z"/><path fill="#36393B" d="M197.7 207.9h1.1v.8h-1.1z"/><path fill="#696758" d="M196.8 208.9h2v.8h-2z"/><path fill="#45484B" d="M198.1 209.9h.7v.8h-.7z"/><path fill="#36393B" d="M196.8 209.9h1.1v.8h-1.1z"/><path fill="#696758" d="M196.8 210.9h2v.8h-2z"/><path fill="#45484B" d="M196.8 211.9h.7v.8h-.7z"/><path fill="#36393B" d="M197.7 211.9h1.1v.8h-1.1z"/><path fill="#696758" d="M196.8 212.9h2v.8h-2z"/><path fill="#45484B" d="M198.1 213.9h.7v.8h-.7z"/><path fill="#36393B" d="M196.8 213.9h1.1v.8h-1.1z"/><path fill="#696758" d="M196.8 214.9h2v.8h-2z"/><path fill="#45484B" d="M196.8 215.9h.7v.8h-.7z"/><path fill="#36393B" d="M197.7 215.9h1.1v.8h-1.1z"/><path fill="#696758" d="M196.8 216.9h2v.8h-2z"/><path fill="#45484B" d="M198.1 217.9h.7v.8h-.7z"/><path fill="#36393B" d="M196.8 217.9h1.1v.8h-1.1z"/><path fill="#696758" d="M196.8 218.9h2v.8h-2z"/><path fill="#45484B" d="M196.8 219.9h.7v.8h-.7z"/><path fill="#36393B" d="M197.7 219.9h1.1v.8h-1.1z"/><path fill="#696758" d="M196.8 220.9h2v.8h-2z"/><path fill="#45484B" d="M198.1 221.9h.7v.8h-.7z"/><path fill="#36393B" d="M196.8 221.9h1.1v.8h-1.1z"/><path fill="#696758" d="M196.8 222.9h2v.8h-2z"/><path fill="#45484B" d="M196.8 223.9h.7v.8h-.7z"/><path fill="#36393B" d="M197.7 223.9h1.1v.8h-1.1z"/><path fill="#696758" d="M196.8 224.9h2v.8h-2z"/><path fill="#45484B" d="M198.1 225.9h.7v.8h-.7z"/><path fill="#36393B" d="M196.8 225.9h1.1v.8h-1.1z"/><path fill="#696758" d="M196.8 226.9h2v.8h-2z"/><path fill="#45484B" d="M196.8 227.9h.7v.8h-.7z"/><path fill="#36393B" d="M197.7 227.9h1.1v.8h-1.1z"/><path fill="#696758" d="M196.8 228.9h2v.8h-2z"/><path fill="#45484B" d="M198.1 229.9h.7v.8h-.7z"/><path fill="#36393B" d="M196.8 229.9h1.1v.8h-1.1z"/><path fill="#696758" d="M196.8 230.9h2v.8h-2z"/><path fill="#45484B" d="M196.8 231.9h.7v.8h-.7z"/><path fill="#36393B" d="M197.7 231.9h1.1v.8h-1.1z"/><path fill="#696758" d="M196.8 232.9h2v.8h-2z"/><path fill="#45484B" d="M198.1 233.9h.7v.8h-.7z"/><path fill="#36393B" d="M196.8 233.9h1.1v.8h-1.1z"/><path fill="#696758" d="M196.8 234.9h2v.8h-2z"/><path fill="#45484B" d="M196.8 235.9h.7v.8h-.7z"/><path fill="#36393B" d="M197.7 235.9h1.1v.8h-1.1z"/><path fill="#696758" d="M196.8 236.9h2v.8h-2z"/><path fill="#45484B" d="M198.1 237.9h.7v.8h-.7z"/><path fill="#36393B" d="M196.8 237.9h1.1v.8h-1.1z"/><path fill="#696758" d="M196.8 238.9h2v.8h-2z"/><path fill="#45484B" d="M196.8 239.9h.7v.8h-.7z"/><path fill="#36393B" d="M197.7 239.9h1.1v.8h-1.1z"/><path fill="#696758" d="M196.8 240.9h2v.8h-2z"/><path fill="#45484B" d="M198.1 241.9h.7v.8h-.7z"/><path fill="#36393B" d="M196.8 241.9h1.1v.8h-1.1z"/></g></g><g><path fill="#F0617A" d="M27.6 194.1h59.4v60h-59.4z"/><path fill="#fff" d="M95.7 256c-2.8-3-8.3-5-14.7-5-6.3 0-11.9 2-14.7 4.9h29.4zM88.1 210.4h-60.8c-3.6 0-6.5-2.9-6.5-6.5l7.6-13.1c2.2-3.5 2.9-6.5 6.5-6.5h46.8c3.6 0 4.4 2.2 6.5 6.5l6.5 13.1c-.1 3.6-3 6.5-6.6 6.5z"/><path fill="#F0617A" d="M44.9 212.1l12.8-16.6 13.3 16.6z"/><use xlink:href="#c" width="7.7" height="13.8" x="-3.8" y="-6.9" transform="matrix(1 0 0 -1 38.262 242.299)" overflow="visible"/><circle fill="#F5D76B" cx="57.3" cy="206.2" r="2.9"/><path fill="#fff" d="M57.3 202.7c-2 0-3.5 1.6-3.5 3.5 0 2 1.6 3.5 3.5 3.5 2 0 3.5-1.6 3.5-3.5s-1.6-3.5-3.5-3.5zm0 6.2c-1.3 0-2.4-1-2.6-2.2h5.2c-.2 1.2-1.3 2.2-2.6 2.2zm-2.7-3.1c.2-1.3 1.3-2.2 2.6-2.2s2.4 1 2.6 2.2h-5.2z"/><use xlink:href="#c" width="7.7" height="13.8" x="-3.8" y="-6.9" transform="matrix(1 0 0 -1 38.262 221.283)" overflow="visible"/><use xlink:href="#c" width="7.7" height="13.8" x="-3.8" y="-6.9" transform="matrix(1 0 0 -1 57.335 221.283)" overflow="visible"/><use xlink:href="#c" width="7.7" height="13.8" x="-3.8" y="-6.9" transform="matrix(1 0 0 -1 73.02 221.283)" overflow="visible"/><path fill="#E12145" d="M25.5 227.7h63.5v4.8h-63.5z"/><use xlink:href="#c" width="7.7" height="13.8" x="-3.8" y="-6.9" transform="matrix(1 0 0 -1 73.02 242.299)" overflow="visible"/><path fill="#E12145" d="M63 254.1v-13.2c0-2.8-2.3-5-5-5h-1.3c-2.8 0-5 2.3-5 5v13.2h11.3z"/><path fill="#F496AC" d="M63.4 254.5h-12.2v-13.6c0-3 2.5-5.5 5.5-5.5h1.3c3 0 5.5 2.5 5.5 5.5v13.6zm-11.3-.8h10.5v-12.8c0-2.5-2.1-4.6-4.6-4.6h-1.3c-2.5 0-4.6 2.1-4.6 4.6v12.8z"/><path fill="#33A7A5" d="M57.4 244.7c-2.5 0-4.5-2-4.5-4.5s2-4.5 4.5-4.5 4.5 2 4.5 4.5-2 4.5-4.5 4.5zm0-7c-1.4 0-2.5 1.1-2.5 2.5s1.1 2.5 2.5 2.5 2.5-1.1 2.5-2.5-1.1-2.5-2.5-2.5z"/><circle fill="#fff" cx="57.4" cy="236.7" r=".5"/><circle fill="#fff" cx="60.9" cy="240.2" r=".5"/><circle fill="#fff" cx="53.9" cy="240.2" r=".5"/><circle fill="#fff" cx="59.9" cy="242.7" r=".5"/><circle fill="#fff" cx="54.9" cy="237.7" r=".5"/><circle fill="#fff" cx="54.9" cy="242.7" r=".5"/><circle fill="#fff" cx="59.9" cy="237.7" r=".5"/><path fill="#7D6981" d="M58.6 242.4l-.8.6h-.7v.1l-.9-.7v2.1l.9-.6v.1h.7v-.1l.8.6z"/><path fill="#fff" d="M37.5 257c-.8-2.5-4.7-4.3-9.3-4.3-4.6 0-8.5 1.9-9.3 4.3h18.6z"/></g><g><path fill="#F0617A" d="M304.6 228.7v-5l-18-13.2-17.7 13.2v25.3h35.7M304.6 249h38.1v-20.3h-38.1"/><use xlink:href="#d" width="7.1" height="13.9" x="-3.5" y="-7" transform="matrix(1 0 0 -1 313.134 238.624)" overflow="visible"/><path fill="#E9F5F4" d="M304.6 228.7h38.5c4.5 0 4.1-5.7 2.1-8.3-2.1-2.6-8.5-11.8-10.2-13.8-1.6-2-1.2-2.3-4.6-2.3h-44.5l1.1 5.9 17.6 14.1v4.4z"/><path fill="#F0617A" d="M274.9 177.8h23.9v38.4h-23.9z"/><path fill="#F5D76B" d="M283.1 181.7h7.3v6.1h-7.3z"/><path fill="#fff" d="M281.9 180.5v8.5h9.7v-8.5h-9.7zm1.2 1.2h3.1v6.1h-3.1v-6.1zm7.3 6.1h-3v-6.1h3v6.1z"/><path fill="#F5D76B" d="M283.1 192.6h3.1v6.1h-3.1zM287.5 192.6h3v6.1h-3z"/><path fill="#fff" d="M281.9 191.4v8.5h9.7v-8.5h-9.7zm1.2 7.3v-6.1h3.1v6.1h-3.1zm7.3 0h-3v-6.1h3v6.1zm-3.5.6z"/><path fill="none" d="M286.9 199.3"/><path fill="#F0617A" d="M278.3 163.7h16.7v10.6h-16.7z"/><path fill="#F5D76B" d="M284.7 174.2v-5.6c0-1.2-.8-2.1-1.8-2.1s-1.8.9-1.8 2.1v5.6h3.6z"/><path fill="#fff" d="M285.3 174.8h-4.7v-6.2c0-1.5 1.1-2.7 2.4-2.7 1.3 0 2.4 1.2 2.4 2.7v6.2zm-3.6-1.2h2.3v-5c0-.8-.5-1.5-1.2-1.5s-1.2.7-1.2 1.5v5z"/><path fill="#F5D76B" d="M292.3 174.2v-5.6c0-1.2-.8-2.1-1.8-2.1s-1.8.9-1.8 2.1v5.6h3.6z"/><path fill="#fff" d="M292.9 174.8h-4.7v-6.2c0-1.5 1.1-2.7 2.4-2.7 1.3 0 2.4 1.2 2.4 2.7v6.2zm-3.6-1.2h2.3v-5c0-.8-.5-1.5-1.2-1.5-.6 0-1.2.7-1.2 1.5v5z"/><circle fill="#F5D76B" cx="286.8" cy="222.1" r="3.8"/><path fill="#fff" d="M286.8 217.2c-2.7 0-4.8 2.2-4.8 4.8 0 2.7 2.2 4.8 4.8 4.8 2.7 0 4.8-2.2 4.8-4.8 0-2.6-2.2-4.8-4.8-4.8zm-.6 8.4c-1.5-.3-2.7-1.5-3-3h3v3zm0-4.1h-3c.3-1.5 1.5-2.7 3-3v3zm1.2-3c1.5.3 2.7 1.5 3 3h-3v-3zm0 7.1v-3h3c-.3 1.6-1.5 2.8-3 3z"/><path fill="#E12145" d="M292.3 248.5v-13.6c0-2.8-2.4-5.2-5.3-5.2s-5.3 2.3-5.3 5.2v13.6h10.6z"/><path fill="#F496AC" d="M292.7 249h-11.6v-14.1c0-3.1 2.6-5.7 5.8-5.7 3.2 0 5.8 2.5 5.8 5.7v14.1zm-10.5-1h9.6v-13.1c0-2.6-2.2-4.7-4.8-4.7-2.6 0-4.8 2.1-4.8 4.7v13.1z"/><path fill="#BFD761" d="M287 242c-2.7 0-4.8-2.2-4.8-4.8s2.2-4.8 4.8-4.8c2.7 0 4.8 2.2 4.8 4.8s-2.2 4.8-4.8 4.8zm0-7.5c-1.5 0-2.6 1.2-2.6 2.6 0 1.5 1.2 2.6 2.6 2.6 1.5 0 2.6-1.2 2.6-2.6 0-1.4-1.2-2.6-2.6-2.6z"/><circle fill="#fff" cx="287" cy="233.4" r=".5"/><circle fill="#fff" cx="290.7" cy="237.1" r=".5"/><circle fill="#fff" cx="283.2" cy="237.1" r=".5"/><circle fill="#fff" cx="289.6" cy="239.8" r=".5"/><circle fill="#fff" cx="284.3" cy="234.5" r=".5"/><circle fill="#fff" cx="284.3" cy="239.8" r=".5"/><circle fill="#fff" cx="289.6" cy="234.5" r=".5"/><path fill="#7D6981" d="M288.3 239.5l-.9.7h-.8v.1l-1-.8v2.3l1-.7v.1h.8v-.1l.9.7z"/><use xlink:href="#d" width="7.1" height="13.9" x="-3.5" y="-7" transform="matrix(1 0 0 -1 323.73 238.624)" overflow="visible"/><use xlink:href="#d" width="7.1" height="13.9" x="-3.5" y="-7" transform="matrix(1 0 0 -1 335.446 238.624)" overflow="visible"/><path fill="#fff" d="M265.4 228.8c-1.2 0-2.3-.5-3.1-1.5-1.4-1.7-1.1-4.2.6-5.6l21.6-17.1c1.5-1.2 3.7-1.1 5.1.2l19.1 17.1c1.6 1.5 1.8 4 .3 5.6-1.5 1.6-4 1.8-5.6.3l-16.6-14.9-18.9 15c-.8.6-1.6.9-2.5.9z"/><path fill="#fff" d="M273.1 174.2h27.3v4h-27.3z"/><path fill="#fff" d="M274.2 161.3v2.8h24.6v-2.8s-6-2.9-8.3-12.9c-2.3-10-3.6-24.1-3.6-24.1s-2 18.6-2.7 23.2c-1.3 7.7-10 13.8-10 13.8z"/><path fill="#fff" d="M310.8 262.7c-.8-2.5-4.7-4.3-9.3-4.3s-8.5 1.9-9.3 4.3h18.6z"/><path fill="#fff" d="M359.1 252.8c-2-6-11.4-10.6-22.6-10.6-11.3 0-20.6 4.6-22.6 10.6h45.2z"/></g><g><path fill="#F0617A" d="M224 185.3v38.4h26.2v-38.4l-13.1-12.8z"/><path fill="#fff" d="M250.6 157.1h-9.9c-.4 0-.7.3-.7.7s.3.7.7.7h2.4v2.1h-2.9c-.4 0-.7.3-.7.7 0 .4.3.7.7.7h5.4v1.5h-2.7c-.4 0-.7.3-.7.7 0 .4.3.7.7.7h3.1c.1.1.2.1.3.1s.2 0 .3-.1h3.1c.4 0 .7-.3.7-.7 0-.4-.3-.7-.7-.7h-2.7v-1.5h2.1c.4 0 .7-.3.7-.7 0-.4-.3-.7-.7-.7h-4.5v-2.1h6.1c.4 0 .7-.3.7-.7s-.4-.7-.8-.7z"/><path fill="#E12145" d="M239.3 209.2h7.5v14.4h-7.5z"/><path fill="#F496AC" d="M247.1 223.9h-8.2v-15.1h8.2v15.1zm-7.5-.7h6.8v-13.6h-6.8v13.6z"/><path fill="#E12145" d="M242.3 165.7v2.6h8.200000000000001v-2.6z"/><path fill="#F0617A" d="M243.7 168.3v10.2h5.4v-10.2z"/><path fill="#fff" d="M253 188.6c-.8 0-1.5-.3-2.1-.9l-13.7-15.1-13.9 15.1c-1.1 1.2-2.9 1.2-4 .2-1.2-1.1-1.2-2.9-.2-4l16-17.4c.5-.6 1.3-.9 2.1-.9s1.6.3 2.1.9l15.8 17.4c1.1 1.2 1 3-.2 4-.6.4-1.3.7-1.9.7z"/><g><path fill="#33A7A5" d="M243 218.1c-2.7 0-4.8-2.2-4.8-4.8s2.2-4.8 4.8-4.8 4.8 2.2 4.8 4.8-2.1 4.8-4.8 4.8zm0-7.5c-1.5 0-2.6 1.2-2.6 2.6 0 1.5 1.2 2.6 2.6 2.6 1.5 0 2.6-1.2 2.6-2.6.1-1.4-1.1-2.6-2.6-2.6z"/><circle fill="#ECDEB6" cx="243" cy="209.5" r=".5"/><circle fill="#ECDEB6" cx="246.7" cy="213.2" r=".5"/><circle fill="#ECDEB6" cx="239.3" cy="213.2" r=".5"/><circle fill="#ECDEB6" cx="245.7" cy="215.9" r=".5"/><circle fill="#ECDEB6" cx="240.4" cy="210.6" r=".5"/><circle fill="#ECDEB6" cx="240.4" cy="215.9" r=".5"/><circle fill="#ECDEB6" cx="245.7" cy="210.6" r=".5"/><path fill="#7D6981" d="M244.3 215.6l-.9.7v-.1h-.7v.2l-1-.8v2.3l1-.7v.1h.7v-.1l.9.6z"/></g><use xlink:href="#e" width="10.4" height="11.3" x="-5.2" y="-5.6" transform="matrix(.796 0 0 -.796 231.381 199.858)" overflow="visible"/><use xlink:href="#e" width="10.4" height="11.3" x="-5.2" y="-5.6" transform="matrix(.796 0 0 -.796 243.016 199.858)" overflow="visible"/><use xlink:href="#e" width="10.4" height="11.3" x="-5.2" y="-5.6" transform="matrix(.796 0 0 -.796 231.381 213.239)" overflow="visible"/><use xlink:href="#c" width="7.7" height="13.8" x="-3.8" y="-6.9" transform="matrix(.848 0 0 -.848 237.115 184.502)" overflow="visible"/><path fill="#fff" d="M247.8 228c-1.6-4.9-9.2-8.6-18.3-8.6-9.1 0-16.7 3.7-18.3 8.6h36.6z"/></g><g><path fill="#B5D561" d="M112.9 178.9l-14.7 44.6h29.6z"/><path fill="#7DC148" d="M113 179.1l-.1-.2-14.7 44.6h14.8z"/><path fill="#C48B4D" d="M110.7 223.6h4.1v4.3h-4.1z"/><path fill="#996B3D" d="M113.8 223.6h1v4.3h-1z"/><path fill="#fff" d="M119.9 231c-.6-2.5-3.7-4.5-7.4-4.5s-6.8 1.9-7.4 4.5h14.8z"/><circle fill="#F5DF02" cx="102.9" cy="210.3" r="1"/><circle fill="#F5D76B" cx="105.5" cy="211.6" r="1"/><circle fill="#EEDD12" cx="107.8" cy="212.5" r="1"/><circle fill="#ECDEB6" cx="110.2" cy="213.5" r="1"/><circle fill="#F5DF02" cx="113.2" cy="214.2" r="1"/><circle fill="#F5D76B" cx="116.1" cy="214.8" r="1"/><circle fill="#ECDEB6" cx="119" cy="215.2" r="1"/><circle fill="#EEDD12" cx="122" cy="215.8" r="1"/><circle fill="#F5DF02" cx="124.9" cy="216.2" r="1"/><circle fill="#EEDD12" cx="107.9" cy="196.7" r="1"/><circle fill="#F5D76B" cx="111" cy="196.7" r="1"/><circle fill="#EEDD12" cx="114" cy="196.2" r="1"/><circle fill="#ECDEB6" cx="117.5" cy="195.2" r="1"/></g><g><path fill="#B5D561" d="M138.1 218.6l-11.2 34h22.5z"/><path fill="#80C246" d="M138.1 218.7v-.1l-11.2 34h11.2z"/><path fill="#C48B4D" d="M136.4 252.6h3.1v3.2h-3.1z"/><path fill="#996B3D" d="M138.8 252.6h.7v3.2h-.7z"/><path fill="#fff" d="M143.4 258.2c-.5-1.9-2.8-3.4-5.7-3.4-2.8 0-5.2 1.5-5.7 3.4h11.4zM145.6 245h-.2c-.3-.3-.8-.6-1.3-.6-.4 0-.7.1-1 .3-.3-.2-.7-.3-1.1-.3-1 0-1.8.6-1.8 1.4s.8 1.4 1.8 1.4c.4 0 .7-.1 1-.2.3.1.7.2 1.1.2.8 0 1.4-.2 1.5-.5.8 0 1.5-.4 1.5-.9s-.7-.8-1.5-.8zM130.8 248.4c-.1 0-.2 0-.3.1-.3-.3-.9-.6-1.4-.6-1 0-1.9.7-1.9 1.5s.8 1.5 1.9 1.5c.6 0 1.1-.2 1.4-.5.1 0 .2.1.4.1.6 0 1-.5 1-1.1-.2-.6-.6-1-1.1-1zM138.4 226.4c.1 0 .2 0 .3-.1.3.3.7.5 1.2.5.9 0 1.6-.6 1.6-1.3 0-.7-.7-1.3-1.6-1.3-.5 0-.9.2-1.2.5l-.3-.1c-.5 0-.8.4-.8.9s.3.9.8.9z"/></g><path fill="#fff" d="M334.6 318.8c-3.9-11.7-22.1-20.5-44-20.5-13.6 0-25.7 3.4-33.9 8.8-3.1-.7-6.5-1.1-10.1-1.1-3 0-5.8.3-8.5.8-10.9-9.7-30.1-16.1-51.9-16.1-22.3 0-41.8 6.7-52.6 16.7-3.5-.9-7.3-1.4-11.4-1.4-5.6 0-10.8.9-15.2 2.6-8.1-6.2-21.2-10.3-36-10.3-21.9 0-40.1 8.8-44 20.5"/><g><path fill="#B1A48D" d="M132.3 238.2c-.1 0-.2-.1-.2-.2v-.8c0-.1.1-.2.2-.2s.2.1.2.2v.8c0 .1-.1.2-.2.2zM133.1 238.2c-.1 0-.2-.1-.2-.2v-.8c0-.1.1-.2.2-.2s.2.1.2.2v.8c0 .1-.1.2-.2.2zM131.9 237.6l-1.4-.8-.8-1.4v-1.6l.8-1.3 1.4-.8h1.6l1.3.8.8 1.3v1.6l-.8 1.4-1.3.8z"/><path fill="#fff" d="M132 236.9l-1-.6-.6-1v-1.3l.6-1 1-.6h1.3l1 .6.6 1v1.3l-.6 1-1 .6z"/><path fill="#E12145" d="M132.2 236.3l-.8-.4-.4-.8v-.9l.4-.8.8-.5h.9l.8.5.4.8v.9l-.4.8-.8.4z"/><path fill="#B1A48D" d="M132.1 234.6l-.9-.5-.5-.9v-1.1l.5-.9.9-.5h1.1l.9.5.5.9v1.1l-.5.9-.9.5z"/><path fill="#F0617A" d="M133.2 234.6l.9-.5.1-.2-.3-.5-.8-.5h-.9l-.8.5-.3.5.1.2.9.5z"/><circle fill="#fff" cx="132.1" cy="232.5" r=".2"/><circle fill="#1D1C1A" cx="132.1" cy="232.5" r=".1"/><circle fill="#fff" cx="133.2" cy="232.5" r=".2"/><circle fill="#1D1C1A" cx="133.2" cy="232.5" r=".1"/><path fill="#1D1C1A" d="M132.3 232.9l.4.7.2-.7z"/><path stroke="#7C6B4F" stroke-width=".312" stroke-linecap="round" stroke-linejoin="round" stroke-miterlimit="10" fill="none" d="M130.5 232.6l-.1 1.4v1.1l-.7.3M134.8 232.6l.1 1.4v1.1l.7.3"/><path fill="#B1A48D" d="M138.4 238.6c-.1 0-.1-.1-.1-.1v-.5c0-.1.1-.1.1-.1.1 0 .1.1.1.1v.5s0 .1-.1.1zM138.9 238.6c-.1 0-.1-.1-.1-.1v-.5c0-.1.1-.1.1-.1.1 0 .1.1.1.1v.5s0 .1-.1.1zM138.1 238.2l-.8-.5-.5-.9v-1l.5-.8.8-.5h1l.9.5.5.8v1l-.5.9-.9.5z"/><path fill="#fff" d="M138.3 237.8l-.7-.4-.4-.7v-.7l.4-.7.7-.4h.7l.7.4.4.7v.7l-.4.7-.7.4z"/><path fill="#E12145" d="M138.3 237.4l-.4-.3-.3-.5v-.5l.3-.5.4-.3h.6l.5.3.3.5v.5l-.3.5-.5.3z"/><path fill="#B1A48D" d="M138.3 236.3l-.6-.3-.3-.6v-.6l.3-.6.6-.4h.7l.6.4.3.6v.6l-.3.6-.6.3z"/><path fill="#F0617A" d="M139 236.3l.6-.3v-.1l-.2-.3-.5-.3h-.6l-.4.3-.2.3v.1l.6.3z"/><path fill="#fff" d="M138.4 235l-.1.1-.1-.1.1-.2.1.2z"/><path fill="#1D1C1A" d="M138.4 235h-.2l.1-.1.1.1z"/><path fill="#fff" d="M139.1 235l-.1.1-.1-.1.1-.2.1.2z"/><path fill="#1D1C1A" d="M139 235h-.1l.1-.1v.1zM138.4 235.3l.2.4.2-.4z"/><path fill="#7C6B4F" d="M136.8 236.9l.4-.2v-1.6.9.7l-.4.2zM140.5 236.9l-.4-.2v-1.6.9.7l.4.2z"/><path fill="#fff" d="M133 238.5c-.1-.3-.5-.6-1-.6s-.9.3-1 .6h2zM133.7 238.4c-.1-.3-.4-.5-.8-.5s-.7.2-.8.5h1.6zM139.6 239.2c-.1-.4-.6-.7-1.2-.7s-1.1.3-1.2.7h2.4z"/></g><g><path fill="#B5D561" d="M259.6 227.5l-9.5 29.1h19.1z"/><path fill="#80C246" d="M259.6 227.7v-.2l-9.5 29.1h9.5z"/><path fill="#C48B4D" d="M258.1 256.6h2.7v2.8h-2.7z"/><path fill="#996B3D" d="M260.2 256.6h.6v2.8h-.6z"/><path fill="#fff" d="M264.1 261.4c-.4-1.7-2.4-2.9-4.8-2.9s-4.4 1.3-4.8 2.9h9.6zM259.6 242.5v-.2c0-1-.8-1.8-1.8-1.8-.6 0-1.2.3-1.5.8-.3-.1-.5-.2-.9-.2-1.2 0-2.1.9-2.1 2.1 0 1.2.9 2.1 2.1 2.1.3 0 .6-.1.9-.2.2.4.6.6 1.1.6.6 0 1.2-.4 1.3-1h.2c.6 0 1.2-.5 1.2-1.2.1-.5-.1-.8-.5-1zM267 247.6h-.2c-.2-.3-.6-.5-1.1-.5-.3 0-.6.1-.9.2-.3-.1-.6-.2-.9-.2-.9 0-1.6.5-1.6 1.2s.7 1.2 1.6 1.2c.3 0 .6-.1.8-.2.2.1.6.2 1 .2.7 0 1.2-.2 1.3-.5.7 0 1.3-.3 1.3-.7-.1-.4-.6-.7-1.3-.7zM253.3 253c-.1 0-.2 0-.3.1-.3-.3-.7-.5-1.2-.5-.9 0-1.6.6-1.6 1.3 0 .7.7 1.3 1.6 1.3.5 0 .9-.2 1.2-.5l.3.1c.5 0 .9-.4.9-.9s-.4-.9-.9-.9zM259.9 234.2c.1 0 .2 0 .2-.1.2.2.6.4 1 .4.8 0 1.4-.5 1.4-1.1 0-.6-.6-1.1-1.4-1.1-.4 0-.8.2-1 .4l-.3-.1c-.4 0-.7.3-.7.8s.4.8.8.8z"/></g><g><path fill="#fff" d="M116.7 276.7c-1.3-1.4-4-2.4-7-2.4s-5.6 1-7 2.4h14zM106.1 276.6c-.5-1.5-2.9-2.7-5.8-2.7s-5.3 1.2-5.8 2.7h11.6z"/><circle fill="#fff" cx="105.1" cy="265.1" r="10.9"/><circle fill="#fff" cx="105.1" cy="254.2" r="7.2"/><path fill="#F7971D" d="M105.6 255.7h-1l.5-1.5z"/><circle fill="#2F98BB" cx="105.1" cy="256.4" r=".5"/><path fill="#E3F3F3" d="M105.1 255.9c-.3 0-.5.2-.5.5h1c0-.2-.2-.5-.5-.5z"/><g fill="#2F98BB"><path d="M106.1 255v-.2l.1-.1.1-.1h.30000000000000004l.1.1.1.1v.4h.1v-.4l-.1-.2-.2-.1h-.30000000000000004l-.2.1-.1.2v.4h.1v-.2zM103.5 255l.1-.2.1-.1.1-.1h.2l.2.1v.1l.1.2v.2h.1v-.4l-.2-.2-.1-.1h-.4l-.1.1-.1.2-.1.2v.2h.1v-.2z"/></g><g fill="#151415"><circle cx="105.1" cy="267.5" r=".2"/><circle cx="105.1" cy="269.9" r=".2"/><circle cx="105.1" cy="265.1" r=".2"/></g><g fill="#F496AC"><circle cx="103.1" cy="256.4" r=".7"/><circle cx="107.1" cy="256.4" r=".7"/></g><path fill="#ECDEB6" d="M101.1 264.9h-1 1v-.3h-1 .3v-.3h-.7v1.7000000000000002h1v-.4h-.6 1v-.3h-1v-.1h1v.1h.3v-.4z"/><path fill="#B1A48D" d="M100.1 265.6h1-1z"/><linearGradient id="f" gradientUnits="userSpaceOnUse" x1="95.463" y1="265.109" x2="99.731" y2="265.109"><stop offset="0" stop-color="#fff"/><stop offset="1" stop-color="#E3F3F3"/></linearGradient><path fill="url(#f)" d="M95.5 264.3h4.3v1.7h-4.3z"/><path fill="#ECDEB6" d="M109.8 264.3v.3h.4-.4-.7v.3h1.1-1.1-.3v.4h.3v-.1h1.1v.1h-1.1v.3h1.1-.7v.4h1v-1.7000000000000002z"/><path fill="#B1A48D" d="M110.2 265.6h-1.1.4.7z"/><linearGradient id="g" gradientUnits="userSpaceOnUse" x1="114.768" y1="265.109" x2="110.5" y2="265.109"><stop offset="0" stop-color="#fff"/><stop offset="1" stop-color="#E3F3F3"/></linearGradient><path fill="url(#g)" d="M110.5 264.3h4.3v1.7h-4.3z"/><defs><path id="i" d="M107.3 248.5l8.8-3.2-4.4 7.7z"/></defs><defs><path id="h" d="M107.3 248.5l8.8-3.2-4.4 7.7z"/></defs><use xlink:href="#h" overflow="visible" fill="#E11F26"/><clipPath id="j"><use xlink:href="#i" overflow="visible"/></clipPath><clipPath id="k" clip-path="url(#j)"><use xlink:href="#h" overflow="visible"/></clipPath><g clip-path="url(#k)" stroke="#ECDEB6" stroke-width="2.573" stroke-linecap="round" stroke-linejoin="round" stroke-miterlimit="10" fill="none"><path d="M107.4 252.4l.4-.6M108 252.4l.5-.6M108.7 252.4l.4-.6M109.3 252.4l.5-.6M110 252.4l.4-.6M110.6 252.4l.5-.6M111.3 252.4l.4-.6M111.9 252.4l.5-.6M112.6 252.4l.4-.6M113.2 252.4l.4-.6M113.8 252.4l.5-.6M114.5 252.4l.4-.6M115.1 252.4l.5-.6M115.8 252.4l.4-.6M116.4 252.4l.5-.6M107.4 251.4l.4-.7M108 251.4l.5-.7M108.7 251.4l.4-.7M109.3 251.4l.5-.7M110 251.4l.4-.7M110.6 251.4l.5-.7M111.3 251.4l.4-.7M111.9 251.4l.5-.7M112.6 251.4l.4-.7M113.2 251.4l.4-.7M113.8 251.4l.5-.7M114.5 251.4l.4-.7M115.1 251.4l.5-.7M115.8 251.4l.4-.7M116.4 251.4l.5-.7M107.4 250.4l.4-.6M108 250.4l.5-.6M108.7 250.4l.4-.6M109.3 250.4l.5-.6M110 250.4l.4-.6M110.6 250.4l.5-.6M111.3 250.4l.4-.6M111.9 250.4l.5-.6M112.6 250.4l.4-.6M113.2 250.4l.4-.6M113.8 250.4l.5-.6M114.5 250.4l.4-.6M115.1 250.4l.5-.6M115.8 250.4l.4-.6M116.4 250.4l.5-.6M107.4 249.3l.4-.6M108 249.3l.5-.6M108.7 249.3l.4-.6M109.3 249.3l.5-.6M110 249.3l.4-.6M110.6 249.3l.5-.6M111.3 249.3l.4-.6M111.9 249.3l.5-.6M112.6 249.3l.4-.6M113.2 249.3l.4-.6M113.8 249.3l.5-.6M114.5 249.3l.4-.6M115.1 249.3l.5-.6M115.8 249.3l.4-.6M116.4 249.3l.5-.6M107.4 248.4l.4-.6M108 248.4l.5-.6M108.7 248.4l.4-.6M109.3 248.4l.5-.6M110 248.4l.4-.6M110.6 248.4l.5-.6M111.3 248.4l.4-.6M111.9 248.4l.5-.6M112.6 248.4l.4-.6M113.2 248.4l.4-.6M113.8 248.4l.5-.6M114.5 248.4l.4-.6M115.1 248.4l.5-.6M115.8 248.4l.4-.6M116.4 248.4l.5-.6M107.4 247.4l.4-.6M108 247.4l.5-.6M108.7 247.4l.4-.6M109.3 247.4l.5-.6M110 247.4l.4-.6M110.6 247.4l.5-.6M111.3 247.4l.4-.6M111.9 247.4l.5-.6M112.6 247.4l.4-.6M113.2 247.4l.4-.6M113.8 247.4l.5-.6M114.5 247.4l.4-.6M115.1 247.4l.5-.6M115.8 247.4l.4-.6M116.4 247.4l.5-.6M107.4 246.3l.4-.6M108 246.3l.5-.6M108.7 246.3l.4-.6M109.3 246.3l.5-.6M110 246.3l.4-.6M110.6 246.3l.5-.6M111.3 246.3l.4-.6M111.9 246.3l.5-.6M112.6 246.3l.4-.6M113.2 246.3l.4-.6M113.8 246.3l.5-.6M114.5 246.3l.4-.6M115.1 246.3l.5-.6M115.8 246.3l.4-.6M116.4 246.3l.5-.6"/></g><g stroke="#7F3F97" stroke-width="2" stroke-linecap="round" stroke-linejoin="round" stroke-miterlimit="10" fill="none"><path d="M115.9 244.7v1.7M115.1 245.6h1.6M115.3 246.1l1.2-1.1M115.3 245l1.2 1.1"/></g></g></g><g clip-path="url(#b)"><path fill="#E3F3F3" d="M344.3 292.8h-69.2c-3.4 0-6.1-2.7-6.1-6.1 0-3.4 2.7-6.1 6.1-6.1.1 0 .2.1.2.2s-.1.2-.2.2c-3.1 0-5.7 2.6-5.7 5.7s2.6 5.7 5.7 5.7h69.2c.1 0 .2.1.2.2s-.1.2-.2.2z"/><path d="M275.1 286.3c1.5 0 2.7-1.2 2.7-2.7 0-1.5-1.2-2.7-2.7-2.7M275.1 283.5c-.7 0-1.4.6-1.4 1.4 0 .7.6 1.4 1.4 1.4" fill="none"/><path fill="#E3F3F3" d="M265.3 277.4c-.1 0-.2-.1-.2-.2v-5.4c0-.1.1-.2.2-.2s.2.1.2.2v5.4c0 .1-.1.2-.2.2zM267.9 274.8h-5.4c-.1 0-.2-.1-.2-.2s.1-.2.2-.2h5.4c.1 0 .2.1.2.2s0 .2-.2.2zM265.3 271.9c-.1 0-.1 0-.1-.1l-.9-.9c-.1-.1-.1-.2 0-.3.1-.1.2-.1.3 0l.8.8.8-.8c.1-.1.2-.1.3 0 .1.1.1.2 0 .3l-.9.9c-.2.1-.3.1-.3.1zM264.4 278.3c-.1 0-.1 0-.1-.1-.1-.1-.1-.2 0-.3l.9-.9c.1-.1.2-.1.3 0l.9.9c.1.1.1.2 0 .3-.1.1-.2.1-.3 0l-.8-.8-.8.8c0 .1-.1.1-.1.1zM268.9 275.6c-.1 0-.1 0-.1-.1l-.9-.9c-.1-.1-.1-.2 0-.3l.9-.9c.1-.1.2-.1.3 0 .1.1.1.2 0 .3l-.8.8.8.8c.1.1.1.2 0 .3h-.2zM261.7 275.6c-.1 0-.1 0-.1-.1-.1-.1-.1-.2 0-.3l.8-.8-.8-.8c-.1-.1-.1-.2 0-.3.1-.1.2-.1.3 0l.9.9c.1.1.1.2 0 .3l-.9.9c-.1.2-.2.2-.2.2zM263.4 276.6c-.1 0-.1 0-.1-.1-.1-.1-.1-.2 0-.3l3.8-3.8c.1-.1.2-.1.3 0 .1.1.1.2 0 .3l-3.8 3.8c-.1.1-.1.1-.2.1zM268.5 272.7h-1.3c-.1 0-.2-.1-.2-.2v-1.3c0-.1.1-.2.2-.2s.2.1.2.2v1.1h1.1c.1 0 .2.1.2.2s-.1.2-.2.2zM263.4 277.9c-.1 0-.2-.1-.2-.2v-1.1h-1.2c-.1 0-.2-.1-.2-.2s.1-.2.2-.2h1.3c.1 0 .2.1.2.2v1.3c.1.1 0 .2-.1.2zM267.1 276.6c-.1 0-.1 0-.1-.1l-3.8-3.8c-.1-.1-.1-.2 0-.3.1-.1.2-.1.3 0l3.8 3.8c.1.1.1.2 0 .3-.1.1-.1.1-.2.1zM267.2 277.9c-.1 0-.2-.1-.2-.2v-1.3c0-.1.1-.2.2-.2h1.3c.1 0 .2.1.2.2s-.1.2-.2.2h-1.1v1.1c0 .1-.1.2-.2.2zM263.3 272.8h-1.3c-.1 0-.2-.1-.2-.2s.1-.2.2-.2h1.1v-1.1c0-.1.1-.2.2-.2s.2.1.2.2v1.3c0 .1-.1.2-.2.2zM340.4 294.4h-75.1c-7.2 0-13-5.8-13-13s5.8-13 13-13c.1 0 .2.1.2.2s-.1.2-.2.2c-7 0-12.6 5.7-12.6 12.6 0 7 5.7 12.6 12.6 12.6h75.1c.1 0 .2.1.2.2s-.1.2-.2.2zM265.3 280.5c-.1 0-.2-.1-.2-.2s.1-.2.2-.2c3.1 0 5.7-2.5 5.7-5.7 0-3.1-2.5-5.7-5.7-5.7-.1 0-.2-.1-.2-.2s.1-.2.2-.2c3.3 0 6.1 2.7 6.1 6.1-.1 3.4-2.8 6.1-6.1 6.1z"/><path d="M265.3 274.5c-1.6 0-2.9 1.3-2.9 2.9s1.3 2.9 2.9 2.9" fill="none"/><path fill="#E3F3F3" d="M274.5 285.8c-.1 0-.1-.1-.1-.1v-3.1c0-.1.1-.1.1-.1l.1.1v3.1l-.1.1zM276 284.2h-3.1c-.1 0-.1-.1-.1-.1l.1-.1h3.1c.1 0 .1.1.1.1s0 .1-.1.1zM274.5 282.6l-.6-.5v-.2h.2l.4.4.5-.5h.2v.2l-.7.6zM273.9 286.3c-.1-.1-.1-.1-.1-.2l.5-.5h.2l.5.5v.2h-.2l-.4-.4-.5.4zM276.6 284.7l-.6-.6v-.2l.5-.5h.2v.2l-.4.4.5.5-.2.2zM272.4 284.7c-.1-.1-.1-.1-.1-.2l.4-.4-.5-.5v-.2h.2l.5.5v.2l-.5.6zM273.4 285.3c-.1-.1-.1-.1-.1-.2l2.2-2.2h.2v.2l-2.3 2.2zM276.3 283.1h-.8c-.1 0-.1-.1-.1-.1v-.7c0-.1.1-.1.1-.1l.1.1v.6h.6c.1 0 .1.1.1.1s.1.1 0 .1zM273.4 286c-.1 0-.1-.1-.1-.1v-.6h-.6c-.1 0-.1-.1-.1-.1l.1-.1h.8c.1 0 .1.1.1.1v.7c-.1.1-.2.1-.2.1zM275.5 285.3l-2.3-2.2v-.2h.2l2.2 2.2c0 .1 0 .1-.1.2zM275.6 286c-.1 0-.1-.1-.1-.1v-.8c0-.1.1-.1.1-.1h.7c.1 0 .1.1.1.1l-.1.1h-.6v.6c0 .2-.1.2-.1.2zM273.3 283.1h-.7c-.1 0-.1-.1-.1-.1l.1-.1h.6v-.6c0-.1.1-.1.1-.1l.1.1v.8h-.1z"/></g></svg>