<svg xmlns="http://www.w3.org/2000/svg" xmlns:xlink="http://www.w3.org/1999/xlink" viewBox="0 0 373.2 58" enable-background="new 0 0 373.2 58"><path fill="#9A6C3D" d="M373.2 51.5l-370.2 6.5-3-3.5 9-3.1-9-4.6 14.4-.4-14.4-4.2 10.6-25.3-10.6-4.6 3-2 367.2-10.3 3 3.8v6.7l-3.3-1.1 3 3.5v29.1l-2.8-1.7 3 3.5z"/><path fill="#C58D4D" d="M370.2 48l-370.2 6.5v-5.6l6-1-6-1.1v-2.5l11.4-1.4-11.4-.7v-27.8l7.6-1-7.6-1.1v-5.5l370.2-6.5v6.7l-15.6 1.1 15.3 1.3v29.1l-7.6.3 7.8 1.5z"/><defs><path id="a" d="M370.2 47.7l-370.2 6.6v-5.6l6-1.1-6-1v-2.6l11.4-1.4-11.4-.7v-27.8l7.6-.9-7.6-1.2v-5.4l370.2-6.6v6.7l-15.6 1.1 15.3 1.4v29l-7.6.3 7.8 1.5z"/></defs><clipPath><use xlink:href="#a" overflow="visible"/></clipPath><path fill="#9A6C3D" d="M345.3 26.1c-1.2 0 7.4-.5 15.4-1.3s12.2-1.6 12.2-1.6l-1.2 2.9s-21.6.1-26.4 0z"/><defs><path id="b" d="M370.2 47.7l-370.2 6.6v-5.6l6-1.1-6-1v-2.6l11.4-1.4-11.4-.7v-27.8l7.6-.9-7.6-1.2v-5.4l370.2-6.6v6.7l-15.6 1.1 15.3 1.4v29l-7.6.3 7.8 1.5z"/></defs><clipPath id="c"><use xlink:href="#b" overflow="visible"/></clipPath><g opacity=".58" clip-path="url(#c)"><path fill="#9A6C3D" d="M-2.1 19.8s46.3 1 67.3-2.3 49.8-10.2 70.9-7.2 41.1 5.8 70.3 5.5l169.9-5.5-1.1 4.5s-115.8 1.8-144.2 2.8c-28.4.9-54.1 2.1-64.5 0s-31.3-6.3-43.2-5.6-38 5.4-54.2 7.3l-69.9 2.9-1.3-2.4zM83.6 9.5s-16.5 6-39.9 6.3c-23.4.3-47.1 0-47.1 0l.5-1.7s20.9 1.4 30.9 1.1c10.1-.3 25.4.1 35.4-2.5l20.2-3.2zM0 6.6s25.7 2.5 33.9 3.1l35.1-3.1s-19.4 7.1-30.1 6.2l-39.4-4.6.5-1.6zM128.6 15.9s-1.3 0-3.5.1c-1.1.1-2.4.1-4 .3-1.5.2-3.2.3-5.1.6-1.9.3-3.9.6-5.9 1.2-.9.3-1.8.8-2.5 1.6-.7.7-1.3 1.6-1.5 2.5-.2.9 0 1.5.7 2s1.7.9 2.8 1.1c1.1.2 2.3.3 3.5.4l1.9.1h1.8c2.4 0 4.9-.1 7.3-.2 2.4-.2 4.8-.5 7.1-.8 2.3-.4 4.5-.9 6.5-1.5 1-.4 1.9-.7 2.6-1.3h.1l.1-.1c.1-.1.1-.1.1-.2.1-.1.1-.3.1-.5 0-.3-.3-.7-.6-1-1.3-1.2-3-1.9-4.4-2.5-1.4-.6-2.7-.9-3.8-1.2-1.1-.2-1.9-.4-2.5-.4-.5-.2-.8-.2-.8-.2zm0 0s1.3 0 3.4.4c1.1.2 2.4.5 3.9 1s3.1 1 4.7 2.2c.4.3.8.7 1 1.3.1.3.1.7 0 1l-.3.4-.1.1-.1.1-.1.1c-.8.8-1.8 1.3-2.8 1.9-2 1-4.2 1.8-6.5 2.4-2.3.6-4.8 1.2-7.3 1.5-2.5.4-5.1.5-7.7.5l-2-.1-1.9-.1c-1.3-.1-2.6-.3-3.9-.7-1.3-.4-2.6-.9-3.8-1.9-.6-.6-1.1-1.3-1.2-2.2-.2-.8 0-1.7.2-2.4.5-1.4 1.4-2.4 2.4-3.1 1-.8 2.1-1.4 3.3-1.6 2.2-.4 4.3-.5 6.2-.6 1.9-.1 3.6-.1 5.2-.2 1.5 0 2.9-.1 4-.1 2.2 0 3.4.1 3.4.1zM126.4 20.4s-8.8-1.8-9.4 0c-.6 1.8 3.8 1.2 3.8 1.2 5.3 1.1 5.6-1.2 5.6-1.2zM-3.4 27.4s50.6-2.5 62.8-3.2 24.8-1.4 31.1-3.9c6.3-2.5 12-4.4 12-4.4s-8.7 2.2-8.2 6.2 17.5 8.5 17.5 8.5-11.5-.6-18-3.5c-6.5-3-15.6-1.5-24.8-1.5l-71.4 5-1-3.2zM-2.6 34.2s33.2-4.3 47.7-5.1c14.5-.9 33.3-4.1 42-1.2s20 6.9 34.5 5.4 23.7-9.7 29-11c5.2-1.3 25.8-.3 36.8-.3 11 0 74.2-2.6 86.7-2.3s36.3 2.2 49.5 2c13.2-.2 52.6-3.4 52.6-3.4l1.3 2.6s-46.8 3.4-55.9 3.9-33.9-2.1-43.1-2.8c-9.2-.7-26 .1-41.2.3-15.2.2-61.9 2.4-68.4 2.1s-13.1-.4-18.3 1.9-17.7 11.7-32.5 10.5c-14.8-1.2-27.8-6.7-35.8-7.6-8-.9-52.2 3.9-65.9 5.1l-20 1.3 1-1.4zM312.9 18.2s16.7 1 22.8 0c6.2-1 7.6 0 7.6 0s-23.2 2.9-26.8 1.4l-3.6-1.4zM-5.1 38s66.7-4.1 75.3-5 15-.3 20.7.8c5.7 1.2 9.3 2.7 9.3 2.7s-41.2-.4-53.8.2l-48.5 3.9-3-2.6zM97.7 7.7c3-.2 43.5-3.5 58.7 0 15.2 3.5 39.3 4.8 47.8 4.2 8.5-.7 81.7-4.5 98.4-5 16.7-.5 50.4.5 58.6-.8l14.2-1.7-1 3s-33 .8-43.5.8-66.3 2.3-76.7 2.3-50 3.3-59 2.2-36.2-2.7-43.8-4c-7.7-1.3-37.5 1.1-44.8 0l-8.9-1zM180.7 6.4s20.9 2.9 34.4 2.3l34.5-3.5s-26.3 1.7-35.7 1.3c-9.4-.3-33.2-.1-33.2-.1zM265 4.4s34.5-1.6 47-1 34.3.5 40.7 0l18.4-2.2v1.6s-37.7 2.8-52.1 1.6c-14.3-1.1-32.2.3-38.5.8-6.3.5-15.5-.8-15.5-.8zM150 32.7c4.3-3.1 6.3-6.3 19.2-6.6 12.8-.3 55.3 1.2 63.8 0s27.8-4.2 38-2.3c10.2 1.8 26.7 3.7 30.3 3.7h5.3s-4.5.3-17.5.5-16.5-2.3-26.8-2.5c-10.3-.2-26.2 3.4-40.8 3.6s-34.5-1.6-40.8-1.1c-6.3.5-10 .3-18.5 2.7l-12.2 2zM-3.4 45.2s28.3-6.1 42.3-6.1 36-.8 43.8 0 48.2 3 57.3 1 19-6.3 37.8-8.2 44.2.2 53.5.8c9.3.6 17.2 1.1 33.7 0s44-2.4 54.8-2.8c10.8-.3 55.5-.9 55.5-.9v2.6s-35.2.7-52.7 1.1-46.3.9-56.5 1.9-37 4.3-50.2 2c-13.2-2.2-10.3-4.5-28.2-2.2-17.8 2.3-32.8 7.7-53 8.5-20.2.8-38.2-.1-50.3-1.4s-29.3-.4-39.4 0c-10.1.4-23.9 1.2-31.9 2.2l-15.3 2.7-1.2-1.2zM253.2 29s6-2.6 11-1.6 2.2.6-1 1.6-7.8 1.8-10 0zM-2.1 49.2s14.3-2 27.2-2.8c12.8-.8 33.7-3.5 45.2-2.7 11.5.8 25.5 3.5 38.2 4s41.8-1.4 42.5-1.4c.7 0-24 3.2-35.3 2.8-11.3-.3-28.5-2.1-39.7-2.8s-18-.7-30.9.8l-48.5 4 1.3-1.9zM20.4 51.9s21.2-2.3 33.2-3.2c12-.8 31.7 1.2 40 1.6l13.7.8s-33.8-1-44.8-.8-33.3 1.4-42.1 1.6zM157.2 43.6s18.1-7.5 28.8-6.9c10.7.7 23.4 4.7 34 4.8 10.7.1 36.5-1.1 43-2.4 6.5-1.3 18.3-5.5 33.5-1.7s41.3 2.1 52.1.3c10.7-1.8 24.3-1.9 24.3-1.9v1.9s-15.3 1.3-26.4 2-33.8 1.7-43.9 1c-10.1-.7-7.4-5-24.3-1.7-16.8 3.3-46.2 5.7-59.2 4.5s-26.8-5.4-35.4-4.5l-26.5 4.6zM154.5 48.5c.7-.3 19.2-5.1 33.5-5s48.5 3.7 71.5 3.7c23 .1 44.5-.1 55.3-1.3 10.8-1.2 40-1.8 46.8-2.5h15.9v1.7s-13.9-.8-20.4 0c-6.5.8-19.8.5-26.3 1.2s-33.5 2.3-43.8 2.1c-10.3-.1-28.3.8-42.2 0-13.8-.8-40.6-4.4-57.8-3.4-17.1 1.2-32.5 3.5-32.5 3.5zM180.7 47.8s5.8-1.2 15.2-.4c9.3.7 11.2 1.5 11.2 1.5s-18.9-1.5-26.4-1.1z"/></g></svg>