<?xml version="1.0" encoding="utf-8"?>
<!-- Generator: Adobe Illustrator 18.0.0, SVG Export Plug-In . SVG Version: 6.00 Build 0)  -->
<!DOCTYPE svg PUBLIC "-//W3C//DTD SVG 1.1//EN" "http://www.w3.org/Graphics/SVG/1.1/DTD/svg11.dtd">
<svg version="1.1" id="Layer_1" xmlns="http://www.w3.org/2000/svg" xmlns:xlink="http://www.w3.org/1999/xlink" x="0px" y="0px"
	 viewBox="0 0 342.3 41.8" enable-background="new 0 0 342.3 41.8" xml:space="preserve">
<path fill="#6BC6B5" d="M-1.4,43c0-22.1,30.6-40,68.3-40c21.8,0,41.1,6,53.6,15.2c4.9-3.7,10.9-6,17.5-6c10.5,0,19.7,5.6,24.7,14
	c9.7-8.8,22.5-14.1,36.6-14.1c15.2,0,29,6.3,38.9,16.3C247.4,12.9,267.1,2,290.1,2c31.1,0,56.3,20,57,44.8c0-0.3,0-0.7,0-1
	c0-25.3-25.5-45.8-57-45.8c-22.8,0-42.5,10.7-51.6,26.3c-9.8-10.5-23.7-17-39.1-17c-14.4,0-27.4,5.7-37.1,14.9
	c-4.9-8.9-14.4-14.9-25.2-14.9c-6.9,0-13.2,2.4-18.2,6.5C106.4,6.2,86.7,0,64.5,0C26.8,0-3.8,18.7-3.8,40.8"/>
<path fill="#D5E380" d="M347.1,47.8c0-25.3-25.5-45.8-57-45.8c-22.9,0-42.7,10.9-51.8,26.5c-9.9-10.1-23.7-16.3-38.9-16.3
	c-14.1,0-26.9,5.3-36.6,14.1c-5-8.4-14.2-14-24.7-14c-6.6,0-12.7,2.2-17.5,6C108,9,88.7,3,66.9,3C29.2,3-1.4,20.9-1.4,43"/>
<path fill="#D5E380" d="M138.1,69.9"/>
</svg>
