<?xml version="1.0" encoding="utf-8"?>
<!-- Generator: Adobe Illustrator 18.0.0, SVG Export Plug-In . SVG Version: 6.00 Build 0)  -->
<!DOCTYPE svg PUBLIC "-//W3C//DTD SVG 1.1//EN" "http://www.w3.org/Graphics/SVG/1.1/DTD/svg11.dtd">
<svg version="1.1" id="Layer_1" xmlns="http://www.w3.org/2000/svg" xmlns:xlink="http://www.w3.org/1999/xlink" x="0px" y="0px"
	 viewBox="0 0 215.6 83.5" enable-background="new 0 0 215.6 83.5" xml:space="preserve">
<g>
	<g>
		<path fill="#DBDADA" d="M73.6,43.6C69.6,44,62,47,56.9,47.4c-5.1,0.4-14.3-1-17.9-8c-3.7-7-2.6-13.6-5.4-15.6
			C30.8,21.7,23,20.5,23,20.5s3-1.6,3.3-3c0.3-1.4-0.6-8.5,6.3-9.6s13.2,2.6,15.4,5.5c2.2,2.9,3.4,4.2,3.4,4.2s1.1-9.8,8.8-13.1
			S76,3.9,82.1,2.8C88.3,1.7,93.5,0,93.5,0s0.2,4.4-1,6.6C91,9.7,87.7,11,87.7,11s1.3,2.9,0.2,4.4c-1.1,1.5-4.2,1.8-4.2,1.8
			s0.8,1.9-0.4,3.3c-1.1,1.4-4.1,1-4.1,1s2.4,1.9-0.1,3.2c-2.5,1.3-7.6,0.1-7.9,1.9s4.5,4.1,9,5c4.4,0.9,14.3,0.5,17.5,0.1
			s3.6,1.5,2.8,2.4c-0.8,0.9-3,1.9-3,1.9s2.2,0.4,2.1,2.4c-0.1,1.9-2.7,2.4-2.7,2.4s2.2,1.7,1.5,3.9c-0.7,2.1-2.8,2-2.8,2
			s3.1,3.7,0.8,4.7S93,52.1,88.7,49C84.5,45.8,81.9,42.7,73.6,43.6z"/>
		<path fill="#FFFFFF" d="M23,20.5c0,0,3-1.6,3.3-3c0.3-1.4-0.6-8.5,6.3-9.6s13.2,2.6,15.4,5.5c1.5,1.9,2.5,3.1,3,3.7
			c1.1,3.1,3.4,6.9,9.3,8.8c3.8,1.2,7.8,1.6,11,1.8c1.1,1.6,5.1,3.2,8.7,3.9c4.4,0.9,14.3,0.5,17.5,0.1s3.6,1.5,2.8,2.4
			c-0.8,0.9-3,1.9-3,1.9s2.2,0.4,2.1,2.4c-0.1,1.9-2.7,2.4-2.7,2.4s2.2,1.7,1.5,3.9c-0.7,2.1-2.8,2-2.8,2s3.1,3.7,0.8,4.7
			S93,52.1,88.7,49c-4.3-3.1-6.9-6.2-15.1-5.4C69.6,44,62,47,56.9,47.4c-5.1,0.4-14.3-1-17.9-8c-3.7-7-2.6-13.6-5.4-15.6
			C30.8,21.7,23,20.5,23,20.5z"/>
	</g>
	<path fill="#B2A58E" d="M29.9,13.9c0-0.3,0.1-0.5,0.2-0.7c0.1-0.2,0.3-0.4,0.5-0.6c0.2-0.2,0.4-0.3,0.6-0.4
		c0.2-0.1,0.5-0.1,0.7-0.1s0.5,0.1,0.7,0.2c0.2,0.1,0.4,0.3,0.6,0.5c0.2,0.2,0.3,0.4,0.4,0.6c0.1,0.2,0.1,0.5,0.1,0.7l-0.1,1.3
		l0.6,0l0.1-1.3c0-0.3,0-0.7-0.1-1c-0.1-0.3-0.3-0.6-0.5-0.8c-0.2-0.2-0.5-0.5-0.8-0.6c-0.3-0.2-0.6-0.2-1-0.3c-0.3,0-0.7,0-1,0.1
		c-0.3,0.1-0.6,0.3-0.8,0.5c-0.2,0.2-0.5,0.5-0.6,0.8c-0.2,0.3-0.2,0.6-0.3,1l-0.1,1.3l0.6,0L29.9,13.9z"/>
	
		<radialGradient id="SVGID_1_" cx="33.2087" cy="-96.2871" r="2.8588" gradientTransform="matrix(0.9317 -0.3633 0.3633 0.9317 41.3842 120.6883)" gradientUnits="userSpaceOnUse">
		<stop  offset="0" style="stop-color:#F598AD"/>
		<stop  offset="0.139" style="stop-color:#F7AFBF"/>
		<stop  offset="0.3847" style="stop-color:#FBD2DB"/>
		<stop  offset="0.617" style="stop-color:#FDEBEF"/>
		<stop  offset="0.8284" style="stop-color:#FEFAFB"/>
		<stop  offset="1" style="stop-color:#FFFFFF"/>
	</radialGradient>
	<circle fill="url(#SVGID_1_)" cx="37.3" cy="18.9" r="2.9"/>
</g>
<g>
	<g>
		<path fill="#DBDADA" d="M146.7,44.5c-2.7,0.3-7.7,2.3-11.1,2.5c-3.4,0.2-9.4-0.7-11.9-5.3c-2.4-4.7-1.7-9-3.6-10.4
			c-1.9-1.4-7-2.1-7-2.1s2-1.1,2.2-2c0.2-0.9-0.4-5.6,4.2-6.4c4.6-0.8,8.8,1.7,10.2,3.6c1.5,1.9,2.3,2.8,2.3,2.8s0.7-6.5,5.8-8.6
			s10.4-0.4,14.5-1.1c4.1-0.7,7.5-1.8,7.5-1.8s0.1,2.9-0.6,4.4c-1,2-3.2,2.9-3.2,2.9s0.8,1.9,0.1,2.9s-2.8,1.2-2.8,1.2
			s0.5,1.3-0.2,2.2c-0.7,0.9-2.7,0.7-2.7,0.7s1.6,1.3-0.1,2.1c-1.7,0.9-5,0.1-5.3,1.3c-0.2,1.2,3,2.7,5.9,3.3
			c2.9,0.6,9.5,0.4,11.6,0.1c2.1-0.3,2.4,1,1.9,1.6c-0.5,0.6-2,1.2-2,1.2s1.4,0.3,1.4,1.6c-0.1,1.3-1.8,1.6-1.8,1.6s1.5,1.1,1,2.6
			c-0.5,1.4-1.9,1.4-1.9,1.4s2.1,2.5,0.5,3.1c-1.5,0.7-2.1,0.5-5-1.6C153.9,46,152.2,43.9,146.7,44.5z"/>
		<path fill="#FFFFFF" d="M113.2,29.3c0,0,2-1.1,2.2-2c0.2-0.9-0.4-5.6,4.2-6.4c4.6-0.8,8.8,1.7,10.2,3.6c1,1.3,1.6,2.1,2,2.5
			c0.7,2,2.3,4.6,6.1,5.8c2.5,0.8,5.2,1.1,7.3,1.2c0.7,1,3.3,2.1,5.7,2.6c2.9,0.6,9.5,0.4,11.6,0.1c2.1-0.3,2.4,1,1.9,1.6
			c-0.5,0.6-2,1.2-2,1.2s1.4,0.3,1.4,1.6c-0.1,1.3-1.8,1.6-1.8,1.6s1.5,1.1,1,2.6c-0.5,1.4-1.9,1.4-1.9,1.4s2.1,2.5,0.5,3.1
			c-1.5,0.7-2.1,0.5-5-1.6c-2.8-2.1-4.6-4.1-10-3.6c-2.7,0.3-7.7,2.3-11.1,2.5c-3.4,0.2-9.4-0.7-11.9-5.3c-2.4-4.7-1.7-9-3.6-10.4
			C118.4,30,113.2,29.3,113.2,29.3z"/>
	</g>
	<path fill="#B2A58E" d="M117.8,24.9c0-0.2,0.1-0.3,0.1-0.5c0.1-0.1,0.2-0.3,0.3-0.4c0.1-0.1,0.3-0.2,0.4-0.2
		c0.2-0.1,0.3-0.1,0.5-0.1c0.2,0,0.3,0.1,0.5,0.1c0.1,0.1,0.3,0.2,0.4,0.3c0.1,0.1,0.2,0.3,0.2,0.4c0.1,0.2,0.1,0.3,0.1,0.5
		l-0.1,0.8l0.4,0l0.1-0.8c0-0.2,0-0.5-0.1-0.7c-0.1-0.2-0.2-0.4-0.3-0.6c-0.1-0.2-0.3-0.3-0.5-0.4c-0.2-0.1-0.4-0.2-0.6-0.2
		c-0.2,0-0.5,0-0.7,0.1c-0.2,0.1-0.4,0.2-0.6,0.3c-0.2,0.1-0.3,0.3-0.4,0.5c-0.1,0.2-0.2,0.4-0.2,0.6l-0.1,0.8l0.4,0L117.8,24.9z"/>
	
		<radialGradient id="SVGID_2_" cx="109.3909" cy="-56.6357" r="1.8933" gradientTransform="matrix(0.9317 -0.3633 0.3633 0.9317 41.3842 120.6883)" gradientUnits="userSpaceOnUse">
		<stop  offset="0" style="stop-color:#F598AD"/>
		<stop  offset="0.139" style="stop-color:#F7AFBF"/>
		<stop  offset="0.3847" style="stop-color:#FBD2DB"/>
		<stop  offset="0.617" style="stop-color:#FDEBEF"/>
		<stop  offset="0.8284" style="stop-color:#FEFAFB"/>
		<stop  offset="1" style="stop-color:#FFFFFF"/>
	</radialGradient>
	<circle fill="url(#SVGID_2_)" cx="122.7" cy="28.2" r="1.9"/>
</g>
<g>
	<g>
		<path fill="#DBDADA" d="M202.2,46.8c-2,0.2-5.7,1.7-8.2,1.9c-2.5,0.2-7-0.5-8.8-3.9s-1.3-6.6-2.6-7.7c-1.4-1-5.2-1.6-5.2-1.6
			s1.5-0.8,1.6-1.5c0.1-0.7-0.3-4.1,3.1-4.7s6.5,1.3,7.6,2.7c1.1,1.4,1.7,2.1,1.7,2.1s0.5-4.8,4.3-6.4c3.8-1.6,7.7-0.3,10.7-0.8
			c3-0.5,5.6-1.4,5.6-1.4s0.1,2.1-0.5,3.2c-0.7,1.5-2.4,2.1-2.4,2.1s0.6,1.4,0.1,2.2c-0.5,0.7-2.1,0.9-2.1,0.9s0.4,0.9-0.2,1.6
			c-0.5,0.7-2,0.5-2,0.5s1.2,0.9-0.1,1.6c-1.2,0.7-3.7,0.1-3.9,0.9c-0.2,0.9,2.2,2,4.4,2.4s7,0.3,8.6,0c1.6-0.2,1.8,0.7,1.4,1.2
			c-0.4,0.4-1.5,0.9-1.5,0.9s1.1,0.2,1,1.2c0,0.9-1.3,1.2-1.3,1.2s1.1,0.8,0.7,1.9c-0.3,1.1-1.4,1-1.4,1s1.5,1.8,0.4,2.3
			s-1.6,0.4-3.7-1.2S206.3,46.4,202.2,46.8z"/>
		<path fill="#FFFFFF" d="M177.5,35.5c0,0,1.5-0.8,1.6-1.5c0.1-0.7-0.3-4.1,3.1-4.7s6.5,1.3,7.6,2.7c0.7,0.9,1.2,1.5,1.5,1.8
			c0.5,1.5,1.7,3.4,4.5,4.3c1.8,0.6,3.8,0.8,5.4,0.9c0.6,0.8,2.5,1.6,4.3,1.9c2.2,0.4,7,0.3,8.6,0c1.6-0.2,1.8,0.7,1.4,1.2
			c-0.4,0.4-1.5,0.9-1.5,0.9s1.1,0.2,1,1.2c0,0.9-1.3,1.2-1.3,1.2s1.1,0.8,0.7,1.9c-0.3,1.1-1.4,1-1.4,1s1.5,1.8,0.4,2.3
			s-1.6,0.4-3.7-1.2s-3.4-3.1-7.4-2.6c-2,0.2-5.7,1.7-8.2,1.9c-2.5,0.2-7-0.5-8.8-3.9s-1.3-6.6-2.6-7.7
			C181.2,36,177.5,35.5,177.5,35.5z"/>
	</g>
	<path fill="#B2A58E" d="M180.8,32.2c0-0.1,0-0.2,0.1-0.4c0.1-0.1,0.1-0.2,0.2-0.3c0.1-0.1,0.2-0.1,0.3-0.2c0.1,0,0.2-0.1,0.4,0
		s0.2,0,0.4,0.1c0.1,0.1,0.2,0.1,0.3,0.2c0.1,0.1,0.1,0.2,0.2,0.3c0,0.1,0.1,0.2,0,0.4l0,0.6l0.3,0l0-0.6c0-0.2,0-0.3-0.1-0.5
		c-0.1-0.2-0.1-0.3-0.2-0.4c-0.1-0.1-0.2-0.2-0.4-0.3c-0.1-0.1-0.3-0.1-0.5-0.1c-0.2,0-0.3,0-0.5,0.1c-0.2,0.1-0.3,0.1-0.4,0.2
		c-0.1,0.1-0.2,0.2-0.3,0.4c-0.1,0.1-0.1,0.3-0.1,0.5l0,0.6l0.3,0L180.8,32.2z"/>
	
		<radialGradient id="SVGID_3_" cx="164.5415" cy="-28.1291" r="1.4006" gradientTransform="matrix(0.9317 -0.3633 0.3633 0.9317 41.3842 120.6883)" gradientUnits="userSpaceOnUse">
		<stop  offset="0" style="stop-color:#F598AD"/>
		<stop  offset="0.139" style="stop-color:#F7AFBF"/>
		<stop  offset="0.3847" style="stop-color:#FBD2DB"/>
		<stop  offset="0.617" style="stop-color:#FDEBEF"/>
		<stop  offset="0.8284" style="stop-color:#FEFAFB"/>
		<stop  offset="1" style="stop-color:#FFFFFF"/>
	</radialGradient>
	<circle fill="url(#SVGID_3_)" cx="184.5" cy="34.7" r="1.4"/>
</g>
<path fill="#878787" d="M52.1,49.6c0,0,0.3,1.3,3.2,2.6c2.8,1.3,13.8,3.6,13.8,3.6l-5.7,1.7c0,0-11.3-3.2-11.4-3.5
	c-0.1-0.3-0.5-2.6-0.5-2.7C51.4,51.3,52.1,49.6,52.1,49.6z"/>
<path fill="#878787" d="M199.8,48.2c0,0-2.4,5.6-8.7,7c-6.2,1.5-14.3,2.6-14.3,2.6l17.6,0.8l4.6-7.3L199.8,48.2z"/>
<path fill="#FFFFFF" d="M52.1,49.6c0,0-3.3,2.5,8,5.3s129.2,3.4,132.7,2c3.5-1.4,7-8.6,7-8.6s2.4,26-1.5,31.3
	c-4,5.3-79.1,4.1-97.7,3.7c-18.6-0.4-49.5-0.9-51.1-6.1C47,69,52.1,49.6,52.1,49.6z"/>
<g>
	<path fill="#B6D65F" d="M22.2,20.9c0,0-2.2-0.1-4.1,1.7s-2.7,2.2-2.7,2.2s-0.9-4.1-3.4-3.7c-2.5,0.4-3.8,2.1-3.8,2.1
		s0.6-4.2-1.6-4.7c-2.2-0.5-4.2-0.1-4.2-0.1s1.9-0.9,0.8-2.9S0,12.8,0,12.8s2,0.6,3.5-0.6s2.3-1.8,2.3-1.8s-0.1,2.5,2.4,3.2
		s4.6-1.6,4.6-1.6S13,15,15,15.6s5-0.8,5-0.8S19.9,20,22.2,20.9z"/>
	<path fill="#81C041" d="M21.8,20.7L0.5,12.9c0.7,0.1,2,0.2,3-0.7c1.5-1.3,2.3-1.8,2.3-1.8s-0.1,2.5,2.4,3.2s4.6-1.6,4.6-1.6
		S13,15,15,15.6c2,0.6,5-0.8,5-0.8S19.9,19.5,21.8,20.7z"/>
</g>
<g>
	<path fill="#B6D65F" d="M176,35.4c0,0-0.5-1-0.1-2.3c0.5-1.3,0.5-1.8,0.5-1.8s-2.2,0.5-2.5-0.8c-0.3-1.3,0.2-2.3,0.2-2.3
		s-1.9,1.2-2.6,0.2c-0.7-0.9-1-2-1-2s0,1.1-1.2,1c-1.2-0.1-1.9-0.9-1.9-0.9s0.7,0.8,0.5,1.8c-0.3,1-0.4,1.5-0.4,1.5s1.2-0.6,2.1,0.5
		c0.9,1.1,0.2,2.6,0.2,2.6s1.5-0.6,2.3,0.2c0.7,0.8,0.7,2.6,0.7,2.6S175.1,34.6,176,35.4z"/>
	<path fill="#81C041" d="M175.9,35.3l-8.4-8.5c0.2,0.3,0.5,0.9,0.3,1.6c-0.3,1-0.4,1.5-0.4,1.5s1.2-0.6,2.1,0.5
		c0.9,1.1,0.2,2.6,0.2,2.6s1.5-0.6,2.3,0.2c0.7,0.8,0.7,2.6,0.7,2.6S174.8,34.7,175.9,35.3z"/>
</g>
<g>
	<circle fill="#F1627A" cx="111.1" cy="30.2" r="3.2"/>
	<path fill="#ED1E25" d="M110.8,27c-1.1,0.1-2.1,0.8-2.6,1.7c0.5-0.4,1-0.6,1.7-0.7c1.8-0.2,3.3,1.2,3.5,2.9
		c0.1,0.6-0.1,1.2-0.4,1.8c0.8-0.6,1.3-1.7,1.2-2.8C114.1,28.2,112.6,26.9,110.8,27z"/>
</g>
</svg>
