<?xml version="1.0" encoding="utf-8"?>
<!-- Generator: Adobe Illustrator 18.0.0, SVG Export Plug-In . SVG Version: 6.00 Build 0)  -->
<!DOCTYPE svg PUBLIC "-//W3C//DTD SVG 1.1//EN" "http://www.w3.org/Graphics/SVG/1.1/DTD/svg11.dtd">
<svg version="1.1" id="Layer_1" xmlns="http://www.w3.org/2000/svg" xmlns:xlink="http://www.w3.org/1999/xlink" x="0px" y="0px"
	 viewBox="0 0 158 32.3" enable-background="new 0 0 158 32.3" xml:space="preserve">
<g>
	<g>
		<polygon fill="#B2A58E" points="0,32.3 144.8,32.3 147.5,30.2 155.6,17.2 144.8,2.2 2.7,0 0,2.2 		"/>
		<polygon fill="#EDE0B7" points="2.7,30.2 147.5,30.2 158.3,15.1 147.5,0 2.7,0 		"/>
		<g>
			<defs>
				<polygon id="SVGID_1_" points="2.7,30.2 147.5,30.2 158.3,15.1 147.5,0 2.7,0 				"/>
			</defs>
			<clipPath id="SVGID_2_">
				<use xlink:href="#SVGID_1_"  overflow="visible"/>
			</clipPath>
			<g opacity="0.3" clip-path="url(#SVGID_2_)">
				<path fill="#B2A58E" d="M-13.9,10.3c0,0,30,0.6,43.6-1.6s32.2-6.7,45.9-4.8s26.6,3.7,45.6,3.4c18.9-0.3,110-3.9,110-3.9
					l-0.7,2.9c0,0-75,1.4-93.4,2s-35,1.4-41.8,0.1S75,4.5,67.3,5S42.7,8.6,32.2,9.9s-45.3,2-45.3,2L-13.9,10.3z"/>
				<path fill="#B2A58E" d="M41.6,3.6c0,0-10.7,3.9-25.8,4.2C0.7,8-14.7,7.8-14.7,7.8l0.3-1.1c0,0,13.5,0.9,20,0.7s16.5,0,22.9-1.7
					S41.6,3.6,41.6,3.6z"/>
				<path fill="#B2A58E" d="M-12.5,1.8c0,0,16.7,1.6,22,1.9s22.7-2,22.7-2S19.7,6.3,12.7,5.7s-25.6-2.9-25.6-2.9L-12.5,1.8z"/>
				<path fill="#B2A58E" d="M70.8,7.6c0,0-0.8,0-2.2,0.1c-0.7,0-1.6,0.1-2.6,0.2c-1,0.1-2.1,0.2-3.3,0.4c-1.2,0.2-2.5,0.4-3.8,0.8
					c-0.6,0.2-1.1,0.5-1.6,1c-0.5,0.5-0.8,1.1-1,1.6c-0.1,0.6,0,1,0.4,1.3c0.4,0.3,1.1,0.6,1.8,0.7c0.7,0.1,1.5,0.2,2.2,0.3L62,14
					l1.2,0c1.6,0,3.2-0.1,4.7-0.2c1.6-0.1,3.1-0.3,4.6-0.5c1.5-0.3,2.9-0.6,4.2-1c0.6-0.2,1.3-0.5,1.7-0.9l0,0c0,0,0,0,0,0l0.1-0.1
					c0.1-0.1,0.1-0.1,0.1-0.1c0-0.1,0.1-0.2,0-0.3c0-0.2-0.2-0.5-0.4-0.7c-0.8-0.8-1.9-1.2-2.8-1.6C74.6,8.3,73.7,8,73,7.9
					c-0.7-0.2-1.3-0.2-1.6-0.3C71,7.6,70.8,7.6,70.8,7.6z M70.8,7.6c0,0,0.8,0,2.2,0.3c0.7,0.1,1.5,0.3,2.5,0.6
					c0.9,0.3,2,0.7,3.1,1.4c0.2,0.2,0.5,0.5,0.6,0.9c0.1,0.2,0,0.4,0,0.6c0,0.1-0.1,0.2-0.2,0.3L79,11.8c0,0,0,0-0.1,0.1l0,0
					c-0.5,0.5-1.1,0.9-1.8,1.2c-1.3,0.6-2.7,1.1-4.2,1.6c-1.5,0.4-3.1,0.8-4.7,1c-1.6,0.2-3.3,0.3-5,0.3l-1.3,0l-1.2-0.1
					c-0.9-0.1-1.7-0.2-2.5-0.4c-0.8-0.2-1.7-0.5-2.5-1.3c-0.4-0.4-0.7-0.8-0.8-1.4c-0.1-0.5,0-1.1,0.1-1.5c0.3-0.9,0.9-1.5,1.5-2
					c0.6-0.5,1.4-0.9,2.1-1c1.4-0.2,2.8-0.3,4-0.4C63.9,7.8,65,7.7,66,7.7c1,0,1.9-0.1,2.6-0.1C70,7.6,70.8,7.6,70.8,7.6z"/>
				<path fill="#B2A58E" d="M69.3,10.5c0,0-5.7-1.1-6.1,0s2.5,0.8,2.5,0.8C69.2,12,69.3,10.5,69.3,10.5z"/>
				<path fill="#B2A58E" d="M-14.7,15.3c0,0,32.8-1.7,40.7-2.2s16.1-1,20.1-2.6s7.8-2.9,7.8-2.9s-5.6,1.4-5.3,4S60,17.2,60,17.2
					s-7.5-0.3-11.7-2.3S38.2,14,32.2,14S-14,17.4-14,17.4L-14.7,15.3z"/>
				<path fill="#B2A58E" d="M-14.2,19.7c0,0,21.5-2.8,30.9-3.4c9.4-0.6,21.6-2.7,27.2-0.9s13,4.4,22.3,3.4c9.4-1,15.4-6.3,18.8-7.2
					c3.4-0.8,16.7-0.3,23.8-0.3s48.1-1.8,56.2-1.6c8.1,0.2,23.5,1.4,32.1,1.2c8.6-0.1,34.1-2.3,34.1-2.3l0.9,1.7
					c0,0-30.3,2.3-36.2,2.6c-5.9,0.3-21.9-1.3-27.9-1.7c-6-0.4-16.8,0.1-26.7,0.3c-9.9,0.2-40.1,1.7-44.3,1.5
					c-4.2-0.2-8.5-0.2-11.8,1.3S73.6,21.8,64,21c-9.6-0.8-18-4.3-23.2-4.9C35.7,15.6,7,18.8-1.8,19.6s-13,0.9-13,0.9L-14.2,19.7z"/>
				<path fill="#B2A58E" d="M190.1,8.7c0,0,10.8,0.6,14.8,0c4-0.7,5,0,5,0s-15,1.9-17.4,1C190.1,8.7,190.1,8.7,190.1,8.7z"/>
				<path fill="#B2A58E" d="M-15.8,22.2c0,0,43.2-2.8,48.8-3.4s9.7-0.2,13.4,0.5s6,1.7,6,1.7s-26.7-0.3-34.9,0.2
					c-8.2,0.5-31.4,2.6-31.4,2.6L-15.8,22.2z"/>
				<path fill="#B2A58E" d="M50.7,2.4c1.9-0.1,28.2-2.3,38-0.1s25.5,3.1,31,2.6s52.9-3.1,63.7-3.4c10.8-0.4,32.6,0.2,37.9-0.6
					c5.3-0.8,9.2-1.2,9.2-1.2l-0.6,1.9c0,0-21.4,0.6-28.2,0.6s-43,1.6-49.7,1.6c-6.7,0-32.4,2.2-38.2,1.5
					c-5.8-0.7-23.4-1.7-28.4-2.6c-5-0.8-24.3,0.8-29,0.1S50.7,2.4,50.7,2.4z"/>
				<path fill="#B2A58E" d="M104.5,1.4c0,0,13.5,1.9,22.3,1.4s22.3-2.3,22.3-2.3S132,1.6,126,1.4S104.5,1.4,104.5,1.4z"/>
				<path fill="#B2A58E" d="M159.1-0.1c0,0,22.3-1.1,30.4-0.8s22.2,0.2,26.3-0.1s11.9-1.5,11.9-1.5l0,1.1c0,0-24.4,1.9-33.7,1.1
					s-20.8,0.3-24.9,0.6C165.1,0.8,159.1-0.1,159.1-0.1z"/>
				<path fill="#B2A58E" d="M84.7,18.4c2.8-2,4.1-4.1,12.4-4.3s35.8,0.7,41.3-0.1s18-2.7,24.6-1.6s17.3,2.4,19.7,2.3s3.5,0,3.5,0
					s-2.9,0.2-11.3,0.3c-8.4,0.1-10.7-1.5-17.4-1.6c-6.7-0.1-16.9,2.2-26.4,2.4s-22.3-1-26.4-0.6c-4.1,0.3-6.5,0.2-12,1.8
					C87.1,18.7,84.7,18.4,84.7,18.4z"/>
				<path fill="#B2A58E" d="M-14.6,26.8c0,0,18.3-4,27.4-4c9,0,23.3-0.6,28.4-0.1s31.2,1.9,37.1,0.5c5.9-1.3,12.3-4.1,24.5-5.4
					c12.2-1.2,28.6,0.1,34.7,0.4c6,0.3,11.1,0.7,21.8-0.1c10.7-0.8,28.5-1.7,35.5-1.9c7-0.2,35.9-0.7,35.9-0.7l0,1.7
					c0,0-22.8,0.5-34.1,0.8c-11.3,0.3-30,0.7-36.6,1.3c-6.6,0.7-24,2.8-32.5,1.4c-8.5-1.4-6.7-2.9-18.2-1.4
					c-11.5,1.5-21.3,5-34.3,5.6s-24.7,0-32.6-0.8c-7.9-0.8-19-0.2-25.5,0.1S1.3,25.2-3.9,25.8s-9.9,1.8-9.9,1.8L-14.6,26.8z"/>
				<path fill="#B2A58E" d="M151.5,15.9c0,0,3.9-1.7,7.1-1.1s1.4,0.4-0.6,1C155.9,16.5,152.9,17,151.5,15.9z"/>
				<path fill="#B2A58E" d="M-13.8,29.4c0,0,9.3-1.3,17.6-1.9c8.3-0.6,21.8-2.3,29.2-1.8c7.4,0.5,16.5,2.2,24.7,2.5
					c8.2,0.3,27.1-1,27.5-1s-15.5,2.1-22.9,1.9C55,29,43.9,27.9,36.7,27.5s-11.5-0.5-19.9,0.5c-8.4,1-31.4,2.7-31.4,2.7L-13.8,29.4z
					"/>
				<path fill="#B2A58E" d="M0.7,31.1c0,0,13.7-1.5,21.5-2.1c7.8-0.6,20.5,0.7,25.9,1c5.4,0.3,8.9,0.5,8.9,0.5s-21.9-0.6-29-0.4
					S6.5,31,0.7,31.1z"/>
				<path fill="#B2A58E" d="M89.4,25.5c0,0,11.7-4.9,18.6-4.5c6.9,0.4,15.1,3,22.1,3c6.9,0,23.6-0.8,27.8-1.7
					c4.2-0.9,11.9-3.6,21.7-1.1s26.8,1.3,33.7,0.1c7-1.2,15.7-1.3,15.7-1.3l0,1.2c0,0-9.9,0.9-17.1,1.3s-21.9,1.2-28.5,0.8
					c-6.5-0.4-4.8-3.2-15.7-1s-29.9,3.8-38.3,3c-8.4-0.7-17.4-3.4-22.9-2.9C101,23.1,89.4,25.5,89.4,25.5z"/>
				<path fill="#B2A58E" d="M87.6,28.7c0.4-0.2,12.4-3.3,21.7-3.3s31.4,2.3,46.3,2.3c14.9,0,28.8-0.2,35.8-0.9
					c7-0.8,25.9-1.2,30.3-1.7c4.4-0.4,10.3,0,10.3,0l0,1.1c0,0-9-0.5-13.2,0c-4.2,0.6-12.8,0.4-17.1,0.8s-21.7,1.5-28.4,1.5
					c-6.7-0.1-18.3,0.6-27.3,0.1c-9-0.5-26.3-2.8-37.4-2.1S87.6,28.7,87.6,28.7z"/>
				<path fill="#B2A58E" d="M104.6,28.1c0,0,3.8-0.8,9.8-0.3c6,0.5,7.2,1,7.2,1S109.4,27.9,104.6,28.1z"/>
			</g>
		</g>
	</g>
</g>
</svg>
