<?xml version="1.0" encoding="utf-8"?>
<!-- Generator: Adobe Illustrator 18.0.0, SVG Export Plug-In . SVG Version: 6.00 Build 0)  -->
<!DOCTYPE svg PUBLIC "-//W3C//DTD SVG 1.1//EN" "http://www.w3.org/Graphics/SVG/1.1/DTD/svg11.dtd">
<svg version="1.1" id="Layer_1" xmlns="http://www.w3.org/2000/svg" xmlns:xlink="http://www.w3.org/1999/xlink" x="0px" y="0px"
	 viewBox="0 0 199.2 41.1" enable-background="new 0 0 199.2 41.1" xml:space="preserve">
<g>
	<g>
		<polygon fill="#B2A58E" points="199.2,40.7 17,41.1 13.6,38.4 3.4,22.1 16.9,3.1 195.7,0 199.1,2.7 		"/>
		<polygon fill="#EDE0B7" points="195.8,38 13.6,38.4 0,19.4 13.5,0.4 195.7,0 		"/>
		<g>
			<defs>
				<polygon id="SVGID_1_" points="195.8,38 13.6,38.4 0,19.4 13.5,0.4 195.7,0 				"/>
			</defs>
			<clipPath id="SVGID_2_">
				<use xlink:href="#SVGID_1_"  overflow="visible"/>
			</clipPath>
			<g opacity="0.3" clip-path="url(#SVGID_2_)">
				<path fill="#B2A58E" d="M-76.2,12.3c0,0,33.8,1.2,49.2-1S9.6,4.4,25,6.7s30,4.7,51.4,4.7s124.4-2.3,124.4-2.3l-0.9,3.3
					c0,0-84.7,0.2-105.5,0.6c-20.8,0.4-39.6,1-47.2-0.6S24.3,7.4,15.6,7.8c-8.7,0.4-27.9,3.6-39.7,4.8s-51.2,1.5-51.2,1.5
					L-76.2,12.3z"/>
				<path fill="#B2A58E" d="M-13.4,5.7c0,0-12.1,4.2-29.2,4.2c-17.1,0-34.5-0.5-34.5-0.5l0.4-1.2c0,0,15.3,1.3,22.6,1.1
					c7.4-0.2,18.6,0.3,25.9-1.5S-13.4,5.7-13.4,5.7z"/>
				<path fill="#B2A58E" d="M-74.5,2.7c0,0,18.8,2.1,24.8,2.6S-24,3.4-24,3.4s-14.2,5-22.1,4.2s-28.8-3.8-28.8-3.8L-74.5,2.7z"/>
				<path fill="#B2A58E" d="M19.5,10.8c0,0-0.9,0-2.5,0c-0.8,0-1.8,0.1-2.9,0.2c-1.1,0.1-2.4,0.2-3.7,0.4C9,11.5,7.5,11.8,6,12.2
					c-0.7,0.2-1.3,0.6-1.8,1.1c-0.5,0.5-1,1.2-1.1,1.8c-0.2,0.7,0,1.1,0.5,1.5c0.5,0.4,1.2,0.7,2,0.8c0.8,0.2,1.7,0.3,2.5,0.3
					l1.4,0.1l1.3,0c1.8,0,3.6,0,5.4-0.1c1.8-0.1,3.5-0.3,5.2-0.5c1.7-0.3,3.3-0.6,4.7-1.1c0.7-0.3,1.4-0.5,1.9-0.9l0.1,0
					c0,0,0,0,0,0l0.1-0.1c0.1-0.1,0.1-0.1,0.1-0.1c0-0.1,0.1-0.2,0.1-0.3c0-0.3-0.2-0.5-0.4-0.8C27,13,25.8,12.5,24.7,12
					c-1-0.4-2-0.7-2.8-0.9c-0.8-0.2-1.4-0.3-1.8-0.3C19.7,10.8,19.5,10.8,19.5,10.8z M19.5,10.8c0,0,0.9,0,2.5,0.3
					c0.8,0.2,1.7,0.4,2.8,0.8c1.1,0.4,2.3,0.8,3.4,1.7c0.3,0.2,0.6,0.5,0.7,1c0.1,0.2,0,0.5,0,0.7c-0.1,0.1-0.1,0.3-0.2,0.3
					l-0.1,0.1c0,0,0,0-0.1,0.1l-0.1,0.1c-0.6,0.6-1.3,0.9-2,1.3c-1.5,0.7-3.1,1.2-4.8,1.7c-1.7,0.4-3.5,0.8-5.3,1
					c-1.8,0.2-3.7,0.3-5.6,0.3l-1.4-0.1l-1.4-0.1c-1-0.1-1.9-0.2-2.9-0.5c-0.9-0.3-1.9-0.7-2.8-1.5c-0.4-0.4-0.8-1-0.9-1.6
					c-0.1-0.6,0-1.2,0.2-1.7c0.4-1,1.1-1.7,1.8-2.3c0.7-0.6,1.5-1,2.4-1.1c1.6-0.3,3.1-0.3,4.5-0.4c1.4,0,2.7-0.1,3.8-0.1
					c1.1,0,2.1,0,2.9,0C18.6,10.7,19.5,10.8,19.5,10.8z"/>
				<path fill="#B2A58E" d="M17.8,14c0,0-6.4-1.4-6.9-0.1s2.8,0.9,2.8,0.9C17.6,15.7,17.8,14,17.8,14z"/>
				<path fill="#B2A58E" d="M-77.2,17.9c0,0,37.1-1.4,46-1.7c8.9-0.3,18.2-0.8,22.8-2.5s8.8-3.1,8.8-3.1s-6.4,1.5-6,4.4
					s12.7,6.4,12.7,6.4s-8.4-0.5-13.2-2.8s-11.4-1.2-18.2-1.3s-52.3,3-52.3,3L-77.2,17.9z"/>
				<path fill="#B2A58E" d="M-76.7,22.8c0,0,24.3-2.8,35-3.3s24.4-2.7,30.8-0.5s14.6,5.2,25.2,4.3c10.6-1,17.5-6.9,21.3-7.7
					c3.9-0.9,18.9,0,26.9,0.1c8,0.1,54.3-1.2,63.5-0.8s26.6,2,36.2,2s38.5-2,38.5-2l1,1.9c0,0-34.3,2-40.9,2.3s-24.8-1.8-31.5-2.5
					c-6.8-0.6-19-0.2-30.2-0.2s-45.3,1.2-50.1,0.8s-9.5-0.4-13.4,1.2s-13.1,8.4-23.9,7.3s-20.2-5.2-26.1-5.9
					c-5.8-0.7-38.2,2.3-48.2,3.1c-10,0.8-14.6,0.8-14.6,0.8L-76.7,22.8z"/>
				<path fill="#B2A58E" d="M154.3,14.3c0,0,12.2,0.9,16.7,0.2c4.5-0.7,5.6,0.1,5.6,0.1s-17,1.9-19.7,0.8
					C154.3,14.3,154.3,14.3,154.3,14.3z"/>
				<path fill="#B2A58E" d="M-78.6,25.7c0,0,48.8-2.4,55.2-2.9c6.3-0.5,11-0.1,15.1,0.8c4.1,0.9,6.8,2.1,6.8,2.1s-30.1-0.8-39.4-0.5
					s-35.5,2.4-35.5,2.4L-78.6,25.7z"/>
				<path fill="#B2A58E" d="M-3.1,4.5c2.2-0.1,31.9-2.1,42.9,0.6s28.7,3.9,35,3.5s59.8-2.5,72.1-2.7c12.2-0.2,36.9,0.9,42.9,0
					s10.4-1.1,10.4-1.1L199.4,7c0,0-24.2,0.3-31.8,0.2c-7.7-0.1-48.6,1.1-56.1,0.9c-7.6-0.1-36.6,1.9-43.2,1
					c-6.6-0.9-26.4-2.4-32-3.4c-5.6-1-27.4,0.4-32.8-0.4S-3.1,4.5-3.1,4.5z"/>
				<path fill="#B2A58E" d="M57.7,4.4c0,0,15.3,2.3,25.1,2c9.9-0.3,25.3-2.2,25.3-2.2s-19.3,1-26.1,0.6S57.7,4.4,57.7,4.4z"/>
				<path fill="#B2A58E" d="M119.4,3.7c0,0,25.3-0.8,34.4-0.3s25.1,0.7,29.8,0.4c4.6-0.3,13.5-1.4,13.5-1.4l0,1.2
					c0,0-27.6,1.6-38.1,0.7c-10.5-1-23.5-0.1-28.2,0.2C126.1,4.8,119.4,3.7,119.4,3.7z"/>
				<path fill="#B2A58E" d="M35,23.3c3.2-2.2,4.7-4.5,14.1-4.6c9.4-0.1,40.5,1.4,46.7,0.6c6.2-0.8,20.4-2.8,27.8-1.3s19.5,3,22.2,3
					s3.9,0.1,3.9,0.1s-3.3,0.2-12.8,0.2c-9.5,0-12-1.9-19.6-2.1c-7.6-0.2-19.2,2.2-29.9,2.2s-25.2-1.5-29.9-1.2s-7.3,0.1-13.6,1.8
					C37.7,23.6,35,23.3,35,23.3z"/>
				<path fill="#B2A58E" d="M-77.4,30.9c0,0,20.8-4.2,31-4.1s26.3-0.3,32,0.4s35.2,2.7,41.9,1.3s14-4.4,27.8-5.6s32.3,0.6,39.1,1.1
					c6.8,0.5,12.5,1,24.6,0.3s32.2-1.4,40.1-1.5c7.9-0.1,40.6-0.1,40.6-0.1l0,1.9c0,0-25.7,0.2-38.5,0.3
					c-12.8,0.1-33.9,0.2-41.4,0.8c-7.4,0.6-27.1,2.8-36.7,1c-9.6-1.8-7.5-3.4-20.6-1.9c-13.1,1.5-24.1,5.3-38.9,5.7
					S-4.1,30.1-13,29.1s-21.5-0.6-28.8-0.4s-17.5,0.7-23.4,1.3c-5.9,0.7-11.2,1.8-11.2,1.8L-77.4,30.9z"/>
				<path fill="#B2A58E" d="M110.5,21.6c0,0,4.4-1.8,8.1-1.1c3.6,0.8,1.6,0.4-0.7,1.2S112.1,22.9,110.5,21.6z"/>
				<path fill="#B2A58E" d="M-76.5,33.9c0,0,10.5-1.3,19.9-1.8s24.7-2.2,33.1-1.5s18.6,2.8,27.9,3.3s30.6-0.6,31.1-0.6
					c0.5,0-17.6,2.1-25.9,1.7c-8.3-0.4-20.8-1.8-29-2.5c-8.2-0.6-13-0.8-22.5,0.2s-35.5,2.4-35.5,2.4L-76.5,33.9z"/>
				<path fill="#B2A58E" d="M-60.1,36.1c0,0,15.5-1.5,24.3-2c8.8-0.5,23.2,1.2,29.3,1.6c6.1,0.4,10,0.7,10,0.7s-24.7-1.1-32.8-1
					S-53.6,36-60.1,36.1z"/>
				<path fill="#B2A58E" d="M40.1,31.3c0,0,13.3-5.3,21.1-4.7s17,3.7,24.9,3.8s26.7-0.5,31.5-1.4s13.5-3.8,24.5-0.9
					c11.1,3,30.2,2,38.1,0.7c7.9-1.2,17.8-1.1,17.8-1.1l0,1.4c0,0-11.2,0.8-19.3,1.2c-8.1,0.4-24.8,0.9-32.2,0.3
					c-7.4-0.6-5.4-3.7-17.7-1.5S95,32.9,85.5,31.9c-9.5-1-19.6-4.2-25.9-3.7C53.3,28.8,40.1,31.3,40.1,31.3z"/>
				<path fill="#B2A58E" d="M38.1,34.9c0.5-0.2,14.1-3.6,24.6-3.3s35.5,3.2,52.3,3.4s32.6,0.4,40.5-0.4c7.9-0.7,29.3-0.9,34.3-1.4
					c5-0.4,11.6,0.2,11.6,0.2l0,1.2c0,0-10.2-0.7-14.9-0.2c-4.8,0.5-14.5,0.2-19.3,0.6c-4.8,0.4-24.5,1.3-32.1,1.1
					c-7.6-0.2-20.7,0.3-30.9-0.4s-29.6-3.6-42.3-3S38.1,34.9,38.1,34.9z"/>
				<path fill="#B2A58E" d="M57.3,34.6c0,0,4.3-0.8,11.1-0.2c6.8,0.6,8.2,1.2,8.2,1.2S62.8,34.5,57.3,34.6z"/>
			</g>
		</g>
	</g>
</g>
</svg>
