<?xml version="1.0" encoding="utf-8"?>
<!-- Generator: Adobe Illustrator 18.0.0, SVG Export Plug-In . SVG Version: 6.00 Build 0)  -->
<!DOCTYPE svg PUBLIC "-//W3C//DTD SVG 1.1//EN" "http://www.w3.org/Graphics/SVG/1.1/DTD/svg11.dtd">
<svg version="1.1" id="Layer_1" xmlns="http://www.w3.org/2000/svg" xmlns:xlink="http://www.w3.org/1999/xlink" x="0px" y="0px"
	 viewBox="0 0 36.1 251.9" enable-background="new 0 0 36.1 251.9" xml:space="preserve">
<g>
	<g>
		<polygon fill="#B2A58E" points="4.3,15.1 0,240.8 4.3,246.7 36.1,246.7 36.1,15.1 31.8,8.8 		"/>
		<rect x="0" y="8.8" fill="#EDE0B7" width="31.8" height="231.6"/>
		<g>
			<defs>
				<rect id="SVGID_1_" x="0" y="8.8" width="31.8" height="231.6"/>
			</defs>
			<clipPath id="SVGID_2_">
				<use xlink:href="#SVGID_1_"  overflow="visible"/>
			</clipPath>
			<g opacity="0.3" clip-path="url(#SVGID_2_)">
				<path fill="#B2A58E" d="M24,9.2c0,0-1.4,29.5,0.3,43c1.7,13.5,5.4,32,3.2,45.4s-4.2,26.2-4.5,44.8
					c-0.3,18.7,0.5,108.7,0.5,108.7l-2.7-0.8c0,0,0.8-74,0.7-92.2c-0.1-18.1-0.4-34.6,1.1-41.2c1.4-6.6,4.4-19.9,4.1-27.5
					c-0.3-7.6-2.7-24.4-3.6-34.8S22.5,10,22.5,10L24,9.2z"/>
				<path fill="#B2A58E" d="M28.8,64.2c0,0-3.4-10.7-3.2-25.6c0.2-14.9,0.8-30.1,0.8-30.1l1,0.3c0,0-1.2,13.3-1.2,19.7
					s-0.5,16.2,0.9,22.6C28.6,57.6,28.8,64.2,28.8,64.2z"/>
				<path fill="#B2A58E" d="M32,10.8c0,0-2,16.4-2.4,21.6S30.8,55,30.8,55s-4-12.5-3.3-19.4S31,10.5,31,10.5L32,10.8z"/>
				<path fill="#B2A58E" d="M24.2,92.9c0,0,0-0.8,0-2.2c0-0.7,0-1.6-0.1-2.5c-0.1-1-0.1-2.1-0.3-3.3c-0.1-1.2-0.3-2.5-0.6-3.8
					c-0.1-0.6-0.5-1.1-0.9-1.6c-0.4-0.5-1-0.9-1.5-1c-0.5-0.1-0.9,0-1.3,0.4c-0.3,0.4-0.6,1.1-0.7,1.8c-0.2,0.7-0.2,1.5-0.3,2.2
					L18.3,84l0,1.2c-0.1,1.6,0,3.1,0,4.7c0.1,1.6,0.2,3.1,0.4,4.5c0.2,1.5,0.4,2.9,0.8,4.2c0.2,0.6,0.4,1.3,0.8,1.7l0,0c0,0,0,0,0,0
					l0.1,0.1c0.1,0.1,0.1,0.1,0.1,0.1c0.1,0,0.2,0.1,0.3,0.1c0.2,0,0.4-0.2,0.6-0.4c0.8-0.8,1.2-1.9,1.6-2.7
					c0.4-0.9,0.6-1.7,0.8-2.4c0.2-0.7,0.3-1.2,0.3-1.6C24.2,93.1,24.2,92.9,24.2,92.9z M24.2,92.9c0,0,0,0.8-0.3,2.2
					c-0.1,0.7-0.4,1.5-0.7,2.4c-0.3,0.9-0.7,2-1.4,3c-0.2,0.2-0.4,0.5-0.8,0.6c-0.2,0.1-0.4,0-0.6,0c-0.1,0-0.2-0.1-0.3-0.2
					l-0.1-0.1c0,0,0,0-0.1-0.1l0-0.1c-0.5-0.5-0.8-1.2-1.1-1.8c-0.6-1.3-1-2.7-1.4-4.2c-0.4-1.5-0.6-3.1-0.8-4.7
					c-0.2-1.6-0.2-3.2-0.2-4.9l0.1-1.3l0.1-1.2c0.1-0.8,0.2-1.7,0.5-2.5c0.3-0.8,0.6-1.7,1.3-2.4c0.3-0.4,0.8-0.7,1.3-0.7
					c0.5-0.1,1,0,1.4,0.2c0.8,0.4,1.4,1,1.9,1.6c0.5,0.6,0.8,1.4,0.9,2.1c0.2,1.4,0.2,2.7,0.3,3.9c0,1.2,0,2.3,0,3.3
					c0,1,0,1.8,0,2.5C24.2,92.1,24.2,92.9,24.2,92.9z"/>
				<path fill="#B2A58E" d="M21.4,91.3c0,0,1.2-5.6,0.2-6c-1.1-0.4-0.8,2.4-0.8,2.4C20.1,91.1,21.4,91.3,21.4,91.3z"/>
				<path fill="#B2A58E" d="M19.3,8.3c0,0,0.7,32.4,0.9,40.2c0.2,7.8,0.5,15.9,1.9,19.9s2.5,7.8,2.5,7.8s-1.2-5.6-3.6-5.3
					c-2.4,0.2-5.5,11-5.5,11s0.5-7.3,2.5-11.5c1.9-4.1,1.2-10,1.3-15.8S17.3,8.9,17.3,8.9L19.3,8.3z"/>
				<path fill="#B2A58E" d="M15.2,8.7c0,0,2.1,21.3,2.3,30.6s1.9,21.3,0,26.9S13,78.8,13.7,88.1s5.5,15.3,6.2,18.7
					c0.7,3.4-0.2,16.5-0.4,23.5c-0.2,7,0.4,47.5,0,55.5s-1.9,23.2-2,31.6s1.2,33.7,1.2,33.7l-1.6,0.8c0,0-1.3-30-1.5-35.8
					c-0.2-5.8,1.8-21.6,2.4-27.5c0.6-5.9,0.4-16.6,0.5-26.4s-0.5-39.6-0.1-43.8c0.3-4.2,0.4-8.3-0.9-11.7s-6.8-11.5-5.9-20.9
					s4.6-17.6,5.2-22.7c0.7-5.1-1.5-33.4-2-42.2c-0.5-8.7-0.5-12.8-0.5-12.8L15.2,8.7z"/>
				<path fill="#B2A58E" d="M19.7,210.5c0,0-0.9,10.6-0.4,14.6c0.5,4-0.1,4.9-0.1,4.9s-1.4-14.9-0.4-17.2S19.7,210.5,19.7,210.5z"/>
				<path fill="#B2A58E" d="M12.8,7c0,0,1.4,42.7,1.8,48.2c0.4,5.6,0,9.6-0.9,13.2C13,72,12,74.3,12,74.3s1-26.3,0.8-34.4
					S11.2,8.9,11.2,8.9L12.8,7z"/>
				<path fill="#B2A58E" d="M29.6,73.2c0.1,1.9,1.4,27.9-1,37.5s-3.6,25-3.3,30.5c0.3,5.4,1.4,52.3,1.4,63c0,10.7-1.1,32.2-0.5,37.4
					c0.6,5.2,0.8,9.1,0.8,9.1l-1.8-0.7c0,0,0-21.1,0.2-27.8s-0.3-42.4-0.1-49s-1.2-32-0.4-37.7c0.8-5.7,2.3-23.1,3.2-27.9
					c0.9-4.9,0-24,0.7-28.6C29.7,74.2,29.6,73.2,29.6,73.2z"/>
				<path fill="#B2A58E" d="M29.1,126.3c0,0-2.1,13.3-2,21.9s1.5,22.1,1.5,22.1s-0.6-16.9-0.2-22.8
					C28.8,141.5,29.1,126.3,29.1,126.3z"/>
				<path fill="#B2A58E" d="M28.9,180.2c0,0,0.4,22.1-0.2,30s-0.9,21.9-0.7,26s1,11.8,1,11.8l-1,0c0,0-1.1-24.2-0.1-33.3
					s0.3-20.6,0.1-24.6C27.9,186,28.9,180.2,28.9,180.2z"/>
				<path fill="#B2A58E" d="M13.5,106.2c1.8,2.8,3.7,4.2,3.7,12.4c0,8.2-1.6,35.3-1.1,40.8s2.1,17.9,0.8,24.3
					c-1.3,6.5-2.7,17-2.8,19.3c0,2.3-0.1,3.4-0.1,3.4s-0.1-2.9,0-11.2c0.1-8.3,1.7-10.5,2-17.1c0.3-6.6-1.6-16.8-1.5-26.2
					s1.6-22,1.4-26.1c-0.2-4.1,0-6.4-1.4-11.9S13.5,106.2,13.5,106.2z"/>
				<path fill="#B2A58E" d="M8.4,8c0,0,3.3,18.2,3,27.1c-0.2,8.9-0.1,23-0.7,28c-0.6,5-2.6,30.7-1.6,36.6s3.6,12.2,4.4,24.3
					s-0.9,28.2-1.4,34.2c-0.5,6-1,10.9-0.6,21.5s0.8,28.2,0.8,35.1c0,6.9-0.4,35.5-0.4,35.5l-1.6,0c0,0,0.1-22.5,0.2-33.7
					c0.1-11.2,0.2-29.6-0.2-36.1c-0.4-6.5-2-23.7-0.4-32.1c1.6-8.4,3-6.5,1.8-18s-4.1-21.1-4.3-34C7.4,83.5,8.3,72,9.2,64.2
					c1-7.8,0.7-18.7,0.7-25.2S9.5,23.7,9.1,18.6c-0.5-5.1-1.4-9.8-1.4-9.8L8.4,8z"/>
				<path fill="#B2A58E" d="M14.1,172.2c0,0,1.5,3.9,0.8,7.1c-0.7,3.2-0.4,1.4-1-0.7S12.9,173.6,14.1,172.2z"/>
				<path fill="#B2A58E" d="M6,8.7c0,0,1,9.2,1.3,17.4S8.8,47.7,8.1,55S5.5,71.3,5,79.4s0.1,26.8,0.1,27.2c0,0.4-1.5-15.4-1.1-22.6
					s1.8-18.2,2.4-25.3S7.2,47.2,6.5,39S4.9,7.9,4.9,7.9L6,8.7z"/>
				<path fill="#B2A58E" d="M3.9,23.1c0,0,1.1,13.6,1.4,21.2S4.1,64.5,3.7,69.8C3.3,75.1,3,78.6,3,78.6S4.2,57,4.2,49.9
					C4.2,42.9,3.9,28.7,3.9,23.1z"/>
				<path fill="#B2A58E" d="M6.8,110.6c0,0,4.3,11.7,3.7,18.5C9.9,136,7.2,144,7,150.8c-0.2,6.8,0.1,23.3,0.8,27.5
					s3.1,11.8,0.5,21.4s-2,26.4-1.1,33.3s0.7,15.6,0.7,15.6l-1.2,0c0,0-0.5-9.8-0.8-16.9S5.5,210,6.1,203.6
					c0.6-6.4,3.2-4.7,1.4-15.5c-1.8-10.8-2.7-29.6-1.8-37.9c0.9-8.3,3.7-17,3.3-22.5C8.7,122.2,6.8,110.6,6.8,110.6z"/>
				<path fill="#B2A58E" d="M3.8,108.8c0.2,0.4,2.8,12.3,2.5,21.5s-3,30.9-3.5,45.6c-0.4,14.7-0.7,28.4-0.1,35.4
					c0.5,6.9,0.4,25.6,0.7,30s-0.3,10.2-0.3,10.2l-1,0c0,0,0.7-8.9,0.3-13c-0.4-4.2,0-12.7-0.3-16.8c-0.3-4.2-0.8-21.4-0.6-28
					c0.3-6.6,0-18.1,0.7-26.9c0.7-8.8,3.4-25.8,3-36.9S3.8,108.8,3.8,108.8z"/>
				<path fill="#B2A58E" d="M3.8,125.6c0,0,0.6,3.7,0,9.7c-0.6,6-1.1,7.1-1.1,7.1S3.9,130.4,3.8,125.6z"/>
			</g>
		</g>
	</g>
	<path fill="#FFFFFF" d="M11.4,0C5.2,0,0.1,3.9,0.1,8.8h22.5C22.6,3.9,17.6,0,11.4,0z"/>
	<path fill="#FFFFFF" d="M20.3,5c-3.5,0-6.4,1.7-6.4,3.7h12.8C26.7,6.7,23.8,5,20.3,5z"/>
	<path fill="#FFFFFF" d="M13.9,11.7c3.5,0,6.4-1.7,6.4-3.7H7.6C7.6,10,10.4,11.7,13.9,11.7z"/>
</g>
</svg>
