<?xml version="1.0" encoding="utf-8"?>
<!-- Generator: Adobe Illustrator 18.0.0, SVG Export Plug-In . SVG Version: 6.00 Build 0)  -->
<!DOCTYPE svg PUBLIC "-//W3C//DTD SVG 1.1//EN" "http://www.w3.org/Graphics/SVG/1.1/DTD/svg11.dtd">
<svg version="1.1" id="Layer_1" xmlns="http://www.w3.org/2000/svg" xmlns:xlink="http://www.w3.org/1999/xlink" x="0px" y="0px"
	 viewBox="0 0 255.6 147.4" enable-background="new 0 0 255.6 147.4" xml:space="preserve">
<path fill="#65C5B4" d="M19.1,43.3c0,0,13.9,0.7,18.9-2.6c5-3.4,10.2-17.8,30.2-12.6s30.7,21.7,43.1,14.7s14.8-10.7,33.9-0.4
	s33.7,16.8,41,14.2c7.3-2.6,37.4-6.6,42-16.2c4.6-9.6,3.5-21.9,3.5-21.9s8.4,21.2,1.5,29.3c-6.9,8.1-32.6,16.5-47.2,16
	c-14.7-0.5-39.9-15.2-50-14.4c-10.1,0.8-21.3,4.4-34.8,4.7c-13.4,0.3-29.3-12-42.1-12.7S31.6,55.8,24.2,55.5s-14.2,0-14.2,0
	L19.1,43.3z"/>
<path fill="#6BC6B5" d="M19.1,119.4c0,0,13.9-0.7,18.9,2.6c5,3.4,10.2,17.8,30.2,12.6c20-5.2,30.7-21.7,43.1-14.7
	s14.8,10.7,33.9,0.4c19.1-10.3,33.7-16.8,41-14.2c7.3,2.6,37.4,6.6,42,16.2c4.6,9.6,3.5,21.9,3.5,21.9s8.4-21.2,1.5-29.3
	c-6.9-8.1-32.6-16.5-47.2-16c-14.7,0.5-39.9,15.2-50,14.4s-21.3-4.4-34.8-4.7s-29.3,12-42.1,12.7c-12.8,0.7-27.5-14.6-34.9-14.3
	c-7.4,0.3-14.2,0-14.2,0L19.1,119.4z"/>
<g>
	<path fill="#C1D862" d="M125.8,48c0,0-2.3-3.9-7.6-5.1c-5.3-1.2-6.9-2.2-6.9-2.2s6.2-6.3,2.5-10.2s-8-4.3-8-4.3s7.9-3.8,6.3-8.3
		s-4.6-7.5-4.6-7.5s3.7,2.2,6-2.1s1-8.4,1-8.4s1.2,4.2,5.2,5.5c4,1.2,5.9,1.9,5.9,1.9s-4.4,2.7-2.7,7.9s8.1,6.1,8.1,6.1
		s-5.2,3.8-4,8.1c1.2,4.2,7.2,7.7,7.2,7.7S124.9,43,125.8,48z"/>
	<path fill="#C1D862" d="M125.8,47.2L114.8,1c0.6,1.3,2,3.6,4.8,4.5c4,1.2,5.9,1.9,5.9,1.9s-4.4,2.7-2.7,7.9s8.1,6.1,8.1,6.1
		s-5.2,3.8-4,8.1c1.2,4.2,7.2,7.7,7.2,7.7S125.8,42.4,125.8,47.2z"/>
</g>
<path fill="#17B24B" d="M125.8,48c0,0-2.3-3.9-7.6-5.1c-5.3-1.2-6.9-2.2-6.9-2.2s6.2-6.3,2.5-10.2s-8-4.3-8-4.3s7.9-3.8,6.3-8.3
	s-4.6-7.5-4.6-7.5s3.7,2.2,6-2.1s1-8.4,1-8.4s1.2,4.2,5.2,5.5c4,1.2,5.9,1.9,5.9,1.9s-4.4,2.7-2.7,7.9s8.1,6.1,8.1,6.1
	s-5.2,3.8-4,8.1c1.2,4.2,7.2,7.7,7.2,7.7S124.9,43,125.8,48z"/>
<path fill="#0B7A3D" d="M125.8,47.2L114.8,1c0.6,1.3,2,3.6,4.8,4.5c4,1.2,5.9,1.9,5.9,1.9s-4.4,2.7-2.7,7.9s8.1,6.1,8.1,6.1
	s-5.2,3.8-4,8.1c1.2,4.2,7.2,7.7,7.2,7.7S125.8,42.4,125.8,47.2z"/>
<g>
	<path fill="#C1D862" d="M122.2,43.4c0,0-3.4,0.2-6,3.4s-3.7,3.9-3.7,3.9s-2.1-6.2-5.9-5.1s-5.5,3.9-5.5,3.9s0.1-6.5-3.4-6.9
		c-3.5-0.4-6.5,0.6-6.5,0.6s2.7-1.7,0.6-4.7c-2.1-3-5.3-3.5-5.3-3.5s3.2,0.6,5.4-1.6s3.2-3.3,3.2-3.3s0.3,3.8,4.3,4.5
		c4,0.6,6.8-3.4,6.8-3.4s0.8,4.7,4,5.3c3.2,0.6,7.5-2.2,7.5-2.2S118.5,42.4,122.2,43.4z"/>
	<path fill="#C1D862" d="M121.6,43.2L87.2,35c1.1,0,3.1-0.1,4.6-1.7c2.1-2.2,3.2-3.3,3.2-3.3s0.3,3.8,4.3,4.5c4,0.6,6.8-3.4,6.8-3.4
		s0.8,4.7,4,5.3c3.2,0.6,7.5-2.2,7.5-2.2S118.4,41.5,121.6,43.2z"/>
</g>
<path fill="#17B24B" d="M122.2,43.4c0,0-3.4,0.2-6,3.4s-3.7,3.9-3.7,3.9s-2.1-6.2-5.9-5.1s-5.5,3.9-5.5,3.9s0.1-6.5-3.4-6.9
	c-3.5-0.4-6.5,0.6-6.5,0.6s2.7-1.7,0.6-4.7c-2.1-3-5.3-3.5-5.3-3.5s3.2,0.6,5.4-1.6s3.2-3.3,3.2-3.3s0.3,3.8,4.3,4.5
	c4,0.6,6.8-3.4,6.8-3.4s0.8,4.7,4,5.3c3.2,0.6,7.5-2.2,7.5-2.2S118.5,42.4,122.2,43.4z"/>
<path fill="#0B7A3D" d="M121.6,43.2L87.2,35c1.1,0,3.1-0.1,4.6-1.7c2.1-2.2,3.2-3.3,3.2-3.3s0.3,3.8,4.3,4.5c4,0.6,6.8-3.4,6.8-3.4
	s0.8,4.7,4,5.3c3.2,0.6,7.5-2.2,7.5-2.2S118.4,41.5,121.6,43.2z"/>
<g>
	<path fill="#C1D862" d="M207.1,112c0,0,3.4,3,3.5,8.4c0.1,5.4,0.7,7.2,0.7,7.2s7.4-4.8,10.4-0.5c3.1,4.3,2.6,8.7,2.6,8.7
		s5.3-6.9,9.3-4.5s6.4,6,6.4,6s-1.5-4,3.2-5.5s8.4,0.7,8.4,0.7s-3.9-2-4.3-6.1c-0.4-4.1-0.7-6.1-0.7-6.1s-3.5,3.8-8.2,1.1
		c-4.7-2.7-4.3-9.1-4.3-9.1s-4.7,4.3-8.6,2.3c-3.9-2-6-8.5-6-8.5S211.8,113.9,207.1,112z"/>
	<path fill="#C1D862" d="M207.9,112.2l42.9,19.8c-1.2-0.9-3.1-2.7-3.4-5.5c-0.4-4.1-0.7-6.1-0.7-6.1s-3.5,3.8-8.2,1.1
		s-4.3-9.1-4.3-9.1s-4.7,4.3-8.6,2.3c-3.9-2-6-8.5-6-8.5S212.6,113.1,207.9,112.2z"/>
</g>
<g>
	<path fill="#C1D862" d="M128.6,105.4c0,0,4.2,1,8.5-1.8c4.3-2.8,6-3.2,6-3.2s0.2,8.3,5.2,8.5c5.1,0.1,8.2-2.6,8.2-2.6
		s-2.6,7.9,1.5,9.7s8.1,1.8,8.1,1.8s-4,1-2.6,5.4c1.4,4.4,5.1,6.2,5.1,6.2s-3.7-2-7.1-0.1s-5.2,2.7-5.2,2.7s1.1-4.8-3.5-7.1
		c-4.6-2.3-9.5,1.5-9.5,1.5s0.8-6-2.8-8c-3.7-2-9.9-0.2-9.9-0.2S132.6,108,128.6,105.4z"/>
	<path fill="#C1D862" d="M129.2,105.9l38.5,23.1c-1.3-0.5-3.8-1-6.2,0.3c-3.4,1.9-5.2,2.7-5.2,2.7s1.1-4.8-3.5-7.1
		c-4.6-2.3-9.5,1.5-9.5,1.5s0.8-6-2.8-8c-3.7-2-9.9-0.2-9.9-0.2S132.4,109.1,129.2,105.9z"/>
</g>
<g>
	<path fill="#C1D862" d="M69.3,7c0,0-2,3.1-6.3,3.8c-4.3,0.8-5.6,1.5-5.6,1.5s4.7,5.2,1.7,8.2s-6.6,3.1-6.6,3.1s6.2,3.3,4.7,6.8
		c-1.4,3.5-3.9,5.9-3.9,5.9s3-1.7,4.7,1.8s0.5,6.8,0.5,6.8s1.1-3.4,4.3-4.2s4.8-1.3,4.8-1.3s-3.4-2.3-1.9-6.4s6.7-4.6,6.7-4.6
		s-4-3.2-2.9-6.6s6-5.9,6-5.9S68.4,11,69.3,7z"/>
	<path fill="#C1D862" d="M69.2,7.6L58.9,44.2c0.5-1,1.7-2.8,4-3.4c3.2-0.8,4.8-1.3,4.8-1.3s-3.4-2.3-1.9-6.4
		c1.5-4.1,6.7-4.6,6.7-4.6s-4-3.2-2.9-6.6c1.1-3.4,6-5.9,6-5.9S69.1,11.5,69.2,7.6z"/>
</g>
<g>
	<path fill="#5BB95D" d="M69.3,7c0,0-2,3.1-6.3,3.8c-4.3,0.8-5.6,1.5-5.6,1.5s4.7,5.2,1.7,8.2s-6.6,3.1-6.6,3.1s6.2,3.3,4.7,6.8
		c-1.4,3.5-3.9,5.9-3.9,5.9s3-1.7,4.7,1.8s0.5,6.8,0.5,6.8s1.1-3.4,4.3-4.2s4.8-1.3,4.8-1.3s-3.4-2.3-1.9-6.4s6.7-4.6,6.7-4.6
		s-4-3.2-2.9-6.6s6-5.9,6-5.9S68.4,11,69.3,7z"/>
	<path fill="#0B7A3D" d="M69.2,7.6L58.9,44.2c0.5-1,1.7-2.8,4-3.4c3.2-0.8,4.8-1.3,4.8-1.3s-3.4-2.3-1.9-6.4
		c1.5-4.1,6.7-4.6,6.7-4.6s-4-3.2-2.9-6.6c1.1-3.4,6-5.9,6-5.9S69.1,11.5,69.2,7.6z"/>
</g>
<g>
	<path fill="#C1D862" d="M123.4,107.2c0,0-5,0.5-9.7-3.5c-4.6-4-6.5-4.8-6.5-4.8s-1.6,9.7-7.6,9s-9.1-4.5-9.1-4.5s1.7,9.7-3.4,11.1
		c-5.1,1.5-9.8,0.8-9.8,0.8s4.5,1.9,2.1,6.8c-2.4,4.9-7,6.4-7,6.4s4.6-1.7,8.3,1.1c3.7,2.8,5.6,4.1,5.6,4.1s-0.5-5.8,5.4-7.7
		c5.8-1.9,10.9,3.3,10.9,3.3s0.1-7.2,4.7-8.9c4.6-1.7,11.7,1.5,11.7,1.5S118.3,109.6,123.4,107.2z"/>
	<path fill="#C1D862" d="M122.7,107.6l-49.1,20.4c1.6-0.3,4.6-0.6,7.2,1.4c3.7,2.8,5.6,4.1,5.6,4.1s-0.5-5.8,5.4-7.7
		s10.9,3.3,10.9,3.3s0.1-7.2,4.7-8.9c4.6-1.7,11.7,1.5,11.7,1.5S118.4,110.8,122.7,107.6z"/>
</g>
<g>
	<path fill="#C1D862" d="M68.5,108.6c0,0-6.8,0.7-13-4.8c-6.2-5.4-8.7-6.5-8.7-6.5s-2.2,13.1-10.2,12.1c-8-1-12.3-6-12.3-6
		s2.3,13-4.5,14.9c-6.8,2-13.2,1-13.2,1s6,2.5,2.8,9.1c-3.2,6.6-9.4,8.6-9.4,8.6s6.2-2.3,11.2,1.5c5,3.8,7.5,5.5,7.5,5.5
		s-0.6-7.8,7.2-10.3s14.6,4.5,14.6,4.5s0.1-9.7,6.3-12c6.2-2.3,15.7,2,15.7,2S61.6,111.8,68.5,108.6z"/>
	<path fill="#C1D862" d="M67.5,109.2l-66,27.5c2.2-0.4,6.2-0.7,9.7,1.9c5,3.8,7.5,5.5,7.5,5.5s-0.6-7.8,7.2-10.3
		c7.8-2.6,14.6,4.5,14.6,4.5s0.1-9.7,6.3-12c6.2-2.3,15.7,2,15.7,2S61.7,113.5,67.5,109.2z"/>
</g>
<g>
	<path fill="#C1D862" d="M132.7,106.7c0,0-3,3-8.2,2.8c-5.1-0.2-6.8,0.3-6.8,0.3s4.1,7.2-0.2,9.9c-4.3,2.7-8.3,1.9-8.3,1.9
		s6.2,5.4,3.7,9c-2.6,3.6-6,5.7-6,5.7s3.9-1.1,4.9,3.3c1,4.5-1.2,7.9-1.2,7.9s2.1-3.6,6-3.7c3.9-0.1,5.8-0.3,5.8-0.3
		s-3.3-3.5-0.5-7.8c2.8-4.3,8.9-3.5,8.9-3.5s-3.7-4.7-1.6-8.3c2.1-3.6,8.4-5.2,8.4-5.2S130.6,110.9,132.7,106.7z"/>
	<path fill="#C1D862" d="M132.5,107.4l-21.3,39.2c0.9-1.1,2.7-2.8,5.4-2.9c3.9-0.1,5.8-0.3,5.8-0.3s-3.3-3.5-0.5-7.8
		c2.8-4.3,8.9-3.5,8.9-3.5s-3.7-4.7-1.6-8.3c2.1-3.6,8.4-5.2,8.4-5.2S131.3,111.7,132.5,107.4z"/>
</g>
<g>
	<path fill="#C1D862" d="M193.5,49.8c0,0,0.8-3.5-1.7-7.2c-2.5-3.6-2.9-5-2.9-5s7-0.3,7.1-4.6c0-4.3-2.4-6.9-2.4-6.9
		s6.7,2.1,8.2-1.4s1.4-6.9,1.4-6.9s0.9,3.3,4.6,2.1c3.7-1.2,5.2-4.4,5.2-4.4s-1.6,3.1,0,6c1.7,2.9,2.4,4.3,2.4,4.3s-4-0.8-5.9,3.1
		s1.4,8,1.4,8s-5.1-0.6-6.7,2.5c-1.6,3.1,0,8.4,0,8.4S195.7,46.4,193.5,49.8z"/>
	<path fill="#C1D862" d="M193.9,49.3l18.8-33c-0.4,1.1-0.8,3.2,0.3,5.2c1.7,2.9,2.4,4.3,2.4,4.3s-4-0.8-5.9,3.1c-1.9,4,1.4,8,1.4,8
		s-5.1-0.6-6.7,2.5c-1.6,3.1,0,8.4,0,8.4S196.5,46.6,193.9,49.3z"/>
</g>
<path fill="#17B24B" d="M207.1,112c0,0,3.4,3,3.5,8.4c0.1,5.4,0.7,7.2,0.7,7.2s7.4-4.8,10.4-0.5c3.1,4.3,2.6,8.7,2.6,8.7
	s5.3-6.9,9.3-4.5s6.4,6,6.4,6s-1.5-4,3.2-5.5s8.4,0.7,8.4,0.7s-3.9-2-4.3-6.1c-0.4-4.1-0.7-6.1-0.7-6.1s-3.5,3.8-8.2,1.1
	c-4.7-2.7-4.3-9.1-4.3-9.1s-4.7,4.3-8.6,2.3c-3.9-2-6-8.5-6-8.5S211.8,113.9,207.1,112z"/>
<path fill="#0B7A3D" d="M207.9,112.2l42.9,19.8c-1.2-0.9-3.1-2.7-3.4-5.5c-0.4-4.1-0.7-6.1-0.7-6.1s-3.5,3.8-8.2,1.1
	s-4.3-9.1-4.3-9.1s-4.7,4.3-8.6,2.3c-3.9-2-6-8.5-6-8.5S212.6,113.1,207.9,112.2z"/>
<g>
	<g>
		<path fill="#C1D862" d="M199.5,54.4c0,0,4.2,1.7,6.1,6.8c1.9,5.1,3,6.5,3,6.5s5.4-6.9,9.7-3.8c4.3,3.1,5.3,7.3,5.3,7.3
			s2.7-8.3,7.3-7.3c4.6,1,8,3.6,8,3.6s-2.7-3.3,1.2-6.2c3.9-2.9,8.2-2.1,8.2-2.1s-4.3-0.6-6.1-4.4c-1.7-3.7-2.6-5.5-2.6-5.5
			s-2.1,4.7-7.4,3.7c-5.4-1-7.1-7.2-7.1-7.2s-3.1,5.6-7.4,5c-4.3-0.6-8.5-6.1-8.5-6.1S204.6,54.6,199.5,54.4z"/>
		<path fill="#C1D862" d="M200.3,54.3l47,4.7c-1.4-0.4-3.8-1.5-5-4.1c-1.7-3.7-2.6-5.5-2.6-5.5s-2.1,4.7-7.4,3.7
			c-5.4-1-7.1-7.2-7.1-7.2s-3.1,5.6-7.4,5c-4.3-0.6-8.5-6.1-8.5-6.1S205,53.6,200.3,54.3z"/>
	</g>
	<g>
		<path fill="#17B24B" d="M199.5,54.4c0,0,4.2,1.7,6.1,6.8c1.9,5.1,3,6.5,3,6.5s5.4-6.9,9.7-3.8c4.3,3.1,5.3,7.3,5.3,7.3
			s2.7-8.3,7.3-7.3c4.6,1,8,3.6,8,3.6s-2.7-3.3,1.2-6.2c3.9-2.9,8.2-2.1,8.2-2.1s-4.3-0.6-6.1-4.4c-1.7-3.7-2.6-5.5-2.6-5.5
			s-2.1,4.7-7.4,3.7c-5.4-1-7.1-7.2-7.1-7.2s-3.1,5.6-7.4,5c-4.3-0.6-8.5-6.1-8.5-6.1S204.6,54.6,199.5,54.4z"/>
		<path fill="#0B7A3D" d="M200.3,54.3l47,4.7c-1.4-0.4-3.8-1.5-5-4.1c-1.7-3.7-2.6-5.5-2.6-5.5s-2.1,4.7-7.4,3.7
			c-5.4-1-7.1-7.2-7.1-7.2s-3.1,5.6-7.4,5c-4.3-0.6-8.5-6.1-8.5-6.1S205,53.6,200.3,54.3z"/>
	</g>
</g>
<path fill="#17B24B" d="M128.6,105.4c0,0,4.2,1,8.5-1.8c4.3-2.8,6-3.2,6-3.2s0.2,8.3,5.2,8.5c5.1,0.1,8.2-2.6,8.2-2.6
	s-2.6,7.9,1.5,9.7s8.1,1.8,8.1,1.8s-4,1-2.6,5.4c1.4,4.4,5.1,6.2,5.1,6.2s-3.7-2-7.1-0.1s-5.2,2.7-5.2,2.7s1.1-4.8-3.5-7.1
	c-4.6-2.3-9.5,1.5-9.5,1.5s0.8-6-2.8-8c-3.7-2-9.9-0.2-9.9-0.2S132.6,108,128.6,105.4z"/>
<path fill="#0B7A3D" d="M129.2,105.9l38.5,23.1c-1.3-0.5-3.8-1-6.2,0.3c-3.4,1.9-5.2,2.7-5.2,2.7s1.1-4.8-3.5-7.1
	c-4.6-2.3-9.5,1.5-9.5,1.5s0.8-6-2.8-8c-3.7-2-9.9-0.2-9.9-0.2S132.4,109.1,129.2,105.9z"/>
<path fill="#17B24B" d="M123.4,107.2c0,0-5,0.5-9.7-3.5c-4.6-4-6.5-4.8-6.5-4.8s-1.6,9.7-7.6,9s-9.1-4.5-9.1-4.5s1.7,9.7-3.4,11.1
	c-5.1,1.5-9.8,0.8-9.8,0.8s4.5,1.9,2.1,6.8c-2.4,4.9-7,6.4-7,6.4s4.6-1.7,8.3,1.1c3.7,2.8,5.6,4.1,5.6,4.1s-0.5-5.8,5.4-7.7
	c5.8-1.9,10.9,3.3,10.9,3.3s0.1-7.2,4.7-8.9c4.6-1.7,11.7,1.5,11.7,1.5S118.3,109.6,123.4,107.2z"/>
<path fill="#0B7A3D" d="M122.7,107.6l-49.1,20.4c1.6-0.3,4.6-0.6,7.2,1.4c3.7,2.8,5.6,4.1,5.6,4.1s-0.5-5.8,5.4-7.7
	s10.9,3.3,10.9,3.3s0.1-7.2,4.7-8.9c4.6-1.7,11.7,1.5,11.7,1.5S118.4,110.8,122.7,107.6z"/>
<path fill="#17B24B" d="M68.5,108.6c0,0-6.8,0.7-13-4.8c-6.2-5.4-8.7-6.5-8.7-6.5s-2.2,13.1-10.2,12.1c-8-1-12.3-6-12.3-6
	s2.3,13-4.5,14.9c-6.8,2-13.2,1-13.2,1s6,2.5,2.8,9.1c-3.2,6.6-9.4,8.6-9.4,8.6s6.2-2.3,11.2,1.5c5,3.8,7.5,5.5,7.5,5.5
	s-0.6-7.8,7.2-10.3s14.6,4.5,14.6,4.5s0.1-9.7,6.3-12c6.2-2.3,15.7,2,15.7,2S61.6,111.8,68.5,108.6z"/>
<path fill="#0B7A3D" d="M67.5,109.2l-66,27.5c2.2-0.4,6.2-0.7,9.7,1.9c5,3.8,7.5,5.5,7.5,5.5s-0.6-7.8,7.2-10.3
	c7.8-2.6,14.6,4.5,14.6,4.5s0.1-9.7,6.3-12c6.2-2.3,15.7,2,15.7,2S61.7,113.5,67.5,109.2z"/>
<path fill="#17B24B" d="M65.7,105.2c0,0-2.1,3-6.5,3.7c-4.4,0.6-5.7,1.3-5.7,1.3s4.6,5.5,1.4,8.4c-3.2,2.9-6.8,2.9-6.8,2.9
	s6.1,3.6,4.5,7.1c-1.6,3.5-4.2,5.8-4.2,5.8s3.1-1.6,4.7,2c1.6,3.6,0.2,6.9,0.2,6.9s1.2-3.4,4.5-4.1c3.3-0.7,4.9-1.1,4.9-1.1
	s-3.4-2.5-1.7-6.6c1.7-4.1,7-4.4,7-4.4s-3.9-3.4-2.7-6.8c1.2-3.4,6.3-5.7,6.3-5.7S64.6,109.2,65.7,105.2z"/>
<path fill="#0B7A3D" d="M65.6,105.9l-11.9,36.7c0.6-1,1.9-2.8,4.2-3.3c3.3-0.7,4.9-1.1,4.9-1.1s-3.4-2.5-1.7-6.6
	c1.7-4.1,7-4.4,7-4.4s-3.9-3.4-2.7-6.8c1.2-3.4,6.3-5.7,6.3-5.7S65.4,109.7,65.6,105.9z"/>
<path fill="#17B24B" d="M132.7,106.7c0,0-3,3-8.2,2.8c-5.1-0.2-6.8,0.3-6.8,0.3s4.1,7.2-0.2,9.9c-4.3,2.7-8.3,1.9-8.3,1.9
	s6.2,5.4,3.7,9c-2.6,3.6-6,5.7-6,5.7s3.9-1.1,4.9,3.3c1,4.5-1.2,7.9-1.2,7.9s2.1-3.6,6-3.7c3.9-0.1,5.8-0.3,5.8-0.3
	s-3.3-3.5-0.5-7.8c2.8-4.3,8.9-3.5,8.9-3.5s-3.7-4.7-1.6-8.3c2.1-3.6,8.4-5.2,8.4-5.2S130.6,110.9,132.7,106.7z"/>
<path fill="#0B7A3D" d="M132.5,107.4l-21.3,39.2c0.9-1.1,2.7-2.8,5.4-2.9c3.9-0.1,5.8-0.3,5.8-0.3s-3.3-3.5-0.5-7.8
	c2.8-4.3,8.9-3.5,8.9-3.5s-3.7-4.7-1.6-8.3c2.1-3.6,8.4-5.2,8.4-5.2S131.3,111.7,132.5,107.4z"/>
<g>
	<path fill="#17B24B" d="M193.5,49.8c0,0,0.8-3.5-1.7-7.2c-2.5-3.6-2.9-5-2.9-5s7-0.3,7.1-4.6c0-4.3-2.4-6.9-2.4-6.9
		s6.7,2.1,8.2-1.4s1.4-6.9,1.4-6.9s0.9,3.3,4.6,2.1c3.7-1.2,5.2-4.4,5.2-4.4s-1.6,3.1,0,6c1.7,2.9,2.4,4.3,2.4,4.3s-4-0.8-5.9,3.1
		s1.4,8,1.4,8s-5.1-0.6-6.7,2.5c-1.6,3.1,0,8.4,0,8.4S195.7,46.4,193.5,49.8z"/>
	<path fill="#0B7A3D" d="M193.9,49.3l18.8-33c-0.4,1.1-0.8,3.2,0.3,5.2c1.7,2.9,2.4,4.3,2.4,4.3s-4-0.8-5.9,3.1c-1.9,4,1.4,8,1.4,8
		s-5.1-0.6-6.7,2.5c-1.6,3.1,0,8.4,0,8.4S196.5,46.6,193.9,49.3z"/>
</g>
<g>
	<path fill="#C1D862" d="M123.9,45.7c0,0,4.5-0.3,8.5,3.4s5.7,4.4,5.7,4.4s1.7-8.6,6.9-7.8c5.3,0.8,8,4.2,8,4.2s-1.3-8.6,3.2-9.8
		c4.6-1.2,8.8-0.5,8.8-0.5s-3.9-1.8-1.7-6.1c2.2-4.3,6.3-5.5,6.3-5.5s-4.1,1.4-7.4-1.1s-4.9-3.7-4.9-3.7s0.3,5.1-4.9,6.7
		c-5.2,1.6-9.6-3.2-9.6-3.2s-0.2,6.4-4.4,7.8c-4.1,1.4-10.3-1.6-10.3-1.6S128.5,43.7,123.9,45.7z"/>
	<path fill="#C1D862" d="M124.6,45.3l44-17.1c-1.4,0.3-4.1,0.4-6.4-1.4c-3.2-2.6-4.9-3.7-4.9-3.7s0.3,5.1-4.9,6.7s-9.6-3.2-9.6-3.2
		s-0.2,6.4-4.4,7.8c-4.1,1.4-10.3-1.6-10.3-1.6S128.4,42.6,124.6,45.3z"/>
</g>
<path fill="#17B24B" d="M123.9,45.7c0,0,4.5-0.3,8.5,3.4s5.7,4.4,5.7,4.4s1.7-8.6,6.9-7.8c5.3,0.8,8,4.2,8,4.2s-1.3-8.6,3.2-9.8
	c4.6-1.2,8.8-0.5,8.8-0.5s-3.9-1.8-1.7-6.1c2.2-4.3,6.3-5.5,6.3-5.5s-4.1,1.4-7.4-1.1s-4.9-3.7-4.9-3.7s0.3,5.1-4.9,6.7
	c-5.2,1.6-9.6-3.2-9.6-3.2s-0.2,6.4-4.4,7.8c-4.1,1.4-10.3-1.6-10.3-1.6S128.5,43.7,123.9,45.7z"/>
<path fill="#0B7A3D" d="M124.6,45.3l44-17.1c-1.4,0.3-4.1,0.4-6.4-1.4c-3.2-2.6-4.9-3.7-4.9-3.7s0.3,5.1-4.9,6.7s-9.6-3.2-9.6-3.2
	s-0.2,6.4-4.4,7.8c-4.1,1.4-10.3-1.6-10.3-1.6S128.4,42.6,124.6,45.3z"/>
<g>
	<circle fill="#F1627A" cx="123.7" cy="41.9" r="8.2"/>
	<path fill="#ED4855" d="M123.7,33.8c-2.9,0-5.4,1.5-6.9,3.8c1.3-0.8,2.8-1.3,4.4-1.3c4.5,0,8.2,3.7,8.2,8.2c0,1.6-0.5,3.1-1.3,4.4
		c2.3-1.5,3.8-4,3.8-6.9C131.9,37.4,128.2,33.8,123.7,33.8z"/>
</g>
<g>
	<circle fill="#F1627A" cx="119.4" cy="108.4" r="7.7"/>
	<path fill="#ED4855" d="M118.6,116.1c2.7,0.3,5.2-0.9,6.8-2.9c-1.3,0.6-2.7,1-4.3,0.8c-4.2-0.4-7.3-4.2-6.9-8.5
		c0.2-1.5,0.7-2.9,1.6-4c-2.3,1.1-3.9,3.4-4.2,6.1C111.3,111.9,114.4,115.7,118.6,116.1z"/>
</g>
<g>
	<circle fill="#F1627A" cx="131.1" cy="108.9" r="7.7"/>
	<path fill="#ED4855" d="M130.3,116.5c2.7,0.3,5.2-0.9,6.8-2.9c-1.3,0.6-2.7,1-4.3,0.8c-4.2-0.4-7.3-4.2-6.9-8.5
		c0.2-1.5,0.7-2.9,1.6-4c-2.3,1.1-3.9,3.4-4.2,6.1C123,112.3,126.1,116.1,130.3,116.5z"/>
</g>
<g>
	<circle fill="#F1627A" cx="193.4" cy="51.9" r="7.7"/>
	<path fill="#ED4855" d="M192.7,59.6c2.7,0.3,5.2-0.9,6.8-2.9c-1.3,0.6-2.7,1-4.3,0.8c-4.2-0.4-7.3-4.2-6.9-8.5
		c0.2-1.5,0.7-2.9,1.6-4c-2.3,1.1-3.9,3.4-4.2,6.1C185.3,55.4,188.4,59.1,192.7,59.6z"/>
</g>
<g>
	<path fill="#C1D862" d="M34.6,13.4c0,0,1.4,3.3-0.3,7.3c-1.8,4-1.9,5.5-1.9,5.5s7-1,7.8,3.2c0.8,4.2-1.1,7.2-1.1,7.2
		s6.2-3.3,8.3-0.1c2.1,3.2,2.6,6.6,2.6,6.6s0.3-3.4,4.2-2.9c3.9,0.6,5.9,3.4,5.9,3.4s-2.2-2.8-1-5.9c1.1-3.1,1.6-4.7,1.6-4.7
		s-3.8,1.6-6.4-2s0-8.1,0-8.1s-4.9,1.5-7.1-1.3s-1.5-8.3-1.5-8.3S37.3,16.4,34.6,13.4z"/>
	<path fill="#C1D862" d="M35,13.8l24.5,29.1c-0.6-1-1.4-3-0.6-5.2c1.1-3.1,1.6-4.7,1.6-4.7s-3.8,1.6-6.4-2s0-8.1,0-8.1
		s-4.9,1.5-7.1-1.3c-2.2-2.8-1.5-8.3-1.5-8.3S38.2,16,35,13.8z"/>
</g>
<g>
	<path fill="#17B24B" d="M34.6,13.4c0,0,1.4,3.3-0.3,7.3c-1.8,4-1.9,5.5-1.9,5.5s7-1,7.8,3.2c0.8,4.2-1.1,7.2-1.1,7.2
		s6.2-3.3,8.3-0.1c2.1,3.2,2.6,6.6,2.6,6.6s0.3-3.4,4.2-2.9c3.9,0.6,5.9,3.4,5.9,3.4s-2.2-2.8-1-5.9c1.1-3.1,1.6-4.7,1.6-4.7
		s-3.8,1.6-6.4-2s0-8.1,0-8.1s-4.9,1.5-7.1-1.3s-1.5-8.3-1.5-8.3S37.3,16.4,34.6,13.4z"/>
	<path fill="#0B7A3D" d="M35,13.8l24.5,29.1c-0.6-1-1.4-3-0.6-5.2c1.1-3.1,1.6-4.7,1.6-4.7s-3.8,1.6-6.4-2s0-8.1,0-8.1
		s-4.9,1.5-7.1-1.3c-2.2-2.8-1.5-8.3-1.5-8.3S38.2,16,35,13.8z"/>
</g>
<g>
	<path fill="#C1D862" d="M207.7,114.4c0,0,4.5,0.4,7.9,4.7c3.4,4.3,4.9,5.3,4.9,5.3s3-8.2,8.1-6.6c5.1,1.6,7.3,5.4,7.3,5.4
		s0.1-8.7,4.7-9.1c4.7-0.4,8.7,0.9,8.7,0.9s-3.6-2.4-0.7-6.3c2.9-3.9,7.1-4.4,7.1-4.4s-4.3,0.7-7.1-2.3c-2.8-3-4.2-4.5-4.2-4.5
		s-0.5,5.1-5.9,5.8c-5.4,0.7-8.9-4.7-8.9-4.7s-1.2,6.3-5.6,7s-9.9-3.2-9.9-3.2S212.5,113.1,207.7,114.4z"/>
	<path fill="#C1D862" d="M208.4,114.1l46.2-9.8c-1.5,0-4.1-0.3-6.1-2.4c-2.8-3-4.2-4.5-4.2-4.5s-0.5,5.1-5.9,5.8
		c-5.4,0.7-8.9-4.7-8.9-4.7s-1.2,6.3-5.6,7c-4.3,0.7-9.9-3.2-9.9-3.2S212.7,112,208.4,114.1z"/>
</g>
<path fill="#17B24B" d="M207.7,114.4c0,0,4.5,0.4,7.9,4.7c3.4,4.3,4.9,5.3,4.9,5.3s3-8.2,8.1-6.6c5.1,1.6,7.3,5.4,7.3,5.4
	s0.1-8.7,4.7-9.1c4.7-0.4,8.7,0.9,8.7,0.9s-3.6-2.4-0.7-6.3c2.9-3.9,7.1-4.4,7.1-4.4s-4.3,0.7-7.1-2.3c-2.8-3-4.2-4.5-4.2-4.5
	s-0.5,5.1-5.9,5.8c-5.4,0.7-8.9-4.7-8.9-4.7s-1.2,6.3-5.6,7s-9.9-3.2-9.9-3.2S212.5,113.1,207.7,114.4z"/>
<path fill="#0B7A3D" d="M208.4,114.1l46.2-9.8c-1.5,0-4.1-0.3-6.1-2.4c-2.8-3-4.2-4.5-4.2-4.5s-0.5,5.1-5.9,5.8
	c-5.4,0.7-8.9-4.7-8.9-4.7s-1.2,6.3-5.6,7c-4.3,0.7-9.9-3.2-9.9-3.2S212.7,112,208.4,114.1z"/>
<g>
	<path fill="#C1D862" d="M195.4,62.2c0,0,2.8,3.5,2,8.9c-0.8,5.4-0.5,7.2-0.5,7.2s8.1-3.5,10.4,1.3c2.3,4.8,1.1,9,1.1,9
		s6.4-5.9,9.9-2.8c3.5,3.1,5.3,7,5.3,7s-0.8-4.2,4.1-4.8c4.8-0.6,8.1,2.1,8.1,2.1s-3.5-2.6-3.2-6.7c0.3-4.1,0.4-6.1,0.4-6.1
		s-4.1,3.1-8.3-0.3c-4.2-3.4-2.7-9.7-2.7-9.7s-5.4,3.4-8.9,0.8c-3.5-2.6-4.5-9.4-4.5-9.4S199.7,64.8,195.4,62.2z"/>
	<path fill="#C1D862" d="M196.1,62.5L235,89.3c-1-1-2.6-3.2-2.4-6c0.3-4.1,0.4-6.1,0.4-6.1s-4.1,3.1-8.3-0.3
		c-4.2-3.4-2.7-9.7-2.7-9.7s-5.4,3.4-8.9,0.8c-3.5-2.6-4.5-9.4-4.5-9.4S200.6,64.2,196.1,62.5z"/>
</g>
<g>
	<path fill="#17B24B" d="M195.4,62.2c0,0,2.8,3.5,2,8.9c-0.8,5.4-0.5,7.2-0.5,7.2s8.1-3.5,10.4,1.3c2.3,4.8,1.1,9,1.1,9
		s6.4-5.9,9.9-2.8c3.5,3.1,5.3,7,5.3,7s-0.8-4.2,4.1-4.8c4.8-0.6,8.1,2.1,8.1,2.1s-3.5-2.6-3.2-6.7c0.3-4.1,0.4-6.1,0.4-6.1
		s-4.1,3.1-8.3-0.3c-4.2-3.4-2.7-9.7-2.7-9.7s-5.4,3.4-8.9,0.8c-3.5-2.6-4.5-9.4-4.5-9.4S199.7,64.8,195.4,62.2z"/>
	<path fill="#0B7A3D" d="M196.1,62.5L235,89.3c-1-1-2.6-3.2-2.4-6c0.3-4.1,0.4-6.1,0.4-6.1s-4.1,3.1-8.3-0.3
		c-4.2-3.4-2.7-9.7-2.7-9.7s-5.4,3.4-8.9,0.8c-3.5-2.6-4.5-9.4-4.5-9.4S200.6,64.2,196.1,62.5z"/>
</g>
<g>
	<circle fill="#F1627A" cx="197.8" cy="65" r="7.7"/>
	<path fill="#ED4855" d="M195.7,72.5c2.6,0.7,5.3,0,7.2-1.7c-1.4,0.4-2.9,0.5-4.3,0.1c-4.1-1.1-6.5-5.4-5.4-9.5
		c0.4-1.5,1.2-2.7,2.3-3.7c-2.4,0.7-4.4,2.7-5.2,5.3C189.2,67.1,191.6,71.3,195.7,72.5z"/>
</g>
<g>
	<circle fill="#F1627A" cx="209.9" cy="114.4" r="7.7"/>
	<path fill="#ED4855" d="M209.2,122.1c2.7,0.3,5.2-0.9,6.8-2.9c-1.3,0.6-2.7,1-4.3,0.8c-4.2-0.4-7.3-4.2-6.9-8.5
		c0.2-1.5,0.7-2.9,1.6-4c-2.3,1.1-3.9,3.4-4.2,6.1C201.8,117.8,204.9,121.6,209.2,122.1z"/>
</g>
</svg>
