<?xml version="1.0" encoding="utf-8"?>
<!-- Generator: Adobe Illustrator 18.0.0, SVG Export Plug-In . SVG Version: 6.00 Build 0)  -->
<!DOCTYPE svg PUBLIC "-//W3C//DTD SVG 1.1//EN" "http://www.w3.org/Graphics/SVG/1.1/DTD/svg11.dtd">
<svg version="1.1" id="Layer_1" xmlns="http://www.w3.org/2000/svg" xmlns:xlink="http://www.w3.org/1999/xlink" x="0px" y="0px"
	 viewBox="0 0 325.5 115" enable-background="new 0 0 325.5 115" xml:space="preserve">
<g>
	
		<path fill="none" stroke="#9A6C3D" stroke-width="1.1468" stroke-linecap="round" stroke-linejoin="round" stroke-miterlimit="10" d="
		M206.5,4.2c4-1.9,8.1,2.3,4.9,5.4c-3.2,3.1-18.3,15-3.5,26.6s22.7-14.7,41.3-19.5s44.6-2.3,45.6,13.6c1,15.9-15.5,31.6-9.7,40.4
		s39.9-6.2,39.9-6.2"/>
	
		<path fill="none" stroke="#9A6C3D" stroke-width="1.1468" stroke-linecap="round" stroke-linejoin="round" stroke-miterlimit="10" d="
		M217.1,39c0,0-9.8,9.2-2,13.3c7.1,3.7,3.8-5.7,3.8-5.7"/>
	<path fill="#EDE0B7" d="M181.3,26.6c0-0.3-0.1-0.7-0.3-1l0,0l0,0c-0.2-0.4-0.5-0.8-0.9-1.1c0.9,0.1,1.7-0.2,2.5-0.7l0,0l0.1-0.1
		c0.3-0.2,0.5-0.4,0.8-0.7l3.8-3.5l0-1.5l-4.2-1c-0.1-0.1-0.2-0.1-0.2-0.2c-0.1-0.1-0.2-0.1-0.3-0.1l-0.1-0.1l0,0
		c-0.5-0.2-1.1-0.3-1.6-0.3c0.6-1.1,0.7-2.2,0.6-3.3l0,0l0-0.1c0-0.2-0.1-0.4-0.1-0.6l-1-4.3l-4.1,1.2c-0.4,0.1-0.7,0.2-1.1,0.3l0,0
		l0,0c-1,0.4-1.8,1.1-2.5,2.1c-0.2-0.6-0.6-1.1-1.2-1.5l0,0l-4.9-2.9l-1.1,4.9c-0.2,0.5-0.3,1-0.3,1.6l0,0.1l0,0
		c0,0.8,0.2,1.6,0.6,2.2c-0.2,0-0.3,0-0.5,0l0,0l0,0c-0.3,0-0.7,0.1-1,0.2l-4.4-0.5l0,1.5l1.9,3.6c0.2,0.8,0.7,1.6,1.5,2
		c0.2,0.1,0.5,0.2,0.7,0.3c0.2,1.7,0.9,3.3,2.1,4.6c2.3-2.1,5.5-5,5.5-5l-1.3,7.4c1.5,0.2,3.3,0,4.7-0.5c0.3,0.4,0.6,0.8,1.1,1.1
		c0.8,0.5,1.7,0.5,2.5,0.3l4.1,0l0-1.5L181.3,26.6z"/>
	<path fill="#EDE0B7" d="M130.9,31.1c0-0.3-0.1-0.7-0.3-1l0,0l0,0c-0.2-0.4-0.5-0.8-0.9-1.1c0.9,0.1,1.7-0.2,2.5-0.7l0,0l0.1-0.1
		c0.3-0.2,0.5-0.4,0.8-0.7l3.8-3.5l0-1.5l-4.2-1c-0.1-0.1-0.2-0.1-0.2-0.2c-0.1-0.1-0.2-0.1-0.3-0.1l-0.1-0.1l0,0
		c-0.5-0.2-1.1-0.3-1.6-0.3c0.6-1.1,0.7-2.2,0.6-3.3l0,0l0-0.1c0-0.2-0.1-0.4-0.1-0.6l-1-4.3l-4.1,1.2c-0.4,0.1-0.7,0.2-1.1,0.3l0,0
		l0,0c-1,0.4-1.8,1.1-2.5,2.1c-0.2-0.6-0.6-1.1-1.2-1.5l0,0l-4.9-2.9l-1.1,4.9c-0.2,0.5-0.3,1-0.3,1.6l0,0.1l0,0
		c0,0.8,0.2,1.6,0.6,2.2c-0.2,0-0.3,0-0.5,0l0,0l0,0c-0.3,0-0.7,0.1-1,0.2l-4.4-0.5l0,1.5l1.9,3.6c0.2,0.8,0.7,1.6,1.5,2
		c0.2,0.1,0.5,0.2,0.7,0.3c0.2,1.7,0.9,3.3,2.1,4.6c2.3-2.1,5.5-5,5.5-5l-1.3,7.4c1.5,0.2,3.3,0,4.7-0.5c0.3,0.4,0.6,0.8,1.1,1.1
		c0.8,0.5,1.7,0.5,2.5,0.3l4.1,0l0-1.5L130.9,31.1z"/>
	<path fill="#EDE0B7" d="M93.3,12.3c-0.3,0-0.7,0-1,0l0,0l0,0c-0.5,0.1-0.9,0.3-1.3,0.6c0.2-0.8,0.2-1.7-0.1-2.6l0,0l0-0.1
		c-0.1-0.3-0.3-0.6-0.5-0.9l-2.5-4.5l-1.5-0.3l-1.9,3.9c-0.1,0.1-0.2,0.1-0.2,0.2c-0.1,0.1-0.1,0.2-0.2,0.3L83.9,9l0,0
		c-0.3,0.5-0.5,1-0.6,1.5c-0.9-0.8-2-1.2-3.1-1.3l0,0l-0.1,0c-0.2,0-0.4,0-0.6,0l-4.4,0l0.2,4.3c0,0.4,0,0.7,0.1,1.1l0,0l0,0
		c0.2,1,0.7,2,1.5,2.9c-0.6,0.1-1.2,0.4-1.8,0.8l0,0l-4,4.1l4.5,2.2c0.5,0.3,0.9,0.6,1.5,0.7l0.1,0l0,0c0.8,0.2,1.6,0.2,2.3-0.1
		c-0.1,0.2-0.1,0.3-0.1,0.5l0,0l0,0c-0.1,0.3-0.1,0.7,0,1l-1.5,4.1l1.5,0.3l4-1.1c0.9,0,1.7-0.3,2.3-1c0.2-0.2,0.3-0.4,0.5-0.6
		c1.7,0.2,3.4-0.2,4.9-1c-1.5-2.7-3.6-6.5-3.6-6.5l6.9,2.9c0.6-1.4,0.8-3.2,0.5-4.7c0.5-0.2,1-0.4,1.3-0.8c0.6-0.6,0.9-1.5,0.9-2.4
		l0.9-4l-1.5-0.3L93.3,12.3z"/>
	<path fill="#EDE0B7" d="M24.3,76.1c0.1,0.3,0.2,0.7,0.3,1l0,0l0,0c0.2,0.4,0.5,0.8,0.9,1c-0.9,0-1.7,0.3-2.4,0.9l0,0L23,79.1
		c-0.3,0.2-0.5,0.5-0.7,0.7l-3.6,3.7l0.1,1.5l4.3,0.7c0.1,0.1,0.2,0.1,0.3,0.2c0.1,0.1,0.2,0.1,0.3,0.1l0.2,0.1l0,0
		c0.5,0.2,1.1,0.2,1.6,0.2c-0.5,1.1-0.6,2.3-0.4,3.3l0,0l0,0.1c0,0.2,0.1,0.4,0.2,0.6l1.2,4.3l4-1.4c0.4-0.1,0.7-0.2,1.1-0.4l0,0
		l0,0c0.9-0.5,1.8-1.2,2.3-2.2c0.3,0.6,0.7,1.1,1.3,1.5l0,0l5.1,2.6l0.8-5c0.2-0.5,0.3-1.1,0.2-1.6l0-0.1l0,0c0-0.8-0.3-1.6-0.8-2.2
		c0.2,0,0.3,0,0.5,0l0,0l0,0c0.3,0,0.7-0.1,1-0.3l4.4,0.3l-0.1-1.5l-2.1-3.5c-0.3-0.8-0.8-1.5-1.6-1.9c-0.2-0.1-0.5-0.2-0.8-0.3
		c-0.3-1.7-1.1-3.3-2.4-4.4c-2.2,2.2-5.2,5.3-5.2,5.3l0.8-7.4c-1.5-0.1-3.3,0.2-4.6,0.8c-0.3-0.4-0.7-0.8-1.2-1
		c-0.8-0.4-1.7-0.4-2.5-0.2l-4.1,0.3l0.1,1.5L24.3,76.1z"/>
	<path fill="#EDE0B7" d="M181.5,77.2c0.1,0.3,0.2,0.7,0.3,1l0,0l0,0c0.2,0.4,0.5,0.8,0.9,1c-0.9,0-1.7,0.3-2.4,0.9l0,0l-0.1,0.1
		c-0.3,0.2-0.5,0.5-0.7,0.7l-3.6,3.7l0.1,1.5l4.3,0.7c0.1,0.1,0.2,0.1,0.3,0.2c0.1,0.1,0.2,0.1,0.3,0.1l0.2,0.1l0,0
		c0.5,0.2,1.1,0.2,1.6,0.2c-0.5,1.1-0.6,2.3-0.4,3.3l0,0l0,0.1c0,0.2,0.1,0.4,0.2,0.6l1.2,4.3l4-1.4c0.4-0.1,0.7-0.2,1.1-0.4l0,0
		l0,0c0.9-0.5,1.8-1.2,2.3-2.2c0.3,0.6,0.7,1.1,1.3,1.5l0,0l5.1,2.6l0.8-5c0.2-0.5,0.3-1.1,0.2-1.6l0-0.1l0,0c0-0.8-0.3-1.6-0.8-2.2
		c0.2,0,0.3,0,0.5,0v0l0,0c0.3,0,0.7-0.1,1-0.3l4.4,0.3l-0.1-1.5l-2.1-3.5c-0.3-0.8-0.8-1.5-1.6-1.9c-0.2-0.1-0.5-0.2-0.8-0.3
		c-0.3-1.7-1.1-3.3-2.4-4.4c-2.2,2.2-5.2,5.3-5.2,5.3l0.8-7.4c-1.5-0.1-3.3,0.2-4.6,0.8c-0.3-0.4-0.7-0.8-1.2-1
		c-0.8-0.4-1.7-0.4-2.5-0.2L180,73l0.1,1.5L181.5,77.2z"/>
	<path fill="#EDE0B7" d="M300.9,16.2c-0.3-0.2-0.6-0.4-0.9-0.5l0,0l0,0c-0.4-0.2-0.9-0.2-1.4-0.2c0.7-0.6,1.1-1.4,1.3-2.3l0,0l0-0.1
		c0.1-0.3,0.1-0.7,0.1-1l0.3-5.1L299.2,6l-3.7,2.3c-0.1,0-0.2,0-0.3,0c-0.1,0-0.2,0.1-0.3,0.1l-0.2,0l0,0c-0.5,0.2-1,0.5-1.3,0.9
		c-0.3-1.1-1-2.1-1.9-2.8l0,0l-0.1,0c-0.2-0.1-0.3-0.2-0.5-0.3l-3.7-2.4l-2.1,3.7c-0.2,0.3-0.4,0.6-0.6,1l0,0l0,0
		c-0.4,1-0.5,2.1-0.3,3.2c-0.6-0.3-1.2-0.4-1.9-0.3l0,0l-5.6,1.3l2.7,4.3c0.2,0.5,0.5,1,0.9,1.4l0,0l0,0c0.6,0.6,1.2,1,2,1.1
		c-0.1,0.1-0.3,0.2-0.4,0.4l0,0l0,0c-0.2,0.3-0.4,0.5-0.6,0.9l-3.5,2.7l1.1,1.1l3.9,1.2c0.7,0.5,1.6,0.6,2.5,0.4
		c0.3-0.1,0.5-0.2,0.7-0.3c1.4,1.1,3,1.7,4.7,1.8c0.2-3.1,0.5-7.4,0.5-7.4l4.2,6.2c1.2-0.9,2.4-2.3,3-3.7c0.5,0.1,1,0.2,1.6,0
		c0.9-0.2,1.6-0.8,2-1.5l2.9-2.9l-1.1-1.1L300.9,16.2z"/>
	<path fill="#EDE0B7" d="M294.6,71.4c-0.4-0.3-0.8-0.6-1.3-0.7l0,0l0,0c-0.6-0.2-1.3-0.3-2-0.3c0.9-0.8,1.6-1.9,1.8-3.2l0,0l0-0.1
		c0.1-0.5,0.1-1,0.1-1.4l0.4-7.3l-1.5-1.5l-5.2,3.2c-0.1,0-0.3,0-0.4,0.1c-0.2,0-0.3,0.1-0.5,0.2l-0.2,0.1l0,0
		c-0.7,0.3-1.4,0.8-1.9,1.3c-0.5-1.6-1.5-3-2.7-3.9l0,0l-0.1-0.1c-0.2-0.2-0.5-0.3-0.8-0.5l-5.3-3.5l-3,5.3
		c-0.3,0.4-0.6,0.9-0.8,1.4l0,0l0,0c-0.6,1.4-0.8,2.9-0.4,4.5c-0.8-0.4-1.8-0.5-2.7-0.4l0-0.1l-7.9,1.9l3.8,6.1
		c0.3,0.7,0.7,1.4,1.2,1.9l0,0.1l0,0c0.8,0.8,1.8,1.4,2.8,1.6c-0.2,0.2-0.4,0.3-0.5,0.5l0,0l0,0c-0.3,0.4-0.6,0.8-0.8,1.2l-5,3.8
		l1.5,1.5l5.5,1.8c1,0.6,2.3,0.9,3.5,0.6c0.4-0.1,0.7-0.2,1.1-0.4c1.9,1.5,4.2,2.5,6.7,2.6c0.3-4.4,0.7-10.5,0.7-10.5l6,8.8
		c1.7-1.2,3.4-3.2,4.2-5.2c0.7,0.2,1.5,0.2,2.2,0c1.2-0.3,2.2-1.1,2.9-2.1l4.1-4.1l-1.5-1.5L294.6,71.4z"/>
	
		<path fill="none" stroke="#9A6C3D" stroke-width="1.1468" stroke-linecap="round" stroke-linejoin="round" stroke-miterlimit="10" d="
		M22.4,92.5c0,4.6,2.3,6.5,5.4,6.5s5-2.4,4.6-6.8c-0.5-4.7-10.6-15.4-7.2-27.7S45.9,36.4,38.5,32s-11.6-5.4-9.8-9.7
		c2.1-5.1,7.5-0.2,7.5-0.2"/>
	
		<path fill="none" stroke="#9A6C3D" stroke-width="1.1468" stroke-linecap="round" stroke-linejoin="round" stroke-miterlimit="10" d="
		M74.3,95.9c0,0-2.2-9.4,5.5-10.4c7.7-1,4.1,12.4,10.2,11.6c6.1-0.8-6.6-12,2.3-13.2s9.7,5.1,20.5,6.1c10.7,1,14.5-11.6,25.6-12.2
		s28.6,17.8,38.3,14.4c9.8-3.4,20-19,11.3-24c-8.8-5-11.6,3.8-9.8,6.7c1.8,2.8,6.4,1.2,6.8-0.9"/>
	<g>
		<path fill="#C1D862" d="M69.3,28.1c-0.3-0.2-0.6-0.4-1-0.5l0,0l0,0c-0.5-0.2-1-0.2-1.5-0.2c0.7-0.6,1.2-1.5,1.3-2.5l0,0l0-0.1
			c0.1-0.4,0.1-0.7,0-1.1l0.2-5.5l-1.1-1.1l-3.9,2.5c-0.1,0-0.2,0-0.3,0c-0.1,0-0.2,0.1-0.3,0.1l-0.2,0l0,0c-0.6,0.2-1,0.6-1.4,1
			c-0.4-1.2-1.1-2.2-2.1-2.9l0,0l-0.1,0c-0.2-0.1-0.4-0.3-0.6-0.4l-4-2.5l-2.2,4c-0.2,0.3-0.4,0.7-0.6,1.1l0,0l0,0
			c-0.4,1-0.5,2.2-0.3,3.4c-0.6-0.3-1.3-0.4-2-0.3l0,0l-5.9,1.5l2.9,4.5c0.2,0.6,0.5,1,0.9,1.5l0,0.1l0,0c0.6,0.6,1.3,1,2.2,1.2
			c-0.1,0.1-0.3,0.3-0.4,0.4l0,0l0,0c-0.2,0.3-0.4,0.6-0.6,0.9l-3.7,2.9l1.1,1.1l4.2,1.3c0.8,0.5,1.7,0.7,2.7,0.4
			c0.3-0.1,0.5-0.2,0.8-0.3c1.5,1.1,3.2,1.8,5.1,1.9c0.2-3.4,0.4-7.9,0.4-7.9l4.6,6.5c1.3-0.9,2.5-2.5,3.1-4c0.5,0.1,1.1,0.2,1.7,0
			c0.9-0.2,1.7-0.8,2.1-1.6l3.1-3.1l-1.1-1.1L69.3,28.1z"/>
		<path fill="#6BC6B5" d="M68.2,26.9c-0.3-0.2-0.6-0.4-1-0.5l0,0l0,0c-0.5-0.2-1-0.2-1.5-0.2c0.7-0.6,1.2-1.5,1.3-2.5l0,0l0-0.1
			c0.1-0.4,0.1-0.7,0-1.1l0.2-5.5l-5.1,1.3c-0.1,0-0.2,0-0.3,0c-0.1,0-0.2,0.1-0.3,0.1l-0.2,0l0,0c-0.6,0.2-1,0.6-1.4,1
			c-0.4-1.2-1.1-2.2-2.1-2.9l0,0l-0.1,0c-0.2-0.1-0.4-0.3-0.6-0.4l-4-2.5l-2.2,4c-0.2,0.3-0.4,0.7-0.6,1.1l0,0l0,0
			c-0.4,1-0.5,2.2-0.3,3.4c-0.6-0.3-1.3-0.4-2-0.3l0,0l-5.9,1.5l2.9,4.5c0.2,0.6,0.5,1,0.9,1.5l0,0.1l0,0c0.6,0.6,1.3,1,2.2,1.2
			c-0.1,0.1-0.3,0.3-0.4,0.4l0,0l0,0c-0.2,0.3-0.4,0.6-0.6,0.9l-2.6,4l4.2,1.3c0.8,0.5,1.7,0.7,2.7,0.4c0.3-0.1,0.5-0.2,0.8-0.3
			c1.5,1.1,3.2,1.8,5.1,1.9c0.2-3.4,0.4-7.9,0.4-7.9l4.8,6.4c1.3-0.9,2.3-2.3,2.9-3.8c0.5,0.1,1.1,0.2,1.7,0
			c0.9-0.2,1.7-0.8,2.1-1.6l3.1-3.1L68.2,26.9z"/>
		<path opacity="0.69" fill="#F6D86C" d="M46.7,25l7.2,3.1l-3.6,6l5.2-4.9l-0.9,6.5l2.7-7.5l8.8,1.4l-6.9-3.2l5.1-5.2l-7.4,2.8
			L54,19.1c0,0,1,5.4,1,5.9H46.7z"/>
	</g>
	<g>
		<path fill="#C1D862" d="M115.9,25.7c-0.1-0.2-0.3-0.3-0.4-0.5l0,0l0,0c-0.2-0.2-0.5-0.3-0.8-0.4c0.5-0.2,0.9-0.6,1.2-1.1l0,0l0,0
			c0.1-0.2,0.2-0.4,0.2-0.6l1.2-2.9l-0.4-0.8l-2.6,0.6c-0.1,0-0.1,0-0.2,0c-0.1,0-0.1,0-0.2,0l-0.1,0l0,0c-0.3,0-0.7,0.1-1,0.3
			c0-0.7-0.2-1.4-0.6-2l0,0l0,0c-0.1-0.1-0.2-0.2-0.2-0.3l-1.7-2.2l-2,1.8c-0.2,0.1-0.4,0.3-0.5,0.5l0,0l0,0
			c-0.4,0.5-0.7,1.1-0.8,1.8c-0.3-0.3-0.7-0.5-1.1-0.5l0,0l-3.5-0.3l0.7,3c0,0.3,0.1,0.7,0.2,1l0,0l0,0c0.2,0.5,0.5,0.8,0.9,1.1
			c-0.1,0-0.2,0.1-0.3,0.1l0,0l0,0c-0.2,0.1-0.4,0.2-0.5,0.4l-2.6,0.9l0.4,0.8l2,1.5c0.3,0.4,0.8,0.7,1.4,0.7c0.2,0,0.3,0,0.5,0
			c0.6,0.9,1.4,1.6,2.4,2c0.7-1.8,1.8-4.2,1.8-4.2l1.2,4.5c0.9-0.3,1.8-0.9,2.5-1.6c0.3,0.2,0.6,0.3,0.9,0.3
			c0.6,0.1,1.1-0.1,1.5-0.5l2.3-1.1l-0.4-0.8L115.9,25.7z"/>
		<path fill="#6BC6B5" d="M115.5,24.9c-0.1-0.2-0.3-0.3-0.4-0.5l0,0l0,0c-0.2-0.2-0.5-0.3-0.8-0.4c0.5-0.2,0.9-0.6,1.2-1.1l0,0l0,0
			c0.1-0.2,0.2-0.4,0.2-0.6l1.2-2.9l-3-0.3c-0.1,0-0.1,0-0.2,0c-0.1,0-0.1,0-0.2,0l-0.1,0l0,0c-0.3,0-0.7,0.1-1,0.3
			c0-0.7-0.2-1.4-0.6-2l0,0l0,0c-0.1-0.1-0.2-0.2-0.2-0.3l-1.7-2.2l-2,1.8c-0.2,0.1-0.4,0.3-0.5,0.5l0,0l0,0
			c-0.4,0.5-0.7,1.1-0.8,1.8c-0.3-0.3-0.7-0.5-1.1-0.5l0,0L102,18l0.7,3c0,0.3,0.1,0.7,0.2,1l0,0l0,0c0.2,0.5,0.5,0.8,0.9,1.1
			c-0.1,0-0.2,0.1-0.3,0.1l0,0l0,0c-0.2,0.1-0.4,0.2-0.5,0.4l-2.2,1.7l2,1.5c0.3,0.4,0.8,0.7,1.4,0.7c0.2,0,0.3,0,0.5,0
			c0.6,0.9,1.4,1.6,2.4,2c0.7-1.8,1.8-4.2,1.8-4.2l1.4,4.4c0.9-0.3,1.7-0.8,2.3-1.5c0.3,0.2,0.6,0.3,0.9,0.3
			c0.6,0.1,1.1-0.1,1.5-0.5l2.3-1.1L115.5,24.9z"/>
		<path opacity="0.69" fill="#F6D86C" d="M104.2,19.7l3.3,3.1l-3.1,2.6l3.8-1.7l-1.8,3.4l2.9-3.6l4.5,2.5l-3.2-3.1l3.8-1.9l-4.6,0.1
			l-0.6-3.2c0,0-0.5,3.2-0.6,3.4L104.2,19.7z"/>
	</g>
	<g>
		<path fill="#C1D862" d="M194.7,28.2c0-0.2,0.1-0.4,0-0.6l0,0l0,0c0-0.3-0.1-0.6-0.3-0.8c0.5,0.2,1.1,0.2,1.6,0.1l0,0l0,0
			c0.2-0.1,0.4-0.1,0.6-0.3l2.9-1.3l0.3-0.9l-2.3-1.4c0-0.1-0.1-0.1-0.1-0.2c0-0.1-0.1-0.1-0.2-0.1l-0.1-0.1l0,0
			c-0.3-0.2-0.6-0.4-0.9-0.5c0.5-0.5,0.9-1.2,1-1.8l0,0l0,0c0-0.1,0-0.3,0-0.4l0.3-2.7L195,17c-0.2,0-0.5,0-0.7,0l0,0l0,0
			c-0.6,0-1.3,0.3-1.8,0.7c0-0.4-0.2-0.8-0.4-1.1l0,0l-2.3-2.7l-1.6,2.7c-0.2,0.3-0.4,0.6-0.5,0.9l0,0l0,0c-0.2,0.5-0.2,1-0.1,1.4
			c-0.1,0-0.2-0.1-0.3-0.1l0,0l0,0c-0.2-0.1-0.4-0.1-0.6-0.1l-2.5-1.2l-0.3,0.9l0.4,2.5c0,0.5,0.1,1.1,0.5,1.5
			c0.1,0.1,0.2,0.2,0.4,0.3c-0.2,1.1-0.1,2.1,0.3,3.1c1.8-0.8,4.2-1.8,4.2-1.8l-2.2,4.1c0.8,0.4,1.9,0.7,2.9,0.6
			c0.1,0.3,0.2,0.6,0.4,0.9c0.4,0.4,0.9,0.6,1.4,0.7l2.4,0.8l0.3-0.9L194.7,28.2z"/>
		<path fill="#6BC6B5" d="M195,27.3c0-0.2,0.1-0.4,0-0.6l0,0l0,0c0-0.3-0.1-0.6-0.3-0.8c0.5,0.2,1.1,0.2,1.6,0.1l0,0l0,0
			c0.2-0.1,0.4-0.1,0.6-0.3l2.9-1.3l-2-2.3c0-0.1-0.1-0.1-0.1-0.2c0-0.1-0.1-0.1-0.2-0.1l-0.1-0.1l0,0c-0.3-0.2-0.6-0.4-0.9-0.5
			c0.5-0.5,0.9-1.2,1-1.8l0,0l0,0c0-0.1,0-0.3,0-0.4l0.3-2.7l-2.6-0.1c-0.2,0-0.5,0-0.7,0l0,0l0,0c-0.6,0-1.3,0.3-1.8,0.7
			c0-0.4-0.2-0.8-0.4-1.1l0,0l-2.3-2.7l-1.6,2.7c-0.2,0.3-0.4,0.6-0.5,0.9l0,0l0,0c-0.2,0.5-0.2,1-0.1,1.4c-0.1,0-0.2-0.1-0.3-0.1
			l0,0l0,0c-0.2-0.1-0.4-0.1-0.6-0.1l-2.8-0.3l0.4,2.5c0,0.5,0.1,1.1,0.5,1.5c0.1,0.1,0.2,0.2,0.4,0.3c-0.2,1.1-0.1,2.1,0.3,3.1
			c1.8-0.8,4.2-1.8,4.2-1.8l-2,4.1c0.8,0.4,1.8,0.6,2.7,0.5c0.1,0.3,0.2,0.6,0.4,0.9c0.4,0.4,0.9,0.6,1.4,0.7l2.4,0.8L195,27.3z"/>
		<path opacity="0.69" fill="#F6D86C" d="M190.5,15.7l0.3,4.5l-4.1-0.3l3.9,1.4l-3.6,1.2l4.6-0.6l1.5,4.9l-0.1-4.4l4,1.3l-3.3-3.1
			l1.7-2.7c0,0-2.6,1.9-2.8,2L190.5,15.7z"/>
	</g>
	<g>
		<path fill="#C1D862" d="M284.6,71.1c0,0.2,0.1,0.4,0.1,0.6l0,0l0,0c0.1,0.3,0.3,0.5,0.5,0.7c-0.5-0.1-1.1,0.1-1.6,0.4l0,0l0,0
			c-0.2,0.1-0.3,0.2-0.5,0.4l-2.4,2l0,0.9l2.6,0.7c0,0,0.1,0.1,0.1,0.1c0.1,0,0.1,0.1,0.2,0.1l0.1,0.1l0,0c0.3,0.1,0.7,0.2,1,0.2
			c-0.4,0.6-0.5,1.4-0.4,2l0,0l0,0c0,0.1,0,0.3,0.1,0.4l0.5,2.7l2.6-0.6c0.2,0,0.5-0.1,0.7-0.2l0,0l0,0c0.6-0.2,1.2-0.6,1.6-1.2
			c0.1,0.4,0.4,0.7,0.7,1l0,0l3,1.9l0.8-3c0.1-0.3,0.2-0.6,0.3-1l0,0l0,0c0-0.5-0.1-1-0.3-1.4c0.1,0,0.2,0,0.3,0l0,0l0,0
			c0.2,0,0.4,0,0.6-0.1l2.7,0.5l0-0.9l-1.1-2.3c-0.1-0.5-0.4-1-0.9-1.3c-0.1-0.1-0.3-0.2-0.4-0.2c-0.1-1.1-0.5-2.1-1.2-2.9
			c-1.5,1.2-3.5,2.9-3.5,2.9l1-4.5c-0.9-0.2-2-0.1-2.9,0.2c-0.2-0.3-0.4-0.5-0.6-0.7c-0.5-0.3-1-0.4-1.5-0.3l-2.5-0.1l0,0.9
			L284.6,71.1z"/>
		<path fill="#6BC6B5" d="M284.6,72c0,0.2,0.1,0.4,0.1,0.6l0,0l0,0c0.1,0.3,0.3,0.5,0.5,0.7c-0.5-0.1-1.1,0.1-1.6,0.4l0,0l0,0
			c-0.2,0.1-0.3,0.2-0.5,0.4l-2.4,2l2.5,1.6c0,0,0.1,0.1,0.1,0.1c0.1,0,0.1,0.1,0.2,0.1l0.1,0.1l0,0c0.3,0.1,0.7,0.2,1,0.2
			c-0.4,0.6-0.5,1.4-0.4,2l0,0l0,0c0,0.1,0,0.3,0.1,0.4l0.5,2.7l2.6-0.6c0.2,0,0.5-0.1,0.7-0.2l0,0l0,0c0.6-0.2,1.2-0.6,1.6-1.2
			c0.1,0.4,0.4,0.7,0.7,1l0,0l3,1.9l0.8-3c0.1-0.3,0.2-0.6,0.3-1l0,0l0,0c0-0.5-0.1-1-0.3-1.4c0.1,0,0.2,0,0.3,0l0,0l0,0
			c0.2,0,0.4,0,0.6-0.1l2.7-0.5l-1.1-2.3c-0.1-0.5-0.4-1-0.9-1.3c-0.1-0.1-0.3-0.2-0.4-0.2c-0.1-1.1-0.5-2.1-1.2-2.9
			c-1.5,1.2-3.5,2.9-3.5,2.9l0.8-4.5c-0.9-0.2-1.9-0.1-2.8,0.2c-0.2-0.3-0.4-0.5-0.6-0.7c-0.5-0.3-1-0.4-1.5-0.3l-2.5-0.1L284.6,72z
			"/>
		<path opacity="0.69" fill="#F6D86C" d="M292.1,81.9l-1.5-4.3l4-0.8l-4.1-0.3l3.1-2.1l-4.3,1.8l-2.8-4.3l1.3,4.2l-4.2-0.2l4.1,2.1
			l-0.9,3.1c0,0,2-2.5,2.1-2.7L292.1,81.9z"/>
	</g>
	<g>
		<path fill="#C1D862" d="M161,39c-0.1-0.5-0.2-0.9-0.4-1.4l0-0.1l0,0c-0.3-0.6-0.7-1.1-1.2-1.5c1.2,0.1,2.4-0.3,3.4-1l0,0l0.1-0.1
			c0.4-0.3,0.7-0.6,1-0.9l5.2-4.7l0-2.1l-5.7-1.3c-0.1-0.1-0.2-0.2-0.3-0.3c-0.1-0.1-0.3-0.1-0.4-0.2l-0.2-0.1l0,0
			c-0.7-0.3-1.5-0.4-2.2-0.4c0.8-1.5,1-3,0.8-4.5l0,0l0-0.1c0-0.3-0.1-0.6-0.2-0.8l-1.3-5.9l-5.6,1.6c-0.5,0.1-1,0.2-1.5,0.4l0,0
			l0,0c-1.3,0.5-2.5,1.5-3.4,2.8c-0.3-0.8-0.9-1.5-1.6-2.1l0,0l-6.7-4l-1.5,6.7c-0.3,0.7-0.5,1.4-0.5,2.1l0,0.1l0,0
			c0,1.1,0.3,2.1,0.9,3c-0.2,0-0.5,0-0.7,0l0,0l-0.1,0c-0.5,0-0.9,0.1-1.4,0.3l-6-0.7l0,2.1l2.6,4.9c0.3,1.1,1,2.2,2,2.8
			c0.3,0.2,0.7,0.3,1,0.4c0.3,2.4,1.3,4.5,2.8,6.3c3.2-2.9,7.5-6.8,7.5-6.8l-1.8,10c2,0.3,4.5,0.1,6.4-0.7c0.4,0.6,0.8,1.1,1.5,1.5
			c1,0.6,2.3,0.7,3.4,0.4l5.6,0l0-2.1L161,39z"/>
		<path fill="#6BC6B5" d="M161,36.9c-0.1-0.5-0.2-0.9-0.4-1.4l0-0.1l0,0c-0.3-0.6-0.7-1.1-1.2-1.5c1.2,0.1,2.4-0.3,3.4-1l0,0
			l0.1-0.1c0.4-0.3,0.7-0.6,1-0.9l5.2-4.7l-5.7-3.4c-0.1-0.1-0.2-0.2-0.3-0.3c-0.1-0.1-0.3-0.1-0.4-0.2l-0.2-0.1l0,0
			c-0.7-0.3-1.5-0.4-2.2-0.4c0.8-1.5,1-3,0.8-4.5l0,0l0-0.1c0-0.3-0.1-0.6-0.2-0.8l-1.3-5.9l-5.6,1.6c-0.5,0.1-1,0.2-1.5,0.4l0,0
			l0,0c-1.3,0.5-2.5,1.5-3.4,2.8c-0.3-0.8-0.9-1.5-1.6-2.1l0,0l-6.7-4l-1.5,6.7c-0.3,0.7-0.5,1.4-0.5,2.1l0,0.1l0,0
			c0,1.1,0.3,2.1,0.9,3c-0.2,0-0.5,0-0.7,0l0,0l-0.1,0c-0.5,0-0.9,0.1-1.4,0.3l-6,1.3l2.6,4.9c0.3,1.1,1,2.2,2,2.8
			c0.3,0.2,0.7,0.3,1,0.4c0.3,2.4,1.3,4.5,2.8,6.3c3.2-2.9,7.5-6.8,7.5-6.8l-1.4,10c2,0.3,4.1,0.1,6-0.7c0.4,0.6,0.8,1.1,1.5,1.5
			c1,0.6,2.3,0.7,3.4,0.4l5.6,0L161,36.9z"/>
		<path opacity="0.69" fill="#F6D86C" d="M143.5,15.9l3.7,9.3l-8.7,2.1l9.1,0.2l-6.7,5l9.2-4.3l6.6,9.2l-3.3-9.1l9.3-0.1l-9.2-4.2
			l1.7-6.9c0,0-4.1,5.8-4.4,6.1L143.5,15.9z"/>
	</g>
	<g>
		<path fill="#C1D862" d="M181.5,55.1c0.3,0.1,0.7,0.2,1.1,0.2l0,0l0,0c0.5,0,1-0.1,1.4-0.3c-0.4,0.8-0.6,1.7-0.5,2.7l0,0l0,0.1
			c0.1,0.3,0.2,0.7,0.3,1l1.5,5.1l1.4,0.7l2.8-3.5c0.1,0,0.2-0.1,0.3-0.1c0.1-0.1,0.2-0.2,0.3-0.2l0.1-0.1l0,0
			c0.4-0.4,0.8-0.9,1-1.4c0.7,1,1.7,1.7,2.8,2l0,0l0.1,0c0.2,0.1,0.4,0.1,0.6,0.2l4.5,1.1l0.8-4.4c0.1-0.4,0.2-0.8,0.2-1.2l0,0l0,0
			c0.1-1.1-0.2-2.2-0.8-3.2c0.7,0.1,1.3-0.1,2-0.4l0,0l5-3.2l-4.1-3.3c-0.4-0.4-0.8-0.8-1.3-1l0,0l0,0c-0.7-0.4-1.6-0.5-2.4-0.4
			c0.1-0.2,0.2-0.3,0.2-0.5l0,0l0,0c0.1-0.3,0.2-0.7,0.3-1l2.5-3.8l-1.4-0.7l-4.3,0.1c-0.9-0.2-1.8-0.1-2.6,0.4
			c-0.2,0.2-0.4,0.3-0.6,0.5c-1.7-0.6-3.5-0.7-5.2-0.1c0.9,3.1,2.1,7.4,2.1,7.4l-6.3-4.6c-0.9,1.3-1.5,3-1.6,4.6
			c-0.5,0-1.1,0.2-1.5,0.5c-0.8,0.5-1.3,1.3-1.4,2.2l-1.9,3.8l1.4,0.7L181.5,55.1z"/>
		<path fill="#6BC6B5" d="M182.9,55.8c0.3,0.1,0.7,0.2,1.1,0.2l0,0l0,0c0.5,0,1-0.1,1.4-0.3c-0.4,0.8-0.6,1.7-0.5,2.7l0,0l0,0.1
			c0.1,0.3,0.2,0.7,0.3,1l1.5,5.1l4.2-2.8c0.1,0,0.2-0.1,0.3-0.1c0.1-0.1,0.2-0.2,0.3-0.2l0.1-0.1l0,0c0.4-0.4,0.8-0.9,1-1.4
			c0.7,1,1.7,1.7,2.8,2l0,0l0.1,0c0.2,0.1,0.4,0.1,0.6,0.2l4.5,1.1l0.8-4.4c0.1-0.4,0.2-0.8,0.2-1.2l0,0l0,0
			c0.1-1.1-0.2-2.2-0.8-3.2c0.7,0.1,1.3-0.1,2-0.4l0,0l5-3.2l-4.1-3.3c-0.4-0.4-0.8-0.8-1.3-1l0,0l0,0c-0.7-0.4-1.6-0.5-2.4-0.4
			c0.1-0.2,0.2-0.3,0.2-0.5l0,0l0,0c0.1-0.3,0.2-0.7,0.3-1l1.1-4.5l-4.3,0.1c-0.9-0.2-1.8-0.1-2.6,0.4c-0.2,0.2-0.4,0.3-0.6,0.5
			c-1.7-0.6-3.5-0.7-5.2-0.1c0.9,3.1,2.1,7.4,2.1,7.4l-6.4-4.3c-0.9,1.3-1.4,2.8-1.5,4.4c-0.5,0-1.1,0.2-1.5,0.5
			c-0.8,0.5-1.3,1.3-1.4,2.2l-1.9,3.8L182.9,55.8z"/>
		<path opacity="0.69" fill="#F6D86C" d="M203.2,50.9l-7.6-0.6l1.4-6.7l-3.2,6.2l-1.2-6.3l-0.1,7.8l-8.5,1.4l7.4,0.8l-3.1,6.4
			l5.9-4.9l4.1,3.5c0,0-2.6-4.7-2.7-5.1L203.2,50.9z"/>
	</g>
	<g>
		<path fill="#C1D862" d="M268.2,47.4c-0.1-0.8-0.3-1.5-0.6-2.2l0-0.1l0,0c-0.5-1-1.1-1.8-1.9-2.5c2,0.1,4-0.5,5.7-1.7l0,0l0.1-0.1
			c0.6-0.4,1.2-1,1.7-1.6l8.5-7.8l0-3.4l-9.5-2.2c-0.2-0.1-0.3-0.3-0.5-0.4c-0.2-0.1-0.5-0.2-0.7-0.3l-0.3-0.2l0,0
			c-1.2-0.5-2.4-0.7-3.7-0.6c1.2-2.4,1.6-5,1.3-7.5l0,0l0-0.2c-0.1-0.5-0.2-0.9-0.3-1.4l-2.2-9.8l-9.3,2.7c-0.8,0.1-1.7,0.4-2.5,0.7
			l0,0l0,0c-2.2,0.9-4.1,2.5-5.6,4.7c-0.5-1.4-1.4-2.6-2.6-3.5l0.1-0.1l-11.1-6.6l-2.4,11.1c-0.5,1.2-0.8,2.4-0.8,3.6l0,0.1l0,0
			c0,1.8,0.5,3.6,1.4,5c-0.4,0-0.8,0-1.2,0l0,0l-0.1,0c-0.8,0-1.5,0.2-2.3,0.5l-9.9-1.2l0,3.4l4.4,8.2c0.5,1.9,1.6,3.6,3.3,4.6
			c0.5,0.3,1.1,0.5,1.7,0.7c0.5,3.9,2.1,7.5,4.7,10.4c5.3-4.7,12.5-11.2,12.5-11.2l-2.9,16.6c3.3,0.5,7.4,0.1,10.6-1.2
			c0.6,1,1.4,1.9,2.5,2.5c1.7,1,3.8,1.2,5.6,0.7l9.3-0.1l0-3.4L268.2,47.4z"/>
		<path fill="#6BC6B5" d="M268.2,44c-0.1-0.8-0.3-1.5-0.6-2.2l0-0.1l0,0c-0.5-1-1.1-1.8-1.9-2.5c2,0.1,4-0.5,5.7-1.7l0,0l0.1-0.1
			c0.6-0.4,1.2-1,1.7-1.6l8.5-7.8l-9.5-5.6c-0.2-0.1-0.3-0.3-0.5-0.4c-0.2-0.1-0.5-0.2-0.7-0.3l-0.3-0.2l0,0
			c-1.2-0.5-2.4-0.7-3.7-0.6c1.2-2.4,1.6-5,1.3-7.5l0,0l0-0.2c-0.1-0.5-0.2-0.9-0.3-1.4l-2.2-9.8l-9.3,2.7c-0.8,0.1-1.7,0.4-2.5,0.7
			l0,0l0,0c-2.2,0.9-4.1,2.5-5.6,4.7c-0.5-1.4-1.4-2.6-2.6-3.5l0.1-0.1L234.6,0l-2.4,11.1c-0.5,1.2-0.8,2.4-0.8,3.6l0,0.1l0,0
			c0,1.8,0.5,3.6,1.4,5c-0.4,0-0.8,0-1.2,0l0,0l-0.1,0c-0.8,0-1.5,0.2-2.3,0.5l-9.9,2.2l4.4,8.2c0.5,1.9,1.6,3.6,3.3,4.6
			c0.5,0.3,1.1,0.5,1.7,0.7c0.5,3.9,2.1,7.5,4.7,10.4c5.3-4.7,12.5-11.2,12.5-11.2l-2.3,16.6c3.3,0.5,6.8,0.1,10-1.2
			c0.6,1,1.4,1.9,2.5,2.5c1.7,1,3.8,1.2,5.6,0.7l9.3-0.1L268.2,44z"/>
		<path opacity="0.69" fill="#F6D86C" d="M239.1,9.1l6.2,15.4L230.9,28l15.1,0.3l-11.1,8.3l15.3-7.2l10.9,15.2l-5.5-15.2l15.5-0.1
			l-15.2-7l2.9-11.4c0,0-6.7,9.6-7.4,10.2L239.1,9.1z"/>
	</g>
	<g>
		<path fill="#C1D862" d="M25.8,73.9c-0.4-0.4-0.8-0.8-1.1-1.2l0,0l0,0c-0.4-0.6-0.7-1.3-0.7-2.1c-0.7,1.2-1.8,2.2-3.1,2.7l0,0
			l-0.1,0c-0.5,0.2-1,0.3-1.6,0.4l-7.8,2.1l-2-1.3l2.3-6.4c0-0.2,0-0.3,0-0.5c0-0.2,0.1-0.4,0.1-0.5l0-0.3l0,0
			c0.2-0.9,0.5-1.7,1-2.4c-1.9-0.2-3.6-0.9-4.9-2l0,0l-0.1-0.1c-0.3-0.2-0.5-0.5-0.7-0.7l-5-5l5.1-4.5c0.4-0.4,0.8-0.8,1.3-1.2l0,0
			l0,0c1.4-0.9,3-1.5,4.9-1.5c-0.6-0.8-1-1.8-1.1-2.9l-0.1,0l0.2-9.1l7.5,2.7c0.9,0.1,1.7,0.4,2.4,0.9l0.1,0l0,0
			c1.1,0.7,1.9,1.6,2.4,2.7c0.1-0.2,0.3-0.5,0.4-0.7l0,0l0,0c0.3-0.4,0.7-0.8,1.2-1.2l3-6.3l2,1.3l3.2,5.6c0.9,1,1.5,2.3,1.5,3.7
			c0,0.4-0.1,0.8-0.2,1.2c2.1,1.8,3.7,4.1,4.4,6.7C35.5,55.6,29,57.4,29,57.4l10.9,4.5c-0.9,2.2-2.7,4.4-4.7,5.8
			c0.4,0.7,0.6,1.5,0.6,2.4c0,1.4-0.7,2.7-1.7,3.6l-3.5,5.5l-2-1.3L25.8,73.9z"/>
		<path fill="#6BC6B5" d="M23.8,72.6c-0.4-0.4-0.8-0.8-1.1-1.2l0,0l0,0C22.3,70.7,22,70,22,69.3c-0.7,1.2-1.8,2.2-3.1,2.7l0,0
			l-0.1,0c-0.5,0.2-1,0.3-1.6,0.4l-7.8,2.1l0.3-7.7c0-0.2,0-0.3,0-0.5c0-0.2,0.1-0.4,0.1-0.5l0-0.3l0,0c0.2-0.9,0.5-1.7,1-2.4
			c-1.9-0.2-3.6-0.9-4.9-2l0,0l-0.1-0.1c-0.3-0.2-0.5-0.5-0.7-0.7l-5-5l5.1-4.5c0.4-0.4,0.8-0.8,1.3-1.2l0,0l0,0
			c1.4-0.9,3-1.5,4.9-1.5c-0.6-0.8-1-1.8-1.1-2.9l-0.1,0l0.2-9.1l7.5,2.7c0.9,0.1,1.7,0.4,2.4,0.9l0.1,0l0,0
			c1.1,0.7,1.9,1.6,2.4,2.7c0.1-0.2,0.3-0.5,0.4-0.7l0,0l0,0c0.3-0.4,0.7-0.8,1.2-1.2l5-5l3.2,5.6c0.9,1,1.5,2.3,1.5,3.7
			c0,0.4-0.1,0.8-0.2,1.2c2.1,1.8,3.7,4.1,4.4,6.7c-4.8,1.4-11.3,3.2-11.3,3.2L37.7,61c-0.9,2.2-2.5,4.1-4.5,5.5
			c0.4,0.7,0.6,1.5,0.6,2.4c0,1.4-0.7,2.7-1.7,3.6l-3.5,5.5L23.8,72.6z"/>
		<path opacity="0.69" fill="#F6D86C" d="M14,42.4l6.8,9.4l7.5-7.2l-5.5,9.1l9.1-3.5l-10,6.4l4.9,12.2L20,59.7l-5.9,9.1l1.6-11.6
			l-7.8-2.6c0,0,8.2-0.4,8.8-0.5L14,42.4z"/>
	</g>
	<g>
		<path fill="#C1D862" d="M58.9,78.7c-0.2,0.1-0.4,0.2-0.6,0.3l0,0l0,0C58,79,57.7,79,57.4,79c0.4,0.4,0.6,0.9,0.7,1.5l0,0l0,0.1
			c0,0.2,0,0.4,0,0.7L58,84.5l-0.7,0.6L55,83.5c-0.1,0-0.1,0-0.2,0c-0.1,0-0.1-0.1-0.2-0.1l-0.1,0l0,0c-0.3-0.2-0.6-0.4-0.8-0.7
			c-0.3,0.7-0.8,1.3-1.4,1.6l0,0l0,0c-0.1,0.1-0.2,0.1-0.4,0.2l-2.5,1.3l-1.1-2.5c-0.1-0.2-0.2-0.4-0.3-0.7l0,0l0,0
			c-0.2-0.6-0.2-1.3,0-2.1c-0.4,0.1-0.8,0.2-1.2,0.1l0,0l-3.5-1.2l1.9-2.6c0.2-0.3,0.4-0.6,0.6-0.8l0,0l0,0c0.4-0.3,0.9-0.6,1.3-0.6
			c-0.1-0.1-0.2-0.2-0.2-0.3l0,0l0,0c-0.1-0.2-0.2-0.4-0.3-0.6l-2.1-1.9l0.7-0.6l2.6-0.6c0.5-0.2,1.1-0.3,1.6-0.1
			c0.2,0.1,0.3,0.1,0.5,0.2c0.9-0.6,2-0.9,3.1-0.9c-0.1,2-0.1,4.7-0.1,4.7l3-3.7c0.7,0.6,1.4,1.6,1.7,2.5c0.3-0.1,0.7,0,1,0.1
			c0.5,0.2,0.9,0.6,1.2,1.1l1.7,2l-0.7,0.6L58.9,78.7z"/>
		<path fill="#6BC6B5" d="M58.2,79.3c-0.2,0.1-0.4,0.2-0.6,0.3l0,0l0,0c-0.3,0.1-0.6,0.1-0.9,0c0.4,0.4,0.6,0.9,0.7,1.5l0,0l0,0.1
			c0,0.2,0,0.4,0,0.7l-0.1,3.3l-2.9-1c-0.1,0-0.1,0-0.2,0C54,84,54,84,53.9,84l-0.1,0l0,0c-0.3-0.2-0.6-0.4-0.8-0.7
			c-0.3,0.7-0.8,1.3-1.4,1.6l0,0l0,0c-0.1,0.1-0.2,0.1-0.4,0.2l-2.5,1.3l-1.1-2.5c-0.1-0.2-0.2-0.4-0.3-0.7l0,0l0,0
			c-0.2-0.6-0.2-1.3,0-2.1c-0.4,0.1-0.8,0.2-1.2,0.1l0,0l-3.5-1.2l1.9-2.6c0.2-0.3,0.4-0.6,0.6-0.8l0,0l0,0c0.4-0.3,0.9-0.6,1.3-0.6
			c-0.1-0.1-0.2-0.2-0.2-0.3l0,0l0,0c-0.1-0.2-0.2-0.4-0.3-0.6l-1.3-2.5l2.6-0.6c0.5-0.2,1.1-0.3,1.6-0.1c0.2,0.1,0.3,0.1,0.5,0.2
			c0.9-0.6,2-0.9,3.1-0.9c-0.1,2-0.1,4.7-0.1,4.7l3.2-3.5c0.7,0.6,1.3,1.5,1.6,2.4c0.3-0.1,0.7,0,1,0.1c0.5,0.2,0.9,0.6,1.2,1.1
			l1.7,2L58.2,79.3z"/>
		<path opacity="0.69" fill="#F6D86C" d="M45.4,79.4l4.4-1.5l-1.9-3.8l2.8,3.2l-0.2-3.9l1.2,4.6l5.3-0.4l-4.3,1.6l2.8,3.4l-4.3-2
			l-1.9,2.7c0,0,0.8-3.2,0.8-3.4L45.4,79.4z"/>
	</g>
	<path fill="#EDE0B7" d="M221.8,37.1c-0.3-0.2-0.6-0.4-0.9-0.5l0,0l0,0c-0.4-0.2-0.9-0.2-1.4-0.2c0.7-0.6,1.1-1.4,1.3-2.3l0,0l0-0.1
		c0.1-0.3,0.1-0.7,0.1-1l0.3-5.1l-1.1-1.1l-3.7,2.3c-0.1,0-0.2,0-0.3,0c-0.1,0-0.2,0.1-0.3,0.1l-0.2,0l0,0c-0.5,0.2-1,0.5-1.3,0.9
		c-0.3-1.1-1-2.1-1.9-2.8l0,0l-0.1,0c-0.2-0.1-0.3-0.2-0.5-0.3l-3.7-2.4l-2.1,3.7c-0.2,0.3-0.4,0.6-0.6,1l0,0l0,0
		c-0.4,1-0.5,2.1-0.3,3.2c-0.6-0.3-1.2-0.4-1.9-0.3l0,0l-5.6,1.3l2.7,4.3c0.2,0.5,0.5,1,0.9,1.4l0,0l0,0c0.6,0.6,1.2,1,2,1.1
		c-0.1,0.1-0.3,0.2-0.4,0.4l0,0l0,0c-0.2,0.3-0.4,0.5-0.6,0.9l-3.5,2.7l1.1,1.1l3.9,1.2c0.7,0.5,1.6,0.6,2.5,0.4
		c0.3-0.1,0.5-0.2,0.7-0.3c1.4,1.1,3,1.7,4.7,1.8c0.2-3.1,0.5-7.4,0.5-7.4l4.2,6.2c1.2-0.9,2.4-2.3,3-3.7c0.5,0.1,1,0.2,1.6,0
		c0.9-0.2,1.6-0.8,2-1.5l2.9-2.9l-1.1-1.1L221.8,37.1z"/>
	
		<path fill="none" stroke="#9A6C3D" stroke-width="1.1468" stroke-linecap="round" stroke-linejoin="round" stroke-miterlimit="10" d="
		M283.6,62.5c0,0-22.5-5.5-32.4,3.2s-25.8,22-21.6,37.5c4.2,15.5,20.5,11.7,19.6,7.5c-0.9-4.2-4.9-2.5-4.9-2.5"/>
	<g>
		<path fill="#C1D862" d="M246.5,93.1c-0.5,0.1-1,0.2-1.5,0.1l-0.1,0l0,0c-0.7-0.1-1.4-0.3-2-0.6c0.5,1.2,0.6,2.6,0.3,3.9l0,0l0,0.1
			c-0.1,0.5-0.3,1-0.6,1.4l-2.9,7.1l-2.1,0.8l-3.6-5.4c-0.1-0.1-0.3-0.1-0.4-0.2c-0.1-0.1-0.2-0.2-0.4-0.4l-0.2-0.2l0,0
			c-0.6-0.6-1-1.3-1.2-2.1c-1.2,1.3-2.7,2.2-4.3,2.5l0,0l-0.1,0c-0.3,0.1-0.6,0.1-0.9,0.1l-6.6,0.9l-0.5-6.4
			c-0.1-0.5-0.2-1.1-0.1-1.7l0,0l0,0c0.1-1.6,0.6-3.1,1.6-4.5c-1,0-1.9-0.3-2.8-0.8l0,0.1l-6.7-5.3l6.3-4.1c0.6-0.6,1.3-1,2-1.3
			l0.1,0l0,0c1.1-0.4,2.3-0.5,3.4-0.3c-0.1-0.2-0.2-0.5-0.3-0.7l0,0l0-0.1c-0.1-0.5-0.2-1-0.2-1.5l-3.1-5.8l2.1-0.8l6.1,0.8
			c1.3-0.2,2.6,0.2,3.6,1c0.3,0.3,0.6,0.6,0.8,0.9c2.5-0.6,5.2-0.4,7.5,0.5c-1.7,4.4-4.1,10.3-4.1,10.3l9.6-5.7
			c1.1,2,1.8,4.6,1.7,6.9c0.8,0.1,1.5,0.4,2.1,0.9c1,0.8,1.6,2,1.8,3.3l2.1,5.8l-2.1,0.8L246.5,93.1z"/>
		<path fill="#6BC6B5" d="M244.4,93.9c-0.5,0.1-1,0.2-1.5,0.1l-0.1,0l0,0c-0.7-0.1-1.4-0.3-2-0.6c0.5,1.2,0.6,2.6,0.3,3.9l0,0l0,0.1
			c-0.1,0.5-0.3,1-0.6,1.4l-2.9,7.1l-5.7-4.6c-0.1-0.1-0.3-0.1-0.4-0.2c-0.1-0.1-0.2-0.2-0.4-0.4l-0.2-0.2l0,0
			c-0.6-0.6-1-1.3-1.2-2.1c-1.2,1.3-2.7,2.2-4.3,2.5l0,0l-0.1,0c-0.3,0.1-0.6,0.1-0.9,0.1l-6.6,0.9l-0.5-6.4
			c-0.1-0.5-0.2-1.1-0.1-1.7l0,0l0,0c0.1-1.6,0.6-3.1,1.6-4.5c-1,0-1.9-0.3-2.8-0.8l0,0.1l-6.7-5.3l6.3-4.1c0.6-0.6,1.3-1,2-1.3
			l0.1,0l0,0c1.1-0.4,2.3-0.5,3.4-0.3c-0.1-0.2-0.2-0.5-0.3-0.7l0,0l0-0.1c-0.1-0.5-0.2-1-0.2-1.5l-0.9-6.6l6.1,0.8
			c1.3-0.2,2.6,0.2,3.6,1c0.3,0.3,0.6,0.6,0.8,0.9c2.5-0.6,5.2-0.4,7.5,0.5c-1.7,4.4-4.1,10.3-4.1,10.3l9.8-5.3
			c1.1,2,1.6,4.2,1.6,6.5c0.8,0.1,1.5,0.4,2.1,0.9c1,0.8,1.6,2,1.8,3.3l2.1,5.8L244.4,93.9z"/>
		<path opacity="0.69" fill="#F6D86C" d="M216,84l11,0.2l-1.2-9.8l3.7,9.3l2.6-8.8l-0.9,11.1l12,3.2l-10.7,0.1l3.5,9.6l-7.8-7.8
			l-6.4,4.4c0,0,4.4-6.4,4.6-6.9L216,84z"/>
	</g>
	<g>
		<path fill="#C1D862" d="M163.3,75.9c-0.1,0.3-0.2,0.6-0.3,0.9l0,0l0,0c-0.2,0.4-0.5,0.7-0.9,1c0.8,0,1.7,0.3,2.4,0.8l0,0l0.1,0.1
			c0.3,0.2,0.5,0.4,0.7,0.7l3.5,3.5l-0.1,1.4l-4.1,0.7c-0.1,0.1-0.2,0.1-0.2,0.2c-0.1,0.1-0.2,0.1-0.3,0.1l-0.1,0.1l0,0
			c-0.5,0.2-1,0.2-1.6,0.2c0.5,1,0.6,2.2,0.4,3.2l0,0l0,0.1c0,0.2-0.1,0.4-0.2,0.6l-1.1,4.1l-3.9-1.3c-0.3-0.1-0.7-0.2-1-0.3l0,0
			l0,0c-0.9-0.4-1.7-1.1-2.3-2.1c-0.3,0.6-0.7,1-1.2,1.4l0,0l-4.8,2.6l-0.8-4.7c-0.2-0.5-0.3-1-0.3-1.5l0-0.1l0,0
			c0-0.8,0.3-1.5,0.7-2.1c-0.2,0-0.3,0-0.5,0l0,0l0,0c-0.3,0-0.6-0.1-0.9-0.3l-4.2,0.3l0.1-1.4l2-3.4c0.2-0.8,0.7-1.5,1.5-1.9
			c0.2-0.1,0.5-0.2,0.7-0.3c0.3-1.6,1-3.1,2.2-4.3c2.1,2.1,5,5,5,5l-0.9-7.1c1.4-0.2,3.1,0.1,4.5,0.7c0.3-0.4,0.6-0.8,1.1-1
			c0.8-0.4,1.6-0.4,2.4-0.2l3.9,0.2l-0.1,1.4L163.3,75.9z"/>
		<path fill="#6BC6B5" d="M163.3,77.4c-0.1,0.3-0.2,0.6-0.3,0.9l0,0l0,0c-0.2,0.4-0.5,0.7-0.9,1c0.8,0,1.7,0.3,2.4,0.8l0,0l0.1,0.1
			c0.3,0.2,0.5,0.4,0.7,0.7l3.5,3.5l-4.1,2.2c-0.1,0.1-0.2,0.1-0.2,0.2c-0.1,0.1-0.2,0.1-0.3,0.1l-0.1,0.1l0,0
			c-0.5,0.2-1,0.2-1.6,0.2c0.5,1,0.6,2.2,0.4,3.2l0,0l0,0.1c0,0.2-0.1,0.4-0.2,0.6l-1.1,4.1l-3.9-1.3c-0.3-0.1-0.7-0.2-1-0.3l0,0
			l0,0c-0.9-0.4-1.7-1.1-2.3-2.1c-0.3,0.6-0.7,1-1.2,1.4l0,0l-4.8,2.6l-0.8-4.7c-0.2-0.5-0.3-1-0.3-1.5l0-0.1l0,0
			c0-0.8,0.3-1.5,0.7-2.1c-0.2,0-0.3,0-0.5,0l0,0l0,0c-0.3,0-0.6-0.1-0.9-0.3l-4.1-1.1l2-3.4c0.2-0.8,0.7-1.5,1.5-1.9
			c0.2-0.1,0.5-0.2,0.7-0.3c0.3-1.6,1-3.1,2.2-4.3c2.1,2.1,5,5,5,5l-0.7-7.1c1.4-0.2,2.9,0.1,4.2,0.7c0.3-0.4,0.6-0.8,1.1-1
			c0.8-0.4,1.6-0.4,2.4-0.2l3.9,0.2L163.3,77.4z"/>
		<path opacity="0.69" fill="#F6D86C" d="M150.4,91.5l2.9-6.4l-6-1.8l6.4,0.1l-4.5-3.7l6.3,3.3l4.9-6.2l-2.6,6.3l6.5,0.3l-6.5,2.6
			l1,4.9c0,0-2.6-4.2-2.9-4.4L150.4,91.5z"/>
	</g>
</g>
</svg>
