<?xml version="1.0" encoding="utf-8"?>
<!-- Generator: Adobe Illustrator 18.0.0, SVG Export Plug-In . SVG Version: 6.00 Build 0)  -->
<!DOCTYPE svg PUBLIC "-//W3C//DTD SVG 1.1//EN" "http://www.w3.org/Graphics/SVG/1.1/DTD/svg11.dtd">
<svg version="1.1" id="Layer_1" xmlns="http://www.w3.org/2000/svg" xmlns:xlink="http://www.w3.org/1999/xlink" x="0px" y="0px"
	 viewBox="0 0 27.9 289.6" enable-background="new 0 0 27.9 289.6" xml:space="preserve">
<g>
	<g>
		<g>
			<defs>
				<rect id="SVGID_1_" x="5.6" y="0" width="16.8" height="249.1"/>
			</defs>
			<clipPath id="SVGID_2_">
				<use xlink:href="#SVGID_1_"  overflow="visible"/>
			</clipPath>
			<g clip-path="url(#SVGID_2_)">
				<polygon fill="#E32345" points="-8.7,246.7 46.5,256.2 46.5,262.8 -8.7,253.3 				"/>
				<polygon fill="#FFFFFF" points="-8.7,240 46.5,249.5 46.5,256.2 -8.7,246.7 				"/>
				<polygon fill="#E32345" points="-8.7,233.3 46.5,242.9 46.5,249.5 -8.7,240 				"/>
				<polygon fill="#FFFFFF" points="-8.7,226.7 46.5,236.2 46.5,242.9 -8.7,233.3 				"/>
				<polygon fill="#E32345" points="-8.7,220 46.5,229.5 46.5,236.2 -8.7,226.7 				"/>
				<polygon fill="#FFFFFF" points="-8.7,213.4 46.5,222.9 46.5,229.5 -8.7,220 				"/>
				<polygon fill="#E32345" points="-8.7,206.7 46.5,216.2 46.5,222.9 -8.7,213.4 				"/>
				<polygon fill="#FFFFFF" points="-8.7,200 46.5,209.6 46.5,216.2 -8.7,206.7 				"/>
				<polygon fill="#E32345" points="-8.7,193.4 46.5,202.9 46.5,209.6 -8.7,200 				"/>
				<polygon fill="#FFFFFF" points="-8.7,186.7 46.5,196.2 46.5,202.9 -8.7,193.4 				"/>
				<polygon fill="#E32345" points="-8.7,180.1 46.5,189.6 46.5,196.2 -8.7,186.7 				"/>
				<polygon fill="#FFFFFF" points="-8.7,173.4 46.5,182.9 46.5,189.6 -8.7,180.1 				"/>
				<polygon fill="#E32345" points="-8.7,166.7 46.5,176.3 46.5,182.9 -8.7,173.4 				"/>
				<polygon fill="#FFFFFF" points="-8.7,160.1 46.5,169.6 46.5,176.3 -8.7,166.7 				"/>
			</g>
			<g clip-path="url(#SVGID_2_)">
				<polygon fill="#E32345" points="-8.7,153.7 46.5,163.2 46.5,169.8 -8.7,160.3 				"/>
				<polygon fill="#FFFFFF" points="-8.7,147 46.5,156.5 46.5,163.2 -8.7,153.7 				"/>
				<polygon fill="#E32345" points="-8.7,140.3 46.5,149.9 46.5,156.5 -8.7,147 				"/>
				<polygon fill="#FFFFFF" points="-8.7,133.7 46.5,143.2 46.5,149.9 -8.7,140.3 				"/>
				<polygon fill="#E32345" points="-8.7,127 46.5,136.5 46.5,143.2 -8.7,133.7 				"/>
				<polygon fill="#FFFFFF" points="-8.7,120.4 46.5,129.9 46.5,136.5 -8.7,127 				"/>
				<polygon fill="#E32345" points="-8.7,113.7 46.5,123.2 46.5,129.9 -8.7,120.4 				"/>
				<polygon fill="#FFFFFF" points="-8.7,107 46.5,116.6 46.5,123.2 -8.7,113.7 				"/>
				<polygon fill="#E32345" points="-8.7,100.4 46.5,109.9 46.5,116.6 -8.7,107 				"/>
				<polygon fill="#FFFFFF" points="-8.7,93.7 46.5,103.2 46.5,109.9 -8.7,100.4 				"/>
				<polygon fill="#E32345" points="-8.7,87.1 46.5,96.6 46.5,103.2 -8.7,93.7 				"/>
				<polygon fill="#FFFFFF" points="-8.7,80.4 46.5,89.9 46.5,96.6 -8.7,87.1 				"/>
				<polygon fill="#E32345" points="-8.7,73.7 46.5,83.3 46.5,89.9 -8.7,80.4 				"/>
				<polygon fill="#FFFFFF" points="-8.7,67.1 46.5,76.6 46.5,83.3 -8.7,73.7 				"/>
			</g>
			<g clip-path="url(#SVGID_2_)">
				<polygon fill="#E32345" points="-8.7,60.7 46.5,70.2 46.5,76.8 -8.7,67.3 				"/>
				<polygon fill="#FFFFFF" points="-8.7,54 46.5,63.5 46.5,70.2 -8.7,60.7 				"/>
				<polygon fill="#E32345" points="-8.7,47.3 46.5,56.9 46.5,63.5 -8.7,54 				"/>
				<polygon fill="#FFFFFF" points="-8.7,40.7 46.5,50.2 46.5,56.9 -8.7,47.3 				"/>
				<polygon fill="#E32345" points="-8.7,34 46.5,43.5 46.5,50.2 -8.7,40.7 				"/>
				<polygon fill="#FFFFFF" points="-8.7,27.4 46.5,36.9 46.5,43.5 -8.7,34 				"/>
				<polygon fill="#E32345" points="-8.7,20.7 46.5,30.2 46.5,36.9 -8.7,27.4 				"/>
				<polygon fill="#FFFFFF" points="-8.7,14 46.5,23.6 46.5,30.2 -8.7,20.7 				"/>
				<polygon fill="#E32345" points="-8.7,7.4 46.5,16.9 46.5,23.6 -8.7,14 				"/>
				<polygon fill="#FFFFFF" points="-8.7,0.7 46.5,10.2 46.5,16.9 -8.7,7.4 				"/>
				<polygon fill="#E32345" points="-8.7,-5.9 46.5,3.6 46.5,10.2 -8.7,0.7 				"/>
				<polygon fill="#FFFFFF" points="-8.7,-12.6 46.5,-3.1 46.5,3.6 -8.7,-5.9 				"/>
				<polygon fill="#E32345" points="-8.7,-19.3 46.5,-9.7 46.5,-3.1 -8.7,-12.6 				"/>
				<polygon fill="#FFFFFF" points="-8.7,-25.9 46.5,-16.4 46.5,-9.7 -8.7,-19.3 				"/>
			</g>
		</g>
		<rect x="18.1" y="0" fill="#E4F4F4" width="1.9" height="252.1"/>
		<path fill="#C58D4D" d="M5.8,249.3h16.4c3.2,0,5.8,2.6,5.8,5.8v3.7c0,3.2-2.6,5.8-5.8,5.8H5.8c-3.2,0-5.8-2.6-5.8-5.8l0-3.7
			C0,251.9,2.6,249.3,5.8,249.3z"/>
		<rect x="0" y="258.4" fill="#9A6C3D" width="27.9" height="1.8"/>
		<rect x="0" y="253.4" fill="#9A6C3D" width="27.9" height="1.8"/>
		<circle fill="#C58D4D" cx="14" cy="275.6" r="14"/>
		<path opacity="0.49" fill="#9A6C3D" d="M8.1,285.2c-1-1.7-1.5-3.6-1.5-5.7c0-6.3,5.1-11.3,11.3-11.3c2.1,0,4,0.6,5.7,1.5
			c-2-3.4-5.6-5.6-9.8-5.6c-6.3,0-11.3,5.1-11.3,11.3C2.5,279.6,4.7,283.3,8.1,285.2z"/>
		<g>
			
				<rect x="12.7" y="280.3" transform="matrix(-0.7071 0.7071 -0.7071 -0.7071 222.9145 470.6883)" fill="none" stroke="#9A6C3D" stroke-linecap="round" stroke-linejoin="round" stroke-miterlimit="10" width="2.5" height="2.5"/>
			
				<rect x="12.7" y="268.5" transform="matrix(-0.7071 0.7071 -0.7071 -0.7071 214.5809 450.5692)" fill="none" stroke="#9A6C3D" stroke-linecap="round" stroke-linejoin="round" stroke-miterlimit="10" width="2.5" height="2.5"/>
			
				<rect x="18.6" y="274.4" transform="matrix(0.7071 0.7071 -0.7071 0.7071 200.7107 66.6785)" fill="none" stroke="#9A6C3D" stroke-linecap="round" stroke-linejoin="round" stroke-miterlimit="10" width="2.5" height="2.5"/>
			
				<rect x="6.8" y="274.4" transform="matrix(0.7071 0.7071 -0.7071 0.7071 197.2588 75.0121)" fill="none" stroke="#9A6C3D" stroke-linecap="round" stroke-linejoin="round" stroke-miterlimit="10" width="2.5" height="2.5"/>
			
				<line fill="none" stroke="#FFFFFF" stroke-linecap="round" stroke-linejoin="round" stroke-miterlimit="10" x1="14" y1="286.5" x2="14" y2="264.7"/>
			
				<line fill="none" stroke="#FFFFFF" stroke-linecap="round" stroke-linejoin="round" stroke-miterlimit="10" x1="3.1" y1="275.6" x2="24.8" y2="275.6"/>
			
				<line fill="none" stroke="#FFFFFF" stroke-linecap="round" stroke-linejoin="round" stroke-miterlimit="10" x1="8.3" y1="281.3" x2="19.7" y2="269.9"/>
			
				<line fill="none" stroke="#FFFFFF" stroke-linecap="round" stroke-linejoin="round" stroke-miterlimit="10" x1="19.7" y1="281.3" x2="8.3" y2="269.9"/>
			
				<rect x="12.7" y="280.3" transform="matrix(-0.7071 0.7071 -0.7071 -0.7071 222.9145 470.6883)" fill="#9A6C3D" stroke="#FFFFFF" stroke-linecap="round" stroke-linejoin="round" stroke-miterlimit="10" width="2.5" height="2.5"/>
			
				<rect x="12.7" y="268.5" transform="matrix(-0.7071 0.7071 -0.7071 -0.7071 214.5809 450.5692)" fill="#9A6C3D" stroke="#FFFFFF" stroke-linecap="round" stroke-linejoin="round" stroke-miterlimit="10" width="2.5" height="2.5"/>
			
				<rect x="18.6" y="274.4" transform="matrix(0.7071 0.7071 -0.7071 0.7071 200.7107 66.6785)" fill="#9A6C3D" stroke="#FFFFFF" stroke-linecap="round" stroke-linejoin="round" stroke-miterlimit="10" width="2.5" height="2.5"/>
			
				<rect x="6.8" y="274.4" transform="matrix(0.7071 0.7071 -0.7071 0.7071 197.2588 75.0121)" fill="#9A6C3D" stroke="#FFFFFF" stroke-linecap="round" stroke-linejoin="round" stroke-miterlimit="10" width="2.5" height="2.5"/>
			
				<rect x="12.4" y="274.1" transform="matrix(-0.7071 0.7071 -0.7071 -0.7071 218.7904 460.7317)" fill="#9A6C3D" stroke="#FFFFFF" stroke-linecap="round" stroke-linejoin="round" stroke-miterlimit="10" width="3.2" height="3.2"/>
		</g>
	</g>
</g>
</svg>
