<?xml version="1.0" encoding="utf-8"?>
<!-- Generator: Adobe Illustrator 18.0.0, SVG Export Plug-In . SVG Version: 6.00 Build 0)  -->
<!DOCTYPE svg PUBLIC "-//W3C//DTD SVG 1.1//EN" "http://www.w3.org/Graphics/SVG/1.1/DTD/svg11.dtd">
<svg version="1.1" id="Layer_1" xmlns="http://www.w3.org/2000/svg" xmlns:xlink="http://www.w3.org/1999/xlink" x="0px" y="0px"
	 viewBox="0 0 357.4 366.5" enable-background="new 0 0 357.4 366.5" xml:space="preserve">
<g>
	<g>
		<circle fill="none" stroke="#FFFFFF" stroke-width="5.4613" stroke-miterlimit="10" cx="178.9" cy="178.4" r="175.7"/>
		<path fill="none" d="M2.9,131.3"/>
		<path fill="none" stroke="#FFFFFF" stroke-width="2" stroke-linecap="round" stroke-linejoin="round" stroke-miterlimit="10" d="
			M114.5,30.7c-46,16.8-80.5,57.7-88.1,107.5"/>
		<path fill="#C58D4D" d="M320.5,346.5h3.1l-17.3-21.2v-6.7H306c0,0,4.3,0,4.3-6.3s-3.5-6.7-3.5-6.7l-11.8,3.1H58.6l-7.2-6.3
			c0,0-4.3,3.9-4.3,8.1s2.4,8.1,2.4,8.1h-0.3v6.7l-17,21.2c-5.5,0-10,4.5-10,10v0c0,5.5,4.5,10,10,10h288.4c5.5,0,10-4.5,10-10v0
			C330.5,351,326,346.5,320.5,346.5z"/>
		<g>
			<defs>
				<path id="SVGID_1_" d="M320.5,346.5h3.1l-17.3-21.2v-6.7H306c0,0,4.3,0,4.3-6.3s-3.5-6.7-3.5-6.7l-11.8,3.1H58.6l-7.2-6.3
					c0,0-4.3,3.9-4.3,8.1s2.4,8.1,2.4,8.1h-0.3v6.7l-17,21.2c-5.5,0-10,4.5-10,10v0c0,5.5,4.5,10,10,10h288.4c5.5,0,10-4.5,10-10v0
					C330.5,351,326,346.5,320.5,346.5z"/>
			</defs>
			<clipPath id="SVGID_2_">
				<use xlink:href="#SVGID_1_"  overflow="visible"/>
			</clipPath>
			<g clip-path="url(#SVGID_2_)">
				<path fill-rule="evenodd" clip-rule="evenodd" fill="#9A6C3D" d="M90.8,403.1c-0.1,0.1-0.4,0-0.5,0
					C90.4,403,90.7,403.1,90.8,403.1z"/>
				<path fill-rule="evenodd" clip-rule="evenodd" fill="#9A6C3D" d="M66.3,404.7c-0.2,0-0.5,0-0.7,0c-0.1-0.1-0.4,0-0.4-0.1
					C65.6,404.6,65.9,404.7,66.3,404.7z"/>
				<path fill-rule="evenodd" clip-rule="evenodd" fill="#9A6C3D" d="M73.9,403.3c0.1,0.1-0.4,0-0.7,0
					C73.1,403.3,73.7,403.4,73.9,403.3z"/>
				<path fill-rule="evenodd" clip-rule="evenodd" fill="#9A6C3D" d="M72,403.3c0.1,0.1-0.4,0-0.7,0C71.2,403.3,71.8,403.3,72,403.3
					z"/>
				<path fill-rule="evenodd" clip-rule="evenodd" fill="#9A6C3D" d="M62.9,403.2c-0.4,0.1-0.8,0-1.3,0
					C61.7,403.2,62.5,403.3,62.9,403.2z"/>
			</g>
		</g>
		<polyline fill="none" stroke="#D5E380" stroke-width="4" stroke-miterlimit="10" points="27.7,289.2 61.5,309.4 295.6,309.4 
			325,300.9 		"/>
		<g>
			<defs>
				<path id="SVGID_3_" d="M320.5,346.5h3.1l-17.3-21.2v-6.7H306c0,0,4.3,0,4.3-6.3s-3.5-6.7-3.5-6.7l-11.8,3.1H58.6l-7.2-6.3
					c0,0-4.3,3.9-4.3,8.1s2.4,8.1,2.4,8.1h-0.3v6.7l-17,21.2c-5.5,0-10,4.5-10,10v0c0,5.5,4.5,10,10,10h288.4c5.5,0,10-4.5,10-10v0
					C330.5,351,326,346.5,320.5,346.5z"/>
			</defs>
			<clipPath id="SVGID_4_">
				<use xlink:href="#SVGID_3_"  overflow="visible"/>
			</clipPath>
			<g opacity="0.58" clip-path="url(#SVGID_4_)">
				<path fill="#9A6C3D" d="M-28.4,331.4c0,0,46.3,1,67.3-2.3c21-3.3,49.8-10.2,70.9-7.2c21.1,2.9,41.1,5.8,70.3,5.5
					c29.2-0.3,169.9-5.5,169.9-5.5l-1.1,4.5c0,0-115.8,1.8-144.2,2.8c-28.4,0.9-54.1,2.1-64.5,0c-10.4-2.1-31.3-6.3-43.2-5.6
					s-38,5.4-54.2,7.3c-16.2,1.9-69.9,2.9-69.9,2.9L-28.4,331.4z"/>
				<path fill="#9A6C3D" d="M57.3,321.1c0,0-16.5,6-39.9,6.3s-47.1,0-47.1,0l0.5-1.7c0,0,20.9,1.4,30.9,1.1s25.4,0.1,35.4-2.5
					C47.1,321.7,57.3,321.1,57.3,321.1z"/>
				<path fill="#9A6C3D" d="M-26.3,318.1c0,0,25.7,2.5,33.9,3.1c8.2,0.6,35.1-3.1,35.1-3.1s-19.4,7.1-30.1,6.2
					c-10.8-0.9-39.4-4.6-39.4-4.6L-26.3,318.1z"/>
				<g>
					<path fill="#9A6C3D" d="M102.4,327.4c0,0-1.3,0-3.5,0.1c-1.1,0.1-2.4,0.1-4,0.3c-1.5,0.2-3.2,0.3-5.1,0.6
						c-1.9,0.3-3.9,0.6-5.9,1.2c-0.9,0.3-1.8,0.8-2.5,1.6c-0.7,0.7-1.3,1.6-1.5,2.5c-0.2,0.9,0,1.5,0.7,2c0.7,0.5,1.7,0.9,2.8,1.1
						c1.1,0.2,2.3,0.3,3.5,0.4l1.9,0.1l1.8,0c2.4,0,4.9-0.1,7.3-0.2c2.4-0.2,4.8-0.5,7.1-0.8c2.3-0.4,4.5-0.9,6.5-1.5
						c1-0.4,1.9-0.7,2.6-1.3l0.1,0c0,0,0,0,0,0l0.1-0.1c0.1-0.1,0.1-0.1,0.1-0.2c0.1-0.1,0.1-0.3,0.1-0.5c0-0.3-0.3-0.7-0.6-1
						c-1.3-1.2-3-1.9-4.4-2.5c-1.4-0.6-2.7-0.9-3.8-1.2c-1.1-0.2-1.9-0.4-2.5-0.4C102.7,327.4,102.4,327.4,102.4,327.4z
						 M102.4,327.4c0,0,1.3,0,3.4,0.4c1.1,0.2,2.4,0.5,3.9,1c1.5,0.5,3.1,1,4.7,2.2c0.4,0.3,0.8,0.7,1,1.3c0.1,0.3,0.1,0.7,0,1
						c-0.1,0.1-0.2,0.3-0.3,0.4l-0.1,0.1c0,0,0,0-0.1,0.1l-0.1,0.1c-0.8,0.8-1.8,1.3-2.8,1.9c-2,1-4.2,1.8-6.5,2.4
						c-2.3,0.6-4.8,1.2-7.3,1.5c-2.5,0.4-5.1,0.5-7.7,0.5l-2-0.1l-1.9-0.1c-1.3-0.1-2.6-0.3-3.9-0.7c-1.3-0.4-2.6-0.9-3.8-1.9
						c-0.6-0.6-1.1-1.3-1.2-2.2c-0.2-0.8,0-1.7,0.2-2.4c0.5-1.4,1.4-2.4,2.4-3.1c1-0.8,2.1-1.4,3.3-1.6c2.2-0.4,4.3-0.5,6.2-0.6
						c1.9-0.1,3.6-0.1,5.2-0.2c1.5,0,2.9-0.1,4-0.1C101.1,327.4,102.4,327.4,102.4,327.4z"/>
				</g>
				<path fill="#9A6C3D" d="M100.1,332c0,0-8.8-1.8-9.4,0c-0.6,1.8,3.8,1.2,3.8,1.2C99.8,334.2,100.1,332,100.1,332z"/>
				<path fill="#9A6C3D" d="M-29.6,339c0,0,50.6-2.5,62.8-3.2s24.8-1.4,31.1-3.9s12-4.4,12-4.4s-8.7,2.2-8.2,6.2
					c0.5,4,17.5,8.5,17.5,8.5s-11.5-0.6-18-3.5c-6.5-3-15.6-1.5-24.8-1.5s-71.4,5-71.4,5L-29.6,339z"/>
				<path fill="#9A6C3D" d="M-28.9,345.7c0,0,33.2-4.3,47.7-5.1s33.3-4.1,42-1.2c8.7,2.9,20,6.9,34.5,5.4s23.7-9.7,29-11
					c5.2-1.3,25.8-0.3,36.8-0.3c11,0,74.2-2.6,86.7-2.3c12.5,0.3,36.3,2.2,49.5,2c13.2-0.2,52.6-3.4,52.6-3.4l1.3,2.6
					c0,0-46.8,3.4-55.9,3.9s-33.9-2.1-43.1-2.8c-9.2-0.7-26,0.1-41.2,0.3c-15.2,0.2-61.9,2.4-68.4,2.1c-6.6-0.4-13.1-0.4-18.3,1.9
					s-17.7,11.7-32.5,10.5s-27.8-6.7-35.8-7.6s-52.2,3.9-65.9,5.1s-20,1.3-20,1.3L-28.9,345.7z"/>
				<path fill="#9A6C3D" d="M286.6,329.7c0,0,16.7,1,22.8,0s7.6,0,7.6,0s-23.2,2.9-26.8,1.4C286.6,329.7,286.6,329.7,286.6,329.7z"
					/>
				<path fill="#9A6C3D" d="M-31.4,349.6c0,0,66.7-4.1,75.3-5s15-0.3,20.7,0.8c5.7,1.2,9.3,2.7,9.3,2.7s-41.2-0.6-53.8,0.1
					c-12.7,0.7-48.5,3.9-48.5,3.9L-31.4,349.6z"/>
				<path fill="#9A6C3D" d="M71.4,319.3c3-0.2,43.5-3.5,58.7,0s39.3,4.8,47.8,4.2c8.5-0.7,81.7-4.5,98.4-5
					c16.7-0.5,50.4,0.5,58.6-0.8c8.2-1.2,14.2-1.7,14.2-1.7l-1,3c0,0-33,0.8-43.5,0.8c-10.5,0-66.3,2.3-76.7,2.3
					c-10.3,0-50,3.3-59,2.2s-36.2-2.8-43.8-4.1s-37.5,1.1-44.8,0S71.4,319.3,71.4,319.3z"/>
				<path fill="#9A6C3D" d="M154.4,318c0,0,20.9,2.9,34.4,2.3c13.5-0.6,34.5-3.5,34.5-3.5s-26.3,1.7-35.7,1.3S154.4,318,154.4,318z"
					/>
				<path fill="#9A6C3D" d="M238.8,316c0,0,34.5-1.6,47-1s34.3,0.5,40.7,0s18.4-2.2,18.4-2.2v1.6c0,0-37.7,2.8-52.1,1.6
					c-14.3-1.1-32.2,0.3-38.5,0.8C247.9,317.3,238.8,316,238.8,316z"/>
				<path fill="#9A6C3D" d="M123.8,344.2c4.3-3.1,6.3-6.3,19.2-6.6c12.8-0.3,55.3,1.2,63.8,0s27.8-4.2,38-2.3
					c10.2,1.8,26.7,3.7,30.3,3.7c3.7,0,5.3,0,5.3,0s-4.5,0.3-17.5,0.5s-16.5-2.3-26.8-2.5c-10.3-0.2-26.2,3.4-40.8,3.6
					c-14.7,0.2-34.5-1.6-40.8-1.1c-6.3,0.5-10,0.3-18.5,2.7C127.4,344.6,123.8,344.2,123.8,344.2z"/>
				<path fill="#9A6C3D" d="M-29.6,356.8c0,0,28.3-6.1,42.3-6.1c14,0,36-0.8,43.8,0c7.8,0.8,48.2,3,57.3,1s19-6.3,37.8-8.2
					c18.8-1.8,44.2,0.2,53.5,0.8c9.3,0.6,17.2,1.1,33.7,0c16.5-1.1,44-2.4,54.8-2.8c10.8-0.3,55.5-0.9,55.5-0.9v2.6
					c0,0-35.2,0.7-52.7,1.1c-17.5,0.4-46.3,0.9-56.5,1.9c-10.2,1-37,4.3-50.2,2c-13.2-2.2-10.3-4.5-28.2-2.2
					c-17.8,2.3-32.8,7.7-53,8.5c-20.2,0.8-38.2-0.1-50.3-1.4c-12.2-1.3-29.3-0.4-39.4,0c-10.1,0.4-23.9,1.2-31.9,2.2
					s-15.3,2.7-15.3,2.7L-29.6,356.8z"/>
				<path fill="#9A6C3D" d="M226.9,340.6c0,0,6-2.6,11-1.6s2.2,0.6-1,1.6C233.8,341.6,229.1,342.4,226.9,340.6z"/>
				<path fill="#9A6C3D" d="M-28.4,360.8c0,0,14.3-2,27.2-2.8c12.8-0.8,33.7-3.5,45.2-2.7c11.5,0.8,25.5,3.5,38.2,4
					c12.7,0.5,41.8-1.4,42.5-1.4s-24,3.2-35.3,2.8c-11.3-0.3-28.5-2.1-39.7-2.8c-11.2-0.7-17.8-0.8-30.7,0.7s-48.5,4-48.5,4
					L-28.4,360.8z"/>
				<path fill="#9A6C3D" d="M-5.9,363.5c0,0,21.2-2.3,33.2-3.2c12-0.8,31.7,1.2,40,1.6s13.7,0.8,13.7,0.8s-33.8-1-44.8-0.8
					C25.1,362.1,2.9,363.3-5.9,363.5z"/>
				<path fill="#9A6C3D" d="M130.9,355.2c0,0,18.1-7.5,28.8-6.9c10.7,0.7,23.4,4.7,34,4.8c10.7,0.1,36.5-1.1,43-2.4
					s18.3-5.5,33.5-1.7c15.2,3.8,41.3,2.1,52.1,0.3s24.3-1.9,24.3-1.9v1.9c0,0-15.3,1.3-26.4,2c-11,0.7-33.8,1.7-43.9,1
					c-10.1-0.7-7.4-5-24.3-1.7c-16.8,3.3-46.2,5.7-59.2,4.5s-26.8-5.4-35.4-4.5C148.9,351.5,130.9,355.2,130.9,355.2z"/>
				<path fill="#9A6C3D" d="M128.3,360.1c0.7-0.3,19.2-5.1,33.5-5c14.3,0.2,48.5,3.7,71.5,3.7c23,0.1,44.5-0.1,55.3-1.3
					c10.8-1.2,40-1.8,46.8-2.5c6.8-0.7,15.9,0,15.9,0v1.7c0,0-13.9-0.8-20.4,0c-6.5,0.8-19.8,0.5-26.3,1.2
					c-6.5,0.7-33.5,2.3-43.8,2.1c-10.3-0.1-28.3,0.8-42.2,0s-40.6-4.4-57.8-3.4S128.3,360.1,128.3,360.1z"/>
				<path fill="#9A6C3D" d="M154.4,359.3c0,0,5.8-1.2,15.2-0.4c9.3,0.7,11.2,1.5,11.2,1.5S161.9,359,154.4,359.3z"/>
			</g>
			<g clip-path="url(#SVGID_4_)">
				<path fill-rule="evenodd" clip-rule="evenodd" fill="#9A6C3D" d="M90.8,403.1c-0.1,0.1-0.4,0-0.5,0
					C90.4,403,90.7,403.1,90.8,403.1z"/>
				<path fill-rule="evenodd" clip-rule="evenodd" fill="#9A6C3D" d="M66.3,404.7c-0.2,0-0.5,0-0.7,0c-0.1-0.1-0.4,0-0.4-0.1
					C65.6,404.6,65.9,404.7,66.3,404.7z"/>
				<path fill-rule="evenodd" clip-rule="evenodd" fill="#9A6C3D" d="M73.9,403.3c0.1,0.1-0.4,0-0.7,0
					C73.1,403.3,73.7,403.4,73.9,403.3z"/>
				<path fill-rule="evenodd" clip-rule="evenodd" fill="#9A6C3D" d="M72,403.3c0.1,0.1-0.4,0-0.7,0C71.2,403.3,71.8,403.3,72,403.3
					z"/>
				<path fill-rule="evenodd" clip-rule="evenodd" fill="#9A6C3D" d="M62.9,403.2c-0.4,0.1-0.8,0-1.3,0
					C61.7,403.2,62.5,403.3,62.9,403.2z"/>
			</g>
		</g>
	</g>
	<g>
		<polygon fill="#F6D86C" points="80.9,357.2 78.4,354.9 71.5,339.4 78,322.8 278.8,321.8 280.8,322.8 287.3,339.4 280.8,357.4 		
			"/>
		<polygon fill="#EDE0B7" points="77.9,354.4 71.5,338.1 77.9,321.8 277.6,321.8 284,338.1 277.6,354.4 		"/>
	</g>
</g>
</svg>
