<?xml version="1.0" encoding="utf-8"?>
<!-- Generator: Adobe Illustrator 18.0.0, SVG Export Plug-In . SVG Version: 6.00 Build 0)  -->
<!DOCTYPE svg PUBLIC "-//W3C//DTD SVG 1.1//EN" "http://www.w3.org/Graphics/SVG/1.1/DTD/svg11.dtd">
<svg version="1.1" id="Layer_1" xmlns="http://www.w3.org/2000/svg" xmlns:xlink="http://www.w3.org/1999/xlink" x="0px" y="0px"
	 viewBox="0 0 356.9 366.5" enable-background="new 0 0 356.9 366.5" xml:space="preserve">
<g>
	<g>
		<circle fill="none" stroke="#FFFFFF" stroke-width="5.4613" stroke-miterlimit="10" cx="178.4" cy="178.4" r="175.7"/>
		<path fill="none" d="M2.4,131.3"/>
		<path fill="none" stroke="#FFFFFF" stroke-width="2" stroke-linecap="round" stroke-linejoin="round" stroke-miterlimit="10" d="
			M114.1,30.7C68,47.6,33.6,88.5,26,138.2"/>
		<path fill="#C58D4D" d="M320,346.5h3.1l-17.3-21.2v-6.7h-0.4c0,0,4.3,0,4.3-6.3s-3.5-6.7-3.5-6.7l-11.8,3.1H58.1l-7.2-6.3
			c0,0-4.3,3.9-4.3,8.1s2.4,8.1,2.4,8.1h-0.3v6.7l-17,21.2c-5.5,0-10,4.5-10,10v0c0,5.5,4.5,10,10,10H320c5.5,0,10-4.5,10-10v0
			C330.1,351,325.5,346.5,320,346.5z"/>
		<g>
			<defs>
				<path id="SVGID_1_" d="M320,346.5h3.1l-17.3-21.2v-6.7h-0.4c0,0,4.3,0,4.3-6.3s-3.5-6.7-3.5-6.7l-11.8,3.1H58.1l-7.2-6.3
					c0,0-4.3,3.9-4.3,8.1s2.4,8.1,2.4,8.1h-0.3v6.7l-17,21.2c-5.5,0-10,4.5-10,10v0c0,5.5,4.5,10,10,10H320c5.5,0,10-4.5,10-10v0
					C330.1,351,325.5,346.5,320,346.5z"/>
			</defs>
			<clipPath id="SVGID_2_">
				<use xlink:href="#SVGID_1_"  overflow="visible"/>
			</clipPath>
		</g>
		<polyline fill="none" stroke="#EDE0B7" stroke-width="5" stroke-miterlimit="10" points="27.4,290.9 61.2,311 295.4,311 
			324.7,302.5 		"/>
	</g>
	<g>
		<polygon fill="#F6D86C" points="80.4,357.2 77.9,354.9 71,339.4 77.5,322.8 278.3,321.8 280.4,322.8 286.8,339.4 280.3,357.4 		
			"/>
		<polygon fill="#EDE0B7" points="77.4,354.4 71,338.1 77.4,321.8 277.2,321.8 283.5,338.1 277.2,354.4 		"/>
	</g>
</g>
</svg>
