<?xml version="1.0" encoding="utf-8"?>
<!-- Generator: Adobe Illustrator 18.0.0, SVG Export Plug-In . SVG Version: 6.00 Build 0)  -->
<!DOCTYPE svg PUBLIC "-//W3C//DTD SVG 1.1//EN" "http://www.w3.org/Graphics/SVG/1.1/DTD/svg11.dtd">
<svg version="1.1" xmlns="http://www.w3.org/2000/svg" xmlns:xlink="http://www.w3.org/1999/xlink" x="0px" y="0px"
	 viewBox="0 0 349.1 349.1" width="2800px" height="2800px" enable-background="new 0 0 349.1 349.1" xml:space="preserve">
<g id="Layer_1">
	<g>
		<g>
			<g>
				<defs>
					<circle id="SVGID_1_" cx="174.5" cy="174.5" r="174.5"/>
				</defs>
				<clipPath id="SVGID_2_">
					<use xlink:href="#SVGID_1_"  overflow="visible"/>
				</clipPath>
				<g clip-path="url(#SVGID_2_)">
					<g opacity="0.42">
						<circle fill="#FFFFFF" cx="-1.6" cy="167.9" r="64.6"/>
						<circle fill="#FFFFFF" cx="33.8" cy="192" r="30.2"/>
						<circle fill="#FFFFFF" cx="158.4" cy="174.2" r="25.6"/>
						<circle fill="#FFFFFF" cx="65.6" cy="148.7" r="17.7"/>
						<circle fill="#FFFFFF" cx="101.7" cy="192" r="48.7"/>
						<circle fill="#FFFFFF" cx="293.3" cy="133.9" r="32.7"/>
						<circle fill="#FFFFFF" cx="350.3" cy="199.7" r="41"/>
						<circle fill="#FFFFFF" cx="352.6" cy="174" r="61.7"/>
						<circle fill="#FFFFFF" cx="236.6" cy="178.3" r="62.4"/>
					</g>
					<rect x="8" y="94.2" fill="none" width="342.9" height="120.9"/>
					<rect x="7.7" y="215.2" opacity="0.61" fill="#34A8A6" width="342.8" height="113.8"/>
					<rect x="7.7" y="132.9" fill="none" width="342.8" height="82.3"/>
					<polygon opacity="0.6" fill="#6BC6B5" points="7.7,215.2 23.8,152.4 38.8,215.2 					"/>
					<polygon opacity="0.6" fill="#6BC6B5" points="310.4,215.2 326.5,152.4 341.5,215.2 					"/>
					<polygon opacity="0.6" fill="#6BC6B5" points="94.4,215.2 105.2,173.2 115.3,215.2 					"/>
					<polygon opacity="0.6" fill="#6BC6B5" points="110.5,215.2 121.3,173.2 131.3,215.2 					"/>
					<polygon opacity="0.6" fill="#6BC6B5" points="203.1,215.2 219.1,152.4 234.2,215.2 					"/>
					<polygon opacity="0.6" fill="#6BC6B5" points="125.1,215.2 131.5,190 137.5,215.2 					"/>
					<polygon opacity="0.6" fill="#6BC6B5" points="36,215.2 45,180.1 53.4,215.2 					"/>
					<g>
						<g>
							<path fill="#F1627A" d="M186,176.4l-24.4,24.3h0v0l-0.1,0.1h0.1v0.2c0,0,0,0,0,0c0,0,0,0,0,0v42.1h48.5v-42.4L186,176.4z"/>
						</g>
						<g>
							<g>
								<rect x="165.2" y="175.1" fill="#E32345" width="10.2" height="3.3"/>
							</g>
							<g>
								<rect x="167" y="178.4" fill="#F1627A" width="6.7" height="12.8"/>
							</g>
						</g>
						<g>
							<path fill="#FFFFFF" d="M210.1,204.3c-0.9,0-1.8-0.4-2.5-1.1L186,181.4l-21.9,21.8c-1.4,1.4-3.7,1.4-5.1,0
								c-1.4-1.4-1.4-3.7,0-5.1l24.4-24.3c0.7-0.7,1.6-1,2.5-1c0,0,0,0,0,0c0.9,0,1.9,0.4,2.5,1.1l24.1,24.3c1.4,1.4,1.4,3.7,0,5.1
								C211.9,204,211,204.3,210.1,204.3z"/>
						</g>
						<g>
							<rect x="160.1" y="220" fill="#E32345" width="51.6" height="3.3"/>
						</g>
						<g>
							<rect x="181.1" y="226.5" fill="#E32345" width="9.4" height="16.6"/>
							<path fill="#F598AD" d="M191,243.6h-10.3v-17.5H191V243.6z M181.6,242.7h8.5V227h-8.5V242.7z"/>
						</g>
						<g>
							<g>
								<rect x="195" y="226.6" fill="#F6D86C" width="9.5" height="10.4"/>
								<path fill="#FFFFFF" d="M205,237.4h-10.4v-11.3H205V237.4z M195.5,236.6h8.6v-9.5h-8.6V236.6z"/>
							</g>
							<g>
								<line fill="#F6D86C" x1="199.8" y1="226.7" x2="199.8" y2="237"/>
								<rect x="199.3" y="226.7" fill="#FFFFFF" width="0.9" height="10.3"/>
							</g>
							<g>
								<line fill="#F6D86C" x1="195" y1="231.8" x2="204.5" y2="231.8"/>
								<rect x="195" y="231.4" fill="#FFFFFF" width="9.5" height="0.9"/>
							</g>
						</g>
						<g>
							<g>
								<rect x="166.3" y="226.6" fill="#F6D86C" width="9.5" height="10.4"/>
								<path fill="#FFFFFF" d="M176.2,237.4h-10.4v-11.3h10.4V237.4z M166.7,236.6h8.6v-9.5h-8.6V236.6z"/>
							</g>
							<g>
								<line fill="#F6D86C" x1="170.8" y1="226.7" x2="170.8" y2="237"/>
								<rect x="170.4" y="226.7" fill="#FFFFFF" width="0.9" height="10.3"/>
							</g>
							<g>
								<line fill="#F6D86C" x1="166.3" y1="231.8" x2="175.7" y2="231.8"/>
								<rect x="166.3" y="231.4" fill="#FFFFFF" width="9.5" height="0.9"/>
							</g>
						</g>
						<g>
							<g>
								<rect x="166.3" y="207.6" fill="#F6D86C" width="9.5" height="10.4"/>
								<path fill="#FFFFFF" d="M176.2,218.5h-10.4v-11.3h10.4V218.5z M166.7,217.6h8.6v-9.5h-8.6V217.6z"/>
							</g>
							<g>
								<rect x="166.3" y="212.4" fill="#FFFFFF" width="9.5" height="0.9"/>
							</g>
							<g>
								<line fill="#F6D86C" x1="170.8" y1="207.7" x2="170.8" y2="218"/>
								<rect x="170.4" y="207.7" fill="#FFFFFF" width="0.9" height="10.3"/>
							</g>
						</g>
						<g>
							<g>
								<rect x="181.1" y="207.6" fill="#F6D86C" width="9.5" height="10.4"/>
								<path fill="#FFFFFF" d="M191,218.5h-10.4v-11.3H191V218.5z M181.5,217.6h8.6v-9.5h-8.6V217.6z"/>
							</g>
							<g>
								<rect x="181.1" y="212.4" fill="#FFFFFF" width="9.5" height="0.9"/>
							</g>
							<g>
								<line fill="#F6D86C" x1="185.7" y1="207.7" x2="185.7" y2="218"/>
								<rect x="185.2" y="207.7" fill="#FFFFFF" width="0.9" height="10.3"/>
							</g>
						</g>
						<g>
							<g>
								<rect x="195" y="207.6" fill="#F6D86C" width="9.5" height="10.4"/>
								<path fill="#FFFFFF" d="M205,218.5h-10.4v-11.3H205V218.5z M195.5,217.6h8.6v-9.5h-8.6V217.6z"/>
							</g>
							<g>
								<line fill="#F6D86C" x1="199.8" y1="207.7" x2="199.8" y2="218"/>
								<rect x="199.3" y="207.7" fill="#FFFFFF" width="0.9" height="10.3"/>
							</g>
							<g>
								<line fill="#F6D86C" x1="195" y1="212.8" x2="204.5" y2="212.8"/>
								<rect x="195" y="212.4" fill="#FFFFFF" width="9.5" height="0.9"/>
							</g>
						</g>
						<g>
							<g>
								<rect x="181.1" y="189.5" fill="#F6D86C" width="9.5" height="10.4"/>
								<path fill="#FFFFFF" d="M191,200.3h-10.4V189H191V200.3z M181.5,199.4h8.6v-9.5h-8.6V199.4z"/>
							</g>
							<g>
								<line fill="#F6D86C" x1="185.7" y1="189.5" x2="185.7" y2="199.8"/>
								<rect x="185.2" y="189.5" fill="#FFFFFF" width="0.9" height="10.3"/>
							</g>
							<g>
								<line fill="#F6D86C" x1="181.1" y1="194.6" x2="190.6" y2="194.6"/>
								<rect x="181.1" y="194.2" fill="#FFFFFF" width="9.5" height="0.9"/>
							</g>
						</g>
						<g>
							<g>
								<path fill="#FFFFFF" d="M174.6,172.5h-8.5c-0.5,0-0.9-0.4-0.9-0.9c0-0.5,0.4-0.9,0.9-0.9h8.5c0.5,0,0.9,0.4,0.9,0.9
									C175.5,172.1,175.1,172.5,174.6,172.5z"/>
							</g>
							<g>
								<path fill="#FFFFFF" d="M178.1,168.8h-11.2c-0.5,0-0.9-0.4-0.9-0.9s0.4-0.9,0.9-0.9h11.2c0.5,0,0.9,0.4,0.9,0.9
									S178.6,168.8,178.1,168.8z"/>
							</g>
							<g>
								<path fill="#FFFFFF" d="M177.4,164.4H165c-0.5,0-0.9-0.4-0.9-0.9s0.4-0.9,0.9-0.9h12.4c0.5,0,0.9,0.4,0.9,0.9
									S177.9,164.4,177.4,164.4z"/>
							</g>
							<g>
								<path fill="#FFFFFF" d="M173.5,167.9c-0.5,0-0.9-0.4-0.9-0.9v-3.1c0-0.5,0.4-0.9,0.9-0.9s0.9,0.4,0.9,0.9v3.1
									C174.4,167.5,174,167.9,173.5,167.9z"/>
							</g>
							<g>
								<path fill="#FFFFFF" d="M170.4,172.6c-0.5,0-0.9-0.4-0.9-0.9v-3.6c0-0.5,0.4-0.9,0.9-0.9s0.9,0.4,0.9,0.9v3.6
									C171.3,172.2,170.9,172.6,170.4,172.6z"/>
							</g>
						</g>
						<g>
							<rect x="179.4" y="199.8" fill="#E32345" width="12.8" height="3.3"/>
						</g>
						<g>
							<path fill="#FFFFFF" d="M180,247.1c-1.6-4.7-8.9-8.3-17.7-8.3c-8.8,0-16.1,3.6-17.7,8.3H180z"/>
						</g>
						<g>
							<path fill="#FFFFFF" d="M192.8,244.3c-1.7-1.8-5.1-3-9-3c-3.9,0-7.3,1.2-9,3H192.8z"/>
						</g>
					</g>
					<g>
						<g>
							<path fill="#FFFFFF" d="M97.5,261.9c-1.6-1.7-4.8-2.9-8.5-2.9c-3.7,0-6.8,1.2-8.5,2.9H97.5z"/>
						</g>
						<g>
							<g>
								<rect x="27.6" y="194.1" fill="#F1627A" width="59.4" height="60"/>
							</g>
							<g>
								<path fill="#FFFFFF" d="M88.1,210.4H27.3c-3.6,0-6.5-2.9-6.5-6.5l7.6-13.1c2.2-3.5,2.9-6.5,6.5-6.5h46.8
									c3.6,0,4.4,2.2,6.5,6.5l6.5,13.1C94.6,207.5,91.7,210.4,88.1,210.4z"/>
							</g>
							<g>
								<polygon fill="#F1627A" points="44.9,212.1 57.7,195.5 71,212.1 								"/>
							</g>
							<g>
								<path fill="#E32345" d="M63,254.1v-13.2c0-2.8-2.3-5-5-5h-1.3c-2.8,0-5,2.3-5,5v13.2H63z"/>
								<path fill="#F598AD" d="M63.4,254.5H51.2v-13.6c0-3,2.5-5.5,5.5-5.5H58c3,0,5.5,2.5,5.5,5.5V254.5z M52.1,253.7h10.5v-12.8
									c0-2.5-2.1-4.6-4.6-4.6h-1.3c-2.5,0-4.6,2.1-4.6,4.6V253.7z"/>
							</g>
							<g>
								<g>
									<path fill="#F6D86C" d="M41.6,248.7v-9.3c0-2-1.3-3.5-3-3.5h-0.7c-1.6,0-3,1.6-3,3.5v9.3H41.6z"/>
									<path fill="#FFFFFF" d="M42.1,249.2h-7.7v-9.8c0-2.2,1.6-4.1,3.5-4.1h0.7c1.9,0,3.5,1.8,3.5,4.1V249.2z M35.4,248.2h5.7
										v-8.8c0-1.7-1.1-3-2.5-3h-0.7c-1.4,0-2.5,1.4-2.5,3V248.2z"/>
								</g>
								<g>
									<line fill="#F6D86C" x1="38.3" y1="248.7" x2="38.3" y2="235.9"/>
									<rect x="37.8" y="235.9" fill="#FFFFFF" width="1" height="12.8"/>
								</g>
								<g>
									<line fill="#F6D86C" x1="34.9" y1="245" x2="41.6" y2="245"/>
									<rect x="34.9" y="244.5" fill="#FFFFFF" width="6.7" height="1"/>
								</g>
							</g>
							<g>
								<g>
									<path fill="#F6D86C" d="M76.4,248.7v-9.3c0-2-1.3-3.5-3-3.5h-0.7c-1.6,0-3,1.6-3,3.5v9.3H76.4z"/>
									<path fill="#FFFFFF" d="M76.9,249.2h-7.7v-9.8c0-2.2,1.6-4.1,3.5-4.1h0.7c1.9,0,3.5,1.8,3.5,4.1V249.2z M70.2,248.2h5.7
										v-8.8c0-1.7-1.1-3-2.5-3h-0.7c-1.4,0-2.5,1.4-2.5,3V248.2z"/>
								</g>
								<g>
									<line fill="#F6D86C" x1="73" y1="248.7" x2="73" y2="235.9"/>
									<rect x="72.5" y="235.9" fill="#FFFFFF" width="1" height="12.8"/>
								</g>
								<g>
									<line fill="#F6D86C" x1="69.7" y1="245" x2="76.4" y2="245"/>
									<rect x="69.7" y="244.5" fill="#FFFFFF" width="6.7" height="1"/>
								</g>
							</g>
							<g>
								<g>
									<path fill="#F6D86C" d="M41.6,227.7v-9.3c0-2-1.3-3.5-3-3.5h-0.7c-1.6,0-3,1.6-3,3.5v9.3H41.6z"/>
									<path fill="#FFFFFF" d="M42.1,228.2h-7.7v-9.8c0-2.2,1.6-4.1,3.5-4.1h0.7c1.9,0,3.5,1.8,3.5,4.1V228.2z M35.4,227.2h5.7
										v-8.8c0-1.7-1.1-3-2.5-3h-0.7c-1.4,0-2.5,1.4-2.5,3V227.2z"/>
								</g>
								<g>
									<line fill="#F6D86C" x1="38.3" y1="227.7" x2="38.3" y2="214.9"/>
									<rect x="37.8" y="214.9" fill="#FFFFFF" width="1" height="12.8"/>
								</g>
								<g>
									<line fill="#F6D86C" x1="34.9" y1="224" x2="41.6" y2="224"/>
									<rect x="34.9" y="223.5" fill="#FFFFFF" width="6.7" height="1"/>
								</g>
							</g>
							<g>
								<g>
									<path fill="#F6D86C" d="M60.7,227.7v-9.3c0-2-1.3-3.5-3-3.5H57c-1.6,0-3,1.6-3,3.5v9.3H60.7z"/>
									<path fill="#FFFFFF" d="M61.2,228.2h-7.7v-9.8c0-2.2,1.6-4.1,3.5-4.1h0.7c1.9,0,3.5,1.8,3.5,4.1V228.2z M54.5,227.2h5.7
										v-8.8c0-1.7-1.1-3-2.5-3H57c-1.4,0-2.5,1.4-2.5,3V227.2z"/>
								</g>
								<g>
									<line fill="#F6D86C" x1="57.3" y1="227.7" x2="57.3" y2="214.9"/>
									<rect x="56.8" y="214.9" fill="#FFFFFF" width="1" height="12.8"/>
								</g>
								<g>
									<line fill="#F6D86C" x1="54" y1="224" x2="60.7" y2="224"/>
									<rect x="54" y="223.5" fill="#FFFFFF" width="6.7" height="1"/>
								</g>
							</g>
							<g>
								<g>
									<path fill="#F6D86C" d="M76.4,227.7v-9.3c0-2-1.3-3.5-3-3.5h-0.7c-1.6,0-3,1.6-3,3.5v9.3H76.4z"/>
									<path fill="#FFFFFF" d="M76.9,228.2h-7.7v-9.8c0-2.2,1.6-4.1,3.5-4.1h0.7c1.9,0,3.5,1.8,3.5,4.1V228.2z M70.2,227.2h5.7
										v-8.8c0-1.7-1.1-3-2.5-3h-0.7c-1.4,0-2.5,1.4-2.5,3V227.2z"/>
								</g>
								<g>
									<line fill="#F6D86C" x1="73" y1="227.7" x2="73" y2="214.9"/>
									<rect x="72.5" y="214.9" fill="#FFFFFF" width="1" height="12.8"/>
								</g>
								<g>
									<line fill="#F6D86C" x1="69.7" y1="224" x2="76.4" y2="224"/>
									<rect x="69.7" y="223.5" fill="#FFFFFF" width="6.7" height="1"/>
								</g>
							</g>
							<g>
								<rect x="25.5" y="227.7" fill="#E32345" width="63.5" height="4.8"/>
							</g>
							<g>
								<g>
									<circle fill="#F6D86C" cx="57.3" cy="206.2" r="3.1"/>
									<path fill="#FFFFFF" d="M57.3,209.8c-2,0-3.5-1.6-3.5-3.5c0-2,1.6-3.5,3.5-3.5c2,0,3.5,1.6,3.5,3.5
										C60.8,208.2,59.2,209.8,57.3,209.8z M57.3,203.6c-1.5,0-2.7,1.2-2.7,2.7s1.2,2.7,2.7,2.7c1.5,0,2.7-1.2,2.7-2.7
										S58.7,203.6,57.3,203.6z"/>
								</g>
								<g>
									<line fill="#F6D86C" x1="54.2" y1="206.2" x2="60.4" y2="206.2"/>
									<rect x="54.2" y="205.8" fill="#FFFFFF" width="6.2" height="0.9"/>
								</g>
							</g>
						</g>
						<g>
							<path fill="#FFFFFF" d="M79.7,258c-1.5-4.4-8.4-7.8-16.7-7.8c-8.3,0-15.2,3.4-16.7,7.8H79.7z"/>
						</g>
					</g>
					<g>
						<polygon opacity="0.6" fill="#6BC6B5" points="288,231.9 294.4,206.8 300.4,231.9 						"/>
						<polygon opacity="0.6" fill="#6BC6B5" points="310,231.9 316.5,206.8 322.5,231.9 						"/>
						<polygon opacity="0.6" fill="#6BC6B5" points="298.3,231.9 307.6,195.7 316.3,231.9 						"/>
						<g>
							<rect x="303.9" y="228.7" fill="#F1627A" width="38.1" height="20.3"/>
						</g>
						<g>
							<rect x="303.9" y="228.7" fill="#F1627A" width="38.1" height="20.3"/>
						</g>
						<g>
							<g>
								<path fill="#F6D86C" d="M315.4,245v-9.2c0-1.9-1.3-3.5-2.9-3.5c-1.6,0-2.9,1.6-2.9,3.5v9.2H315.4z"/>
								<path fill="#FFFFFF" d="M316,245.6h-7.1v-9.8c0-2.3,1.6-4.1,3.5-4.1s3.5,1.8,3.5,4.1V245.6z M310.1,244.4h4.7v-8.6
									c0-1.6-1-2.9-2.3-2.9c-1.3,0-2.3,1.3-2.3,2.9V244.4z"/>
							</g>
							<g>
								<line fill="#F6D86C" x1="312.5" y1="232.3" x2="312.5" y2="245"/>
								<rect x="311.9" y="232.3" fill="#FFFFFF" width="1.2" height="12.7"/>
							</g>
							<g>
								<line fill="#F6D86C" x1="309.5" y1="241" x2="315.4" y2="241"/>
								<rect x="309.5" y="240.4" fill="#FFFFFF" width="5.9" height="1.2"/>
							</g>
						</g>
						<g>
							<g>
								<path fill="#F6D86C" d="M326,245v-9.2c0-1.9-1.3-3.5-2.9-3.5c-1.6,0-2.9,1.6-2.9,3.5v9.2H326z"/>
								<path fill="#FFFFFF" d="M326.6,245.6h-7.1v-9.8c0-2.3,1.6-4.1,3.5-4.1s3.5,1.8,3.5,4.1V245.6z M320.7,244.4h4.7v-8.6
									c0-1.6-1-2.9-2.3-2.9s-2.3,1.3-2.3,2.9V244.4z"/>
							</g>
							<g>
								<line fill="#F6D86C" x1="323.1" y1="232.3" x2="323.1" y2="245"/>
								<rect x="322.5" y="232.3" fill="#FFFFFF" width="1.2" height="12.7"/>
							</g>
							<g>
								<line fill="#F6D86C" x1="320.1" y1="241" x2="326" y2="241"/>
								<rect x="320.1" y="240.4" fill="#FFFFFF" width="5.9" height="1.2"/>
							</g>
						</g>
						<g>
							<g>
								<path fill="#F6D86C" d="M337.7,245v-9.2c0-1.9-1.3-3.5-2.9-3.5c-1.6,0-2.9,1.6-2.9,3.5v9.2H337.7z"/>
								<path fill="#FFFFFF" d="M338.3,245.6h-7.1v-9.8c0-2.3,1.6-4.1,3.5-4.1s3.5,1.8,3.5,4.1V245.6z M332.5,244.4h4.7v-8.6
									c0-1.6-1-2.9-2.3-2.9s-2.3,1.3-2.3,2.9V244.4z"/>
							</g>
							<g>
								<line fill="#F6D86C" x1="334.8" y1="232.3" x2="334.8" y2="245"/>
								<rect x="334.2" y="232.3" fill="#FFFFFF" width="1.2" height="12.7"/>
							</g>
							<g>
								<line fill="#F6D86C" x1="331.9" y1="241" x2="337.7" y2="241"/>
								<rect x="331.9" y="240.4" fill="#FFFFFF" width="5.9" height="1.2"/>
							</g>
						</g>
						<g>
							<path fill="#EAF6F5" d="M303.9,228.7c0,0,34,0,38.5,0s4.1-5.7,2.1-8.3c-2.1-2.6-8.5-11.8-10.2-13.8c-1.6-2-1.2-2.3-4.6-2.3
								c-3.4,0-44.5,0-44.5,0l1.1,5.9l17.6,14.1V228.7z"/>
						</g>
						<g>
							<rect x="274.2" y="177.8" fill="#F1627A" width="23.9" height="38.4"/>
						</g>
						<g>
							<g>
								<rect x="281.9" y="181.1" fill="#F6D86C" width="8.5" height="7.3"/>
								<path fill="#FFFFFF" d="M290.9,189h-9.7v-8.5h9.7V189z M282.5,187.8h7.3v-6.1h-7.3V187.8z"/>
							</g>
							<g>
								<line fill="#F6D86C" x1="286.2" y1="181.1" x2="286.2" y2="188.4"/>
								<rect x="285.6" y="181.1" fill="#FFFFFF" width="1.2" height="7.3"/>
							</g>
						</g>
						<g>
							<g>
								<rect x="281.9" y="192" fill="#F6D86C" width="8.5" height="7.3"/>
								<path fill="#FFFFFF" d="M290.9,199.9h-9.7v-8.5h9.7V199.9z M282.5,198.7h7.3v-6.1h-7.3V198.7z"/>
							</g>
							<g>
								<line fill="#F6D86C" x1="286.2" y1="192" x2="286.2" y2="199.3"/>
								<rect x="285.6" y="192" fill="#FFFFFF" width="1.2" height="7.3"/>
							</g>
						</g>
						<g>
							<rect x="272.5" y="174.2" fill="#FFFFFF" width="27.3" height="4"/>
						</g>
						<g>
							<rect x="277.6" y="163.7" fill="#F1627A" width="16.7" height="10.6"/>
						</g>
						<g>
							<rect x="277.6" y="163.7" fill="#F1627A" width="16.7" height="10.6"/>
						</g>
						<g>
							<path fill="#FFFFFF" d="M273.6,161.3v2.8h24.6v-2.8c0,0-6-2.9-8.3-12.9c-2.3-10-3.6-24.1-3.6-24.1s-2,18.6-2.7,23.2
								C282.2,155.2,273.6,161.3,273.6,161.3z"/>
						</g>
						<g>
							<path fill="#FFFFFF" d="M358.4,252.8c-2-6-11.4-10.6-22.6-10.6c-11.3,0-20.6,4.6-22.6,10.6H358.4z"/>
						</g>
						<g>
							<g>
								<path fill="#F6D86C" d="M284,174.2v-5.6c0-1.2-0.8-2.1-1.8-2.1c-1,0-1.8,0.9-1.8,2.1v5.6H284z"/>
								<path fill="#FFFFFF" d="M284.6,174.8h-4.7v-6.2c0-1.5,1.1-2.7,2.4-2.7c1.3,0,2.4,1.2,2.4,2.7V174.8z M281.1,173.6h2.3v-5
									c0-0.8-0.5-1.5-1.2-1.5c-0.6,0-1.2,0.7-1.2,1.5V173.6z"/>
							</g>
						</g>
						<g>
							<g>
								<path fill="#F6D86C" d="M291.6,174.2v-5.6c0-1.2-0.8-2.1-1.8-2.1c-1,0-1.8,0.9-1.8,2.1v5.6H291.6z"/>
								<path fill="#FFFFFF" d="M292.2,174.8h-4.7v-6.2c0-1.5,1.1-2.7,2.4-2.7s2.4,1.2,2.4,2.7V174.8z M288.7,173.6h2.3v-5
									c0-0.8-0.5-1.5-1.2-1.5s-1.2,0.7-1.2,1.5V173.6z"/>
							</g>
						</g>
						<g>
							<polygon fill="#F1627A" points="268.3,223.7 286,210.5 303.9,223.7 303.9,249 268.3,249 							"/>
						</g>
						<g>
							<path fill="#E32345" d="M291.6,248.5v-13.6c0-2.8-2.4-5.2-5.3-5.2s-5.3,2.3-5.3,5.2v13.6H291.6z"/>
							<path fill="#F598AD" d="M292.1,249h-11.6v-14.1c0-3.1,2.6-5.7,5.8-5.7s5.8,2.5,5.8,5.7V249z M281.5,248h9.6v-13.1
								c0-2.6-2.2-4.7-4.8-4.7s-4.8,2.1-4.8,4.7V248z"/>
						</g>
						<g>
							<g>
								<circle fill="#F6D86C" cx="286.1" cy="222.1" r="4.2"/>
								<path fill="#FFFFFF" d="M286.1,226.9c-2.7,0-4.8-2.2-4.8-4.8c0-2.7,2.2-4.8,4.8-4.8s4.8,2.2,4.8,4.8
									C290.9,224.7,288.8,226.9,286.1,226.9z M286.1,218.4c-2,0-3.6,1.6-3.6,3.6s1.6,3.6,3.6,3.6s3.6-1.6,3.6-3.6
									S288.1,218.4,286.1,218.4z"/>
							</g>
							<g>
								<line fill="#F6D86C" x1="286.1" y1="226.3" x2="286.1" y2="217.8"/>
								<rect x="285.5" y="217.8" fill="#FFFFFF" width="1.2" height="8.5"/>
							</g>
							<g>
								<line fill="#F6D86C" x1="281.9" y1="222.1" x2="290.3" y2="222.1"/>
								<rect x="281.9" y="221.5" fill="#FFFFFF" width="8.5" height="1.2"/>
							</g>
						</g>
						<g>
							<path fill="#FFFFFF" d="M264.7,228.8c-1.2,0-2.3-0.5-3.1-1.5c-1.4-1.7-1.1-4.2,0.6-5.6l21.6-17.1c1.5-1.2,3.7-1.1,5.1,0.2
								l19.1,17.1c1.6,1.5,1.8,4,0.3,5.6c-1.5,1.6-4,1.8-5.6,0.3l-16.6-14.9l-18.9,15C266.5,228.5,265.6,228.8,264.7,228.8z"/>
						</g>
					</g>
					<g>
						<polygon opacity="0.6" fill="#6BC6B5" points="225.8,215.2 236.6,173.2 246.7,215.2 						"/>
						<g>
							<g>
								<rect x="245.3" y="165.7" fill="#E32345" width="8.2" height="2.7"/>
							</g>
							<g>
								<rect x="246.7" y="168.3" fill="#F1627A" width="5.3" height="10.2"/>
							</g>
						</g>
						<g>
							<g>
								<path fill="#FFFFFF" d="M252.7,165h-6.8c-0.4,0-0.7-0.3-0.7-0.7s0.3-0.7,0.7-0.7h6.8c0.4,0,0.7,0.3,0.7,0.7
									S253.1,165,252.7,165z"/>
							</g>
							<g>
								<path fill="#FFFFFF" d="M252.1,162.1h-8.9c-0.4,0-0.7-0.3-0.7-0.7c0-0.4,0.3-0.7,0.7-0.7h8.9c0.4,0,0.7,0.3,0.7,0.7
									C252.8,161.7,252.5,162.1,252.1,162.1z"/>
							</g>
							<g>
								<path fill="#FFFFFF" d="M253.6,158.6h-9.9c-0.4,0-0.7-0.3-0.7-0.7s0.3-0.7,0.7-0.7h9.9c0.4,0,0.7,0.3,0.7,0.7
									S254,158.6,253.6,158.6z"/>
							</g>
							<g>
								<path fill="#FFFFFF" d="M246.8,161.3c-0.4,0-0.7-0.3-0.7-0.7v-2.5c0-0.4,0.3-0.7,0.7-0.7c0.4,0,0.7,0.3,0.7,0.7v2.5
									C247.5,161,247.2,161.3,246.8,161.3z"/>
							</g>
							<g>
								<path fill="#FFFFFF" d="M249.3,165.1c-0.4,0-0.7-0.3-0.7-0.7v-2.9c0-0.4,0.3-0.7,0.7-0.7c0.4,0,0.7,0.3,0.7,0.7v2.9
									C250,164.8,249.7,165.1,249.3,165.1z"/>
							</g>
						</g>
						<g>
							<polygon fill="#F1627A" points="253.2,223.7 227,223.7 227,185.3 240.1,172.5 253.2,185.3 							"/>
						</g>
						<g>
							<g>
								<path fill="#F6D86C" d="M242.9,189.9v-7.9c0-1.7-1.1-3-2.5-3h-0.6c-1.4,0-2.5,1.4-2.5,3v7.9H242.9z"/>
								<path fill="#FFFFFF" d="M243.4,190.4h-6.5v-8.3c0-1.9,1.3-3.4,2.9-3.4h0.6c1.6,0,2.9,1.5,2.9,3.4V190.4z M237.7,189.5h4.8
									v-7.4c0-1.4-0.9-2.6-2.1-2.6h-0.6c-1.2,0-2.1,1.2-2.1,2.6V189.5z"/>
							</g>
							<g>
								<line fill="#F6D86C" x1="240.1" y1="189.9" x2="240.1" y2="179.1"/>
								<rect x="239.7" y="179.1" fill="#FFFFFF" width="0.9" height="10.9"/>
							</g>
							<g>
								<line fill="#F6D86C" x1="237.3" y1="186.8" x2="242.9" y2="186.8"/>
								<rect x="237.3" y="186.4" fill="#FFFFFF" width="5.7" height="0.9"/>
							</g>
						</g>
						<g>
							<g>
								<rect x="230.6" y="195.7" fill="#F6D86C" width="7.6" height="8.3"/>
								<path fill="#FFFFFF" d="M238.5,204.4h-8.3v-9h8.3V204.4z M230.9,203.6h6.9v-7.6h-6.9V203.6z"/>
							</g>
							<g>
								<line fill="#F6D86C" x1="234.4" y1="195.8" x2="234.4" y2="204"/>
								<rect x="234" y="195.8" fill="#FFFFFF" width="0.7" height="8.2"/>
							</g>
							<g>
								<line fill="#F6D86C" x1="230.6" y1="199.9" x2="238.2" y2="199.9"/>
								<rect x="230.6" y="199.5" fill="#FFFFFF" width="7.6" height="0.7"/>
							</g>
						</g>
						<g>
							<g>
								<rect x="230.6" y="209.1" fill="#F6D86C" width="7.6" height="8.3"/>
								<path fill="#FFFFFF" d="M238.5,217.7h-8.3v-9h8.3V217.7z M230.9,217h6.9v-7.6h-6.9V217z"/>
							</g>
							<g>
								<line fill="#F6D86C" x1="234.4" y1="209.2" x2="234.4" y2="217.4"/>
								<rect x="234" y="209.2" fill="#FFFFFF" width="0.7" height="8.2"/>
							</g>
							<g>
								<line fill="#F6D86C" x1="230.6" y1="213.2" x2="238.2" y2="213.2"/>
								<rect x="230.6" y="212.9" fill="#FFFFFF" width="7.6" height="0.7"/>
							</g>
						</g>
						<g>
							<g>
								<rect x="242.2" y="195.7" fill="#F6D86C" width="7.6" height="8.3"/>
								<path fill="#FFFFFF" d="M250.2,204.4h-8.3v-9h8.3V204.4z M242.6,203.6h6.9v-7.6h-6.9V203.6z"/>
							</g>
							<g>
								<line fill="#F6D86C" x1="246" y1="195.8" x2="246" y2="204"/>
								<rect x="245.7" y="195.8" fill="#FFFFFF" width="0.7" height="8.2"/>
							</g>
							<g>
								<line fill="#F6D86C" x1="242.2" y1="199.9" x2="249.8" y2="199.9"/>
								<rect x="242.2" y="199.5" fill="#FFFFFF" width="7.6" height="0.7"/>
							</g>
						</g>
						<g>
							<rect x="242.3" y="209.2" fill="#E32345" width="7.5" height="14.4"/>
							<path fill="#F598AD" d="M250.1,223.9h-8.2v-15.1h8.2V223.9z M242.6,223.2h6.8v-13.6h-6.8V223.2z"/>
						</g>
						<g>
							<path fill="#FFFFFF" d="M256,188.6c-0.8,0-1.5-0.3-2.1-0.9l-13.7-15.1l-13.9,15.1c-1.1,1.2-2.9,1.2-4,0.2
								c-1.2-1.1-1.2-2.9-0.2-4l16-17.4c0.5-0.6,1.3-0.9,2.1-0.9c0,0,0,0,0,0c0.8,0,1.6,0.3,2.1,0.9l15.8,17.4c1.1,1.2,1,3-0.2,4
								C257.3,188.3,256.6,188.6,256,188.6z"/>
						</g>
						<g>
							<path fill="#FFFFFF" d="M250.8,228c-1.6-4.9-9.2-8.6-18.3-8.6c-9.1,0-16.7,3.7-18.3,8.6H250.8z"/>
						</g>
					</g>
					<g>
						<g>
							<polygon fill="#C1D862" points="112.9,178.9 98.2,223.5 127.8,223.5 							"/>
							<polygon fill="#C1D862" points="113,179.1 112.9,178.9 98.2,223.5 113,223.5 							"/>
							<rect x="110.7" y="223.6" fill="#C58D4D" width="4.1" height="4.3"/>
							<rect x="113.8" y="223.6" fill="#9A6C3D" width="1" height="4.3"/>
							<path fill="#FFFFFF" d="M119.9,231c-0.6-2.5-3.7-4.5-7.4-4.5c-3.7,0-6.8,1.9-7.4,4.5H119.9z"/>
						</g>
						<g>
							<circle fill="#F6E002" cx="102.9" cy="210.3" r="1"/>
							<circle fill="#F6D86C" cx="105.5" cy="211.6" r="1"/>
							<circle fill="#EFDE13" cx="107.8" cy="212.5" r="1"/>
							<circle fill="#EDE0B7" cx="110.2" cy="213.5" r="1"/>
							<circle fill="#F6E002" cx="113.2" cy="214.2" r="1"/>
							<circle fill="#F6D86C" cx="116.1" cy="214.8" r="1"/>
							<circle fill="#EDE0B7" cx="119" cy="215.2" r="1"/>
							<circle fill="#EFDE13" cx="122" cy="215.8" r="1"/>
							<circle fill="#F6E002" cx="124.9" cy="216.2" r="1"/>
						</g>
						<g>
							<circle fill="#EFDE13" cx="107.9" cy="196.7" r="1"/>
							<circle fill="#F6D86C" cx="111" cy="196.7" r="1"/>
							<circle fill="#EFDE13" cx="114" cy="196.2" r="1"/>
							<circle fill="#EDE0B7" cx="117.5" cy="195.2" r="1"/>
						</g>
					</g>
					<g>
						<polygon fill="#C1D862" points="137.7,218.7 126.5,252.7 148.9,252.7 						"/>
						<polygon fill="#C1D862" points="137.7,218.8 137.7,218.7 126.5,252.7 137.7,252.7 						"/>
						<rect x="136" y="252.8" fill="#C58D4D" width="3.1" height="3.2"/>
						<rect x="138.4" y="252.8" fill="#9A6C3D" width="0.7" height="3.2"/>
						<path fill="#FFFFFF" d="M143,258.3c-0.5-1.9-2.8-3.4-5.7-3.4c-2.8,0-5.2,1.5-5.7,3.4H143z"/>
					</g>
					<path fill="#FFFFFF" d="M137.7,236.2c0-0.1,0-0.1,0-0.2c0-1.2-0.9-2.1-2.1-2.1c-0.7,0-1.4,0.4-1.7,0.9c-0.3-0.1-0.6-0.2-1-0.2
						c-1.3,0-2.4,1.1-2.4,2.4c0,1.3,1.1,2.4,2.4,2.4c0.4,0,0.8-0.1,1.1-0.3c0.3,0.4,0.8,0.7,1.3,0.7c0.7,0,1.4-0.5,1.5-1.2
						c0.1,0,0.1,0,0.2,0c0.8,0,1.4-0.6,1.4-1.4C138.4,236.8,138.1,236.4,137.7,236.2z"/>
					<path fill="#FFFFFF" d="M146.3,242.1c-0.1,0-0.1,0-0.2,0c-0.3-0.3-0.8-0.6-1.3-0.6c-0.4,0-0.7,0.1-1,0.3
						c-0.3-0.2-0.7-0.3-1.1-0.3c-1,0-1.8,0.6-1.8,1.4c0,0.8,0.8,1.4,1.8,1.4c0.4,0,0.7-0.1,1-0.2c0.3,0.1,0.7,0.2,1.1,0.2
						c0.8,0,1.4-0.2,1.5-0.5c0,0,0,0,0,0c0.8,0,1.5-0.4,1.5-0.9S147.1,242.1,146.3,242.1z"/>
					<path fill="#FFFFFF" d="M130.3,248.5c-0.1,0-0.2,0-0.3,0.1c-0.3-0.3-0.9-0.6-1.4-0.6c-1,0-1.9,0.7-1.9,1.5
						c0,0.8,0.8,1.5,1.9,1.5c0.6,0,1.1-0.2,1.4-0.5c0.1,0,0.2,0.1,0.4,0.1c0.6,0,1-0.5,1-1.1C131.3,249,130.9,248.5,130.3,248.5z"/>
					<path fill="#FFFFFF" d="M138,226.5c0.1,0,0.2,0,0.3-0.1c0.3,0.3,0.7,0.5,1.2,0.5c0.9,0,1.6-0.6,1.6-1.3c0-0.7-0.7-1.3-1.6-1.3
						c-0.5,0-0.9,0.2-1.2,0.5c-0.1,0-0.2-0.1-0.3-0.1c-0.5,0-0.8,0.4-0.8,0.9S137.5,226.5,138,226.5z"/>
					<g>
						<polygon fill="#C1D862" points="255.7,228.5 243.2,266.4 268.3,266.4 						"/>
						<polygon fill="#C1D862" points="255.8,228.6 255.7,228.5 243.2,266.4 255.8,266.4 						"/>
						<rect x="253.8" y="266.5" fill="#C58D4D" width="3.5" height="3.6"/>
						<rect x="256.5" y="266.5" fill="#9A6C3D" width="0.8" height="3.6"/>
						<path fill="#FFFFFF" d="M261.6,272.7c-0.5-2.2-3.2-3.8-6.3-3.8c-3.2,0-5.8,1.6-6.3,3.8H261.6z"/>
					</g>
					<path fill="#FFFFFF" d="M255.7,248c0-0.1,0-0.1,0-0.2c0-1.3-1-2.3-2.3-2.3c-0.8,0-1.5,0.4-1.9,1c-0.3-0.2-0.7-0.2-1.1-0.2
						c-1.5,0-2.7,1.2-2.7,2.7c0,1.5,1.2,2.7,2.7,2.7c0.4,0,0.8-0.1,1.2-0.3c0.3,0.5,0.8,0.8,1.4,0.8c0.8,0,1.5-0.6,1.7-1.4
						c0.1,0,0.2,0,0.2,0c0.8,0,1.5-0.7,1.5-1.5C256.5,248.7,256.2,248.2,255.7,248z"/>
					<path fill="#FFFFFF" d="M265.3,254.6c-0.1,0-0.2,0-0.2,0c-0.3-0.4-0.8-0.6-1.5-0.6c-0.4,0-0.8,0.1-1.1,0.3
						c-0.3-0.2-0.8-0.3-1.2-0.3c-1.1,0-2,0.7-2,1.6c0,0.9,0.9,1.6,2,1.6c0.4,0,0.8-0.1,1.1-0.2c0.3,0.1,0.8,0.2,1.3,0.2
						c0.9,0,1.6-0.3,1.7-0.6c0,0,0,0,0,0c0.9,0,1.7-0.4,1.7-1C267,255.1,266.3,254.6,265.3,254.6z"/>
					<path fill="#FFFFFF" d="M247.5,261.7c-0.1,0-0.3,0-0.4,0.1c-0.4-0.4-1-0.6-1.6-0.6c-1.2,0-2.1,0.8-2.1,1.7
						c0,0.9,0.9,1.7,2.1,1.7c0.6,0,1.2-0.2,1.6-0.6c0.1,0.1,0.3,0.1,0.4,0.1c0.6,0,1.1-0.5,1.1-1.2
						C248.6,262.2,248.1,261.7,247.5,261.7z"/>
					<path fill="#FFFFFF" d="M256,237.2c0.1,0,0.2,0,0.3-0.1c0.3,0.3,0.8,0.5,1.4,0.5c1,0,1.8-0.7,1.8-1.5c0-0.8-0.8-1.5-1.8-1.5
						c-0.5,0-1,0.2-1.3,0.5c-0.1,0-0.2-0.1-0.4-0.1c-0.5,0-0.9,0.5-0.9,1S255.5,237.2,256,237.2z"/>
					<path fill="#FFFFFF" d="M37.5,257c-0.8-2.5-4.7-4.3-9.3-4.3c-4.6,0-8.5,1.9-9.3,4.3H37.5z"/>
					<path fill="#FFFFFF" d="M310.8,262.7c-0.8-2.5-4.7-4.3-9.3-4.3s-8.5,1.9-9.3,4.3H310.8z"/>
					<g>
						<path fill="#FFFFFF" d="M115.1,304.8c-3.9-11.7-22.1-20.5-44-20.5c-21.9,0-40.1,8.8-44,20.5H115.1z"/>
					</g>
					<g>
						<path fill="#FFFFFF" d="M334.6,304.8c-3.9-11.7-22.1-20.5-44-20.5c-21.9,0-40.1,8.8-44,20.5H334.6z"/>
					</g>
					<g>
						<path fill="#FFFFFF" d="M246.7,304.8c-5.4-16-30.3-28.2-60.4-28.2c-30,0-55,12.1-60.4,28.2H246.7z"/>
					</g>
					<g>
						<path fill="#FFFFFF" d="M149.8,304.8c-2.4-7.3-13.8-12.8-27.5-12.8c-13.7,0-25,5.5-27.5,12.8H149.8z"/>
					</g>
					<g>
						<path fill="#FFFFFF" d="M274.1,304.8c-2.4-7.3-13.8-12.8-27.5-12.8c-13.7,0-25,5.5-27.5,12.8H274.1z"/>
					</g>
				</g>
			</g>
		</g>
	</g>
</g>
<g id="Layer_2">
</g>
</svg>
