<?xml version="1.0" encoding="utf-8"?>
<!-- Generator: Adobe Illustrator 18.0.0, SVG Export Plug-In . SVG Version: 6.00 Build 0)  -->
<!DOCTYPE svg PUBLIC "-//W3C//DTD SVG 1.1//EN" "http://www.w3.org/Graphics/SVG/1.1/DTD/svg11.dtd">
<svg version="1.1" id="Layer_1" xmlns="http://www.w3.org/2000/svg" xmlns:xlink="http://www.w3.org/1999/xlink" x="0px" y="0px"
	 viewBox="0 0 373.2 58" enable-background="new 0 0 373.2 58" xml:space="preserve">
<g>
	<polygon fill="#9A6C3D" points="373.2,51.5 3,58 0,54.5 9,51.4 0,46.8 14.4,46.4 0,42.2 10.6,16.9 0,12.3 3,10.3 370.2,0 
		373.2,3.8 373.2,10.5 369.9,9.4 372.9,12.9 372.9,42 370.1,40.3 373.1,43.8 	"/>
	<polygon fill="#C58D4D" points="370.2,48 0,54.5 0,48.9 6,47.9 0,46.8 0,44.3 11.4,42.9 0,42.2 0,14.4 7.6,13.4 0,12.3 0,6.8 
		370.2,0.3 370.2,7 354.6,8.1 369.9,9.4 369.9,38.5 362.3,38.8 370.1,40.3 	"/>
	<g>
		<defs>
			<polygon id="SVGID_1_" points="370.2,47.7 0,54.3 0,48.7 6,47.6 0,46.6 0,44 11.4,42.6 0,41.9 0,14.1 7.6,13.2 0,12 0,6.6 
				370.2,0 370.2,6.7 354.6,7.8 369.9,9.2 369.9,38.2 362.3,38.5 370.1,40 			"/>
		</defs>
		<clipPath id="SVGID_2_">
			<use xlink:href="#SVGID_1_"  overflow="visible"/>
		</clipPath>
	</g>
	<path fill="#9A6C3D" d="M345.3,26.1c-1.2,0,7.4-0.5,15.4-1.3c8-0.8,12.2-1.6,12.2-1.6l-1.2,2.9C371.7,26.1,350.1,26.2,345.3,26.1z"
		/>
	<g>
		<defs>
			<polygon id="SVGID_3_" points="370.2,47.7 0,54.3 0,48.7 6,47.6 0,46.6 0,44 11.4,42.6 0,41.9 0,14.1 7.6,13.2 0,12 0,6.6 
				370.2,0 370.2,6.7 354.6,7.8 369.9,9.2 369.9,38.2 362.3,38.5 370.1,40 			"/>
		</defs>
		<clipPath id="SVGID_4_">
			<use xlink:href="#SVGID_3_"  overflow="visible"/>
		</clipPath>
		<g opacity="0.58" clip-path="url(#SVGID_4_)">
			<path fill="#9A6C3D" d="M-2.1,19.8c0,0,46.3,1,67.3-2.3s49.8-10.2,70.9-7.2s41.1,5.8,70.3,5.5s169.9-5.5,169.9-5.5l-1.1,4.5
				c0,0-115.8,1.8-144.2,2.8c-28.4,0.9-54.1,2.1-64.5,0s-31.3-6.3-43.2-5.6s-38,5.4-54.2,7.3s-69.9,2.9-69.9,2.9L-2.1,19.8z"/>
			<path fill="#9A6C3D" d="M83.6,9.5c0,0-16.5,6-39.9,6.3c-23.4,0.3-47.1,0-47.1,0l0.5-1.7c0,0,20.9,1.4,30.9,1.1
				c10.1-0.3,25.4,0.1,35.4-2.5S83.6,9.5,83.6,9.5z"/>
			<path fill="#9A6C3D" d="M0,6.6c0,0,25.7,2.5,33.9,3.1S69,6.6,69,6.6s-19.4,7.1-30.1,6.2S-0.5,8.2-0.5,8.2L0,6.6z"/>
			<g>
				<path fill="#9A6C3D" d="M128.6,15.9c0,0-1.3,0-3.5,0.1c-1.1,0.1-2.4,0.1-4,0.3c-1.5,0.2-3.2,0.3-5.1,0.6
					c-1.9,0.3-3.9,0.6-5.9,1.2c-0.9,0.3-1.8,0.8-2.5,1.6c-0.7,0.7-1.3,1.6-1.5,2.5c-0.2,0.9,0,1.5,0.7,2c0.7,0.5,1.7,0.9,2.8,1.1
					c1.1,0.2,2.3,0.3,3.5,0.4l1.9,0.1l1.8,0c2.4,0,4.9-0.1,7.3-0.2c2.4-0.2,4.8-0.5,7.1-0.8c2.3-0.4,4.5-0.9,6.5-1.5
					c1-0.4,1.9-0.7,2.6-1.3l0.1,0c0,0,0,0,0,0l0.1-0.1c0.1-0.1,0.1-0.1,0.1-0.2c0.1-0.1,0.1-0.3,0.1-0.5c0-0.3-0.3-0.7-0.6-1
					c-1.3-1.2-3-1.9-4.4-2.5c-1.4-0.6-2.7-0.9-3.8-1.2c-1.1-0.2-1.9-0.4-2.5-0.4C128.9,15.9,128.6,15.9,128.6,15.9z M128.6,15.9
					c0,0,1.3,0,3.4,0.4c1.1,0.2,2.4,0.5,3.9,1c1.5,0.5,3.1,1,4.7,2.2c0.4,0.3,0.8,0.7,1,1.3c0.1,0.3,0.1,0.7,0,1
					c-0.1,0.1-0.2,0.3-0.3,0.4l-0.1,0.1c0,0,0,0-0.1,0.1l-0.1,0.1c-0.8,0.8-1.8,1.3-2.8,1.9c-2,1-4.2,1.8-6.5,2.4
					c-2.3,0.6-4.8,1.2-7.3,1.5c-2.5,0.4-5.1,0.5-7.7,0.5l-2-0.1l-1.9-0.1c-1.3-0.1-2.6-0.3-3.9-0.7c-1.3-0.4-2.6-0.9-3.8-1.9
					c-0.6-0.6-1.1-1.3-1.2-2.2c-0.2-0.8,0-1.7,0.2-2.4c0.5-1.4,1.4-2.4,2.4-3.1c1-0.8,2.1-1.4,3.3-1.6c2.2-0.4,4.3-0.5,6.2-0.6
					c1.9-0.1,3.6-0.1,5.2-0.2c1.5,0,2.9-0.1,4-0.1C127.4,15.8,128.6,15.9,128.6,15.9z"/>
			</g>
			<path fill="#9A6C3D" d="M126.4,20.4c0,0-8.8-1.8-9.4,0c-0.6,1.8,3.8,1.2,3.8,1.2C126.1,22.7,126.4,20.4,126.4,20.4z"/>
			<path fill="#9A6C3D" d="M-3.4,27.4c0,0,50.6-2.5,62.8-3.2s24.8-1.4,31.1-3.9c6.3-2.5,12-4.4,12-4.4s-8.7,2.2-8.2,6.2
				c0.5,4,17.5,8.5,17.5,8.5s-11.5-0.6-18-3.5c-6.5-3-15.6-1.5-24.8-1.5s-71.4,5-71.4,5L-3.4,27.4z"/>
			<path fill="#9A6C3D" d="M-2.6,34.2c0,0,33.2-4.3,47.7-5.1c14.5-0.9,33.3-4.1,42-1.2s20,6.9,34.5,5.4c14.5-1.5,23.7-9.7,29-11
				c5.2-1.3,25.8-0.3,36.8-0.3c11,0,74.2-2.6,86.7-2.3s36.3,2.2,49.5,2c13.2-0.2,52.6-3.4,52.6-3.4l1.3,2.6c0,0-46.8,3.4-55.9,3.9
				s-33.9-2.1-43.1-2.8c-9.2-0.7-26,0.1-41.2,0.3c-15.2,0.2-61.9,2.4-68.4,2.1s-13.1-0.4-18.3,1.9s-17.7,11.7-32.5,10.5
				c-14.8-1.2-27.8-6.7-35.8-7.6c-8-0.9-52.2,3.9-65.9,5.1s-20,1.3-20,1.3L-2.6,34.2z"/>
			<path fill="#9A6C3D" d="M312.9,18.2c0,0,16.7,1,22.8,0c6.2-1,7.6,0,7.6,0s-23.2,2.9-26.8,1.4C312.9,18.2,312.9,18.2,312.9,18.2z"
				/>
			<path fill="#9A6C3D" d="M-5.1,38c0,0,66.7-4.1,75.3-5s15-0.3,20.7,0.8c5.7,1.2,9.3,2.7,9.3,2.7S59,36.1,46.4,36.7
				s-48.5,3.9-48.5,3.9L-5.1,38z"/>
			<path fill="#9A6C3D" d="M97.7,7.7c3-0.2,43.5-3.5,58.7,0c15.2,3.5,39.3,4.8,47.8,4.2c8.5-0.7,81.7-4.5,98.4-5
				c16.7-0.5,50.4,0.5,58.6-0.8s14.2-1.7,14.2-1.7l-1,3c0,0-33,0.8-43.5,0.8c-10.5,0-66.3,2.3-76.7,2.3s-50,3.3-59,2.2
				S159,10,151.4,8.7c-7.7-1.3-37.5,1.1-44.8,0S97.7,7.7,97.7,7.7z"/>
			<path fill="#9A6C3D" d="M180.7,6.4c0,0,20.9,2.9,34.4,2.3s34.5-3.5,34.5-3.5s-26.3,1.7-35.7,1.3C204.5,6.2,180.7,6.4,180.7,6.4z"
				/>
			<path fill="#9A6C3D" d="M265,4.4c0,0,34.5-1.6,47-1s34.3,0.5,40.7,0s18.4-2.2,18.4-2.2v1.6c0,0-37.7,2.8-52.1,1.6
				c-14.3-1.1-32.2,0.3-38.5,0.8C274.2,5.7,265,4.4,265,4.4z"/>
			<path fill="#9A6C3D" d="M150,32.7c4.3-3.1,6.3-6.3,19.2-6.6c12.8-0.3,55.3,1.2,63.8,0s27.8-4.2,38-2.3
				c10.2,1.8,26.7,3.7,30.3,3.7c3.7,0,5.3,0,5.3,0s-4.5,0.3-17.5,0.5c-13,0.2-16.5-2.3-26.8-2.5c-10.3-0.2-26.2,3.4-40.8,3.6
				s-34.5-1.6-40.8-1.1c-6.3,0.5-10,0.3-18.5,2.7S150,32.7,150,32.7z"/>
			<path fill="#9A6C3D" d="M-3.4,45.2c0,0,28.3-6.1,42.3-6.1s36-0.8,43.8,0s48.2,3,57.3,1s19-6.3,37.8-8.2s44.2,0.2,53.5,0.8
				c9.3,0.6,17.2,1.1,33.7,0s44-2.4,54.8-2.8c10.8-0.3,55.5-0.9,55.5-0.9v2.6c0,0-35.2,0.7-52.7,1.1s-46.3,0.9-56.5,1.9
				s-37,4.3-50.2,2c-13.2-2.2-10.3-4.5-28.2-2.2c-17.8,2.3-32.8,7.7-53,8.5c-20.2,0.8-38.2-0.1-50.3-1.4s-29.3-0.4-39.4,0
				c-10.1,0.4-23.9,1.2-31.9,2.2s-15.3,2.7-15.3,2.7L-3.4,45.2z"/>
			<path fill="#9A6C3D" d="M253.2,29c0,0,6-2.6,11-1.6s2.2,0.6-1,1.6S255.4,30.8,253.2,29z"/>
			<path fill="#9A6C3D" d="M-2.1,49.2c0,0,14.3-2,27.2-2.8c12.8-0.8,33.7-3.5,45.2-2.7c11.5,0.8,25.5,3.5,38.2,4s41.8-1.4,42.5-1.4
				c0.7,0-24,3.2-35.3,2.8c-11.3-0.3-28.5-2.1-39.7-2.8S58,45.6,45.1,47.1s-48.5,4-48.5,4L-2.1,49.2z"/>
			<path fill="#9A6C3D" d="M20.4,51.9c0,0,21.2-2.3,33.2-3.2c12-0.8,31.7,1.2,40,1.6s13.7,0.8,13.7,0.8s-33.8-1-44.8-0.8
				S29.2,51.7,20.4,51.9z"/>
			<path fill="#9A6C3D" d="M157.2,43.6c0,0,18.1-7.5,28.8-6.9c10.7,0.7,23.4,4.7,34,4.8c10.7,0.1,36.5-1.1,43-2.4
				c6.5-1.3,18.3-5.5,33.5-1.7c15.2,3.8,41.3,2.1,52.1,0.3c10.7-1.8,24.3-1.9,24.3-1.9v1.9c0,0-15.3,1.3-26.4,2s-33.8,1.7-43.9,1
				c-10.1-0.7-7.4-5-24.3-1.7c-16.8,3.3-46.2,5.7-59.2,4.5s-26.8-5.4-35.4-4.5S157.2,43.6,157.2,43.6z"/>
			<path fill="#9A6C3D" d="M154.5,48.5c0.7-0.3,19.2-5.1,33.5-5s48.5,3.7,71.5,3.7c23,0.1,44.5-0.1,55.3-1.3
				c10.8-1.2,40-1.8,46.8-2.5s15.9,0,15.9,0v1.7c0,0-13.9-0.8-20.4,0c-6.5,0.8-19.8,0.5-26.3,1.2c-6.5,0.7-33.5,2.3-43.8,2.1
				c-10.3-0.1-28.3,0.8-42.2,0c-13.8-0.8-40.6-4.4-57.8-3.4C169.9,46.2,154.5,48.5,154.5,48.5z"/>
			<path fill="#9A6C3D" d="M180.7,47.8c0,0,5.8-1.2,15.2-0.4c9.3,0.7,11.2,1.5,11.2,1.5S188.2,47.4,180.7,47.8z"/>
		</g>
	</g>
</g>
</svg>
